#VRML V2.0 utf8
# 3D model generated by kicad-lcsc-manager
# Based on easyeda2kicad.py v1.0.1

Shape{
    appearance Appearance {
        material  Material {
            diffuseColor 0.25098039215686274 0.25098039215686274 0.25098039215686274
            specularColor 0.12549019607843137 0.12549019607843137 0.12549019607843137
            ambientIntensity 0.251
            transparency 0.0
            shininess 0.5
        }
    }
    geometry IndexedFaceSet {
        ccw TRUE
        solid FALSE
        coord DEF co Coordinate {
            point [
                0.0803 0.0772 0.0197, 0.0803 -0.0409 0.0197, 0.0799 -0.0409 0.0197, -0.2282 -0.1206 0.0197, -0.2282 -0.1249 0.0197, -0.232 -0.1272 0.0197, -0.224 -0.1267 0.0197, -0.2237 -0.0921 0.0197, -0.2275 -0.121 0.0197, -0.2189 -0.0914 0.0197, -0.2151 -0.0919 0.0197, -0.2121 -0.0929 0.0197, -0.2094 -0.0948 0.0197, -0.207 -0.0974 0.0197, -0.2042 -0.1077 0.0197, -0.2045 -0.112 0.0197, -0.2056 -0.1154 0.0197, -0.2144 -0.1227 0.0197, -0.2181 -0.1231 0.0197, -0.2115 -0.1217 0.0197, -0.2091 -0.12 0.0197, -0.2072 -0.1181 0.0197, -0.2233 -0.1226 0.0197, -0.1753 -0.127 0.0197, -0.215 -0.1272 0.0197, -0.1955 -0.127 0.0197, -0.2125 -0.127 0.0197, -0.2087 -0.1256 0.0197, -0.2054 -0.1004 0.0197, -0.2043 -0.1046 0.0197, -0.232 0.0772 0.0197, -0.2282 -0.0887 0.0197, -0.2282 -0.094 0.0197, -0.2009 -0.098 0.0197, -0.2033 -0.0943 0.0197, -0.1806 -0.0876 0.0197, -0.0382 0.0768 0.0197, 0.0799 0.0768 0.0197, -0.2055 -0.1236 0.0197, -0.2025 -0.1205 0.0197, -0.1955 -0.1227 0.0197, -0.2004 -0.1168 0.0197, -0.1806 -0.1227 0.0197, -0.2068 -0.0909 0.0197, -0.2105 -0.0887 0.0197, -0.2149 -0.0874 0.0197, -0.1993 -0.1126 0.0197, -0.1989 -0.108 0.0197, -0.1994 -0.1024 0.0197, -0.2189 -0.0871 0.0197, -0.2236 -0.0874 0.0197, 0.0799 -0.1591 0.0197, 0.0803 -0.1591 0.0197, 0.0799 -0.2768 0.0197, 0.0803 -0.2772 0.0197, -0.0382 -0.2768 0.0197, -0.22 -0.1272 0.0197, -0.2184 -0.1274 0.0197, -0.232 -0.2772 0.0197, -0.2173 -0.1275 0.0197, -0.0382 -0.1272 0.0197, -0.1753 -0.0876 0.0197, -0.257 -0.127 0.0197, -0.2358 -0.127 0.0197, -0.2992 -0.127 0.0197, -0.2944 -0.1162 0.0197, -0.2921 -0.1197 0.0197, -0.2358 -0.0876 0.0197, -0.2889 -0.1228 0.0197, -0.2848 -0.1252 0.0197, -0.2802 -0.1265 0.0197, -0.5886 -0.0409 0.0197, -0.589 -0.0409 0.0197, -0.5886 0.0768 0.0197, -0.589 0.0772 0.0197, -0.4705 0.0768 0.0197, -0.256 -0.0876 0.0197, -0.3141 -0.0876 0.0197, -0.3194 -0.0876 0.0197, -0.4705 -0.1272 0.0197, -0.2411 -0.0919 0.0197, -0.2411 -0.1049 0.0197, -0.256 -0.0919 0.0197, -0.255 -0.1049 0.0197, -0.2646 -0.0876 0.0197, -0.255 -0.1092 0.0197, -0.2411 -0.1092 0.0197, -0.2411 -0.1227 0.0197, -0.257 -0.1227 0.0197, -0.2646 -0.127 0.0197, -0.2754 -0.127 0.0197, -0.2814 -0.0882 0.0197, -0.2861 -0.0898 0.0197, -0.2903 -0.0927 0.0197, -0.3347 -0.127 0.0197, -0.329 -0.127 0.0197, -0.2904 -0.0927 0.0197, -0.2932 -0.0958 0.0197, -0.295 -0.0992 0.0197, -0.2758 -0.0876 0.0197, -0.296 -0.1031 0.0197, -0.2963 -0.1068 0.0197, -0.2958 -0.1121 0.0197, -0.325 -0.1159 0.0197, -0.3087 -0.1159 0.0197, -0.305 -0.127 0.0197, -0.589 -0.2772 0.0197, -0.589 -0.1591 0.0197, -0.5886 -0.1591 0.0197, -0.4705 -0.2768 0.0197, -0.5886 -0.2768 0.0197, -0.589 0.0772 0.2559, -0.589 -0.0409 0.2559, -0.5886 -0.0409 0.2559, 0.0803 -0.1591 0.2559, 0.0799 -0.1591 0.2559, 0.0803 -0.2772 0.2559, 0.0799 -0.2768 0.2559, -0.0382 0.0768 0.2559, -0.4705 0.0768 0.2559, -0.0382 -0.2768 0.2559, -0.4705 -0.2768 0.2559, -0.589 -0.2772 0.2559, -0.5886 -0.2768 0.2559, -0.589 -0.1591 0.2559, -0.5886 -0.1591 0.2559, 0.0799 -0.0409 0.2559, 0.0803 -0.0409 0.2559, 0.0799 0.0768 0.2559, 0.0803 0.0772 0.2559, -0.5886 0.0768 0.2559
            ]
        }
        coordIndex [
            0,1,2,-1,3,4,5,-1,5,4,6,-1,3,7,8,-1,8,7,9,-1,8,9,10,-1,10,11,8,-1,8,11,12,-1,8,12,13,-1,14,15,8,-1,8,15,16,-1,17,18,19,-1,19,18,20,-1,16,21,8,-1,8,21,20,-1,8,20,22,-1,22,20,18,-1,23,24,25,-1,25,24,26,-1,25,26,27,-1,13,28,8,-1,8,28,29,-1,8,29,14,-1,30,31,32,-1,33,34,35,-1,35,34,30,-1,35,30,36,-1,36,30,0,-1,36,0,37,-1,37,0,2,-1,27,38,25,-1,25,38,39,-1,25,39,40,-1,40,39,41,-1,40,41,42,-1,34,43,30,-1,30,43,44,-1,30,44,45,-1,41,46,42,-1,42,46,47,-1,42,47,35,-1,35,47,48,-1,35,48,33,-1,45,49,30,-1,30,49,50,-1,30,50,31,-1,51,52,53,-1,53,52,54,-1,53,54,55,-1,56,57,58,-1,58,57,59,-1,58,59,24,-1,54,58,55,-1,55,58,24,-1,55,24,60,-1,60,24,23,-1,60,23,36,-1,36,23,61,-1,36,61,35,-1,62,63,5,-1,64,65,66,-1,63,67,5,-1,5,67,30,-1,5,30,3,-1,3,30,32,-1,3,32,7,-1,66,68,64,-1,64,68,69,-1,64,69,70,-1,71,72,73,-1,73,72,74,-1,73,74,75,-1,75,74,30,-1,75,30,76,-1,76,30,67,-1,77,78,75,-1,75,78,79,-1,80,81,82,-1,82,81,83,-1,82,83,84,-1,84,83,85,-1,86,87,85,-1,85,87,88,-1,85,88,84,-1,84,88,62,-1,84,62,89,-1,89,62,5,-1,89,5,90,-1,91,92,77,-1,77,92,93,-1,94,95,5,-1,93,96,77,-1,77,96,97,-1,77,97,98,-1,91,77,99,-1,99,77,75,-1,99,75,84,-1,84,75,76,-1,84,76,82,-1,98,100,77,-1,77,100,101,-1,77,101,64,-1,64,101,102,-1,64,102,65,-1,103,104,95,-1,95,104,105,-1,95,105,5,-1,5,105,64,-1,5,64,90,-1,90,64,70,-1,106,107,108,-1,78,94,79,-1,79,94,5,-1,79,5,109,-1,6,56,5,-1,5,56,58,-1,5,58,109,-1,109,58,106,-1,109,106,110,-1,110,106,108,-1,111,112,113,-1,114,115,116,-1,116,115,117,-1,118,119,120,-1,120,119,121,-1,117,120,116,-1,116,120,121,-1,116,121,122,-1,122,121,123,-1,122,123,124,-1,124,123,125,-1,126,127,128,-1,128,127,129,-1,113,130,111,-1,111,130,119,-1,111,119,129,-1,129,119,118,-1,129,118,128,-1,
        ]
    }
}
Shape{
    appearance Appearance {
        material  Material {
            diffuseColor 1.0 1.0 1.0
            specularColor 0.8784313725490196 0.8784313725490196 0.8784313725490196
            ambientIntensity 1.0
            transparency 0.0
            shininess 0.5
        }
    }
    geometry IndexedFaceSet {
        ccw TRUE
        solid FALSE
        coord DEF co Coordinate {
            point [
                0.0803 -0.0409 0.0197, 0.0803 -0.0409 0.2559, 0.0799 -0.0409 0.0197, 0.0799 -0.0409 0.2559, 0.0799 -0.1591 0.0197, 0.0799 -0.1591 0.2559, 0.0803 -0.1591 0.0197, 0.0803 -0.1591 0.2559, -0.5886 -0.0409 0.0197, -0.5886 -0.0409 0.2559, -0.589 -0.0409 0.0197, -0.589 -0.0409 0.2559, -0.589 -0.1591 0.0197, -0.589 -0.1591 0.2559, -0.5886 -0.1591 0.0197, -0.5886 -0.1591 0.2559
            ]
        }
        coordIndex [
            0,1,2,-1,2,1,3,-1,4,5,6,-1,6,5,7,-1,8,9,10,-1,10,9,11,-1,12,13,14,-1,14,13,15,-1,
        ]
    }
}
Shape{
    appearance Appearance {
        material  Material {
            diffuseColor 0.25098039215686274 0.25098039215686274 0.25098039215686274
            specularColor 0.12549019607843137 0.12549019607843137 0.12549019607843137
            ambientIntensity 0.251
            transparency 0.0
            shininess 0.5
        }
    }
    geometry IndexedFaceSet {
        ccw TRUE
        solid FALSE
        coord DEF co Coordinate {
            point [
                0.0803 -0.1591 0.2559, 0.0803 -0.2772 0.2559, 0.0803 -0.1591 0.0197, 0.0803 -0.2772 0.0197, -0.589 -0.0409 0.2559, -0.589 0.0772 0.2559, -0.589 -0.0409 0.0197, -0.589 0.0772 0.0197, 0.0803 -0.0409 0.0197, 0.0803 0.0772 0.0197, 0.0803 -0.0409 0.2559, 0.0803 0.0772 0.2559, -0.232 0.0772 0.0197, -0.589 -0.1591 0.0197, -0.589 -0.2772 0.0197, -0.589 -0.1591 0.2559, -0.589 -0.2772 0.2559, -0.232 -0.2772 0.0197
            ]
        }
        coordIndex [
            0,1,2,-1,2,1,3,-1,4,5,6,-1,6,5,7,-1,8,9,10,-1,10,9,11,-1,7,5,12,-1,12,5,11,-1,12,11,9,-1,13,14,15,-1,15,14,16,-1,16,14,1,-1,1,14,17,-1,1,17,3,-1,
        ]
    }
}
Shape{
    appearance Appearance {
        material  Material {
            diffuseColor 0.8549019607843137 0.8549019607843137 0.8549019607843137
            specularColor 0.42745098039215684 0.42745098039215684 0.42745098039215684
            ambientIntensity 0.8549
            transparency 0.0
            shininess 0.5
        }
    }
    geometry IndexedFaceSet {
        ccw TRUE
        solid FALSE
        coord DEF co Coordinate {
            point [
                -0.4705 -0.2768 0.2559, -0.4705 -0.2768 0.2756, -0.5886 -0.2768 0.2559, -0.5886 -0.2768 0.2756, -0.4705 0.0768 0.2559, -0.4705 0.0768 0.2756, -0.5886 0.0768 0.2559, -0.5886 0.0768 0.2756, -0.5886 0.0768 0.0197, -0.5886 0.0768 0.0, -0.5886 -0.0409 0.0197, -0.5886 -0.0598 0.0, -0.5886 -0.0409 0.2559, -0.5886 -0.0598 0.2756, -0.5886 -0.1591 0.2559, -0.5886 -0.1401 0.2756, -0.5886 -0.1591 0.0197, -0.5886 -0.1401 0.0, -0.5886 -0.2768 0.0197, -0.5886 -0.2768 0.0, -0.579 -0.061 0.2756, -0.579 -0.061 0.0, -0.5699 -0.0644 0.2756, -0.5699 -0.0644 0.0, -0.562 -0.0699 0.2756, -0.562 -0.0699 0.0, -0.5556 -0.0772 0.2756, -0.5556 -0.0772 0.0, -0.5511 -0.0857 0.2756, -0.5511 -0.0857 0.0, -0.5487 -0.0951 0.2756, -0.5487 -0.0951 0.0, -0.5487 -0.1048 0.2756, -0.5487 -0.1048 0.0, -0.5511 -0.1142 0.2756, -0.5511 -0.1142 0.0, -0.5556 -0.1228 0.2756, -0.5556 -0.1228 0.0, -0.562 -0.13 0.2756, -0.562 -0.13 0.0, -0.5699 -0.1355 0.2756, -0.5699 -0.1355 0.0, -0.579 -0.139 0.2756, -0.579 -0.139 0.0, -0.4705 -0.2768 0.0, -0.4705 -0.2768 0.0197, -0.4705 -0.1272 0.0197, -0.4705 0.0768 0.0, -0.4705 0.0768 0.0197, -0.0382 0.0768 0.2559, -0.0382 0.0768 0.2756, 0.0799 0.0768 0.2559, 0.0799 0.0768 0.2756, -0.0382 -0.2768 0.2559, -0.0382 -0.2768 0.2756, 0.0799 -0.2768 0.2559, 0.0799 -0.2768 0.2756, 0.0799 -0.0409 0.2559, 0.0799 -0.0593 0.2756, 0.0799 -0.0409 0.0197, 0.0799 -0.0593 0.0, 0.0799 0.0768 0.0197, 0.0799 0.0768 0.0, 0.0799 -0.2768 0.0197, 0.0799 -0.2768 0.0, 0.0799 -0.1591 0.0197, 0.0799 -0.1396 0.0, 0.0799 -0.1591 0.2559, 0.0799 -0.1396 0.2756, -0.0382 0.0768 0.0, -0.0382 0.0768 0.0197, -0.0382 -0.1272 0.0197, -0.0382 -0.2768 0.0, -0.0382 -0.2768 0.0197, 0.0703 -0.1384 0.2756, 0.0703 -0.1384 0.0, 0.0612 -0.135 0.2756, 0.0612 -0.135 0.0, 0.0533 -0.1295 0.2756, 0.0533 -0.1295 0.0, 0.0469 -0.1222 0.2756, 0.0469 -0.1222 0.0, 0.0424 -0.1136 0.2756, 0.0424 -0.1136 0.0, 0.04 -0.1042 0.2756, 0.04 -0.1042 0.0, 0.04 -0.0946 0.2756, 0.04 -0.0946 0.0, 0.0424 -0.0852 0.2756, 0.0424 -0.0852 0.0, 0.0469 -0.0766 0.2756, 0.0469 -0.0766 0.0, 0.0533 -0.0693 0.2756, 0.0533 -0.0693 0.0, 0.0612 -0.0638 0.2756, 0.0612 -0.0638 0.0, 0.0703 -0.0604 0.2756, 0.0703 -0.0604 0.0
            ]
        }
        coordIndex [
            0,1,2,-1,2,1,3,-1,4,5,0,-1,0,5,1,-1,6,7,4,-1,4,7,5,-1,8,9,10,-1,10,9,11,-1,10,11,12,-1,12,11,13,-1,12,13,6,-1,6,13,7,-1,2,3,14,-1,14,3,15,-1,14,15,16,-1,16,15,17,-1,16,17,18,-1,18,17,19,-1,13,11,20,-1,20,11,21,-1,20,21,22,-1,22,21,23,-1,22,23,24,-1,24,23,25,-1,24,25,26,-1,26,25,27,-1,26,27,28,-1,28,27,29,-1,28,29,30,-1,30,29,31,-1,30,31,32,-1,32,31,33,-1,32,33,34,-1,34,33,35,-1,34,35,36,-1,36,35,37,-1,36,37,38,-1,38,37,39,-1,38,39,40,-1,40,39,41,-1,40,41,42,-1,42,41,43,-1,42,43,15,-1,15,43,17,-1,19,44,18,-1,18,44,45,-1,45,44,46,-1,46,44,47,-1,46,47,48,-1,47,9,48,-1,48,9,8,-1,34,36,1,-1,26,5,24,-1,24,5,22,-1,22,5,20,-1,20,5,7,-1,20,7,13,-1,26,28,5,-1,5,28,30,-1,5,30,1,-1,1,30,32,-1,1,32,34,-1,36,38,1,-1,1,38,40,-1,1,40,3,-1,3,40,42,-1,3,42,15,-1,29,27,47,-1,37,44,39,-1,39,44,41,-1,27,25,47,-1,47,25,23,-1,47,23,9,-1,9,23,21,-1,9,21,11,-1,41,44,43,-1,43,44,19,-1,43,19,17,-1,37,35,44,-1,44,35,33,-1,44,33,47,-1,47,33,31,-1,47,31,29,-1,49,50,51,-1,51,50,52,-1,53,54,49,-1,49,54,50,-1,55,56,53,-1,53,56,54,-1,51,52,57,-1,57,52,58,-1,57,58,59,-1,59,58,60,-1,59,60,61,-1,61,60,62,-1,63,64,65,-1,65,64,66,-1,65,66,67,-1,67,66,68,-1,67,68,55,-1,55,68,56,-1,62,69,61,-1,61,69,70,-1,70,69,71,-1,71,69,72,-1,71,72,73,-1,72,64,73,-1,73,64,63,-1,68,66,74,-1,74,66,75,-1,74,75,76,-1,76,75,77,-1,76,77,78,-1,78,77,79,-1,78,79,80,-1,80,79,81,-1,80,81,82,-1,82,81,83,-1,82,83,84,-1,84,83,85,-1,84,85,86,-1,86,85,87,-1,86,87,88,-1,88,87,89,-1,88,89,90,-1,90,89,91,-1,90,91,92,-1,92,91,93,-1,92,93,94,-1,94,93,95,-1,94,95,96,-1,96,95,97,-1,96,97,58,-1,58,97,60,-1,50,88,90,-1,80,54,78,-1,78,54,76,-1,90,92,50,-1,50,92,94,-1,50,94,52,-1,52,94,96,-1,52,96,58,-1,76,54,74,-1,74,54,56,-1,74,56,68,-1,80,82,54,-1,54,82,84,-1,54,84,50,-1,50,84,86,-1,50,86,88,-1,62,60,97,-1,83,81,72,-1,93,91,69,-1,62,97,69,-1,69,97,95,-1,69,95,93,-1,91,89,69,-1,69,89,87,-1,69,87,72,-1,72,87,85,-1,72,85,83,-1,81,79,72,-1,72,79,77,-1,72,77,64,-1,64,77,75,-1,64,75,66,-1,
        ]
    }
}
Shape{
    appearance Appearance {
        material  Material {
            diffuseColor 1.0 1.0 1.0
            specularColor 0.8784313725490196 0.8784313725490196 0.8784313725490196
            ambientIntensity 1.0
            transparency 0.0
            shininess 0.5
        }
    }
    geometry IndexedFaceSet {
        ccw TRUE
        solid FALSE
        coord DEF co Coordinate {
            point [
                -0.3194 -0.0876 0.0236, -0.3347 -0.127 0.0236, -0.3194 -0.0876 0.0197, -0.3347 -0.127 0.0197, -0.329 -0.127 0.0236, -0.329 -0.127 0.0197, -0.325 -0.1159 0.0236, -0.325 -0.1159 0.0197, -0.3087 -0.1159 0.0236, -0.3087 -0.1159 0.0197, -0.305 -0.127 0.0236, -0.305 -0.127 0.0197, -0.2992 -0.127 0.0236, -0.2992 -0.127 0.0197, -0.3141 -0.0876 0.0236, -0.3141 -0.0876 0.0197, -0.3101 -0.1116 0.0236, -0.3232 -0.1116 0.0236, -0.3159 -0.0952 0.0236, -0.3163 -0.0938 0.0236, -0.3166 -0.0924 0.0236, -0.3167 -0.0924 0.0236, -0.317 -0.0938 0.0236, -0.3173 -0.0952 0.0236, -0.3101 -0.1116 0.0197, -0.3232 -0.1116 0.0197, -0.3159 -0.0952 0.0197, -0.3163 -0.0938 0.0197, -0.3166 -0.0924 0.0197, -0.3167 -0.0924 0.0197, -0.317 -0.0938 0.0197, -0.3173 -0.0952 0.0197, -0.2754 -0.127 0.0236, -0.2646 -0.127 0.0236, -0.2754 -0.127 0.0197, -0.2646 -0.127 0.0197, -0.2646 -0.0876 0.0236, -0.2646 -0.0876 0.0197, -0.2758 -0.0876 0.0236, -0.2758 -0.0876 0.0197, -0.2963 -0.1068 0.0236, -0.2963 -0.1068 0.0197, -0.296 -0.1031 0.0197, -0.296 -0.1031 0.0236, -0.295 -0.0992 0.0197, -0.295 -0.0992 0.0236, -0.2932 -0.0958 0.0197, -0.2932 -0.0958 0.0236, -0.2904 -0.0927 0.0197, -0.2904 -0.0927 0.0236, -0.2903 -0.0927 0.0197, -0.2903 -0.0927 0.0236, -0.2861 -0.0898 0.0197, -0.2861 -0.0898 0.0236, -0.2814 -0.0882 0.0197, -0.2814 -0.0882 0.0236, -0.2802 -0.1265 0.0197, -0.2802 -0.1265 0.0236, -0.2848 -0.1252 0.0197, -0.2848 -0.1252 0.0236, -0.2889 -0.1228 0.0197, -0.2889 -0.1228 0.0236, -0.2921 -0.1197 0.0197, -0.2921 -0.1197 0.0236, -0.2944 -0.1162 0.0197, -0.2944 -0.1162 0.0236, -0.2958 -0.1121 0.0197, -0.2958 -0.1121 0.0236, -0.2884 -0.0974 0.0236, -0.2865 -0.0954 0.0236, -0.2836 -0.0936 0.0236, -0.2804 -0.0924 0.0236, -0.2757 -0.0919 0.0236, -0.2699 -0.0919 0.0236, -0.2699 -0.1227 0.0236, -0.2755 -0.1227 0.0236, -0.2797 -0.1223 0.0236, -0.283 -0.1212 0.0236, -0.2857 -0.1196 0.0236, -0.2879 -0.1175 0.0236, -0.2895 -0.1147 0.0236, -0.2907 -0.111 0.0236, -0.2911 -0.1069 0.0236, -0.2907 -0.103 0.0236, -0.2898 -0.0999 0.0236, -0.2757 -0.0919 0.0197, -0.2699 -0.0919 0.0197, -0.2804 -0.0924 0.0197, -0.2836 -0.0936 0.0197, -0.2865 -0.0954 0.0197, -0.2884 -0.0974 0.0197, -0.2898 -0.0999 0.0197, -0.2907 -0.103 0.0197, -0.2911 -0.1069 0.0197, -0.2907 -0.111 0.0197, -0.2895 -0.1147 0.0197, -0.2879 -0.1175 0.0197, -0.2857 -0.1196 0.0197, -0.283 -0.1212 0.0197, -0.2797 -0.1223 0.0197, -0.2755 -0.1227 0.0197, -0.2699 -0.1227 0.0197, -0.257 -0.1227 0.0236, -0.257 -0.127 0.0236, -0.257 -0.1227 0.0197, -0.257 -0.127 0.0197, -0.2358 -0.127 0.0236, -0.2358 -0.127 0.0197, -0.2358 -0.0876 0.0236, -0.2358 -0.0876 0.0197, -0.256 -0.0876 0.0236, -0.256 -0.0876 0.0197, -0.256 -0.0919 0.0236, -0.256 -0.0919 0.0197, -0.2411 -0.0919 0.0236, -0.2411 -0.0919 0.0197, -0.2411 -0.1049 0.0236, -0.2411 -0.1049 0.0197, -0.255 -0.1049 0.0236, -0.255 -0.1049 0.0197, -0.255 -0.1092 0.0236, -0.255 -0.1092 0.0197, -0.2411 -0.1092 0.0236, -0.2411 -0.1092 0.0197, -0.2411 -0.1227 0.0236, -0.2411 -0.1227 0.0197, -0.2282 -0.1206 0.0236, -0.2282 -0.1249 0.0236, -0.2282 -0.1206 0.0197, -0.2282 -0.1249 0.0197, -0.224 -0.1267 0.0236, -0.2173 -0.1275 0.0236, -0.2173 -0.1275 0.0197, -0.2184 -0.1274 0.0197, -0.2184 -0.1274 0.0236, -0.22 -0.1272 0.0197, -0.224 -0.1267 0.0197, -0.1989 -0.108 0.0236, -0.1989 -0.108 0.0197, -0.1993 -0.1126 0.0197, -0.1993 -0.1126 0.0236, -0.2004 -0.1168 0.0197, -0.2004 -0.1168 0.0236, -0.2025 -0.1205 0.0197, -0.2025 -0.1205 0.0236, -0.2055 -0.1236 0.0197, -0.2055 -0.1236 0.0236, -0.2087 -0.1256 0.0197, -0.2087 -0.1256 0.0236, -0.2125 -0.127 0.0197, -0.2125 -0.127 0.0236, -0.215 -0.1272 0.0197, -0.2189 -0.0871 0.0236, -0.2189 -0.0871 0.0197, -0.2149 -0.0874 0.0197, -0.2149 -0.0874 0.0236, -0.2105 -0.0887 0.0197, -0.2105 -0.0887 0.0236, -0.2068 -0.0909 0.0197, -0.2068 -0.0909 0.0236, -0.2033 -0.0943 0.0197, -0.2033 -0.0943 0.0236, -0.2009 -0.098 0.0197, -0.2009 -0.098 0.0236, -0.1994 -0.1024 0.0197, -0.1994 -0.1024 0.0236, -0.2282 -0.0887 0.0236, -0.2282 -0.0887 0.0197, -0.2236 -0.0874 0.0197, -0.2236 -0.0874 0.0236, -0.2282 -0.094 0.0236, -0.2282 -0.094 0.0197, -0.2189 -0.0914 0.0236, -0.2189 -0.0914 0.0197, -0.2237 -0.0921 0.0197, -0.2237 -0.0921 0.0236, -0.2042 -0.1077 0.0236, -0.2042 -0.1077 0.0197, -0.2043 -0.1046 0.0197, -0.2043 -0.1046 0.0236, -0.2054 -0.1004 0.0197, -0.2054 -0.1004 0.0236, -0.207 -0.0974 0.0197, -0.207 -0.0974 0.0236, -0.2094 -0.0948 0.0197, -0.2094 -0.0948 0.0236, -0.2121 -0.0929 0.0197, -0.2121 -0.0929 0.0236, -0.2151 -0.0919 0.0197, -0.2151 -0.0919 0.0236, -0.2181 -0.1231 0.0236, -0.2181 -0.1231 0.0197, -0.2144 -0.1227 0.0197, -0.2144 -0.1227 0.0236, -0.2115 -0.1217 0.0197, -0.2115 -0.1217 0.0236, -0.2091 -0.12 0.0197, -0.2091 -0.12 0.0236, -0.2072 -0.1181 0.0197, -0.2072 -0.1181 0.0236, -0.2056 -0.1154 0.0197, -0.2056 -0.1154 0.0236, -0.2045 -0.112 0.0197, -0.2045 -0.112 0.0236, -0.2275 -0.121 0.0197, -0.2275 -0.121 0.0236, -0.2233 -0.1226 0.0197, -0.2233 -0.1226 0.0236, -0.1955 -0.1227 0.0236, -0.1955 -0.127 0.0236, -0.1955 -0.1227 0.0197, -0.1955 -0.127 0.0197, -0.1753 -0.127 0.0236, -0.1753 -0.127 0.0197, -0.1753 -0.0876 0.0236, -0.1753 -0.0876 0.0197, -0.1806 -0.0876 0.0236, -0.1806 -0.0876 0.0197, -0.1806 -0.1227 0.0236, -0.1806 -0.1227 0.0197
            ]
        }
        coordIndex [
            0,1,2,-1,2,1,3,-1,1,4,3,-1,3,4,5,-1,4,6,5,-1,5,6,7,-1,6,8,7,-1,7,8,9,-1,8,10,9,-1,9,10,11,-1,10,12,11,-1,11,12,13,-1,12,14,13,-1,13,14,15,-1,14,0,15,-1,15,0,2,-1,16,8,17,-1,17,8,6,-1,18,14,16,-1,16,14,12,-1,16,12,8,-1,8,12,10,-1,18,19,14,-1,14,19,20,-1,14,20,0,-1,0,20,21,-1,0,21,22,-1,22,23,0,-1,0,23,17,-1,0,17,1,-1,1,17,6,-1,1,6,4,-1,16,17,24,-1,24,17,25,-1,18,16,26,-1,26,16,24,-1,18,26,27,-1,18,27,19,-1,19,27,28,-1,19,28,20,-1,21,20,29,-1,29,20,28,-1,21,29,30,-1,21,30,22,-1,22,30,31,-1,22,31,23,-1,17,23,25,-1,25,23,31,-1,32,33,34,-1,34,33,35,-1,33,36,35,-1,35,36,37,-1,36,38,37,-1,37,38,39,-1,40,41,42,-1,40,42,43,-1,43,42,44,-1,43,44,45,-1,45,44,46,-1,45,46,47,-1,47,46,48,-1,47,48,49,-1,49,48,50,-1,49,50,51,-1,51,50,52,-1,51,52,53,-1,53,52,54,-1,53,54,55,-1,55,54,39,-1,55,39,38,-1,32,34,56,-1,32,56,57,-1,57,56,58,-1,57,58,59,-1,59,58,60,-1,59,60,61,-1,61,60,62,-1,61,62,63,-1,63,62,64,-1,63,64,65,-1,65,64,66,-1,65,66,67,-1,67,66,41,-1,67,41,40,-1,45,47,68,-1,68,47,49,-1,68,49,69,-1,69,49,51,-1,69,51,70,-1,70,51,53,-1,70,53,71,-1,71,53,55,-1,71,55,72,-1,72,55,38,-1,72,38,73,-1,73,38,36,-1,73,36,74,-1,74,36,33,-1,74,33,75,-1,75,33,32,-1,75,32,76,-1,76,32,57,-1,76,57,77,-1,77,57,59,-1,77,59,78,-1,78,59,61,-1,78,61,79,-1,79,61,63,-1,79,63,80,-1,80,63,65,-1,80,65,81,-1,81,65,67,-1,81,67,82,-1,82,67,40,-1,82,40,83,-1,83,40,43,-1,83,43,84,-1,84,43,45,-1,84,45,68,-1,72,73,85,-1,85,73,86,-1,72,85,87,-1,72,87,71,-1,71,87,88,-1,71,88,70,-1,70,88,89,-1,70,89,69,-1,69,89,90,-1,69,90,68,-1,68,90,91,-1,68,91,84,-1,84,91,92,-1,84,92,83,-1,83,92,93,-1,83,93,82,-1,82,93,94,-1,82,94,81,-1,81,94,95,-1,81,95,80,-1,80,95,96,-1,80,96,79,-1,79,96,97,-1,79,97,78,-1,78,97,98,-1,78,98,77,-1,77,98,99,-1,77,99,76,-1,76,99,100,-1,76,100,75,-1,74,75,101,-1,101,75,100,-1,73,74,86,-1,86,74,101,-1,102,103,104,-1,104,103,105,-1,103,106,105,-1,105,106,107,-1,106,108,107,-1,107,108,109,-1,108,110,109,-1,109,110,111,-1,110,112,111,-1,111,112,113,-1,112,114,113,-1,113,114,115,-1,114,116,115,-1,115,116,117,-1,116,118,117,-1,117,118,119,-1,118,120,119,-1,119,120,121,-1,120,122,121,-1,121,122,123,-1,122,124,123,-1,123,124,125,-1,124,102,125,-1,125,102,104,-1,106,103,102,-1,102,124,106,-1,106,124,122,-1,106,122,108,-1,112,110,114,-1,114,110,108,-1,114,108,116,-1,116,108,122,-1,116,122,118,-1,118,122,120,-1,126,127,128,-1,128,127,129,-1,129,127,130,-1,131,132,133,-1,131,133,134,-1,134,133,135,-1,134,135,130,-1,130,135,136,-1,130,136,129,-1,137,138,139,-1,137,139,140,-1,140,139,141,-1,140,141,142,-1,142,141,143,-1,142,143,144,-1,144,143,145,-1,144,145,146,-1,146,145,147,-1,146,147,148,-1,148,147,149,-1,148,149,150,-1,150,149,131,-1,131,149,151,-1,131,151,132,-1,152,153,154,-1,152,154,155,-1,155,154,156,-1,155,156,157,-1,157,156,158,-1,157,158,159,-1,159,158,160,-1,159,160,161,-1,161,160,162,-1,161,162,163,-1,163,162,164,-1,163,164,165,-1,165,164,138,-1,165,138,137,-1,166,167,168,-1,166,168,169,-1,169,168,153,-1,169,153,152,-1,166,170,167,-1,167,170,171,-1,172,173,174,-1,172,174,175,-1,175,174,171,-1,175,171,170,-1,176,177,178,-1,176,178,179,-1,179,178,180,-1,179,180,181,-1,181,180,182,-1,181,182,183,-1,183,182,184,-1,183,184,185,-1,185,184,186,-1,185,186,187,-1,187,186,188,-1,187,188,189,-1,189,188,173,-1,189,173,172,-1,190,191,192,-1,190,192,193,-1,193,192,194,-1,193,194,195,-1,195,194,196,-1,195,196,197,-1,197,196,198,-1,197,198,199,-1,199,198,200,-1,199,200,201,-1,201,200,202,-1,201,202,203,-1,203,202,177,-1,203,177,176,-1,126,128,204,-1,126,204,205,-1,205,204,206,-1,205,206,207,-1,207,206,191,-1,207,191,190,-1,193,131,190,-1,190,131,134,-1,190,134,207,-1,207,134,130,-1,207,130,205,-1,205,130,127,-1,205,127,126,-1,170,166,175,-1,175,166,169,-1,175,169,172,-1,172,169,152,-1,172,152,189,-1,189,152,155,-1,189,155,187,-1,187,155,157,-1,187,157,185,-1,185,157,159,-1,185,159,183,-1,183,159,161,-1,183,161,181,-1,181,161,163,-1,181,163,179,-1,179,163,165,-1,179,165,176,-1,176,165,137,-1,176,137,203,-1,203,137,140,-1,203,140,201,-1,201,140,142,-1,201,142,199,-1,199,142,144,-1,199,144,197,-1,197,144,146,-1,197,146,195,-1,195,146,148,-1,195,148,193,-1,193,148,150,-1,193,150,131,-1,208,209,210,-1,210,209,211,-1,209,212,211,-1,211,212,213,-1,212,214,213,-1,213,214,215,-1,214,216,215,-1,215,216,217,-1,216,218,217,-1,217,218,219,-1,218,208,219,-1,219,208,210,-1,216,214,218,-1,218,214,212,-1,218,212,208,-1,208,212,209,-1,
        ]
    }
}
Shape{
    appearance Appearance {
        material  Material {
            diffuseColor 0.25098039215686274 0.25098039215686274 0.25098039215686274
            specularColor 0.12549019607843137 0.12549019607843137 0.12549019607843137
            ambientIntensity 0.251
            transparency 0.0
            shininess 0.5
        }
    }
    geometry IndexedFaceSet {
        ccw TRUE
        solid FALSE
        coord DEF co Coordinate {
            point [
                -0.3101 -0.1116 0.0197, -0.3232 -0.1116 0.0197, -0.3159 -0.0952 0.0197, -0.3173 -0.0952 0.0197, -0.3163 -0.0938 0.0197, -0.317 -0.0938 0.0197, -0.3166 -0.0924 0.0197, -0.3167 -0.0924 0.0197, -0.2699 -0.0919 0.0197, -0.2699 -0.1227 0.0197, -0.2757 -0.0919 0.0197, -0.2755 -0.1227 0.0197, -0.2797 -0.1223 0.0197, -0.2911 -0.1069 0.0197, -0.2907 -0.103 0.0197, -0.2898 -0.0999 0.0197, -0.2804 -0.0924 0.0197, -0.283 -0.1212 0.0197, -0.2857 -0.1196 0.0197, -0.2879 -0.1175 0.0197, -0.2895 -0.1147 0.0197, -0.2907 -0.111 0.0197, -0.2884 -0.0974 0.0197, -0.2865 -0.0954 0.0197, -0.2836 -0.0936 0.0197
            ]
        }
        coordIndex [
            0,1,2,-1,2,1,3,-1,2,3,4,-1,4,3,5,-1,4,5,6,-1,6,5,7,-1,8,9,10,-1,10,9,11,-1,10,11,12,-1,13,14,10,-1,10,14,15,-1,10,15,16,-1,12,17,10,-1,10,17,18,-1,10,18,19,-1,19,20,10,-1,10,20,21,-1,10,21,13,-1,22,23,15,-1,15,23,24,-1,15,24,16,-1,
        ]
    }
}