#VRML V2.0 utf8
# 3D model generated by kicad-lcsc-manager
# Based on easyeda2kicad.py v1.0.1

Shape{
    appearance Appearance {
        material  Material {
            diffuseColor 0.25098039215686274 0.25098039215686274 0.25098039215686274
            specularColor 0.12549019607843137 0.12549019607843137 0.12549019607843137
            ambientIntensity 0.251
            transparency 0.0
            shininess 0.5
        }
    }
    geometry IndexedFaceSet {
        ccw TRUE
        solid FALSE
        coord DEF co Coordinate {
            point [
                0.0642 -0.0069 0.0039, 0.0642 -0.0112 0.0039, 0.0604 -0.0114 0.0039, 0.0652 0.0239 0.0039, 0.08 0.0239 0.0039, 0.08 0.0109 0.0039, 0.0853 -0.0112 0.0039, 0.0853 0.0282 0.0039, 0.093 -0.0048 0.0039, 0.093 -0.0091 0.0039, 0.0972 -0.0109 0.0039, 0.1012 -0.0114 0.0039, 0.1764 0.128 0.0039, 0.0604 0.2559 0.0039, 0.3732 0.128 0.0039, 0.3339 0.2559 0.0039, 0.3732 0.2165 0.0039, 0.3722 0.2253 0.0039, 0.08 0.0066 0.0039, 0.08 -0.0069 0.0039, 0.0661 0.0066 0.0039, 0.0661 0.0109 0.0039, 0.1764 -0.0114 0.0039, 0.1458 -0.0112 0.0039, 0.1458 0.0282 0.0039, 0.1125 -0.0098 0.0039, 0.1257 -0.0112 0.0039, 0.1087 -0.0111 0.0039, 0.1062 -0.0114 0.0039, 0.0652 0.0282 0.0039, 0.1061 0.0239 0.0039, 0.109 0.0229 0.0039, 0.0937 -0.0052 0.0039, 0.1118 0.021 0.0039, 0.1142 0.0184 0.0039, 0.117 0.0081 0.0039, 0.1166 0.0038 0.0039, 0.1155 0.0004 0.0039, 0.1068 -0.0069 0.0039, 0.1031 -0.0073 0.0039, 0.1097 -0.0059 0.0039, 0.1121 -0.0042 0.0039, 0.1139 -0.0023 0.0039, 0.0979 -0.0068 0.0039, 0.3509 0.252 0.0039, 0.3584 0.2473 0.0039, 0.3426 0.2549 0.0039, 0.3646 0.2411 0.0039, 0.3693 0.2336 0.0039, 0.1202 0.0178 0.0039, 0.1179 0.0215 0.0039, 0.1405 0.0282 0.0039, 0.1158 0.0154 0.0039, 0.1168 0.0112 0.0039, 0.1144 0.0249 0.0039, 0.1157 -0.0078 0.0039, 0.1186 -0.0047 0.0039, 0.1257 -0.0069 0.0039, 0.1207 -0.001 0.0039, 0.1405 -0.0069 0.0039, 0.1219 0.0032 0.0039, 0.1223 0.0078 0.0039, 0.1217 0.0134 0.0039, 0.1106 0.0271 0.0039, 0.1062 0.0284 0.0039, 0.1023 0.0287 0.0039, 0.0976 0.0284 0.0039, 0.093 0.0271 0.0039, 0.093 0.0218 0.0039, 0.0974 0.0237 0.0039, 0.1022 0.0244 0.0039, 0.0162 -0.0112 0.0039, 0.0219 -0.0112 0.0039, -0.0402 0.1732 0.0039, -0.4929 0.1732 0.0039, -0.4929 0.2165 0.0039, -0.0402 -0.0114 0.0039, -0.0136 -0.0112 0.0039, -0.0078 -0.0112 0.0039, 0.0268 -0.0004 0.0039, 0.0291 -0.0039 0.0039, 0.0323 -0.007 0.0039, 0.0364 -0.0094 0.0039, 0.0018 0.0282 0.0039, 0.0071 0.0282 0.0039, -0.4535 0.2559 0.0039, 0.0565 0.0282 0.0039, 0.0454 0.0282 0.0039, 0.0308 0.0231 0.0039, 0.028 0.02 0.0039, 0.0262 0.0166 0.0039, -0.4919 0.2253 0.0039, -0.489 0.2336 0.0039, -0.4843 0.2411 0.0039, 0.0409 -0.0107 0.0039, 0.0458 -0.0112 0.0039, 0.0565 -0.0112 0.0039, 0.0397 0.0276 0.0039, 0.0351 0.026 0.0039, 0.0308 0.0231 0.0039, 0.0251 0.0127 0.0039, 0.0248 0.009 0.0039, 0.0254 0.0037 0.0039, -0.4781 0.2473 0.0039, -0.4706 0.252 0.0039, -0.4623 0.2549 0.0039, -0.4929 -0.2165 0.0039, -0.4929 -0.1732 0.0039, -0.0402 -0.1732 0.0039, -0.4535 -0.2559 0.0039, -0.4843 -0.2411 0.0039, -0.489 -0.2336 0.0039, -0.4623 -0.2549 0.0039, -0.4706 -0.252 0.0039, -0.4781 -0.2473 0.0039, -0.0038 -0.0001 0.0039, 0.0124 -0.0001 0.0039, 0.0604 -0.2559 0.0039, -0.4919 -0.2253 0.0039, 0.1764 -0.128 0.0039, 0.3339 -0.2559 0.0039, 0.3732 -0.128 0.0039, 0.3732 -0.2165 0.0039, 0.1028 -0.0116 0.0039, 0.1038 -0.0117 0.0039, 0.3722 -0.2253 0.0039, 0.3693 -0.2336 0.0039, 0.3646 -0.2411 0.0039, 0.3584 -0.2473 0.0039, 0.3509 -0.252 0.0039, 0.3426 -0.2549 0.0039, 0.138 -0.2394 0.2717, 0.138 0.2394 0.2717, -0.4535 -0.2394 0.2717, -0.4535 0.2394 0.2717, -0.4634 0.2371 0.2717, -0.4678 0.2344 0.2717, -0.4714 0.2308 0.2717, -0.4741 0.2264 0.2717, -0.4758 0.2216 0.2717, -0.4586 0.2388 0.2717, -0.4764 0.2165 0.2717, -0.4764 -0.2165 0.2717, -0.4586 -0.2388 0.2717, -0.4758 -0.2216 0.2717, -0.4741 -0.2264 0.2717, -0.4714 -0.2308 0.2717, -0.4678 -0.2344 0.2717, -0.4634 -0.2371 0.2717, 0.3732 0.128 0.0827, 0.3732 0.2165 0.0827, -0.4929 -0.2165 0.0827, -0.4929 -0.1732 0.0827, -0.4929 0.2165 0.0827, -0.4919 0.2253 0.0827, -0.489 0.2336 0.0827, -0.4843 0.2411 0.0827, -0.4781 0.2473 0.0827, -0.4706 0.252 0.0827, -0.4623 0.2549 0.0827, -0.4535 0.2559 0.0827, 0.3339 0.2559 0.0827, 0.3426 0.2549 0.0827, 0.3509 0.252 0.0827, 0.3584 0.2473 0.0827, 0.3646 0.2411 0.0827, 0.3693 0.2336 0.0827, 0.3722 0.2253 0.0827, 0.3732 -0.128 0.0827, 0.3732 -0.2165 0.0827, 0.3722 -0.2253 0.0827, 0.3693 -0.2336 0.0827, 0.3646 -0.2411 0.0827, 0.3584 -0.2473 0.0827, 0.3509 -0.252 0.0827, 0.3426 -0.2549 0.0827, 0.3339 -0.2559 0.0827, -0.4535 -0.2559 0.0827, -0.4623 -0.2549 0.0827, -0.4706 -0.252 0.0827, -0.4781 -0.2473 0.0827, -0.4843 -0.2411 0.0827, -0.489 -0.2336 0.0827, -0.4919 -0.2253 0.0827, -0.4929 0.1732 0.0827, 0.138 -0.2394 0.2713, 0.3339 -0.2394 0.2717, 0.2076 -0.2394 0.2717, 0.2076 -0.2394 0.2713, 0.3389 -0.2388 0.2717, 0.3438 -0.2371 0.2717, 0.3481 -0.2344 0.2717, 0.3517 -0.2308 0.2717, 0.3544 -0.2264 0.2717, 0.3561 -0.2216 0.2717, 0.3567 -0.2165 0.2717, 0.3567 0.2165 0.2717, 0.3561 0.2216 0.2717, 0.3544 0.2264 0.2717, 0.3517 0.2308 0.2717, 0.3481 0.2344 0.2717, 0.3438 0.2371 0.2717, 0.3389 0.2388 0.2717, 0.3339 0.2394 0.2717, 0.2076 0.2394 0.2717, 0.2076 0.2394 0.2713, 0.138 0.2394 0.2713
            ]
        }
        coordIndex [
            0,1,2,-1,3,4,5,-1,6,7,8,-1,8,9,6,-1,6,9,10,-1,6,10,11,-1,12,13,14,-1,14,13,15,-1,14,15,16,-1,16,15,17,-1,18,19,20,-1,20,19,0,-1,20,0,21,-1,22,23,24,-1,25,26,27,-1,27,26,28,-1,5,21,3,-1,3,21,0,-1,3,0,29,-1,29,0,13,-1,29,13,7,-1,30,31,32,-1,32,31,33,-1,32,33,34,-1,35,36,32,-1,32,36,37,-1,38,39,40,-1,40,39,41,-1,37,42,32,-1,32,42,41,-1,32,41,43,-1,43,41,39,-1,44,45,46,-1,46,45,47,-1,46,47,15,-1,15,47,48,-1,15,48,17,-1,49,50,51,-1,34,52,32,-1,32,52,53,-1,32,53,35,-1,50,54,51,-1,51,54,13,-1,51,13,24,-1,24,13,12,-1,24,12,22,-1,25,55,26,-1,26,55,56,-1,26,56,57,-1,57,56,58,-1,57,58,59,-1,58,60,59,-1,59,60,61,-1,59,61,51,-1,51,61,62,-1,51,62,49,-1,54,63,13,-1,13,63,64,-1,13,64,65,-1,65,66,13,-1,13,66,67,-1,13,67,7,-1,7,67,68,-1,7,68,8,-1,8,68,69,-1,8,69,32,-1,32,69,70,-1,32,70,30,-1,71,72,2,-1,73,74,75,-1,76,77,78,-1,79,80,72,-1,72,80,81,-1,72,81,82,-1,77,76,83,-1,83,76,73,-1,83,73,84,-1,75,85,73,-1,73,85,13,-1,73,13,84,-1,0,2,13,-1,13,2,86,-1,13,86,87,-1,88,89,84,-1,84,89,90,-1,75,91,85,-1,85,91,92,-1,85,92,93,-1,82,94,72,-1,72,94,95,-1,72,95,2,-1,2,95,96,-1,2,96,86,-1,87,97,13,-1,13,97,98,-1,13,98,84,-1,84,98,99,-1,84,99,88,-1,90,100,84,-1,84,100,101,-1,84,101,72,-1,72,101,102,-1,72,102,79,-1,103,104,93,-1,93,104,105,-1,93,105,85,-1,106,107,108,-1,109,110,111,-1,109,112,110,-1,110,112,113,-1,110,113,114,-1,115,116,78,-1,78,116,71,-1,78,71,76,-1,76,71,2,-1,76,2,108,-1,108,2,117,-1,108,117,106,-1,106,117,109,-1,106,109,118,-1,118,109,111,-1,117,119,120,-1,120,119,121,-1,120,121,122,-1,1,6,2,-1,2,6,11,-1,2,11,117,-1,117,11,123,-1,117,123,119,-1,119,123,124,-1,119,124,22,-1,22,124,28,-1,22,28,23,-1,23,28,26,-1,122,125,120,-1,120,125,126,-1,120,126,127,-1,128,129,127,-1,127,129,130,-1,127,130,120,-1,131,132,133,-1,133,132,134,-1,135,136,137,-1,137,138,135,-1,135,138,139,-1,135,139,140,-1,140,139,134,-1,134,139,141,-1,134,141,133,-1,133,141,142,-1,133,142,143,-1,143,142,144,-1,143,144,145,-1,145,146,143,-1,143,146,147,-1,143,147,148,-1,14,16,149,-1,149,16,150,-1,106,151,107,-1,107,151,152,-1,75,153,154,-1,75,154,91,-1,91,154,155,-1,91,155,92,-1,92,155,156,-1,92,156,93,-1,93,156,157,-1,93,157,103,-1,103,157,158,-1,103,158,104,-1,104,158,159,-1,104,159,105,-1,105,159,160,-1,105,160,85,-1,85,160,13,-1,13,160,161,-1,13,161,15,-1,15,161,162,-1,15,162,46,-1,46,162,163,-1,46,163,44,-1,44,163,164,-1,44,164,45,-1,45,164,165,-1,45,165,47,-1,47,165,166,-1,47,166,48,-1,48,166,167,-1,48,167,17,-1,17,167,150,-1,17,150,16,-1,168,169,121,-1,121,169,122,-1,122,169,170,-1,122,170,125,-1,125,170,171,-1,125,171,126,-1,126,171,172,-1,126,172,127,-1,127,172,173,-1,127,173,128,-1,128,173,174,-1,128,174,129,-1,129,174,175,-1,129,175,130,-1,130,175,176,-1,130,176,120,-1,120,176,117,-1,117,176,177,-1,117,177,109,-1,109,177,178,-1,109,178,112,-1,112,178,179,-1,112,179,113,-1,113,179,180,-1,113,180,114,-1,114,180,181,-1,114,181,110,-1,110,181,182,-1,110,182,111,-1,111,182,183,-1,111,183,118,-1,118,183,151,-1,118,151,106,-1,153,75,184,-1,184,75,74,-1,134,160,159,-1,134,159,140,-1,140,159,158,-1,140,158,135,-1,135,158,157,-1,135,157,136,-1,136,157,156,-1,136,156,137,-1,137,156,155,-1,137,155,138,-1,138,155,154,-1,138,154,139,-1,139,154,153,-1,139,153,141,-1,151,142,152,-1,152,142,141,-1,152,141,184,-1,184,141,153,-1,142,151,183,-1,142,183,144,-1,144,183,182,-1,144,182,145,-1,145,182,181,-1,145,181,146,-1,146,181,180,-1,146,180,147,-1,147,180,179,-1,147,179,148,-1,148,179,178,-1,148,178,143,-1,143,178,177,-1,143,177,133,-1,185,131,133,-1,176,186,187,-1,187,188,176,-1,176,188,185,-1,176,185,177,-1,177,185,133,-1,186,176,175,-1,186,175,189,-1,189,175,174,-1,189,174,190,-1,190,174,173,-1,190,173,191,-1,191,173,172,-1,191,172,192,-1,192,172,171,-1,192,171,193,-1,193,171,170,-1,193,170,194,-1,194,170,169,-1,194,169,195,-1,150,196,149,-1,149,196,195,-1,149,195,168,-1,168,195,169,-1,196,150,167,-1,196,167,197,-1,197,167,166,-1,197,166,198,-1,198,166,165,-1,198,165,199,-1,199,165,164,-1,199,164,200,-1,200,164,163,-1,200,163,201,-1,201,163,162,-1,201,162,202,-1,202,162,161,-1,202,161,203,-1,204,203,205,-1,205,203,161,-1,205,161,206,-1,206,161,160,-1,206,160,132,-1,132,160,134,-1,190,191,195,-1,195,196,203,-1,204,187,203,-1,203,187,186,-1,203,186,195,-1,195,186,189,-1,195,189,190,-1,192,193,191,-1,191,193,194,-1,191,194,195,-1,196,197,203,-1,203,197,198,-1,203,198,199,-1,199,200,203,-1,203,200,201,-1,203,201,202,-1,
        ]
    }
}
Shape{
    appearance Appearance {
        material  Material {
            diffuseColor 0.7529411764705882 0.7529411764705882 0.7529411764705882
            specularColor 0.3764705882352941 0.3764705882352941 0.3764705882352941
            ambientIntensity 0.7529
            transparency 0.0
            shininess 0.5
        }
    }
    geometry IndexedFaceSet {
        ccw TRUE
        solid FALSE
        coord DEF co Coordinate {
            point [
                -0.0402 -0.1732 0.0039, -0.0402 -0.1732 0.0, -0.0402 -0.0114 0.0039, -0.0402 0.1732 0.0, -0.0402 0.1732 0.0039, -0.552 0.1732 0.0827, -0.552 -0.1732 0.0827, -0.4929 0.1732 0.0827, -0.4929 -0.1732 0.0827, -0.552 -0.1732 0.0, -0.552 0.1732 0.0, -0.4929 -0.1732 0.0039, -0.4929 0.1732 0.0039, 0.1764 0.128 0.0, 0.1764 0.128 0.0039, 0.3732 0.128 0.0039, 0.3732 0.128 0.0827, 0.4323 0.128 0.0827, 0.4323 0.128 0.0, 0.1764 -0.0114 0.0039, 0.1764 -0.128 0.0, 0.1764 -0.128 0.0039, 0.3732 -0.128 0.0039, 0.4323 -0.128 0.0, 0.3732 -0.128 0.0827, 0.4323 -0.128 0.0827
            ]
        }
        coordIndex [
            0,1,2,-1,2,1,3,-1,2,3,4,-1,5,6,7,-1,7,6,8,-1,9,6,10,-1,10,6,5,-1,1,0,11,-1,8,6,11,-1,11,6,9,-1,11,9,1,-1,4,3,12,-1,12,3,10,-1,12,10,7,-1,7,10,5,-1,3,1,10,-1,10,1,9,-1,13,14,15,-1,16,17,15,-1,15,17,18,-1,15,18,13,-1,14,13,19,-1,19,13,20,-1,19,20,21,-1,21,20,22,-1,22,20,23,-1,22,23,24,-1,24,23,25,-1,18,17,23,-1,23,17,25,-1,24,25,16,-1,16,25,17,-1,20,13,23,-1,23,13,18,-1,
        ]
    }
}
Shape{
    appearance Appearance {
        material  Material {
            diffuseColor 0.5019607843137255 0.5019607843137255 0.5019607843137255
            specularColor 0.25098039215686274 0.25098039215686274 0.25098039215686274
            ambientIntensity 0.502
            transparency 0.0
            shininess 0.5
        }
    }
    geometry IndexedFaceSet {
        ccw TRUE
        solid FALSE
        coord DEF co Coordinate {
            point [
                0.2076 0.2394 0.2713, 0.138 0.2394 0.2713, 0.2076 -0.2394 0.2713, 0.138 -0.2394 0.2713, 0.138 0.2394 0.2717, 0.138 -0.2394 0.2717, 0.2076 0.2394 0.2717, 0.2076 -0.2394 0.2717
            ]
        }
        coordIndex [
            0,1,2,-1,2,1,3,-1,4,5,1,-1,1,5,3,-1,0,2,6,-1,6,2,7,-1,
        ]
    }
}
Shape{
    appearance Appearance {
        material  Material {
            diffuseColor 1.0 1.0 1.0
            specularColor 0.5019607843137255 0.5019607843137255 0.5019607843137255
            ambientIntensity 1.0
            transparency 0.0
            shininess 0.5
        }
    }
    geometry IndexedFaceSet {
        ccw TRUE
        solid FALSE
        coord DEF co Coordinate {
            point [
                0.0018 0.0282 0.0043, -0.0136 -0.0112 0.0043, 0.0018 0.0282 0.0039, -0.0136 -0.0112 0.0039, -0.0078 -0.0112 0.0043, -0.0078 -0.0112 0.0039, -0.0038 -0.0001 0.0043, -0.0038 -0.0001 0.0039, 0.0124 -0.0001 0.0043, 0.0124 -0.0001 0.0039, 0.0162 -0.0112 0.0043, 0.0162 -0.0112 0.0039, 0.0219 -0.0112 0.0043, 0.0219 -0.0112 0.0039, 0.0071 0.0282 0.0043, 0.0071 0.0282 0.0039, 0.0111 0.0042 0.0043, -0.0021 0.0042 0.0043, 0.0052 0.0206 0.0043, 0.0048 0.022 0.0043, 0.0046 0.0234 0.0043, 0.0045 0.0234 0.0043, 0.0042 0.022 0.0043, 0.0039 0.0206 0.0043, 0.0111 0.0042 0.0039, -0.0021 0.0042 0.0039, 0.0052 0.0206 0.0039, 0.0048 0.022 0.0039, 0.0046 0.0234 0.0039, 0.0045 0.0234 0.0039, 0.0042 0.022 0.0039, 0.0039 0.0206 0.0039, 0.0458 -0.0112 0.0043, 0.0565 -0.0112 0.0043, 0.0458 -0.0112 0.0039, 0.0565 -0.0112 0.0039, 0.0565 0.0282 0.0043, 0.0565 0.0282 0.0039, 0.0454 0.0282 0.0043, 0.0454 0.0282 0.0039, 0.0248 0.009 0.0043, 0.0248 0.009 0.0039, 0.0251 0.0127 0.0039, 0.0251 0.0127 0.0043, 0.0262 0.0166 0.0039, 0.0262 0.0166 0.0043, 0.028 0.02 0.0039, 0.028 0.02 0.0043, 0.0308 0.0231 0.0039, 0.0308 0.0231 0.0043, 0.0308 0.0231 0.0039, 0.0308 0.0231 0.0043, 0.0351 0.026 0.0039, 0.0351 0.026 0.0043, 0.0397 0.0276 0.0039, 0.0397 0.0276 0.0043, 0.0409 -0.0107 0.0039, 0.0409 -0.0107 0.0043, 0.0364 -0.0094 0.0039, 0.0364 -0.0094 0.0043, 0.0323 -0.007 0.0039, 0.0323 -0.007 0.0043, 0.0291 -0.0039 0.0039, 0.0291 -0.0039 0.0043, 0.0268 -0.0004 0.0039, 0.0268 -0.0004 0.0043, 0.0254 0.0037 0.0039, 0.0254 0.0037 0.0043, 0.0327 0.0184 0.0043, 0.0346 0.0204 0.0043, 0.0375 0.0222 0.0043, 0.0408 0.0234 0.0043, 0.0454 0.0239 0.0043, 0.0512 0.0239 0.0043, 0.0512 -0.0069 0.0043, 0.0456 -0.0069 0.0043, 0.0415 -0.0065 0.0043, 0.0382 -0.0054 0.0043, 0.0355 -0.0038 0.0043, 0.0333 -0.0017 0.0043, 0.0316 0.0011 0.0043, 0.0305 0.0048 0.0043, 0.0301 0.0089 0.0043, 0.0304 0.0128 0.0043, 0.0314 0.0159 0.0043, 0.0454 0.0239 0.0039, 0.0512 0.0239 0.0039, 0.0408 0.0234 0.0039, 0.0375 0.0222 0.0039, 0.0346 0.0204 0.0039, 0.0327 0.0184 0.0039, 0.0314 0.0159 0.0039, 0.0304 0.0128 0.0039, 0.0301 0.0089 0.0039, 0.0305 0.0048 0.0039, 0.0316 0.0011 0.0039, 0.0333 -0.0017 0.0039, 0.0355 -0.0038 0.0039, 0.0382 -0.0054 0.0039, 0.0415 -0.0065 0.0039, 0.0456 -0.0069 0.0039, 0.0512 -0.0069 0.0039, 0.0642 -0.0069 0.0043, 0.0642 -0.0112 0.0043, 0.0642 -0.0069 0.0039, 0.0642 -0.0112 0.0039, 0.0853 -0.0112 0.0043, 0.0853 -0.0112 0.0039, 0.0853 0.0282 0.0043, 0.0853 0.0282 0.0039, 0.0652 0.0282 0.0043, 0.0652 0.0282 0.0039, 0.0652 0.0239 0.0043, 0.0652 0.0239 0.0039, 0.08 0.0239 0.0043, 0.08 0.0239 0.0039, 0.08 0.0109 0.0043, 0.08 0.0109 0.0039, 0.0661 0.0109 0.0043, 0.0661 0.0109 0.0039, 0.0661 0.0066 0.0043, 0.0661 0.0066 0.0039, 0.08 0.0066 0.0043, 0.08 0.0066 0.0039, 0.08 -0.0069 0.0043, 0.08 -0.0069 0.0039, 0.093 -0.0048 0.0043, 0.093 -0.0091 0.0043, 0.093 -0.0048 0.0039, 0.093 -0.0091 0.0039, 0.0972 -0.0109 0.0043, 0.1038 -0.0117 0.0043, 0.1038 -0.0117 0.0039, 0.1028 -0.0116 0.0039, 0.1028 -0.0116 0.0043, 0.1012 -0.0114 0.0039, 0.0972 -0.0109 0.0039, 0.1062 -0.0114 0.0039, 0.1087 -0.0111 0.0043, 0.1087 -0.0111 0.0039, 0.1125 -0.0098 0.0043, 0.1125 -0.0098 0.0039, 0.1157 -0.0078 0.0043, 0.1157 -0.0078 0.0039, 0.1186 -0.0047 0.0043, 0.1186 -0.0047 0.0039, 0.1207 -0.001 0.0043, 0.1207 -0.001 0.0039, 0.1219 0.0032 0.0043, 0.1219 0.0032 0.0039, 0.1223 0.0078 0.0043, 0.1223 0.0078 0.0039, 0.1023 0.0287 0.0043, 0.1023 0.0287 0.0039, 0.1062 0.0284 0.0039, 0.1062 0.0284 0.0043, 0.1106 0.0271 0.0039, 0.1106 0.0271 0.0043, 0.1144 0.0249 0.0039, 0.1144 0.0249 0.0043, 0.1179 0.0215 0.0039, 0.1179 0.0215 0.0043, 0.1202 0.0178 0.0039, 0.1202 0.0178 0.0043, 0.1217 0.0134 0.0039, 0.1217 0.0134 0.0043, 0.093 0.0271 0.0043, 0.093 0.0271 0.0039, 0.0976 0.0284 0.0039, 0.0976 0.0284 0.0043, 0.093 0.0218 0.0043, 0.093 0.0218 0.0039, 0.1022 0.0244 0.0043, 0.1022 0.0244 0.0039, 0.0974 0.0237 0.0039, 0.0974 0.0237 0.0043, 0.117 0.0081 0.0043, 0.117 0.0081 0.0039, 0.1168 0.0112 0.0039, 0.1168 0.0112 0.0043, 0.1158 0.0154 0.0039, 0.1158 0.0154 0.0043, 0.1142 0.0184 0.0039, 0.1142 0.0184 0.0043, 0.1118 0.021 0.0039, 0.1118 0.021 0.0043, 0.109 0.0229 0.0039, 0.109 0.0229 0.0043, 0.1061 0.0239 0.0039, 0.1061 0.0239 0.0043, 0.1031 -0.0073 0.0043, 0.1031 -0.0073 0.0039, 0.1068 -0.0069 0.0039, 0.1068 -0.0069 0.0043, 0.1097 -0.0059 0.0039, 0.1097 -0.0059 0.0043, 0.1121 -0.0042 0.0039, 0.1121 -0.0042 0.0043, 0.1139 -0.0023 0.0039, 0.1139 -0.0023 0.0043, 0.1155 0.0004 0.0039, 0.1155 0.0004 0.0043, 0.1166 0.0038 0.0039, 0.1166 0.0038 0.0043, 0.0937 -0.0052 0.0039, 0.0937 -0.0052 0.0043, 0.0979 -0.0068 0.0039, 0.0979 -0.0068 0.0043, 0.1257 -0.0069 0.0043, 0.1257 -0.0112 0.0043, 0.1257 -0.0069 0.0039, 0.1257 -0.0112 0.0039, 0.1458 -0.0112 0.0043, 0.1458 -0.0112 0.0039, 0.1458 0.0282 0.0043, 0.1458 0.0282 0.0039, 0.1405 0.0282 0.0043, 0.1405 0.0282 0.0039, 0.1405 -0.0069 0.0043, 0.1405 -0.0069 0.0039
            ]
        }
        coordIndex [
            0,1,2,-1,2,1,3,-1,1,4,3,-1,3,4,5,-1,4,6,5,-1,5,6,7,-1,6,8,7,-1,7,8,9,-1,8,10,9,-1,9,10,11,-1,10,12,11,-1,11,12,13,-1,12,14,13,-1,13,14,15,-1,14,0,15,-1,15,0,2,-1,16,8,17,-1,17,8,6,-1,18,14,16,-1,16,14,12,-1,16,12,8,-1,8,12,10,-1,18,19,14,-1,14,19,20,-1,14,20,0,-1,0,20,21,-1,0,21,22,-1,22,23,0,-1,0,23,17,-1,0,17,1,-1,1,17,6,-1,1,6,4,-1,16,17,24,-1,24,17,25,-1,18,16,26,-1,26,16,24,-1,18,26,27,-1,18,27,19,-1,19,27,28,-1,19,28,20,-1,21,20,29,-1,29,20,28,-1,21,29,30,-1,21,30,22,-1,22,30,31,-1,22,31,23,-1,17,23,25,-1,25,23,31,-1,32,33,34,-1,34,33,35,-1,33,36,35,-1,35,36,37,-1,36,38,37,-1,37,38,39,-1,40,41,42,-1,40,42,43,-1,43,42,44,-1,43,44,45,-1,45,44,46,-1,45,46,47,-1,47,46,48,-1,47,48,49,-1,49,48,50,-1,49,50,51,-1,51,50,52,-1,51,52,53,-1,53,52,54,-1,53,54,55,-1,55,54,39,-1,55,39,38,-1,32,34,56,-1,32,56,57,-1,57,56,58,-1,57,58,59,-1,59,58,60,-1,59,60,61,-1,61,60,62,-1,61,62,63,-1,63,62,64,-1,63,64,65,-1,65,64,66,-1,65,66,67,-1,67,66,41,-1,67,41,40,-1,45,47,68,-1,68,47,49,-1,68,49,69,-1,69,49,51,-1,69,51,70,-1,70,51,53,-1,70,53,71,-1,71,53,55,-1,71,55,72,-1,72,55,38,-1,72,38,73,-1,73,38,36,-1,73,36,74,-1,74,36,33,-1,74,33,75,-1,75,33,32,-1,75,32,76,-1,76,32,57,-1,76,57,77,-1,77,57,59,-1,77,59,78,-1,78,59,61,-1,78,61,79,-1,79,61,63,-1,79,63,80,-1,80,63,65,-1,80,65,81,-1,81,65,67,-1,81,67,82,-1,82,67,40,-1,82,40,83,-1,83,40,43,-1,83,43,84,-1,84,43,45,-1,84,45,68,-1,72,73,85,-1,85,73,86,-1,72,85,87,-1,72,87,71,-1,71,87,88,-1,71,88,70,-1,70,88,89,-1,70,89,69,-1,69,89,90,-1,69,90,68,-1,68,90,91,-1,68,91,84,-1,84,91,92,-1,84,92,83,-1,83,92,93,-1,83,93,82,-1,82,93,94,-1,82,94,81,-1,81,94,95,-1,81,95,80,-1,80,95,96,-1,80,96,79,-1,79,96,97,-1,79,97,78,-1,78,97,98,-1,78,98,77,-1,77,98,99,-1,77,99,76,-1,76,99,100,-1,76,100,75,-1,74,75,101,-1,101,75,100,-1,73,74,86,-1,86,74,101,-1,102,103,104,-1,104,103,105,-1,103,106,105,-1,105,106,107,-1,106,108,107,-1,107,108,109,-1,108,110,109,-1,109,110,111,-1,110,112,111,-1,111,112,113,-1,112,114,113,-1,113,114,115,-1,114,116,115,-1,115,116,117,-1,116,118,117,-1,117,118,119,-1,118,120,119,-1,119,120,121,-1,120,122,121,-1,121,122,123,-1,122,124,123,-1,123,124,125,-1,124,102,125,-1,125,102,104,-1,106,103,102,-1,102,124,106,-1,106,124,122,-1,106,122,108,-1,112,110,114,-1,114,110,108,-1,114,108,116,-1,116,108,122,-1,116,122,118,-1,118,122,120,-1,126,127,128,-1,128,127,129,-1,129,127,130,-1,131,132,133,-1,131,133,134,-1,134,133,135,-1,134,135,130,-1,130,135,136,-1,130,136,129,-1,132,131,137,-1,137,131,138,-1,137,138,139,-1,139,138,140,-1,139,140,141,-1,141,140,142,-1,141,142,143,-1,143,142,144,-1,143,144,145,-1,145,144,146,-1,145,146,147,-1,147,146,148,-1,147,148,149,-1,149,148,150,-1,149,150,151,-1,152,153,154,-1,152,154,155,-1,155,154,156,-1,155,156,157,-1,157,156,158,-1,157,158,159,-1,159,158,160,-1,159,160,161,-1,161,160,162,-1,161,162,163,-1,163,162,164,-1,163,164,165,-1,165,164,151,-1,165,151,150,-1,166,167,168,-1,166,168,169,-1,169,168,153,-1,169,153,152,-1,166,170,167,-1,167,170,171,-1,172,173,174,-1,172,174,175,-1,175,174,171,-1,175,171,170,-1,176,177,178,-1,176,178,179,-1,179,178,180,-1,179,180,181,-1,181,180,182,-1,181,182,183,-1,183,182,184,-1,183,184,185,-1,185,184,186,-1,185,186,187,-1,187,186,188,-1,187,188,189,-1,189,188,173,-1,189,173,172,-1,190,191,192,-1,190,192,193,-1,193,192,194,-1,193,194,195,-1,195,194,196,-1,195,196,197,-1,197,196,198,-1,197,198,199,-1,199,198,200,-1,199,200,201,-1,201,200,202,-1,201,202,203,-1,203,202,177,-1,203,177,176,-1,126,128,204,-1,126,204,205,-1,205,204,206,-1,205,206,207,-1,207,206,191,-1,207,191,190,-1,193,131,190,-1,190,131,134,-1,190,134,207,-1,207,134,130,-1,207,130,205,-1,205,130,127,-1,205,127,126,-1,170,166,175,-1,175,166,169,-1,175,169,172,-1,172,169,152,-1,172,152,189,-1,189,152,155,-1,189,155,187,-1,187,155,157,-1,187,157,185,-1,185,157,159,-1,185,159,183,-1,183,159,161,-1,183,161,181,-1,181,161,163,-1,181,163,179,-1,179,163,165,-1,179,165,176,-1,176,165,150,-1,176,150,203,-1,203,150,148,-1,203,148,201,-1,201,148,146,-1,201,146,199,-1,199,146,144,-1,199,144,197,-1,197,144,142,-1,197,142,195,-1,195,142,140,-1,195,140,193,-1,193,140,138,-1,193,138,131,-1,208,209,210,-1,210,209,211,-1,209,212,211,-1,211,212,213,-1,212,214,213,-1,213,214,215,-1,214,216,215,-1,215,216,217,-1,216,218,217,-1,217,218,219,-1,218,208,219,-1,219,208,210,-1,216,214,218,-1,218,214,212,-1,218,212,208,-1,208,212,209,-1,
        ]
    }
}
Shape{
    appearance Appearance {
        material  Material {
            diffuseColor 0.25098039215686274 0.25098039215686274 0.25098039215686274
            specularColor 0.12549019607843137 0.12549019607843137 0.12549019607843137
            ambientIntensity 0.251
            transparency 0.0
            shininess 0.5
        }
    }
    geometry IndexedFaceSet {
        ccw TRUE
        solid FALSE
        coord DEF co Coordinate {
            point [
                0.0111 0.0042 0.0039, -0.0021 0.0042 0.0039, 0.0052 0.0206 0.0039, 0.0039 0.0206 0.0039, 0.0048 0.022 0.0039, 0.0042 0.022 0.0039, 0.0046 0.0234 0.0039, 0.0045 0.0234 0.0039, 0.0512 0.0239 0.0039, 0.0512 -0.0069 0.0039, 0.0454 0.0239 0.0039, 0.0456 -0.0069 0.0039, 0.0415 -0.0065 0.0039, 0.0301 0.0089 0.0039, 0.0304 0.0128 0.0039, 0.0314 0.0159 0.0039, 0.0408 0.0234 0.0039, 0.0382 -0.0054 0.0039, 0.0355 -0.0038 0.0039, 0.0333 -0.0017 0.0039, 0.0316 0.0011 0.0039, 0.0305 0.0048 0.0039, 0.0327 0.0184 0.0039, 0.0346 0.0204 0.0039, 0.0375 0.0222 0.0039
            ]
        }
        coordIndex [
            0,1,2,-1,2,1,3,-1,2,3,4,-1,4,3,5,-1,4,5,6,-1,6,5,7,-1,8,9,10,-1,10,9,11,-1,10,11,12,-1,13,14,10,-1,10,14,15,-1,10,15,16,-1,12,17,10,-1,10,17,18,-1,10,18,19,-1,19,20,10,-1,10,20,21,-1,10,21,13,-1,22,23,15,-1,15,23,24,-1,15,24,16,-1,
        ]
    }
}