#VRML V2.0 utf8
# 3D model generated by kicad-lcsc-manager
# Based on easyeda2kicad.py v1.0.1

Shape{
    appearance Appearance {
        material  Material {
            diffuseColor 0.7529411764705882 0.7529411764705882 0.7529411764705882
            specularColor 0.3764705882352941 0.3764705882352941 0.3764705882352941
            ambientIntensity 0.7529
            transparency 0.0
            shininess 0.5
        }
    }
    geometry IndexedFaceSet {
        ccw TRUE
        solid FALSE
        coord DEF co Coordinate {
            point [
                -0.187 -0.124 0.0007, -0.187 -0.0059 0.0007, 0.0825 -0.0059 0.0007, -0.2895 -0.799 0.0007, 0.0825 -0.8016 0.0007, -0.6496 -0.8016 0.0007, 0.0038 -0.799 0.0007, 0.0648 -0.799 0.0007, 0.0648 -0.6022 0.0007, -0.6496 -0.0059 0.0007, -0.4035 -0.0059 0.0007, -0.4035 -0.124 0.0007, -0.1219 -0.799 0.0007, -0.0571 -0.7853 0.0007, -0.0175 -0.798 0.0007, -0.1412 -0.799 0.0007, -0.1712 -0.7359 0.0007, -0.2604 -0.7359 0.0007, -0.0374 -0.6093 0.0007, -0.0729 -0.6332 0.0007, -0.2153 -0.6022 0.0007, -0.093 -0.6721 0.0007, -0.0967 -0.7031 0.0007, -0.0856 -0.7526 0.0007, -0.0065 -0.6034 0.0007, -0.2178 -0.6022 0.0007, -0.3087 -0.799 0.0007, 0.0251 -0.6022 0.0007, 0.1001 -0.6224 0.0007, 0.1935 -0.6224 0.0007, 0.1935 -0.6829 0.0007, 0.1001 -0.6829 0.0007, 0.1001 -0.7031 0.0007, 0.1001 -0.6022 0.0007, 0.2112 -0.6022 0.0007, 0.4661 -0.799 0.0007, 0.5595 -0.799 0.0007, 0.6496 -0.8016 0.0007, 0.5595 -0.6022 0.0007, 0.6496 -0.0059 0.0007, 0.187 -0.0059 0.0007, 0.187 -0.124 0.0007, 0.3513 -0.8016 0.0007, 0.3818 -0.7961 0.0007, 0.401 -0.7856 0.0007, 0.4035 -0.0059 0.0007, 0.4035 -0.124 0.0007, 0.5418 -0.6022 0.0007, 0.4122 -0.7763 0.0007, 0.4184 -0.7697 0.0007, 0.4661 -0.7788 0.0007, 0.4374 -0.7369 0.0007, 0.5418 -0.7788 0.0007, 0.4434 -0.6995 0.0007, 0.3374 -0.5971 0.0007, 0.2894 -0.6073 0.0007, 0.2692 -0.6197 0.0007, 0.1935 -0.7031 0.0007, 0.1935 -0.7788 0.0007, 0.1001 -0.7788 0.0007, 0.1001 -0.799 0.0007, 0.2112 -0.799 0.0007, 0.2516 -0.7628 0.0007, 0.2893 -0.7939 0.0007, 0.4307 -0.6492 0.0007, 0.397 -0.6137 0.0007, 0.3462 -0.5975 0.0007, 0.2578 -0.6306 0.0007, 0.2516 -0.6383 0.0007, 0.3822 -0.6281 0.0007, 0.4127 -0.6556 0.0007, 0.3386 -0.6173 0.0007, 0.4254 -0.6929 0.0007, 0.4257 -0.7008 0.0007, 0.4155 -0.7414 0.0007, 0.3884 -0.7698 0.0007, 0.3497 -0.7833 0.0007, 0.267 -0.7511 0.0007, 0.267 -0.6501 0.0007, 0.2984 -0.7756 0.0007, 0.2989 -0.6254 0.0007, 0.3373 -0.7839 0.0007, 0.3175 -0.6194 0.0007, 0.3304 -0.6176 0.0007, 0.6496 -1.8169 0.0007, 0.3372 -0.8041 0.0007, 0.3273 -0.8037 0.0007, 0.0825 -1.8169 0.0007, 0.3124 -0.8016 0.0007, -0.6496 -1.8169 0.0007, 0.3117 -0.8015 0.0007, -0.187 -0.0059 0.2362, 0.187 -0.0059 0.2362, 0.7677 -1.8169 1.1024, 0.8858 -1.8169 1.1024, 0.7677 -1.8169 1.2992, 0.8858 -1.8169 1.4173, -0.7677 -1.8169 1.2992, -0.8858 -1.8169 1.4173, -0.7677 -1.8169 1.1024, -0.8858 -1.8169 1.1024, -0.4035 -0.0059 0.2362, -0.6496 -0.0059 0.2362, -0.8858 -1.8169 -0.0394, -0.8858 0.5453 -0.0394, -0.6496 -1.8169 -0.0394, -0.6496 0.5453 -0.0394, 0.4035 -0.0059 0.2362, 0.6496 -0.0059 0.2362, -0.6496 0.5453 0.5416, -0.8858 0.5453 0.5416, -0.6496 -0.0059 0.8712, -0.8858 -0.0059 0.8712, 0.8858 0.5453 -0.0394, 0.8858 0.5453 0.5416, 0.8858 -1.8169 -0.0394, 0.8858 -0.0059 0.8712, 0.8858 -1.7382 1.0236, 0.8858 -1.2972 1.0236, 0.8858 -0.0059 1.4173, 0.8858 -1.2086 0.9999, 0.8858 -1.1438 0.935, 0.8858 -1.12 0.8465, 0.8858 -1.12 0.8302, 0.8858 -1.7382 0.653, 0.8858 -1.8169 0.5742, 0.8858 -1.2972 0.653, 0.8858 -1.2086 0.6767, 0.8858 -1.1438 0.7416, 0.6496 0.5453 0.5416, 0.6496 0.5453 -0.0394, -0.8858 -1.2086 0.6767, -0.8858 -1.1438 0.7416, -0.8858 -1.7382 1.0236, -0.8858 -1.2972 1.0236, -0.8858 -1.2086 0.9999, -0.8858 -0.0059 1.4173, -0.8858 -1.8169 0.5742, -0.8858 -1.7382 0.653, -0.8858 -1.2972 0.653, -0.8858 -1.12 0.8302, -0.8858 -1.12 0.8465, -0.8858 -1.1438 0.935, -0.7677 -1.8169 0.5742, -0.7677 -1.8169 0.1188, 0.7677 -1.8169 0.1188, 0.6496 -1.8169 -0.0394, 0.7677 -1.8169 0.5742, 0.6096 -0.0059 1.4173, 0.6096 -0.8578 1.4173, 0.3031 -0.8578 1.4173, -0.6096 -0.0059 1.4173, -0.6096 -0.8578 1.4173, -0.3031 -0.8578 1.4173, -0.3031 -0.0059 1.4173, 0.3031 -0.0059 1.4173, 0.6496 -0.0059 0.8712, 0.6496 -0.0059 1.0236, -0.6496 -0.0059 1.0236, -0.6096 -0.0059 1.2992, -0.3031 -0.0059 1.2992, 0.6096 -0.0059 1.2992, 0.3031 -0.0059 1.2992, -0.6496 -0.2028 1.0236, -0.6496 -0.2028 0.2362, 0.6496 -0.2028 0.2362, 0.6496 -0.2028 1.0236, 0.4035 -0.124 0.2362, 0.187 -0.124 0.2362, -0.4035 -0.124 0.2362, -0.187 -0.124 0.2362, -0.3857 -0.2028 0.9415, -0.3935 -0.2028 0.9082, 0.2952 -0.2028 0.8025, 0.3189 -0.2028 0.8043, 0.3441 -0.2028 0.8159, 0.3497 -0.2028 0.8184, -0.3794 -0.2028 0.9513, -0.2408 -0.2028 0.8184, 0.2231 -0.2028 0.9698, 0.2111 -0.2028 0.9513, -0.2717 -0.2028 0.8043, -0.2464 -0.2028 0.8159, 0.197 -0.2028 0.9082, 0.2048 -0.2028 0.9415, -0.375 -0.2028 0.8435, -0.351 -0.2028 0.8193, 0.2155 -0.2028 0.8435, 0.2395 -0.2028 0.8193, -0.3097 -0.2028 1.0005, -0.3411 -0.2028 0.9902, -0.3929 -0.2028 0.9023, -0.3897 -0.2028 0.8741, -0.3794 -0.2028 0.8526, -0.2954 -0.2028 0.8025, -0.3043 -0.2028 0.8018, -0.3441 -0.2028 0.9879, -0.3675 -0.2028 0.9698, -0.3443 -0.2028 0.8154, -0.335 -0.2028 0.8101, 0.1977 -0.2028 0.9023, 0.2008 -0.2028 0.8741, 0.2111 -0.2028 0.8526, 0.2463 -0.2028 0.8154, 0.2556 -0.2028 0.8101, 0.2862 -0.2028 0.8018, -0.2163 -0.2028 0.8424, 0.2494 -0.2028 0.9902, 0.2464 -0.2028 0.9879, 0.3444 -0.2028 0.9884, 0.3137 -0.2028 0.9999, 0.2952 -0.2028 1.0002, 0.2808 -0.2028 1.0005, -0.2209 -0.2028 0.9673, -0.2461 -0.2028 0.9884, -0.2769 -0.2028 0.9999, -0.2953 -0.2028 1.0002, 0.3936 -0.2028 0.9064, 0.3867 -0.2028 0.939, 0.3931 -0.2028 0.9023, 0.3794 -0.2028 0.9513, 0.3697 -0.2028 0.9673, 0.3743 -0.2028 0.8424, 0.3794 -0.2028 0.8527, 0.3894 -0.2028 0.873, -0.2112 -0.2028 0.8527, -0.2012 -0.2028 0.873, -0.1975 -0.2028 0.9023, -0.1969 -0.2028 0.9064, -0.2038 -0.2028 0.939, -0.2112 -0.2028 0.9513, -0.689 -0.439 0.1975, -0.689 -1.1438 0.7416, -0.689 -1.2086 0.6767, -0.689 -1.2086 0.9999, -0.689 -0.439 1.2205, -0.689 -1.2972 1.0236, -0.689 -1.7382 1.2205, -0.689 -1.7382 1.0236, -0.689 -1.7382 0.1975, -0.689 -1.2972 0.653, -0.689 -1.7382 0.653, -0.689 -1.1438 0.935, -0.689 -1.12 0.8465, -0.689 -1.12 0.8302, 0.689 -1.7382 1.2205, 0.689 -0.439 1.2205, 0.689 -1.2086 0.6767, 0.689 -0.439 0.1975, 0.689 -1.2972 0.653, 0.689 -1.7382 0.1975, 0.689 -1.7382 0.653, 0.689 -1.1438 0.7416, 0.689 -1.12 0.8302, 0.689 -1.12 0.8465, 0.689 -1.1438 0.935, 0.689 -1.7382 1.0236, 0.689 -1.2972 1.0236, 0.689 -1.2086 0.9999, 0.3445 -0.439 0.8203, 0.2953 -0.439 0.8071, -0.21 -0.439 0.8563, -0.2461 -0.439 0.8203, 0.21 -0.439 0.8563, 0.2461 -0.439 0.8203, -0.3937 -0.439 0.9055, -0.3805 -0.439 0.8563, -0.3445 -0.439 0.8203, -0.2953 -0.439 0.8071, -0.3805 -0.439 0.9547, -0.3445 -0.439 0.9908, -0.2953 -0.439 1.0039, -0.2461 -0.439 0.9908, -0.21 -0.439 0.9547, 0.2461 -0.439 0.9908, -0.1969 -0.439 0.9055, 0.1969 -0.439 0.9055, 0.21 -0.439 0.9547, 0.3445 -0.439 0.9908, 0.2953 -0.439 1.0039, 0.3805 -0.439 0.9547, 0.3937 -0.439 0.9055, 0.3805 -0.439 0.8563, 0.6096 -0.8578 1.2992, 0.3031 -0.8578 1.2992, -0.6096 -0.8578 1.2992, -0.3031 -0.8578 1.2992
            ]
        }
        coordIndex [
            0,1,2,-1,3,4,5,-1,6,7,4,-1,4,7,8,-1,4,8,2,-1,9,10,5,-1,5,10,11,-1,12,13,14,-1,14,6,12,-1,12,6,4,-1,12,4,15,-1,15,4,3,-1,15,3,16,-1,16,3,17,-1,18,19,20,-1,19,21,20,-1,20,21,22,-1,20,22,12,-1,12,22,23,-1,12,23,13,-1,24,18,0,-1,0,18,20,-1,0,20,11,-1,11,20,25,-1,11,25,5,-1,5,25,26,-1,5,26,3,-1,2,8,0,-1,0,8,27,-1,0,27,24,-1,28,29,30,-1,31,32,4,-1,30,31,28,-1,28,31,4,-1,28,4,33,-1,33,4,2,-1,33,2,34,-1,35,36,37,-1,37,36,38,-1,37,38,39,-1,2,40,41,-1,42,43,35,-1,35,43,44,-1,45,39,46,-1,46,39,38,-1,46,38,41,-1,41,38,47,-1,41,47,2,-1,44,48,35,-1,35,48,49,-1,35,49,50,-1,50,49,51,-1,50,51,52,-1,52,51,53,-1,52,53,47,-1,54,55,2,-1,2,55,56,-1,57,58,32,-1,32,58,59,-1,32,59,4,-1,4,59,60,-1,4,60,61,-1,61,62,63,-1,53,64,47,-1,47,64,65,-1,47,65,2,-1,2,65,66,-1,2,66,54,-1,56,67,2,-1,2,67,68,-1,2,68,34,-1,69,70,71,-1,71,70,72,-1,71,72,73,-1,73,74,71,-1,71,74,75,-1,71,75,76,-1,61,34,62,-1,62,34,68,-1,62,68,77,-1,77,68,78,-1,77,78,79,-1,79,78,80,-1,79,80,81,-1,81,80,82,-1,81,82,76,-1,76,82,83,-1,76,83,71,-1,35,37,42,-1,42,37,84,-1,42,84,85,-1,85,84,86,-1,86,84,87,-1,86,87,88,-1,89,5,87,-1,87,5,4,-1,87,4,88,-1,88,4,61,-1,88,61,90,-1,90,61,63,-1,1,91,2,-1,2,91,92,-1,2,92,40,-1,93,94,95,-1,95,94,96,-1,95,96,97,-1,97,96,98,-1,97,98,99,-1,99,98,100,-1,10,9,101,-1,101,9,102,-1,103,104,105,-1,105,104,106,-1,107,108,45,-1,45,108,39,-1,106,104,109,-1,109,104,110,-1,109,110,111,-1,111,110,112,-1,113,114,115,-1,115,114,116,-1,94,117,96,-1,96,117,118,-1,96,118,119,-1,118,120,119,-1,119,120,121,-1,119,121,116,-1,116,121,122,-1,116,122,123,-1,124,125,126,-1,126,125,115,-1,126,115,127,-1,127,115,116,-1,127,116,128,-1,128,116,123,-1,129,114,130,-1,130,114,113,-1,131,132,112,-1,133,100,134,-1,134,100,98,-1,134,98,135,-1,135,98,136,-1,137,138,103,-1,103,138,139,-1,110,104,112,-1,112,104,103,-1,112,103,131,-1,131,103,139,-1,132,140,112,-1,112,140,141,-1,112,141,136,-1,136,141,142,-1,136,142,135,-1,143,137,144,-1,144,137,103,-1,84,145,87,-1,87,145,144,-1,87,144,89,-1,89,144,103,-1,89,103,105,-1,84,146,145,-1,145,146,115,-1,145,115,147,-1,147,115,125,-1,119,148,149,-1,150,98,149,-1,149,98,96,-1,149,96,119,-1,151,136,152,-1,152,136,98,-1,152,98,153,-1,153,98,150,-1,153,150,154,-1,154,150,155,-1,130,113,146,-1,146,113,115,-1,156,116,129,-1,129,116,114,-1,116,156,119,-1,119,156,157,-1,111,112,158,-1,158,112,136,-1,136,151,159,-1,136,159,158,-1,158,159,160,-1,158,160,157,-1,148,119,161,-1,161,119,157,-1,161,157,162,-1,162,157,160,-1,162,160,155,-1,155,160,154,-1,89,105,5,-1,5,105,106,-1,158,163,111,-1,111,163,164,-1,111,164,109,-1,109,164,102,-1,109,102,106,-1,106,102,9,-1,106,9,5,-1,165,166,156,-1,156,166,157,-1,165,156,108,-1,108,156,129,-1,108,129,39,-1,39,129,130,-1,39,130,37,-1,37,130,146,-1,37,146,84,-1,165,108,107,-1,107,167,165,-1,165,167,168,-1,165,168,164,-1,101,102,169,-1,169,102,164,-1,169,164,170,-1,170,164,168,-1,170,168,91,-1,91,168,92,-1,166,163,157,-1,157,163,158,-1,171,172,163,-1,173,174,165,-1,165,174,175,-1,165,175,176,-1,171,163,177,-1,178,179,180,-1,181,182,183,-1,183,182,178,-1,183,178,184,-1,184,178,180,-1,164,185,186,-1,164,187,188,-1,189,190,163,-1,172,191,163,-1,163,191,192,-1,163,192,164,-1,164,192,193,-1,164,193,185,-1,181,164,194,-1,194,164,195,-1,190,196,163,-1,163,196,197,-1,163,197,177,-1,186,198,164,-1,164,198,199,-1,164,199,195,-1,183,200,181,-1,181,200,201,-1,181,201,164,-1,164,201,202,-1,164,202,187,-1,188,203,164,-1,164,203,204,-1,164,204,165,-1,165,204,205,-1,165,205,173,-1,206,207,178,-1,178,207,208,-1,178,208,179,-1,209,210,166,-1,210,211,166,-1,166,211,212,-1,166,212,163,-1,213,214,212,-1,212,214,215,-1,212,215,163,-1,163,215,216,-1,163,216,189,-1,217,218,166,-1,217,166,219,-1,218,220,166,-1,166,220,221,-1,166,221,209,-1,176,222,165,-1,165,222,223,-1,165,223,166,-1,166,223,224,-1,166,224,219,-1,206,225,207,-1,207,225,226,-1,207,226,227,-1,227,228,207,-1,207,228,229,-1,207,229,212,-1,212,229,230,-1,212,230,213,-1,231,232,233,-1,234,235,236,-1,236,235,237,-1,236,237,238,-1,231,233,239,-1,239,233,240,-1,239,240,241,-1,234,242,235,-1,235,242,243,-1,235,243,231,-1,231,243,244,-1,231,244,232,-1,237,235,245,-1,245,235,246,-1,247,248,249,-1,249,248,250,-1,249,250,251,-1,247,252,248,-1,248,252,253,-1,248,253,246,-1,246,253,254,-1,246,254,255,-1,256,245,257,-1,257,245,246,-1,257,246,258,-1,258,246,255,-1,250,248,239,-1,239,248,231,-1,259,260,248,-1,261,262,263,-1,263,262,264,-1,265,235,266,-1,266,235,231,-1,266,231,267,-1,260,264,248,-1,248,264,262,-1,248,262,231,-1,231,262,268,-1,231,268,267,-1,265,269,235,-1,235,269,270,-1,235,270,271,-1,272,273,274,-1,261,263,275,-1,275,263,276,-1,275,276,273,-1,273,276,277,-1,273,277,274,-1,278,246,279,-1,279,246,235,-1,279,235,274,-1,274,235,271,-1,274,271,272,-1,278,280,246,-1,246,280,281,-1,246,281,248,-1,248,281,282,-1,248,282,259,-1,169,11,101,-1,101,11,10,-1,0,170,1,-1,1,170,91,-1,170,0,169,-1,169,0,11,-1,124,126,251,-1,251,126,249,-1,249,126,247,-1,247,126,127,-1,247,127,252,-1,252,127,128,-1,252,128,253,-1,253,128,123,-1,122,254,123,-1,123,254,253,-1,254,122,255,-1,255,122,121,-1,255,121,258,-1,258,121,120,-1,258,120,257,-1,257,120,118,-1,256,257,117,-1,117,257,118,-1,133,134,238,-1,238,134,236,-1,141,243,142,-1,142,243,242,-1,142,242,135,-1,135,242,234,-1,135,234,134,-1,134,234,236,-1,140,244,141,-1,141,244,243,-1,139,240,131,-1,131,240,233,-1,131,233,132,-1,132,233,232,-1,132,232,140,-1,140,232,244,-1,241,240,138,-1,138,240,139,-1,251,147,124,-1,124,147,125,-1,250,145,251,-1,251,145,147,-1,239,144,250,-1,250,144,145,-1,241,143,239,-1,239,143,144,-1,143,241,137,-1,137,241,138,-1,93,256,94,-1,94,256,117,-1,95,245,93,-1,93,245,256,-1,97,237,95,-1,95,237,245,-1,99,238,97,-1,97,238,237,-1,238,99,133,-1,133,99,100,-1,161,283,148,-1,148,283,149,-1,283,284,149,-1,149,284,150,-1,284,162,150,-1,150,162,155,-1,162,284,161,-1,161,284,283,-1,285,159,152,-1,152,159,151,-1,160,286,154,-1,154,286,153,-1,286,285,153,-1,153,285,152,-1,286,160,285,-1,285,160,159,-1,
        ]
    }
}
Shape{
    appearance Appearance {
        material  Material {
            diffuseColor 0.796078431372549 0.8235294117647058 0.9372549019607843
            specularColor 0.396078431372549 0.4117647058823529 0.4666666666666667
            ambientIntensity 0.8283
            transparency 0.0
            shininess 0.5
        }
    }
    geometry IndexedFaceSet {
        ccw TRUE
        solid FALSE
        coord DEF co Coordinate {
            point [
                -0.2578 -1.6187 0.9272, -0.2736 -1.6187 0.943, -0.2953 -1.6187 0.9055, -0.2953 -1.6187 0.9488, -0.3169 -1.6187 0.943, -0.2736 -1.6187 0.868, -0.2578 -1.6187 0.8839, -0.252 -1.6187 0.9055, -0.3328 -1.6187 0.8839, -0.3169 -1.6187 0.868, -0.2953 -1.6187 0.8622, -0.3328 -1.6187 0.9272, -0.3386 -1.6187 0.9055, -0.2953 -0.439 1.0039, -0.2461 -1.5636 0.9908, -0.2461 -0.439 0.9908, -0.21 -1.5636 0.9547, -0.21 -0.439 0.9547, -0.1969 -1.5636 0.9055, -0.1969 -0.439 0.9055, -0.21 -1.5636 0.8563, -0.21 -0.439 0.8563, -0.2461 -1.5636 0.8203, -0.2461 -0.439 0.8203, -0.2953 -1.5636 0.8071, -0.2953 -0.439 0.8071, -0.3445 -1.5636 0.8203, -0.3445 -0.439 0.8203, -0.3805 -1.5636 0.8563, -0.3805 -0.439 0.8563, -0.3937 -1.5636 0.9055, -0.3937 -0.439 0.9055, -0.3805 -1.5636 0.9547, -0.3805 -0.439 0.9547, -0.3445 -1.5636 0.9908, -0.3445 -0.439 0.9908, -0.2953 -1.5636 1.0039, -0.3169 -0.0434 -1.1024, -0.3328 -0.0276 -1.1024, -0.2953 -0.0059 -1.1024, -0.3386 -0.0059 -1.1024, -0.3328 0.0157 -1.1024, -0.2578 -0.0276 -1.1024, -0.2736 -0.0434 -1.1024, -0.2953 -0.0492 -1.1024, -0.2736 0.0316 -1.1024, -0.2578 0.0157 -1.1024, -0.252 -0.0059 -1.1024, -0.3169 0.0316 -1.1024, -0.2953 0.0374 -1.1024, -0.3445 -0.1831 0.8083, -0.3443 -0.2028 0.8154, -0.351 -0.2028 0.8193, -0.3805 -0.1691 0.8414, -0.2953 -0.1883 0.7961, -0.2954 -0.2028 0.8025, -0.3043 -0.2028 0.8018, -0.335 -0.2028 0.8101, -0.2717 -0.2028 0.8043, -0.2461 -0.1831 0.8083, -0.2464 -0.2028 0.8159, -0.21 -0.1691 0.8414, -0.2163 -0.2028 0.8424, -0.2408 -0.2028 0.8184, -0.1969 -0.1498 0.8867, -0.2012 -0.2028 0.873, -0.2112 -0.2028 0.8527, -0.2112 -0.2028 0.9513, -0.2038 -0.2028 0.939, -0.21 -0.1306 0.932, -0.1969 -0.2028 0.9064, -0.1975 -0.2028 0.9023, -0.2209 -0.2028 0.9673, -0.2461 -0.1165 0.9652, -0.2461 -0.2028 0.9884, -0.2769 -0.2028 0.9999, -0.2953 -0.1114 0.9773, -0.2953 -0.2028 1.0002, -0.3445 -0.1165 0.9652, -0.3411 -0.2028 0.9902, -0.3097 -0.2028 1.0005, -0.3857 -0.2028 0.9415, -0.3794 -0.2028 0.9513, -0.3805 -0.1306 0.932, -0.3675 -0.2028 0.9698, -0.3441 -0.2028 0.9879, -0.3935 -0.2028 0.9082, -0.3937 -0.1498 0.8867, -0.3929 -0.2028 0.9023, -0.375 -0.2028 0.8435, -0.3794 -0.2028 0.8526, -0.3897 -0.2028 0.8741, -0.2953 -0.1043 0.6693, -0.2953 -0.1102 0.709, -0.3445 -0.0911 0.6693, -0.3445 -0.0976 0.7128, -0.3805 -0.0551 0.6693, -0.3805 -0.0631 0.7232, -0.3937 -0.0059 0.6693, -0.3937 -0.0159 0.7374, -0.3805 0.0433 0.6693, -0.3805 0.0312 0.7516, -0.3445 0.0793 0.6693, -0.3445 0.0657 0.7619, -0.2953 0.0925 0.6693, -0.2953 0.0783 0.7657, -0.2461 0.0793 0.6693, -0.2461 0.0657 0.7619, -0.21 0.0433 0.6693, -0.21 0.0312 0.7516, -0.1969 -0.0059 0.6693, -0.1969 -0.0159 0.7374, -0.21 -0.0551 0.6693, -0.21 -0.0631 0.7232, -0.2461 -0.0911 0.6693, -0.2461 -0.0976 0.7128, -0.2953 -0.1272 0.7453, -0.3445 -0.1162 0.7526, -0.3805 -0.0862 0.7725, -0.3937 -0.0452 0.7997, -0.3805 -0.0041 0.8268, -0.3445 0.0259 0.8467, -0.2953 0.0369 0.854, -0.2461 0.0259 0.8467, -0.21 -0.0041 0.8268, -0.1969 -0.0452 0.7997, -0.21 -0.0862 0.7725, -0.2461 -0.1162 0.7526, -0.2953 -0.154 0.7752, -0.3445 -0.1456 0.7854, -0.3805 -0.1226 0.8131, -0.3937 -0.0911 0.8509, -0.3805 -0.0596 0.8888, -0.3445 -0.0366 0.9165, -0.2953 -0.0282 0.9266, -0.2461 -0.0366 0.9165, -0.21 -0.0596 0.8888, -0.1969 -0.0911 0.8509, -0.21 -0.1226 0.8131, -0.2461 -0.1456 0.7854, -0.2953 0.0925 -1.0472, -0.2461 0.0793 -1.0472, -0.21 0.0433 -1.0472, -0.1969 -0.0059 -1.0472, -0.21 -0.0551 -1.0472, -0.2461 -0.0911 -1.0472, -0.2953 -0.1043 -1.0472, -0.3445 -0.0911 -1.0472, -0.3805 -0.0551 -1.0472, -0.3937 -0.0059 -1.0472, -0.3805 0.0433 -1.0472, -0.3445 0.0793 -1.0472
            ]
        }
        coordIndex [
            0,1,2,-1,2,1,3,-1,2,3,4,-1,5,6,2,-1,2,6,7,-1,2,7,0,-1,8,9,2,-1,2,9,10,-1,2,10,5,-1,4,11,2,-1,2,11,12,-1,2,12,8,-1,13,14,15,-1,15,14,16,-1,15,16,17,-1,17,16,18,-1,17,18,19,-1,19,18,20,-1,19,20,21,-1,21,20,22,-1,21,22,23,-1,23,22,24,-1,23,24,25,-1,25,24,26,-1,25,26,27,-1,27,26,28,-1,27,28,29,-1,29,28,30,-1,29,30,31,-1,31,30,32,-1,31,32,33,-1,33,32,34,-1,33,34,35,-1,35,34,36,-1,35,36,13,-1,13,36,14,-1,37,38,39,-1,39,38,40,-1,39,40,41,-1,42,43,39,-1,39,43,44,-1,39,44,37,-1,45,46,39,-1,39,46,47,-1,39,47,42,-1,41,48,39,-1,39,48,49,-1,39,49,45,-1,50,51,52,-1,50,52,53,-1,54,55,56,-1,54,56,50,-1,50,56,57,-1,50,57,51,-1,55,54,58,-1,58,54,59,-1,58,59,60,-1,61,62,59,-1,59,62,63,-1,59,63,60,-1,64,65,61,-1,61,65,66,-1,61,66,62,-1,67,68,69,-1,69,68,70,-1,69,70,64,-1,64,70,71,-1,64,71,65,-1,67,69,72,-1,72,69,73,-1,72,73,74,-1,74,73,75,-1,75,73,76,-1,75,76,77,-1,78,79,76,-1,76,79,80,-1,76,80,77,-1,81,82,83,-1,83,82,84,-1,83,84,78,-1,78,84,85,-1,78,85,79,-1,81,83,86,-1,86,83,87,-1,86,87,88,-1,52,89,53,-1,53,89,90,-1,53,90,87,-1,87,90,91,-1,87,91,88,-1,92,93,94,-1,94,93,95,-1,94,95,96,-1,96,95,97,-1,96,97,98,-1,98,97,99,-1,98,99,100,-1,100,99,101,-1,100,101,102,-1,102,101,103,-1,102,103,104,-1,104,103,105,-1,104,105,106,-1,106,105,107,-1,106,107,108,-1,108,107,109,-1,108,109,110,-1,110,109,111,-1,110,111,112,-1,112,111,113,-1,112,113,114,-1,114,113,115,-1,114,115,92,-1,92,115,93,-1,93,116,95,-1,95,116,117,-1,95,117,97,-1,97,117,118,-1,97,118,99,-1,99,118,119,-1,99,119,101,-1,101,119,120,-1,101,120,103,-1,103,120,121,-1,103,121,105,-1,105,121,122,-1,105,122,107,-1,107,122,123,-1,107,123,109,-1,109,123,124,-1,109,124,111,-1,111,124,125,-1,111,125,113,-1,113,125,126,-1,113,126,115,-1,115,126,127,-1,115,127,93,-1,93,127,116,-1,116,128,117,-1,117,128,129,-1,117,129,118,-1,118,129,130,-1,118,130,119,-1,119,130,131,-1,119,131,120,-1,120,131,132,-1,120,132,121,-1,121,132,133,-1,121,133,122,-1,122,133,134,-1,122,134,123,-1,123,134,135,-1,123,135,124,-1,124,135,136,-1,124,136,125,-1,125,136,137,-1,125,137,126,-1,126,137,138,-1,126,138,127,-1,127,138,139,-1,127,139,116,-1,116,139,128,-1,128,54,129,-1,129,54,50,-1,129,50,130,-1,130,50,53,-1,130,53,131,-1,131,53,87,-1,131,87,132,-1,132,87,83,-1,132,83,133,-1,133,83,78,-1,133,78,134,-1,134,78,76,-1,134,76,135,-1,135,76,73,-1,135,73,136,-1,136,73,69,-1,136,69,137,-1,137,69,64,-1,137,64,138,-1,138,64,61,-1,138,61,139,-1,139,61,59,-1,139,59,128,-1,128,59,54,-1,140,106,141,-1,141,106,108,-1,141,108,142,-1,142,108,110,-1,142,110,143,-1,143,110,112,-1,143,112,144,-1,144,112,114,-1,144,114,145,-1,145,114,92,-1,145,92,146,-1,146,92,94,-1,146,94,147,-1,147,94,96,-1,147,96,148,-1,148,96,98,-1,148,98,149,-1,149,98,100,-1,149,100,150,-1,150,100,102,-1,150,102,151,-1,151,102,104,-1,151,104,140,-1,140,104,106,-1,146,43,145,-1,145,43,42,-1,145,42,144,-1,144,42,47,-1,144,47,143,-1,143,47,46,-1,143,46,142,-1,142,46,45,-1,142,45,141,-1,141,45,49,-1,141,49,140,-1,140,49,48,-1,140,48,151,-1,151,48,41,-1,151,41,150,-1,150,41,40,-1,150,40,149,-1,149,40,38,-1,149,38,148,-1,148,38,37,-1,148,37,147,-1,147,37,44,-1,147,44,146,-1,146,44,43,-1,36,1,14,-1,14,1,0,-1,14,0,16,-1,16,0,7,-1,16,7,18,-1,18,7,6,-1,18,6,20,-1,20,6,5,-1,20,5,22,-1,22,5,10,-1,22,10,24,-1,24,10,9,-1,24,9,26,-1,26,9,8,-1,26,8,28,-1,28,8,12,-1,28,12,30,-1,30,12,11,-1,30,11,32,-1,32,11,4,-1,32,4,34,-1,34,4,3,-1,34,3,36,-1,36,3,1,-1,
        ]
    }
}
Shape{
    appearance Appearance {
        material  Material {
            diffuseColor 0.7529411764705882 0.7529411764705882 0.7529411764705882
            specularColor 0.3764705882352941 0.3764705882352941 0.3764705882352941
            ambientIntensity 0.7529
            transparency 0.0
            shininess 0.5
        }
    }
    geometry IndexedFaceSet {
        ccw TRUE
        solid FALSE
        coord DEF co Coordinate {
            point [
                0.187 -0.124 0.2362, 0.187 -0.124 0.0007, 0.187 -0.0059 0.2362, 0.187 -0.0059 0.0007, 0.4035 -0.124 0.0007, 0.4035 -0.124 0.2362, 0.4035 -0.0059 0.0007, 0.4035 -0.0059 0.2362
            ]
        }
        coordIndex [
            0,1,2,-1,2,1,3,-1,4,5,6,-1,6,5,7,-1,5,4,0,-1,0,4,1,-1,
        ]
    }
}
Shape{
    appearance Appearance {
        material  Material {
            diffuseColor 0.796078431372549 0.8235294117647058 0.9372549019607843
            specularColor 0.396078431372549 0.4117647058823529 0.4666666666666667
            ambientIntensity 0.8283
            transparency 0.0
            shininess 0.5
        }
    }
    geometry IndexedFaceSet {
        ccw TRUE
        solid FALSE
        coord DEF co Coordinate {
            point [
                0.3328 -1.6187 0.9272, 0.3169 -1.6187 0.943, 0.2953 -1.6187 0.9055, 0.2953 -1.6187 0.9488, 0.2736 -1.6187 0.943, 0.3169 -1.6187 0.868, 0.3328 -1.6187 0.8839, 0.3386 -1.6187 0.9055, 0.2578 -1.6187 0.8839, 0.2736 -1.6187 0.868, 0.2953 -1.6187 0.8622, 0.2578 -1.6187 0.9272, 0.252 -1.6187 0.9055, 0.2953 -0.439 1.0039, 0.3445 -1.5636 0.9908, 0.3445 -0.439 0.9908, 0.3805 -1.5636 0.9547, 0.3805 -0.439 0.9547, 0.3937 -1.5636 0.9055, 0.3937 -0.439 0.9055, 0.3805 -1.5636 0.8563, 0.3805 -0.439 0.8563, 0.3445 -1.5636 0.8203, 0.3445 -0.439 0.8203, 0.2953 -1.5636 0.8071, 0.2953 -0.439 0.8071, 0.2461 -1.5636 0.8203, 0.2461 -0.439 0.8203, 0.21 -1.5636 0.8563, 0.21 -0.439 0.8563, 0.1969 -1.5636 0.9055, 0.1969 -0.439 0.9055, 0.21 -1.5636 0.9547, 0.21 -0.439 0.9547, 0.2461 -1.5636 0.9908, 0.2461 -0.439 0.9908, 0.2953 -1.5636 1.0039, 0.2736 -0.0434 -1.1024, 0.2578 -0.0276 -1.1024, 0.2953 -0.0059 -1.1024, 0.252 -0.0059 -1.1024, 0.2578 0.0157 -1.1024, 0.3328 -0.0276 -1.1024, 0.3169 -0.0434 -1.1024, 0.2953 -0.0492 -1.1024, 0.3169 0.0316 -1.1024, 0.3328 0.0157 -1.1024, 0.3386 -0.0059 -1.1024, 0.2736 0.0316 -1.1024, 0.2953 0.0374 -1.1024, 0.2461 -0.1831 0.8083, 0.2463 -0.2028 0.8154, 0.2395 -0.2028 0.8193, 0.21 -0.1691 0.8414, 0.2953 -0.1883 0.7961, 0.2952 -0.2028 0.8025, 0.2862 -0.2028 0.8018, 0.2556 -0.2028 0.8101, 0.3189 -0.2028 0.8043, 0.3445 -0.1831 0.8083, 0.3441 -0.2028 0.8159, 0.3805 -0.1691 0.8414, 0.3743 -0.2028 0.8424, 0.3497 -0.2028 0.8184, 0.3937 -0.1498 0.8867, 0.3894 -0.2028 0.873, 0.3794 -0.2028 0.8527, 0.3794 -0.2028 0.9513, 0.3867 -0.2028 0.939, 0.3805 -0.1306 0.932, 0.3936 -0.2028 0.9064, 0.3931 -0.2028 0.9023, 0.3697 -0.2028 0.9673, 0.3445 -0.1165 0.9652, 0.3444 -0.2028 0.9884, 0.3137 -0.2028 0.9999, 0.2953 -0.1114 0.9773, 0.2952 -0.2028 1.0002, 0.2461 -0.1165 0.9652, 0.2494 -0.2028 0.9902, 0.2808 -0.2028 1.0005, 0.2048 -0.2028 0.9415, 0.2111 -0.2028 0.9513, 0.21 -0.1306 0.932, 0.2231 -0.2028 0.9698, 0.2464 -0.2028 0.9879, 0.197 -0.2028 0.9082, 0.1969 -0.1498 0.8867, 0.1977 -0.2028 0.9023, 0.2155 -0.2028 0.8435, 0.2111 -0.2028 0.8526, 0.2008 -0.2028 0.8741, 0.2953 -0.1043 0.6693, 0.2953 -0.1102 0.709, 0.2461 -0.0911 0.6693, 0.2461 -0.0976 0.7128, 0.21 -0.0551 0.6693, 0.21 -0.0631 0.7232, 0.1969 -0.0059 0.6693, 0.1969 -0.0159 0.7374, 0.21 0.0433 0.6693, 0.21 0.0312 0.7516, 0.2461 0.0793 0.6693, 0.2461 0.0657 0.7619, 0.2953 0.0925 0.6693, 0.2953 0.0783 0.7657, 0.3445 0.0793 0.6693, 0.3445 0.0657 0.7619, 0.3805 0.0433 0.6693, 0.3805 0.0312 0.7516, 0.3937 -0.0059 0.6693, 0.3937 -0.0159 0.7374, 0.3805 -0.0551 0.6693, 0.3805 -0.0631 0.7232, 0.3445 -0.0911 0.6693, 0.3445 -0.0976 0.7128, 0.2953 -0.1272 0.7453, 0.2461 -0.1162 0.7526, 0.21 -0.0862 0.7725, 0.1969 -0.0452 0.7997, 0.21 -0.0041 0.8268, 0.2461 0.0259 0.8467, 0.2953 0.0369 0.854, 0.3445 0.0259 0.8467, 0.3805 -0.0041 0.8268, 0.3937 -0.0452 0.7997, 0.3805 -0.0862 0.7725, 0.3445 -0.1162 0.7526, 0.2953 -0.154 0.7752, 0.2461 -0.1456 0.7854, 0.21 -0.1226 0.8131, 0.1969 -0.0911 0.8509, 0.21 -0.0596 0.8888, 0.2461 -0.0366 0.9165, 0.2953 -0.0282 0.9266, 0.3445 -0.0366 0.9165, 0.3805 -0.0596 0.8888, 0.3937 -0.0911 0.8509, 0.3805 -0.1226 0.8131, 0.3445 -0.1456 0.7854, 0.2953 0.0925 -1.0472, 0.3445 0.0793 -1.0472, 0.3805 0.0433 -1.0472, 0.3937 -0.0059 -1.0472, 0.3805 -0.0551 -1.0472, 0.3445 -0.0911 -1.0472, 0.2953 -0.1043 -1.0472, 0.2461 -0.0911 -1.0472, 0.21 -0.0551 -1.0472, 0.1969 -0.0059 -1.0472, 0.21 0.0433 -1.0472, 0.2461 0.0793 -1.0472
            ]
        }
        coordIndex [
            0,1,2,-1,2,1,3,-1,2,3,4,-1,5,6,2,-1,2,6,7,-1,2,7,0,-1,8,9,2,-1,2,9,10,-1,2,10,5,-1,4,11,2,-1,2,11,12,-1,2,12,8,-1,13,14,15,-1,15,14,16,-1,15,16,17,-1,17,16,18,-1,17,18,19,-1,19,18,20,-1,19,20,21,-1,21,20,22,-1,21,22,23,-1,23,22,24,-1,23,24,25,-1,25,24,26,-1,25,26,27,-1,27,26,28,-1,27,28,29,-1,29,28,30,-1,29,30,31,-1,31,30,32,-1,31,32,33,-1,33,32,34,-1,33,34,35,-1,35,34,36,-1,35,36,13,-1,13,36,14,-1,37,38,39,-1,39,38,40,-1,39,40,41,-1,42,43,39,-1,39,43,44,-1,39,44,37,-1,45,46,39,-1,39,46,47,-1,39,47,42,-1,41,48,39,-1,39,48,49,-1,39,49,45,-1,50,51,52,-1,50,52,53,-1,54,55,56,-1,54,56,50,-1,50,56,57,-1,50,57,51,-1,55,54,58,-1,58,54,59,-1,58,59,60,-1,61,62,59,-1,59,62,63,-1,59,63,60,-1,64,65,61,-1,61,65,66,-1,61,66,62,-1,67,68,69,-1,69,68,70,-1,69,70,64,-1,64,70,71,-1,64,71,65,-1,67,69,72,-1,72,69,73,-1,72,73,74,-1,74,73,75,-1,75,73,76,-1,75,76,77,-1,78,79,76,-1,76,79,80,-1,76,80,77,-1,81,82,83,-1,83,82,84,-1,83,84,78,-1,78,84,85,-1,78,85,79,-1,81,83,86,-1,86,83,87,-1,86,87,88,-1,52,89,53,-1,53,89,90,-1,53,90,87,-1,87,90,91,-1,87,91,88,-1,92,93,94,-1,94,93,95,-1,94,95,96,-1,96,95,97,-1,96,97,98,-1,98,97,99,-1,98,99,100,-1,100,99,101,-1,100,101,102,-1,102,101,103,-1,102,103,104,-1,104,103,105,-1,104,105,106,-1,106,105,107,-1,106,107,108,-1,108,107,109,-1,108,109,110,-1,110,109,111,-1,110,111,112,-1,112,111,113,-1,112,113,114,-1,114,113,115,-1,114,115,92,-1,92,115,93,-1,93,116,95,-1,95,116,117,-1,95,117,97,-1,97,117,118,-1,97,118,99,-1,99,118,119,-1,99,119,101,-1,101,119,120,-1,101,120,103,-1,103,120,121,-1,103,121,105,-1,105,121,122,-1,105,122,107,-1,107,122,123,-1,107,123,109,-1,109,123,124,-1,109,124,111,-1,111,124,125,-1,111,125,113,-1,113,125,126,-1,113,126,115,-1,115,126,127,-1,115,127,93,-1,93,127,116,-1,116,128,117,-1,117,128,129,-1,117,129,118,-1,118,129,130,-1,118,130,119,-1,119,130,131,-1,119,131,120,-1,120,131,132,-1,120,132,121,-1,121,132,133,-1,121,133,122,-1,122,133,134,-1,122,134,123,-1,123,134,135,-1,123,135,124,-1,124,135,136,-1,124,136,125,-1,125,136,137,-1,125,137,126,-1,126,137,138,-1,126,138,127,-1,127,138,139,-1,127,139,116,-1,116,139,128,-1,128,54,129,-1,129,54,50,-1,129,50,130,-1,130,50,53,-1,130,53,131,-1,131,53,87,-1,131,87,132,-1,132,87,83,-1,132,83,133,-1,133,83,78,-1,133,78,134,-1,134,78,76,-1,134,76,135,-1,135,76,73,-1,135,73,136,-1,136,73,69,-1,136,69,137,-1,137,69,64,-1,137,64,138,-1,138,64,61,-1,138,61,139,-1,139,61,59,-1,139,59,128,-1,128,59,54,-1,140,106,141,-1,141,106,108,-1,141,108,142,-1,142,108,110,-1,142,110,143,-1,143,110,112,-1,143,112,144,-1,144,112,114,-1,144,114,145,-1,145,114,92,-1,145,92,146,-1,146,92,94,-1,146,94,147,-1,147,94,96,-1,147,96,148,-1,148,96,98,-1,148,98,149,-1,149,98,100,-1,149,100,150,-1,150,100,102,-1,150,102,151,-1,151,102,104,-1,151,104,140,-1,140,104,106,-1,146,43,145,-1,145,43,42,-1,145,42,144,-1,144,42,47,-1,144,47,143,-1,143,47,46,-1,143,46,142,-1,142,46,45,-1,142,45,141,-1,141,45,49,-1,141,49,140,-1,140,49,48,-1,140,48,151,-1,151,48,41,-1,151,41,150,-1,150,41,40,-1,150,40,149,-1,149,40,38,-1,149,38,148,-1,148,38,37,-1,148,37,147,-1,147,37,44,-1,147,44,146,-1,146,44,43,-1,36,1,14,-1,14,1,0,-1,14,0,16,-1,16,0,7,-1,16,7,18,-1,18,7,6,-1,18,6,20,-1,20,6,5,-1,20,5,22,-1,22,5,10,-1,22,10,24,-1,24,10,9,-1,24,9,26,-1,26,9,8,-1,26,8,28,-1,28,8,12,-1,28,12,30,-1,30,12,11,-1,30,11,32,-1,32,11,4,-1,32,4,34,-1,34,4,3,-1,34,3,36,-1,36,3,1,-1,
        ]
    }
}
Shape{
    appearance Appearance {
        material  Material {
            diffuseColor 0.7529411764705882 0.7529411764705882 0.7529411764705882
            specularColor 0.3764705882352941 0.3764705882352941 0.3764705882352941
            ambientIntensity 0.7529
            transparency 0.0
            shininess 0.5
        }
    }
    geometry IndexedFaceSet {
        ccw TRUE
        solid FALSE
        coord DEF co Coordinate {
            point [
                -0.2153 -0.6022 0.0046, -0.2178 -0.6022 0.0046, -0.2153 -0.6022 0.0007, -0.2178 -0.6022 0.0007, -0.3087 -0.799 0.0046, -0.3087 -0.799 0.0007, -0.2895 -0.799 0.0046, -0.2895 -0.799 0.0007, -0.2604 -0.7359 0.0046, -0.2604 -0.7359 0.0007, -0.1712 -0.7359 0.0046, -0.1712 -0.7359 0.0007, -0.1412 -0.799 0.0046, -0.1412 -0.799 0.0007, -0.1219 -0.799 0.0046, -0.1219 -0.799 0.0007, -0.2511 -0.7158 0.0046, -0.1807 -0.7158 0.0046, -0.2164 -0.6406 0.0046, -0.2511 -0.7158 0.0007, -0.2164 -0.6406 0.0007, -0.1807 -0.7158 0.0007, 0.0038 -0.799 0.0046, 0.0648 -0.799 0.0046, 0.0038 -0.799 0.0007, 0.0648 -0.799 0.0007, 0.0648 -0.6022 0.0046, 0.0648 -0.6022 0.0007, 0.0251 -0.6022 0.0046, 0.0251 -0.6022 0.0007, -0.0374 -0.6093 0.0046, -0.0374 -0.6093 0.0007, -0.0065 -0.6034 0.0007, -0.0065 -0.6034 0.0046, -0.0967 -0.7031 0.0046, -0.0967 -0.7031 0.0007, -0.093 -0.6721 0.0007, -0.093 -0.6721 0.0046, -0.0729 -0.6332 0.0007, -0.0729 -0.6332 0.0046, -0.0175 -0.798 0.0007, -0.0175 -0.798 0.0046, -0.0571 -0.7853 0.0007, -0.0571 -0.7853 0.0046, -0.0856 -0.7526 0.0007, -0.0856 -0.7526 0.0046, -0.0759 -0.7276 0.0046, -0.0599 -0.7564 0.0046, -0.0317 -0.7738 0.0046, -0.0038 -0.7781 0.0046, 0.0245 -0.7788 0.0046, 0.0471 -0.7788 0.0046, 0.0471 -0.6224 0.0046, 0.0333 -0.6224 0.0046, 0.0029 -0.6233 0.0046, -0.0272 -0.6279 0.0046, -0.049 -0.6384 0.0046, -0.0704 -0.6637 0.0046, -0.079 -0.7031 0.0046, 0.0471 -0.6224 0.0007, 0.0471 -0.7788 0.0007, 0.0333 -0.6224 0.0007, 0.0029 -0.6233 0.0007, -0.0272 -0.6279 0.0007, -0.049 -0.6384 0.0007, -0.0704 -0.6637 0.0007, -0.079 -0.7031 0.0007, -0.0759 -0.7276 0.0007, -0.0599 -0.7564 0.0007, -0.0317 -0.7738 0.0007, -0.0038 -0.7781 0.0007, 0.0245 -0.7788 0.0007, 0.2112 -0.799 0.0046, 0.2112 -0.6022 0.0046, 0.2112 -0.799 0.0007, 0.2112 -0.6022 0.0007, 0.1001 -0.6022 0.0046, 0.1001 -0.6022 0.0007, 0.1001 -0.6224 0.0046, 0.1001 -0.6224 0.0007, 0.1935 -0.6224 0.0046, 0.1935 -0.6224 0.0007, 0.1935 -0.6829 0.0046, 0.1935 -0.6829 0.0007, 0.1001 -0.6829 0.0046, 0.1001 -0.6829 0.0007, 0.1001 -0.7031 0.0046, 0.1001 -0.7031 0.0007, 0.1935 -0.7031 0.0046, 0.1935 -0.7031 0.0007, 0.1935 -0.7788 0.0046, 0.1935 -0.7788 0.0007, 0.1001 -0.7788 0.0046, 0.1001 -0.7788 0.0007, 0.1001 -0.799 0.0046, 0.1001 -0.799 0.0007, 0.2516 -0.6383 0.0046, 0.2516 -0.6383 0.0007, 0.2578 -0.6306 0.0007, 0.2578 -0.6306 0.0046, 0.2692 -0.6197 0.0007, 0.2692 -0.6197 0.0046, 0.2894 -0.6073 0.0007, 0.2894 -0.6073 0.0046, 0.3374 -0.5971 0.0007, 0.3374 -0.5971 0.0046, 0.267 -0.6501 0.0046, 0.267 -0.6501 0.0007, 0.3386 -0.6173 0.0046, 0.3386 -0.6173 0.0007, 0.3304 -0.6176 0.0007, 0.3304 -0.6176 0.0046, 0.3175 -0.6194 0.0007, 0.3175 -0.6194 0.0046, 0.2989 -0.6254 0.0007, 0.2989 -0.6254 0.0046, 0.4257 -0.7008 0.0046, 0.4257 -0.7008 0.0007, 0.4254 -0.6929 0.0007, 0.4254 -0.6929 0.0046, 0.4127 -0.6556 0.0007, 0.4127 -0.6556 0.0046, 0.3822 -0.6281 0.0007, 0.3822 -0.6281 0.0046, 0.3373 -0.7839 0.0046, 0.3373 -0.7839 0.0007, 0.3497 -0.7833 0.0007, 0.3497 -0.7833 0.0046, 0.3884 -0.7698 0.0007, 0.3884 -0.7698 0.0046, 0.4155 -0.7414 0.0007, 0.4155 -0.7414 0.0046, 0.267 -0.7511 0.0046, 0.267 -0.7511 0.0007, 0.2984 -0.7756 0.0007, 0.2984 -0.7756 0.0046, 0.2516 -0.7628 0.0046, 0.2516 -0.7628 0.0007, 0.3372 -0.8041 0.0046, 0.3372 -0.8041 0.0007, 0.3273 -0.8037 0.0007, 0.3273 -0.8037 0.0046, 0.3124 -0.8016 0.0007, 0.3117 -0.8015 0.0046, 0.3117 -0.8015 0.0007, 0.2893 -0.7939 0.0007, 0.2893 -0.7939 0.0046, 0.3513 -0.8016 0.0007, 0.3818 -0.7961 0.0046, 0.3818 -0.7961 0.0007, 0.401 -0.7856 0.0046, 0.401 -0.7856 0.0007, 0.4122 -0.7763 0.0046, 0.4122 -0.7763 0.0007, 0.4184 -0.7697 0.0046, 0.4184 -0.7697 0.0007, 0.4434 -0.6995 0.0046, 0.4434 -0.6995 0.0007, 0.4374 -0.7369 0.0007, 0.4374 -0.7369 0.0046, 0.3462 -0.5975 0.0007, 0.3462 -0.5975 0.0046, 0.397 -0.6137 0.0007, 0.397 -0.6137 0.0046, 0.4307 -0.6492 0.0007, 0.4307 -0.6492 0.0046, 0.5595 -0.799 0.0046, 0.5595 -0.6022 0.0046, 0.5595 -0.799 0.0007, 0.5595 -0.6022 0.0007, 0.5418 -0.6022 0.0046, 0.5418 -0.6022 0.0007, 0.5418 -0.7788 0.0046, 0.5418 -0.7788 0.0007, 0.4661 -0.7788 0.0046, 0.4661 -0.7788 0.0007, 0.4661 -0.799 0.0046, 0.4661 -0.799 0.0007
            ]
        }
        coordIndex [
            0,1,2,-1,2,1,3,-1,1,4,3,-1,3,4,5,-1,4,6,5,-1,5,6,7,-1,6,8,7,-1,7,8,9,-1,8,10,9,-1,9,10,11,-1,10,12,11,-1,11,12,13,-1,12,14,13,-1,13,14,15,-1,14,0,15,-1,15,0,2,-1,16,4,1,-1,0,17,1,-1,1,17,18,-1,1,18,16,-1,14,12,10,-1,6,4,8,-1,8,4,16,-1,8,16,10,-1,10,16,17,-1,10,17,14,-1,14,17,0,-1,16,18,19,-1,19,18,20,-1,17,16,21,-1,21,16,19,-1,18,17,20,-1,20,17,21,-1,22,23,24,-1,24,23,25,-1,23,26,25,-1,25,26,27,-1,26,28,27,-1,27,28,29,-1,30,31,32,-1,30,32,33,-1,33,32,29,-1,33,29,28,-1,34,35,36,-1,34,36,37,-1,37,36,38,-1,37,38,39,-1,39,38,31,-1,39,31,30,-1,22,24,40,-1,22,40,41,-1,41,40,42,-1,41,42,43,-1,43,42,44,-1,43,44,45,-1,45,44,35,-1,45,35,34,-1,46,47,43,-1,43,47,48,-1,43,48,41,-1,41,48,49,-1,41,49,22,-1,22,49,50,-1,22,50,23,-1,23,50,51,-1,23,51,26,-1,26,51,52,-1,26,52,28,-1,28,52,53,-1,28,53,33,-1,33,53,54,-1,33,54,30,-1,30,54,55,-1,30,55,39,-1,39,55,56,-1,39,56,37,-1,37,56,57,-1,37,57,34,-1,34,57,58,-1,34,58,45,-1,45,58,46,-1,45,46,43,-1,52,51,59,-1,59,51,60,-1,53,52,61,-1,61,52,59,-1,53,61,62,-1,53,62,54,-1,54,62,63,-1,54,63,55,-1,55,63,64,-1,55,64,56,-1,56,64,65,-1,56,65,57,-1,57,65,66,-1,57,66,58,-1,58,66,67,-1,58,67,46,-1,46,67,68,-1,46,68,47,-1,47,68,69,-1,47,69,48,-1,48,69,70,-1,48,70,49,-1,49,70,71,-1,49,71,50,-1,51,50,60,-1,60,50,71,-1,72,73,74,-1,74,73,75,-1,73,76,75,-1,75,76,77,-1,76,78,77,-1,77,78,79,-1,78,80,79,-1,79,80,81,-1,80,82,81,-1,81,82,83,-1,82,84,83,-1,83,84,85,-1,84,86,85,-1,85,86,87,-1,86,88,87,-1,87,88,89,-1,88,90,89,-1,89,90,91,-1,90,92,91,-1,91,92,93,-1,92,94,93,-1,93,94,95,-1,94,72,95,-1,95,72,74,-1,72,94,92,-1,92,90,72,-1,72,90,88,-1,72,88,73,-1,78,76,80,-1,80,76,73,-1,80,73,82,-1,82,73,88,-1,82,88,84,-1,84,88,86,-1,96,97,98,-1,96,98,99,-1,99,98,100,-1,99,100,101,-1,101,100,102,-1,101,102,103,-1,103,102,104,-1,103,104,105,-1,96,106,97,-1,97,106,107,-1,108,109,110,-1,108,110,111,-1,111,110,112,-1,111,112,113,-1,113,112,114,-1,113,114,115,-1,115,114,107,-1,115,107,106,-1,116,117,118,-1,116,118,119,-1,119,118,120,-1,119,120,121,-1,121,120,122,-1,121,122,123,-1,123,122,109,-1,123,109,108,-1,124,125,126,-1,124,126,127,-1,127,126,128,-1,127,128,129,-1,129,128,130,-1,129,130,131,-1,131,130,117,-1,131,117,116,-1,132,133,134,-1,132,134,135,-1,135,134,125,-1,135,125,124,-1,132,136,133,-1,133,136,137,-1,138,139,140,-1,138,140,141,-1,141,140,142,-1,141,142,143,-1,142,144,143,-1,143,144,145,-1,143,145,146,-1,146,145,137,-1,146,137,136,-1,139,138,147,-1,147,138,148,-1,147,148,149,-1,149,148,150,-1,149,150,151,-1,151,150,152,-1,151,152,153,-1,153,152,154,-1,153,154,155,-1,156,157,158,-1,156,158,159,-1,159,158,155,-1,159,155,154,-1,105,104,160,-1,105,160,161,-1,161,160,162,-1,161,162,163,-1,163,162,164,-1,163,164,165,-1,165,164,157,-1,165,157,156,-1,136,132,146,-1,146,132,135,-1,156,159,131,-1,131,159,129,-1,129,159,154,-1,129,154,152,-1,106,96,99,-1,106,99,115,-1,115,99,101,-1,115,101,103,-1,152,150,129,-1,129,150,148,-1,129,148,127,-1,127,148,138,-1,127,138,124,-1,124,138,141,-1,124,141,135,-1,135,141,143,-1,135,143,146,-1,131,116,156,-1,156,116,119,-1,156,119,165,-1,165,119,121,-1,165,121,163,-1,163,121,123,-1,163,123,161,-1,161,123,108,-1,161,108,105,-1,105,108,111,-1,105,111,103,-1,103,111,113,-1,103,113,115,-1,166,167,168,-1,168,167,169,-1,167,170,169,-1,169,170,171,-1,170,172,171,-1,171,172,173,-1,172,174,173,-1,173,174,175,-1,174,176,175,-1,175,176,177,-1,176,166,177,-1,177,166,168,-1,170,167,172,-1,172,167,166,-1,172,166,174,-1,174,166,176,-1,20,21,19,-1,59,60,61,-1,61,60,71,-1,61,71,62,-1,62,71,70,-1,62,70,63,-1,69,68,70,-1,70,68,67,-1,70,67,66,-1,66,65,70,-1,70,65,64,-1,70,64,63,-1,
        ]
    }
}