#VRML V2.0 utf8
# 3D model generated by kicad-lcsc-manager
# Based on easyeda2kicad.py v1.0.1

Shape{
    appearance Appearance {
        material  Material {
            diffuseColor 0.25098039215686274 0.25098039215686274 0.25098039215686274
            specularColor 0.12549019607843137 0.12549019607843137 0.12549019607843137
            ambientIntensity 0.251
            transparency 0.0
            shininess 0.5
        }
    }
    geometry IndexedFaceSet {
        ccw TRUE
        solid FALSE
        coord DEF co Coordinate {
            point [
                0.0098 -0.4543 0.0079, 0.0098 -0.5921 0.0079, -0.0832 -0.5921 0.0079, -0.0832 0.2445 0.0079, -0.4331 0.2445 0.0079, -0.4331 0.2856 0.0079, -0.0832 0.589 0.0079, -0.0755 0.2947 0.0079, -0.0832 0.2856 0.0079, -0.0755 0.2861 0.0079, -0.0333 0.2861 0.0079, -0.0179 0.2902 0.0079, -0.0179 0.2988 0.0079, -0.0333 0.3648 0.0079, -0.0095 0.2867 0.0079, -0.0016 0.2856 0.0079, -0.0439 0.3562 0.0079, -0.0439 0.3302 0.0079, -0.0736 0.3562 0.0079, -0.0717 0.3302 0.0079, 0.0134 0.2861 0.0079, 0.0211 0.2887 0.0079, 0.0474 0.2861 0.0079, 0.0877 0.2861 0.0079, 0.0877 0.3648 0.0079, 0.2067 0.4512 0.0079, -0.0439 0.3216 0.0079, -0.0439 0.2947 0.0079, -0.0717 0.3216 0.0079, -0.0736 0.3648 0.0079, 0.0083 0.3563 0.0079, 0.0142 0.3541 0.0079, -0.0165 0.298 0.0079, 0.0196 0.3505 0.0079, 0.0244 0.3452 0.0079, 0.0301 0.3246 0.0079, 0.0293 0.3161 0.0079, 0.0271 0.3093 0.0079, 0.0096 0.2946 0.0079, 0.0023 0.2938 0.0079, 0.0154 0.2967 0.0079, 0.0202 0.2999 0.0079, 0.0239 0.3038 0.0079, -0.0082 0.2949 0.0079, 0.2072 0.4468 0.0079, 0.2086 0.4426 0.0079, 0.211 0.4389 0.0079, 0.0276 0.3392 0.0079, 0.0297 0.3307 0.0079, 0.021 0.4335 0.0079, 0.0771 0.3648 0.0079, 0.0172 0.4358 0.0079, 0.0141 0.4389 0.0079, 0.0251 0.432 0.0079, 0.0295 0.4315 0.0079, 0.0886 0.4315 0.0079, 0.0929 0.432 0.0079, 0.1082 0.589 0.0079, 0.2067 0.589 0.0079, 0.1082 0.4512 0.0079, 0.1077 0.4468 0.0079, 0.1063 0.4426 0.0079, 0.0274 0.2928 0.0079, 0.0333 0.299 0.0079, 0.0474 0.2947 0.0079, 0.0375 0.3065 0.0079, 0.0771 0.2947 0.0079, 0.0248 0.3583 0.0079, 0.0173 0.3626 0.0079, 0.0103 0.4468 0.0079, 0.0098 0.4512 0.0079, 0.2141 0.4358 0.0079, 0.2178 0.4335 0.0079, 0.222 0.432 0.0079, 0.0971 0.4335 0.0079, 0.1008 0.4358 0.0079, 0.1039 0.4389 0.0079, 0.0118 0.4426 0.0079, 0.0319 0.3514 0.0079, 0.0365 0.3441 0.0079, 0.0399 0.3148 0.0079, 0.0406 0.324 0.0079, 0.0395 0.3352 0.0079, 0.0085 0.3651 0.0079, 0.0006 0.3658 0.0079, 0.0098 0.589 0.0079, -0.0088 0.3651 0.0079, -0.0179 0.3627 0.0079, -0.0179 0.3521 0.0079, -0.0091 0.3559 0.0079, 0.0005 0.3571 0.0079, 0.2263 0.4315 0.0079, 0.2854 0.4315 0.0079, 0.2898 0.432 0.0079, 0.0084 0.2856 0.0079, 0.3543 0.2856 0.0079, 0.2939 0.4335 0.0079, 0.2977 0.4358 0.0079, 0.3008 0.4389 0.0079, 0.3031 0.4426 0.0079, 0.3051 0.589 0.0079, 0.3543 0.589 0.0079, 0.3051 0.4512 0.0079, 0.3046 0.4468 0.0079, -0.1245 0.3636 0.0079, -0.1337 0.3604 0.0079, -0.1083 0.4315 0.0079, -0.2311 0.2861 0.0079, -0.2196 0.2861 0.0079, -0.16 0.2861 0.0079, -0.1504 0.3077 0.0079, -0.1458 0.3006 0.0079, -0.1394 0.2944 0.0079, -0.1311 0.2896 0.0079, -0.1221 0.2869 0.0079, -0.1424 0.3545 0.0079, -0.1479 0.3484 0.0079, -0.1898 0.3648 0.0079, -0.1516 0.3416 0.0079, -0.1423 0.3546 0.0079, -0.1851 0.4426 0.0079, -0.1827 0.4389 0.0079, -0.286 0.4468 0.0079, -0.1796 0.4358 0.0079, -0.3834 0.4468 0.0079, -0.3819 0.4426 0.0079, -0.3796 0.4389 0.0079, -0.3765 0.4358 0.0079, -0.3727 0.4335 0.0079, -0.1123 0.2861 0.0079, -0.1716 0.2861 0.0079, -0.1791 0.3082 0.0079, -0.2116 0.3082 0.0079, -0.1039 0.432 0.0079, -0.0998 0.4335 0.0079, -0.0909 0.3648 0.0079, -0.096 0.4358 0.0079, -0.0929 0.4389 0.0079, -0.1537 0.3338 0.0079, -0.1543 0.3264 0.0079, -0.1532 0.3159 0.0079, -0.3686 0.432 0.0079, -0.3642 0.4315 0.0079, -0.2004 0.3648 0.0079, -0.3839 0.4512 0.0079, -0.4331 0.589 0.0079, -0.3839 0.589 0.0079, -0.0906 0.4426 0.0079, -0.0891 0.4468 0.0079, -0.0886 0.4512 0.0079, -0.3051 0.4315 0.0079, -0.3008 0.432 0.0079, -0.2966 0.4335 0.0079, -0.2929 0.4358 0.0079, -0.2898 0.4389 0.0079, -0.2874 0.4426 0.0079, -0.1131 0.3648 0.0079, -0.0909 0.2861 0.0079, -0.0886 0.589 0.0079, -0.1759 0.4335 0.0079, -0.1717 0.432 0.0079, -0.1674 0.4315 0.0079, -0.2855 0.589 0.0079, -0.187 0.589 0.0079, -0.2855 0.4512 0.0079, -0.187 0.4512 0.0079, -0.1865 0.4468 0.0079, 0.3543 0.2445 0.0079, 0.2165 0.2445 0.0079, 0.208 0.2425 0.0079, 0.2042 0.2402 0.0079, 0.2121 0.244 0.0079, 0.2011 0.1535 0.0079, 0.2042 0.1504 0.0079, -0.0832 0.0476 0.0079, 0.1988 0.1572 0.0079, 0.0197 0.2445 0.0079, 0.1973 0.1614 0.0079, 0.0197 0.1461 0.0079, 0.024 0.1466 0.0079, 0.0282 0.148 0.0079, 0.0319 0.1504 0.0079, 0.035 0.1535 0.0079, 0.0319 0.2402 0.0079, 0.0282 0.2425 0.0079, 0.024 0.244 0.0079, 0.0037 0.2851 0.0079, 0.0016 0.2851 0.0079, 0.208 0.148 0.0079, 0.2121 0.1466 0.0079, 0.3543 0.0476 0.0079, 0.2165 0.1461 0.0079, 0.3543 0.1461 0.0079, 0.1973 0.2292 0.0079, 0.0388 0.2292 0.0079, 0.0374 0.2333 0.0079, 0.0374 0.1572 0.0079, 0.0388 0.1614 0.0079, 0.0393 0.1658 0.0079, 0.2011 0.2371 0.0079, 0.1988 0.2333 0.0079, 0.035 0.2371 0.0079, 0.0393 0.2248 0.0079, 0.1968 0.2248 0.0079, 0.1968 0.1658 0.0079, -0.0832 0.1461 0.0079, -0.0985 0.0476 0.0079, -0.1176 -0.0355 0.0079, -0.1162 -0.0396 0.0079, -0.4331 -0.1492 0.0079, -0.1028 0.0471 0.0079, -0.107 0.0457 0.0079, -0.4331 0.1461 0.0079, -0.1107 0.0433 0.0079, -0.1138 0.0402 0.0079, -0.1162 0.0365 0.0079, -0.1138 -0.0434 0.0079, -0.1107 -0.0465 0.0079, -0.0832 -0.1492 0.0079, -0.107 -0.0488 0.0079, -0.1028 -0.0503 0.0079, -0.1176 0.0323 0.0079, -0.1181 0.028 0.0079, -0.1181 -0.0311 0.0079, 0.0374 -0.1604 0.0079, 0.035 -0.1566 0.0079, 0.2178 -0.4366 0.0079, 0.3008 -0.4421 0.0079, 0.3543 -0.0508 0.0079, 0.3031 -0.4458 0.0079, 0.3046 -0.4499 0.0079, 0.3051 -0.4543 0.0079, 0.3543 -0.5921 0.0079, 0.3051 -0.5921 0.0079, -0.0985 -0.0508 0.0079, -0.0832 -0.0508 0.0079, 0.0197 -0.1492 0.0079, 0.1063 -0.4458 0.0079, 0.1039 -0.4421 0.0079, 0.2072 -0.4499 0.0079, 0.2977 -0.4389 0.0079, 0.2939 -0.4366 0.0079, 0.2898 -0.4351 0.0079, 0.211 -0.4421 0.0079, 0.2086 -0.4458 0.0079, 0.0971 -0.4366 0.0079, 0.1008 -0.4389 0.0079, 0.021 -0.4366 0.0079, 0.0172 -0.4389 0.0079, -0.0832 -0.2476 0.0079, 0.0141 -0.4421 0.0079, 0.0118 -0.4458 0.0079, 0.024 -0.2471 0.0079, 0.0197 -0.2476 0.0079, 0.0929 -0.4351 0.0079, 0.0886 -0.4346 0.0079, 0.0319 -0.1535 0.0079, 0.0282 -0.1512 0.0079, 0.024 -0.1497 0.0079, 0.0388 -0.2323 0.0079, 0.0393 -0.2279 0.0079, 0.0295 -0.4346 0.0079, 0.0251 -0.4351 0.0079, 0.0393 -0.1689 0.0079, 0.0388 -0.1645 0.0079, 0.0103 -0.4499 0.0079, 0.0282 -0.2457 0.0079, 0.0319 -0.2433 0.0079, 0.2141 -0.4389 0.0079, 0.035 -0.2402 0.0079, 0.0374 -0.2365 0.0079, 0.2067 -0.5921 0.0079, 0.1082 -0.5921 0.0079, 0.2067 -0.4543 0.0079, 0.1082 -0.4543 0.0079, 0.1077 -0.4499 0.0079, 0.2854 -0.4346 0.0079, 0.2263 -0.4346 0.0079, 0.222 -0.4351 0.0079, -0.3765 -0.4389 0.0079, -0.3796 -0.4421 0.0079, -0.4331 -0.2476 0.0079, -0.3839 -0.5921 0.0079, -0.4331 -0.5921 0.0079, -0.3839 -0.4543 0.0079, -0.3819 -0.4458 0.0079, -0.3834 -0.4499 0.0079, -0.1827 -0.4421 0.0079, -0.1851 -0.4458 0.0079, -0.286 -0.4499 0.0079, -0.2874 -0.4458 0.0079, -0.2898 -0.4421 0.0079, -0.2929 -0.4389 0.0079, -0.0886 -0.4543 0.0079, -0.0891 -0.4499 0.0079, -0.1796 -0.4389 0.0079, -0.0906 -0.4458 0.0079, -0.0929 -0.4421 0.0079, -0.096 -0.4389 0.0079, -0.0998 -0.4366 0.0079, -0.1039 -0.4351 0.0079, -0.1083 -0.4346 0.0079, -0.1759 -0.4366 0.0079, -0.3642 -0.4346 0.0079, -0.3686 -0.4351 0.0079, -0.3727 -0.4366 0.0079, -0.0886 -0.5921 0.0079, -0.1674 -0.4346 0.0079, -0.1717 -0.4351 0.0079, -0.187 -0.4543 0.0079, -0.187 -0.5921 0.0079, -0.2855 -0.5921 0.0079, -0.1865 -0.4499 0.0079, -0.2855 -0.4543 0.0079, -0.2966 -0.4366 0.0079, -0.3008 -0.4351 0.0079, -0.3051 -0.4346 0.0079, 0.3543 0.589 0.3622, 0.3543 -0.5921 0.3622, 0.3543 -0.0508 0.0866, 0.3543 0.0476 0.0866, 0.3543 0.2445 0.0866, 0.3543 0.1461 0.0866, 0.0098 0.589 0.0866, 0.2067 0.589 0.0866, 0.3051 0.589 0.0866, -0.187 0.589 0.0866, -0.2855 0.589 0.0866, 0.1082 0.589 0.0866, -0.0886 0.589 0.0866, -0.3839 0.589 0.0866, -0.4331 0.589 0.3622, -0.4331 0.1461 0.0866, -0.4331 -0.2476 0.0866, -0.4331 -0.5921 0.3622, -0.4331 -0.1492 0.0866, -0.4331 0.2445 0.0866, -0.3839 -0.5921 0.0866, -0.2855 -0.5921 0.0866, -0.187 -0.5921 0.0866, -0.0886 -0.5921 0.0866, 0.0098 -0.5921 0.0866, 0.1082 -0.5921 0.0866, 0.3051 -0.5921 0.0866, 0.2067 -0.5921 0.0866, -0.2971 0.5 0.3622, -0.2901 0.4909 0.3622, -0.2857 0.4575 0.3622, -0.2901 0.4469 0.3622, -0.2971 0.4378 0.3622, -0.3707 0.4803 0.3622, -0.3663 0.4909 0.3622, -0.2857 0.4803 0.3622, -0.2842 0.4689 0.3622, -0.3282 0.4249 0.3622, -0.3168 0.4264 0.3622, -0.3062 0.4308 0.3622, -0.3396 0.4264 0.3622, -0.3502 0.4308 0.3622, -0.3593 0.4378 0.3622, -0.3396 0.5113 0.3622, -0.3282 0.5128 0.3622, -0.3168 0.5113 0.3622, -0.3062 0.5069 0.3622, -0.3663 0.4469 0.3622, -0.3707 0.4575 0.3622, -0.3722 0.4689 0.3622, -0.3593 0.5 0.3622, -0.3502 0.5069 0.3622
            ]
        }
        coordIndex [
            0,1,2,-1,3,4,5,-1,6,7,8,-1,8,7,9,-1,8,9,10,-1,11,10,12,-1,12,10,13,-1,11,14,10,-1,10,14,15,-1,10,15,8,-1,16,17,18,-1,18,17,19,-1,20,21,22,-1,23,24,25,-1,26,27,28,-1,28,27,7,-1,13,29,6,-1,6,29,18,-1,6,18,7,-1,7,18,19,-1,7,19,28,-1,30,31,32,-1,32,31,33,-1,32,33,34,-1,35,36,32,-1,32,36,37,-1,38,39,40,-1,40,39,41,-1,37,42,32,-1,32,42,41,-1,32,41,43,-1,43,41,39,-1,25,44,23,-1,23,44,45,-1,23,45,46,-1,34,47,32,-1,32,47,48,-1,32,48,35,-1,49,50,51,-1,51,50,52,-1,49,53,50,-1,50,53,54,-1,50,54,24,-1,24,54,55,-1,24,55,56,-1,57,58,59,-1,59,58,25,-1,59,25,60,-1,60,25,61,-1,21,62,22,-1,22,62,63,-1,22,63,64,-1,64,63,65,-1,64,65,66,-1,67,68,69,-1,69,68,70,-1,46,71,23,-1,23,71,72,-1,23,72,73,-1,56,74,24,-1,24,74,75,-1,24,75,25,-1,25,75,76,-1,25,76,61,-1,69,77,67,-1,67,77,52,-1,67,52,78,-1,78,52,50,-1,78,50,79,-1,65,80,66,-1,66,80,81,-1,66,81,50,-1,50,81,82,-1,50,82,79,-1,68,83,70,-1,70,83,84,-1,70,84,85,-1,85,84,6,-1,84,86,6,-1,6,86,87,-1,6,87,13,-1,13,87,88,-1,13,88,12,-1,12,88,89,-1,12,89,32,-1,32,89,90,-1,32,90,30,-1,73,91,23,-1,23,91,92,-1,23,92,93,-1,20,22,94,-1,94,22,23,-1,94,23,95,-1,93,96,23,-1,23,96,97,-1,23,97,95,-1,95,97,98,-1,95,98,99,-1,100,101,102,-1,102,101,95,-1,102,95,103,-1,103,95,99,-1,104,105,106,-1,107,108,8,-1,109,110,111,-1,111,112,109,-1,109,112,113,-1,109,113,114,-1,115,116,117,-1,117,116,118,-1,106,105,117,-1,117,105,119,-1,117,119,115,-1,120,121,122,-1,122,121,123,-1,5,124,125,-1,125,126,5,-1,5,126,127,-1,5,127,128,-1,114,129,109,-1,109,129,8,-1,109,8,130,-1,130,8,108,-1,130,108,131,-1,131,108,132,-1,133,134,135,-1,135,134,136,-1,135,136,137,-1,118,138,117,-1,117,138,139,-1,117,139,109,-1,109,139,140,-1,109,140,110,-1,141,142,143,-1,124,5,144,-1,144,5,145,-1,144,145,146,-1,137,147,135,-1,135,147,148,-1,135,148,149,-1,142,150,143,-1,143,150,151,-1,143,151,152,-1,152,153,143,-1,143,153,154,-1,143,154,117,-1,117,154,155,-1,117,155,122,-1,133,135,106,-1,106,135,156,-1,106,156,104,-1,129,157,8,-1,8,157,135,-1,8,135,6,-1,6,135,149,-1,6,149,158,-1,123,159,122,-1,122,159,160,-1,122,160,117,-1,117,160,161,-1,117,161,106,-1,162,163,164,-1,164,163,165,-1,164,165,122,-1,122,165,166,-1,122,166,120,-1,95,167,168,-1,169,170,94,-1,95,168,94,-1,94,168,171,-1,94,171,169,-1,172,173,174,-1,172,174,175,-1,141,143,128,-1,128,143,107,-1,128,107,5,-1,5,107,8,-1,5,8,3,-1,3,8,15,-1,3,15,176,-1,177,178,179,-1,179,180,177,-1,177,180,181,-1,177,181,182,-1,183,184,94,-1,94,184,185,-1,94,185,186,-1,186,185,176,-1,186,176,187,-1,187,176,15,-1,173,188,174,-1,174,188,189,-1,174,189,190,-1,190,189,191,-1,190,191,192,-1,193,194,195,-1,182,196,177,-1,177,196,197,-1,177,197,198,-1,170,199,94,-1,94,199,200,-1,94,200,183,-1,183,200,193,-1,183,193,201,-1,201,193,195,-1,194,193,202,-1,202,193,203,-1,202,203,198,-1,198,203,204,-1,198,204,177,-1,177,175,178,-1,178,175,174,-1,178,174,205,-1,205,174,206,-1,207,208,209,-1,206,210,205,-1,205,210,211,-1,205,211,212,-1,211,213,212,-1,212,213,214,-1,212,214,215,-1,208,216,209,-1,209,216,217,-1,209,217,218,-1,218,217,219,-1,218,219,220,-1,215,221,212,-1,212,221,222,-1,212,222,209,-1,209,222,223,-1,209,223,207,-1,224,225,226,-1,227,228,229,-1,229,228,230,-1,230,228,231,-1,231,228,232,-1,231,232,233,-1,220,234,218,-1,218,234,235,-1,218,235,236,-1,237,238,239,-1,227,240,228,-1,228,240,241,-1,228,241,242,-1,243,244,245,-1,245,244,239,-1,245,239,246,-1,246,239,238,-1,247,248,249,-1,249,248,250,-1,249,250,251,-1,252,243,253,-1,253,243,249,-1,243,245,249,-1,249,245,254,-1,249,254,255,-1,225,256,228,-1,228,256,257,-1,228,257,235,-1,235,257,258,-1,235,258,236,-1,226,259,260,-1,255,261,249,-1,249,261,262,-1,249,262,247,-1,260,263,226,-1,226,263,264,-1,226,264,224,-1,0,2,265,-1,252,266,243,-1,243,266,267,-1,243,267,268,-1,268,267,269,-1,268,269,226,-1,226,269,270,-1,226,270,259,-1,271,272,273,-1,273,272,274,-1,273,274,239,-1,239,274,275,-1,239,275,237,-1,242,276,228,-1,228,276,277,-1,228,277,225,-1,225,277,278,-1,225,278,226,-1,279,280,281,-1,282,283,284,-1,284,283,281,-1,280,285,281,-1,281,285,286,-1,281,286,284,-1,287,288,289,-1,290,291,249,-1,249,291,292,-1,293,294,249,-1,287,289,295,-1,294,296,249,-1,249,296,297,-1,249,297,298,-1,298,299,249,-1,249,299,300,-1,249,300,301,-1,290,249,289,-1,289,249,302,-1,289,302,295,-1,303,304,281,-1,281,304,305,-1,281,305,279,-1,251,265,249,-1,249,265,2,-1,249,2,293,-1,293,2,306,-1,301,307,249,-1,249,307,308,-1,249,308,302,-1,309,310,311,-1,288,312,289,-1,289,312,309,-1,289,309,313,-1,313,309,311,-1,292,314,249,-1,249,314,315,-1,249,315,281,-1,281,315,316,-1,281,316,303,-1,95,101,317,-1,232,228,318,-1,318,228,319,-1,318,319,317,-1,317,319,320,-1,167,95,321,-1,321,95,317,-1,321,317,322,-1,322,317,320,-1,322,320,192,-1,192,320,190,-1,323,85,6,-1,324,317,325,-1,325,317,101,-1,325,101,100,-1,163,162,326,-1,326,162,327,-1,58,57,324,-1,324,57,328,-1,324,328,317,-1,317,328,323,-1,317,323,329,-1,329,323,6,-1,329,6,158,-1,146,145,330,-1,330,145,331,-1,330,331,327,-1,327,331,317,-1,327,317,326,-1,326,317,329,-1,332,212,209,-1,331,145,5,-1,281,283,333,-1,333,283,334,-1,333,334,335,-1,335,334,331,-1,209,335,332,-1,332,335,331,-1,332,331,336,-1,336,331,5,-1,336,5,4,-1,334,283,337,-1,337,283,282,-1,311,310,338,-1,338,310,339,-1,340,306,2,-1,341,342,318,-1,337,338,334,-1,334,338,339,-1,334,339,318,-1,318,339,340,-1,318,340,341,-1,341,340,2,-1,341,2,1,-1,233,232,343,-1,343,232,318,-1,343,318,344,-1,344,318,342,-1,344,342,271,-1,271,342,272,-1,345,346,317,-1,317,347,318,-1,318,347,348,-1,318,348,349,-1,350,351,331,-1,346,352,317,-1,317,352,353,-1,317,353,347,-1,354,334,355,-1,355,334,318,-1,355,318,356,-1,356,318,349,-1,354,357,334,-1,334,357,358,-1,334,358,359,-1,360,361,331,-1,331,361,362,-1,331,362,317,-1,317,362,363,-1,317,363,345,-1,359,364,334,-1,334,364,365,-1,334,365,331,-1,331,365,366,-1,331,366,350,-1,351,367,331,-1,331,367,368,-1,331,368,360,-1,
        ]
    }
}
Shape{
    appearance Appearance {
        material  Material {
            diffuseColor 0.7529411764705882 0.7529411764705882 0.7529411764705882
            specularColor 0.3764705882352941 0.3764705882352941 0.3764705882352941
            ambientIntensity 0.7529
            transparency 0.0
            shininess 0.5
        }
    }
    geometry IndexedFaceSet {
        ccw TRUE
        solid FALSE
        coord DEF co Coordinate {
            point [
                -0.2842 0.4689 0.3618, -0.2842 0.4689 0.3622, -0.2857 0.4803 0.3618, -0.2857 0.4803 0.3622, -0.2901 0.4909 0.3618, -0.2901 0.4909 0.3622, -0.2971 0.5 0.3618, -0.2971 0.5 0.3622, -0.3062 0.5069 0.3618, -0.3062 0.5069 0.3622, -0.3168 0.5113 0.3618, -0.3168 0.5113 0.3622, -0.3282 0.5128 0.3618, -0.3282 0.5128 0.3622, -0.3396 0.5113 0.3618, -0.3396 0.5113 0.3622, -0.3502 0.5069 0.3618, -0.3502 0.5069 0.3622, -0.3593 0.5 0.3618, -0.3593 0.5 0.3622, -0.3663 0.4909 0.3618, -0.3663 0.4909 0.3622, -0.3707 0.4803 0.3618, -0.3707 0.4803 0.3622, -0.3722 0.4689 0.3618, -0.3722 0.4689 0.3622, -0.3707 0.4575 0.3618, -0.3707 0.4575 0.3622, -0.3663 0.4469 0.3618, -0.3663 0.4469 0.3622, -0.3593 0.4378 0.3618, -0.3593 0.4378 0.3622, -0.3502 0.4308 0.3618, -0.3502 0.4308 0.3622, -0.3396 0.4264 0.3618, -0.3396 0.4264 0.3622, -0.3282 0.4249 0.3618, -0.3282 0.4249 0.3622, -0.3168 0.4264 0.3618, -0.3168 0.4264 0.3622, -0.3062 0.4308 0.3618, -0.3062 0.4308 0.3622, -0.2971 0.4378 0.3618, -0.2971 0.4378 0.3622, -0.2901 0.4469 0.3618, -0.2901 0.4469 0.3622, -0.2857 0.4575 0.3618, -0.2857 0.4575 0.3622, -0.3282 0.4689 0.3618
            ]
        }
        coordIndex [
            0,1,2,-1,2,1,3,-1,2,3,4,-1,4,3,5,-1,4,5,6,-1,6,5,7,-1,6,7,8,-1,8,7,9,-1,8,9,10,-1,10,9,11,-1,10,11,12,-1,12,11,13,-1,12,13,14,-1,14,13,15,-1,14,15,16,-1,16,15,17,-1,16,17,18,-1,18,17,19,-1,18,19,20,-1,20,19,21,-1,20,21,22,-1,22,21,23,-1,22,23,24,-1,24,23,25,-1,24,25,26,-1,26,25,27,-1,26,27,28,-1,28,27,29,-1,28,29,30,-1,30,29,31,-1,30,31,32,-1,32,31,33,-1,32,33,34,-1,34,33,35,-1,34,35,36,-1,36,35,37,-1,36,37,38,-1,38,37,39,-1,38,39,40,-1,40,39,41,-1,40,41,42,-1,42,41,43,-1,42,43,44,-1,44,43,45,-1,44,45,46,-1,46,45,47,-1,46,47,0,-1,0,47,1,-1,44,46,48,-1,48,46,0,-1,48,0,2,-1,38,40,48,-1,48,40,42,-1,48,42,44,-1,32,34,48,-1,48,34,36,-1,48,36,38,-1,26,28,48,-1,48,28,30,-1,48,30,32,-1,20,22,48,-1,48,22,24,-1,48,24,26,-1,14,16,48,-1,48,16,18,-1,48,18,20,-1,8,10,48,-1,48,10,12,-1,48,12,14,-1,2,4,48,-1,48,4,6,-1,48,6,8,-1,
        ]
    }
}
Shape{
    appearance Appearance {
        material  Material {
            diffuseColor 1.0 1.0 0.0
            specularColor 0.5019607843137255 0.5019607843137255 0.0
            ambientIntensity 0.886
            transparency 0.0
            shininess 0.5
        }
    }
    geometry IndexedFaceSet {
        ccw TRUE
        solid FALSE
        coord DEF co Coordinate {
            point [
                0.1082 0.5929 0.0866, 0.0098 0.5929 0.0866, 0.1082 0.589 0.0866, 0.0098 0.589 0.0866, 0.0098 0.589 0.0079, 0.0098 0.5929 0.0, 0.0098 0.4512 0.0079, 0.0098 0.4512 0.0, 0.0103 0.4468 0.0, 0.0103 0.4468 0.0079, 0.0118 0.4426 0.0, 0.0118 0.4426 0.0079, 0.0141 0.4389 0.0, 0.0141 0.4389 0.0079, 0.0172 0.4358 0.0, 0.0172 0.4358 0.0079, 0.021 0.4335 0.0, 0.021 0.4335 0.0079, 0.0251 0.432 0.0, 0.0251 0.432 0.0079, 0.0295 0.4315 0.0, 0.0295 0.4315 0.0079, 0.0886 0.4315 0.0, 0.0886 0.4315 0.0079, 0.0929 0.432 0.0, 0.0929 0.432 0.0079, 0.0971 0.4335 0.0, 0.0971 0.4335 0.0079, 0.1008 0.4358 0.0, 0.1008 0.4358 0.0079, 0.1039 0.4389 0.0, 0.1039 0.4389 0.0079, 0.1063 0.4426 0.0, 0.1063 0.4426 0.0079, 0.1077 0.4468 0.0, 0.1077 0.4468 0.0079, 0.1082 0.4512 0.0, 0.1082 0.4512 0.0079, 0.1082 0.589 0.0079, 0.1082 0.5929 0.0, 0.3051 0.589 0.0866, 0.3051 0.5929 0.0866, 0.2067 0.589 0.0866, 0.2067 0.5929 0.0866, 0.2067 0.589 0.0079, 0.2067 0.5929 0.0, 0.2067 0.4512 0.0079, 0.2067 0.4512 0.0, 0.2072 0.4468 0.0, 0.2072 0.4468 0.0079, 0.2086 0.4426 0.0, 0.2086 0.4426 0.0079, 0.211 0.4389 0.0, 0.211 0.4389 0.0079, 0.2141 0.4358 0.0, 0.2141 0.4358 0.0079, 0.2178 0.4335 0.0, 0.2178 0.4335 0.0079, 0.222 0.432 0.0, 0.222 0.432 0.0079, 0.2263 0.4315 0.0, 0.2263 0.4315 0.0079, 0.2854 0.4315 0.0, 0.2854 0.4315 0.0079, 0.2898 0.432 0.0, 0.2898 0.432 0.0079, 0.2939 0.4335 0.0, 0.2939 0.4335 0.0079, 0.2977 0.4358 0.0, 0.2977 0.4358 0.0079, 0.3008 0.4389 0.0, 0.3008 0.4389 0.0079, 0.3031 0.4426 0.0, 0.3031 0.4426 0.0079, 0.3046 0.4468 0.0, 0.3046 0.4468 0.0079, 0.3051 0.4512 0.0, 0.3051 0.4512 0.0079, 0.3051 0.589 0.0079, 0.3051 0.5929 0.0, -0.0886 0.5929 0.0866, -0.187 0.5929 0.0866, -0.0886 0.589 0.0866, -0.187 0.589 0.0866, -0.187 0.589 0.0079, -0.187 0.5929 0.0, -0.187 0.4512 0.0079, -0.187 0.4512 0.0, -0.1865 0.4468 0.0, -0.1865 0.4468 0.0079, -0.1851 0.4426 0.0, -0.1851 0.4426 0.0079, -0.1827 0.4389 0.0, -0.1827 0.4389 0.0079, -0.1796 0.4358 0.0, -0.1796 0.4358 0.0079, -0.1759 0.4335 0.0, -0.1759 0.4335 0.0079, -0.1717 0.432 0.0, -0.1717 0.432 0.0079, -0.1674 0.4315 0.0, -0.1674 0.4315 0.0079, -0.1083 0.4315 0.0, -0.1083 0.4315 0.0079, -0.1039 0.432 0.0, -0.1039 0.432 0.0079, -0.0998 0.4335 0.0, -0.0998 0.4335 0.0079, -0.096 0.4358 0.0, -0.096 0.4358 0.0079, -0.0929 0.4389 0.0, -0.0929 0.4389 0.0079, -0.0906 0.4426 0.0, -0.0906 0.4426 0.0079, -0.0891 0.4468 0.0, -0.0891 0.4468 0.0079, -0.0886 0.4512 0.0, -0.0886 0.4512 0.0079, -0.0886 0.589 0.0079, -0.0886 0.5929 0.0, -0.2855 0.589 0.0866, -0.2855 0.5929 0.0866, -0.3839 0.589 0.0866, -0.3839 0.5929 0.0866, -0.3839 0.4512 0.0079, -0.3839 0.4512 0.0, -0.3834 0.4468 0.0, -0.3834 0.4468 0.0079, -0.3819 0.4426 0.0, -0.3819 0.4426 0.0079, -0.3796 0.4389 0.0, -0.3796 0.4389 0.0079, -0.3765 0.4358 0.0, -0.3765 0.4358 0.0079, -0.3727 0.4335 0.0, -0.3727 0.4335 0.0079, -0.3686 0.432 0.0, -0.3686 0.432 0.0079, -0.3642 0.4315 0.0, -0.3642 0.4315 0.0079, -0.3051 0.4315 0.0, -0.3051 0.4315 0.0079, -0.3008 0.432 0.0, -0.3008 0.432 0.0079, -0.2966 0.4335 0.0, -0.2966 0.4335 0.0079, -0.2929 0.4358 0.0, -0.2929 0.4358 0.0079, -0.2898 0.4389 0.0, -0.2898 0.4389 0.0079, -0.2874 0.4426 0.0, -0.2874 0.4426 0.0079, -0.286 0.4468 0.0, -0.286 0.4468 0.0079, -0.2855 0.4512 0.0, -0.2855 0.4512 0.0079, -0.2855 0.589 0.0079, -0.2855 0.5929 0.0, -0.3839 0.589 0.0079, -0.3839 0.5929 0.0, 0.0098 -0.5921 0.0866, 0.0098 -0.5961 0.0866, 0.1082 -0.5921 0.0866, 0.1082 -0.5961 0.0866, 0.1082 -0.4543 0.0079, 0.1082 -0.4543 0.0, 0.1077 -0.4499 0.0, 0.1077 -0.4499 0.0079, 0.1063 -0.4458 0.0, 0.1063 -0.4458 0.0079, 0.1039 -0.4421 0.0, 0.1039 -0.4421 0.0079, 0.1008 -0.4389 0.0, 0.1008 -0.4389 0.0079, 0.0971 -0.4366 0.0, 0.0971 -0.4366 0.0079, 0.0929 -0.4351 0.0, 0.0929 -0.4351 0.0079, 0.0886 -0.4346 0.0, 0.0886 -0.4346 0.0079, 0.0295 -0.4346 0.0, 0.0295 -0.4346 0.0079, 0.0251 -0.4351 0.0, 0.0251 -0.4351 0.0079, 0.021 -0.4366 0.0, 0.021 -0.4366 0.0079, 0.0172 -0.4389 0.0, 0.0172 -0.4389 0.0079, 0.0141 -0.4421 0.0, 0.0141 -0.4421 0.0079, 0.0118 -0.4458 0.0, 0.0118 -0.4458 0.0079, 0.0103 -0.4499 0.0, 0.0103 -0.4499 0.0079, 0.0098 -0.4543 0.0, 0.0098 -0.4543 0.0079, 0.0098 -0.5921 0.0079, 0.0098 -0.5961 0.0, 0.1082 -0.5921 0.0079, 0.1082 -0.5961 0.0, 0.2067 -0.5921 0.0866, 0.2067 -0.5961 0.0866, 0.3051 -0.5921 0.0866, 0.3051 -0.5961 0.0866, 0.3051 -0.4543 0.0079, 0.3051 -0.4543 0.0, 0.3046 -0.4499 0.0, 0.3046 -0.4499 0.0079, 0.3031 -0.4458 0.0, 0.3031 -0.4458 0.0079, 0.3008 -0.4421 0.0, 0.3008 -0.4421 0.0079, 0.2977 -0.4389 0.0, 0.2977 -0.4389 0.0079, 0.2939 -0.4366 0.0, 0.2939 -0.4366 0.0079, 0.2898 -0.4351 0.0, 0.2898 -0.4351 0.0079, 0.2854 -0.4346 0.0, 0.2854 -0.4346 0.0079, 0.2263 -0.4346 0.0, 0.2263 -0.4346 0.0079, 0.222 -0.4351 0.0, 0.222 -0.4351 0.0079, 0.2178 -0.4366 0.0, 0.2178 -0.4366 0.0079, 0.2141 -0.4389 0.0, 0.2141 -0.4389 0.0079, 0.211 -0.4421 0.0, 0.211 -0.4421 0.0079, 0.2086 -0.4458 0.0, 0.2086 -0.4458 0.0079, 0.2072 -0.4499 0.0, 0.2072 -0.4499 0.0079, 0.2067 -0.4543 0.0, 0.2067 -0.4543 0.0079, 0.2067 -0.5921 0.0079, 0.2067 -0.5961 0.0, 0.3051 -0.5921 0.0079, 0.3051 -0.5961 0.0, -0.3839 -0.5921 0.0866, -0.3839 -0.5961 0.0866, -0.2855 -0.5921 0.0866, -0.2855 -0.5961 0.0866, -0.2855 -0.4543 0.0079, -0.2855 -0.4543 0.0, -0.286 -0.4499 0.0, -0.286 -0.4499 0.0079, -0.2874 -0.4458 0.0, -0.2874 -0.4458 0.0079, -0.2898 -0.4421 0.0, -0.2898 -0.4421 0.0079, -0.2929 -0.4389 0.0, -0.2929 -0.4389 0.0079, -0.2966 -0.4366 0.0, -0.2966 -0.4366 0.0079, -0.3008 -0.4351 0.0, -0.3008 -0.4351 0.0079, -0.3051 -0.4346 0.0, -0.3051 -0.4346 0.0079, -0.3642 -0.4346 0.0, -0.3642 -0.4346 0.0079, -0.3686 -0.4351 0.0, -0.3686 -0.4351 0.0079, -0.3727 -0.4366 0.0, -0.3727 -0.4366 0.0079, -0.3765 -0.4389 0.0, -0.3765 -0.4389 0.0079, -0.3796 -0.4421 0.0, -0.3796 -0.4421 0.0079, -0.3819 -0.4458 0.0, -0.3819 -0.4458 0.0079, -0.3834 -0.4499 0.0, -0.3834 -0.4499 0.0079, -0.3839 -0.4543 0.0, -0.3839 -0.4543 0.0079, -0.3839 -0.5921 0.0079, -0.3839 -0.5961 0.0, -0.2855 -0.5921 0.0079, -0.2855 -0.5961 0.0, -0.187 -0.5961 0.0866, -0.0886 -0.5961 0.0866, -0.187 -0.5921 0.0866, -0.0886 -0.5921 0.0866, -0.1674 -0.4346 0.0079, -0.1674 -0.4346 0.0, -0.1717 -0.4351 0.0, -0.1717 -0.4351 0.0079, -0.1759 -0.4366 0.0, -0.1759 -0.4366 0.0079, -0.1796 -0.4389 0.0, -0.1796 -0.4389 0.0079, -0.1827 -0.4421 0.0, -0.1827 -0.4421 0.0079, -0.1851 -0.4458 0.0, -0.1851 -0.4458 0.0079, -0.1865 -0.4499 0.0, -0.1865 -0.4499 0.0079, -0.187 -0.4543 0.0, -0.187 -0.4543 0.0079, -0.187 -0.5921 0.0079, -0.187 -0.5961 0.0, -0.0886 -0.5921 0.0079, -0.0886 -0.5961 0.0, -0.0886 -0.4543 0.0079, -0.0886 -0.4543 0.0, -0.0891 -0.4499 0.0, -0.0891 -0.4499 0.0079, -0.0906 -0.4458 0.0, -0.0906 -0.4458 0.0079, -0.0929 -0.4421 0.0, -0.0929 -0.4421 0.0079, -0.096 -0.4389 0.0, -0.096 -0.4389 0.0079, -0.0998 -0.4366 0.0, -0.0998 -0.4366 0.0079, -0.1039 -0.4351 0.0, -0.1039 -0.4351 0.0079, -0.1083 -0.4346 0.0, -0.1083 -0.4346 0.0079, -0.4331 0.2445 0.0866, -0.437 0.2445 0.0866, -0.4331 0.1461 0.0866, -0.437 0.1461 0.0866, -0.4331 0.1461 0.0079, -0.437 0.1461 0.0, -0.0832 0.1461 0.0079, 0.0197 0.1461 0.0, 0.0197 0.1461 0.0079, 0.024 0.1466 0.0, 0.024 0.1466 0.0079, 0.0282 0.148 0.0, 0.0282 0.148 0.0079, 0.0319 0.1504 0.0, 0.0319 0.1504 0.0079, 0.035 0.1535 0.0, 0.035 0.1535 0.0079, 0.0374 0.1572 0.0, 0.0374 0.1572 0.0079, 0.0388 0.1614 0.0, 0.0388 0.1614 0.0079, 0.0393 0.1658 0.0, 0.0393 0.1658 0.0079, 0.0393 0.2248 0.0, 0.0393 0.2248 0.0079, 0.0388 0.2292 0.0, 0.0388 0.2292 0.0079, 0.0374 0.2333 0.0, 0.0374 0.2333 0.0079, 0.035 0.2371 0.0, 0.035 0.2371 0.0079, 0.0319 0.2402 0.0, 0.0319 0.2402 0.0079, 0.0282 0.2425 0.0, 0.0282 0.2425 0.0079, 0.024 0.244 0.0, 0.024 0.244 0.0079, 0.0197 0.2445 0.0, 0.0197 0.2445 0.0079, -0.437 0.2445 0.0, -0.4331 0.2445 0.0079, -0.0832 0.2445 0.0079, -0.437 -0.1492 0.0866, -0.437 -0.2476 0.0866, -0.4331 -0.1492 0.0866, -0.4331 -0.2476 0.0866, 0.0393 -0.1689 0.0079, 0.0393 -0.1689 0.0, 0.0388 -0.1645 0.0, 0.0388 -0.1645 0.0079, 0.0374 -0.1604 0.0, 0.0374 -0.1604 0.0079, 0.035 -0.1566 0.0, 0.035 -0.1566 0.0079, 0.0319 -0.1535 0.0, 0.0319 -0.1535 0.0079, 0.0282 -0.1512 0.0, 0.0282 -0.1512 0.0079, 0.024 -0.1497 0.0, 0.024 -0.1497 0.0079, 0.0197 -0.1492 0.0, 0.0197 -0.1492 0.0079, -0.437 -0.1492 0.0, -0.4331 -0.1492 0.0079, -0.0832 -0.1492 0.0079, -0.4331 -0.2476 0.0079, -0.437 -0.2476 0.0, -0.0832 -0.2476 0.0079, 0.0197 -0.2476 0.0, 0.0197 -0.2476 0.0079, 0.024 -0.2471 0.0, 0.024 -0.2471 0.0079, 0.0282 -0.2457 0.0, 0.0282 -0.2457 0.0079, 0.0319 -0.2433 0.0, 0.0319 -0.2433 0.0079, 0.035 -0.2402 0.0, 0.035 -0.2402 0.0079, 0.0374 -0.2365 0.0, 0.0374 -0.2365 0.0079, 0.0388 -0.2323 0.0, 0.0388 -0.2323 0.0079, 0.0393 -0.2279 0.0, 0.0393 -0.2279 0.0079, 0.3582 -0.0508 0.0866, 0.3582 0.0476 0.0866, 0.3543 -0.0508 0.0866, 0.3543 0.0476 0.0866, 0.3543 0.0476 0.0079, 0.3582 0.0476 0.0, -0.0832 0.0476 0.0079, -0.0985 0.0476 0.0, -0.0985 0.0476 0.0079, -0.1028 0.0471 0.0, -0.1028 0.0471 0.0079, -0.107 0.0457 0.0, -0.107 0.0457 0.0079, -0.1107 0.0433 0.0, -0.1107 0.0433 0.0079, -0.1138 0.0402 0.0, -0.1138 0.0402 0.0079, -0.1162 0.0365 0.0, -0.1162 0.0365 0.0079, -0.1176 0.0323 0.0, -0.1176 0.0323 0.0079, -0.1181 0.028 0.0, -0.1181 0.028 0.0079, -0.1181 -0.0311 0.0, -0.1181 -0.0311 0.0079, -0.1176 -0.0355 0.0, -0.1176 -0.0355 0.0079, -0.1162 -0.0396 0.0, -0.1162 -0.0396 0.0079, -0.1138 -0.0434 0.0, -0.1138 -0.0434 0.0079, -0.1107 -0.0465 0.0, -0.1107 -0.0465 0.0079, -0.107 -0.0488 0.0, -0.107 -0.0488 0.0079, -0.1028 -0.0503 0.0, -0.1028 -0.0503 0.0079, -0.0985 -0.0508 0.0, -0.0985 -0.0508 0.0079, 0.3582 -0.0508 0.0, 0.3543 -0.0508 0.0079, -0.0832 -0.0508 0.0079, 0.3543 0.1461 0.0866, 0.3582 0.1461 0.0866, 0.3543 0.2445 0.0866, 0.3582 0.2445 0.0866, 0.3543 0.2445 0.0079, 0.3582 0.2445 0.0, 0.2165 0.2445 0.0079, 0.2165 0.2445 0.0, 0.2121 0.244 0.0, 0.2121 0.244 0.0079, 0.208 0.2425 0.0, 0.208 0.2425 0.0079, 0.2042 0.2402 0.0, 0.2042 0.2402 0.0079, 0.2011 0.2371 0.0, 0.2011 0.2371 0.0079, 0.1988 0.2333 0.0, 0.1988 0.2333 0.0079, 0.1973 0.2292 0.0, 0.1973 0.2292 0.0079, 0.1968 0.2248 0.0, 0.1968 0.2248 0.0079, 0.1968 0.1658 0.0, 0.1968 0.1658 0.0079, 0.1973 0.1614 0.0, 0.1973 0.1614 0.0079, 0.1988 0.1572 0.0, 0.1988 0.1572 0.0079, 0.2011 0.1535 0.0, 0.2011 0.1535 0.0079, 0.2042 0.1504 0.0, 0.2042 0.1504 0.0079, 0.208 0.148 0.0, 0.208 0.148 0.0079, 0.2121 0.1466 0.0, 0.2121 0.1466 0.0079, 0.2165 0.1461 0.0, 0.2165 0.1461 0.0079, 0.3543 0.1461 0.0079, 0.3582 0.1461 0.0
            ]
        }
        coordIndex [
            0,1,2,-1,2,1,3,-1,3,1,4,-1,4,1,5,-1,4,5,6,-1,6,5,7,-1,6,7,8,-1,6,8,9,-1,9,8,10,-1,9,10,11,-1,11,10,12,-1,11,12,13,-1,13,12,14,-1,13,14,15,-1,15,14,16,-1,15,16,17,-1,17,16,18,-1,17,18,19,-1,19,18,20,-1,19,20,21,-1,20,22,21,-1,21,22,23,-1,23,22,24,-1,23,24,25,-1,25,24,26,-1,25,26,27,-1,27,26,28,-1,27,28,29,-1,29,28,30,-1,29,30,31,-1,31,30,32,-1,31,32,33,-1,33,32,34,-1,33,34,35,-1,35,34,36,-1,35,36,37,-1,37,36,38,-1,38,36,39,-1,38,39,2,-1,2,39,0,-1,5,1,39,-1,39,1,0,-1,24,22,36,-1,36,22,39,-1,8,7,16,-1,32,30,34,-1,34,30,28,-1,34,28,36,-1,36,28,26,-1,36,26,24,-1,39,22,5,-1,5,22,20,-1,5,20,7,-1,7,20,18,-1,7,18,16,-1,14,12,16,-1,16,12,10,-1,16,10,8,-1,40,41,42,-1,42,41,43,-1,42,43,44,-1,44,43,45,-1,44,45,46,-1,46,45,47,-1,46,47,48,-1,46,48,49,-1,49,48,50,-1,49,50,51,-1,51,50,52,-1,51,52,53,-1,53,52,54,-1,53,54,55,-1,55,54,56,-1,55,56,57,-1,57,56,58,-1,57,58,59,-1,59,58,60,-1,59,60,61,-1,60,62,61,-1,61,62,63,-1,63,62,64,-1,63,64,65,-1,65,64,66,-1,65,66,67,-1,67,66,68,-1,67,68,69,-1,69,68,70,-1,69,70,71,-1,71,70,72,-1,71,72,73,-1,73,72,74,-1,73,74,75,-1,75,74,76,-1,75,76,77,-1,77,76,78,-1,78,76,79,-1,78,79,40,-1,40,79,41,-1,45,43,79,-1,79,43,41,-1,66,72,68,-1,68,72,70,-1,76,74,62,-1,62,74,72,-1,62,72,64,-1,64,72,66,-1,58,47,60,-1,60,47,45,-1,60,45,62,-1,62,45,79,-1,62,79,76,-1,54,52,50,-1,58,56,47,-1,47,56,54,-1,47,54,48,-1,48,54,50,-1,80,81,82,-1,82,81,83,-1,83,81,84,-1,84,81,85,-1,84,85,86,-1,86,85,87,-1,86,87,88,-1,86,88,89,-1,89,88,90,-1,89,90,91,-1,91,90,92,-1,91,92,93,-1,93,92,94,-1,93,94,95,-1,95,94,96,-1,95,96,97,-1,97,96,98,-1,97,98,99,-1,99,98,100,-1,99,100,101,-1,100,102,101,-1,101,102,103,-1,103,102,104,-1,103,104,105,-1,105,104,106,-1,105,106,107,-1,107,106,108,-1,107,108,109,-1,109,108,110,-1,109,110,111,-1,111,110,112,-1,111,112,113,-1,113,112,114,-1,113,114,115,-1,115,114,116,-1,115,116,117,-1,117,116,118,-1,118,116,119,-1,118,119,82,-1,82,119,80,-1,85,81,119,-1,119,81,80,-1,85,119,87,-1,87,119,116,-1,112,110,108,-1,112,108,114,-1,100,87,102,-1,102,87,116,-1,102,116,104,-1,114,108,116,-1,116,108,106,-1,116,106,104,-1,100,98,87,-1,87,98,96,-1,87,96,88,-1,88,96,94,-1,88,94,90,-1,90,94,92,-1,120,121,122,-1,122,121,123,-1,124,125,126,-1,124,126,127,-1,127,126,128,-1,127,128,129,-1,129,128,130,-1,129,130,131,-1,131,130,132,-1,131,132,133,-1,133,132,134,-1,133,134,135,-1,135,134,136,-1,135,136,137,-1,137,136,138,-1,137,138,139,-1,138,140,139,-1,139,140,141,-1,141,140,142,-1,141,142,143,-1,143,142,144,-1,143,144,145,-1,145,144,146,-1,145,146,147,-1,147,146,148,-1,147,148,149,-1,149,148,150,-1,149,150,151,-1,151,150,152,-1,151,152,153,-1,153,152,154,-1,153,154,155,-1,155,154,156,-1,156,154,157,-1,156,157,120,-1,120,157,121,-1,122,123,158,-1,158,123,159,-1,158,159,124,-1,124,159,125,-1,159,123,157,-1,157,123,121,-1,144,150,146,-1,146,150,148,-1,154,152,140,-1,140,152,150,-1,140,150,142,-1,142,150,144,-1,136,125,138,-1,138,125,159,-1,138,159,140,-1,140,159,157,-1,140,157,154,-1,132,130,128,-1,136,134,125,-1,125,134,132,-1,125,132,126,-1,126,132,128,-1,160,161,162,-1,162,161,163,-1,164,165,166,-1,164,166,167,-1,167,166,168,-1,167,168,169,-1,169,168,170,-1,169,170,171,-1,171,170,172,-1,171,172,173,-1,173,172,174,-1,173,174,175,-1,175,174,176,-1,175,176,177,-1,177,176,178,-1,177,178,179,-1,178,180,179,-1,179,180,181,-1,181,180,182,-1,181,182,183,-1,183,182,184,-1,183,184,185,-1,185,184,186,-1,185,186,187,-1,187,186,188,-1,187,188,189,-1,189,188,190,-1,189,190,191,-1,191,190,192,-1,191,192,193,-1,193,192,194,-1,193,194,195,-1,195,194,196,-1,196,194,197,-1,196,197,160,-1,160,197,161,-1,162,163,198,-1,198,163,199,-1,198,199,164,-1,164,199,165,-1,199,163,197,-1,197,163,161,-1,182,180,194,-1,194,180,197,-1,174,172,165,-1,188,186,190,-1,190,186,192,-1,192,186,194,-1,194,186,184,-1,194,184,182,-1,197,180,199,-1,199,180,178,-1,199,178,165,-1,165,178,176,-1,165,176,174,-1,170,168,172,-1,172,168,166,-1,172,166,165,-1,200,201,202,-1,202,201,203,-1,204,205,206,-1,204,206,207,-1,207,206,208,-1,207,208,209,-1,209,208,210,-1,209,210,211,-1,211,210,212,-1,211,212,213,-1,213,212,214,-1,213,214,215,-1,215,214,216,-1,215,216,217,-1,217,216,218,-1,217,218,219,-1,218,220,219,-1,219,220,221,-1,221,220,222,-1,221,222,223,-1,223,222,224,-1,223,224,225,-1,225,224,226,-1,225,226,227,-1,227,226,228,-1,227,228,229,-1,229,228,230,-1,229,230,231,-1,231,230,232,-1,231,232,233,-1,233,232,234,-1,233,234,235,-1,235,234,236,-1,236,234,237,-1,236,237,200,-1,200,237,201,-1,202,203,238,-1,238,203,239,-1,238,239,204,-1,204,239,205,-1,239,203,237,-1,237,203,201,-1,239,237,205,-1,205,237,234,-1,230,228,226,-1,224,234,226,-1,226,234,232,-1,226,232,230,-1,224,222,234,-1,234,222,220,-1,234,220,205,-1,205,220,218,-1,205,218,216,-1,212,210,208,-1,216,214,205,-1,205,214,212,-1,205,212,206,-1,206,212,208,-1,240,241,242,-1,242,241,243,-1,244,245,246,-1,244,246,247,-1,247,246,248,-1,247,248,249,-1,249,248,250,-1,249,250,251,-1,251,250,252,-1,251,252,253,-1,253,252,254,-1,253,254,255,-1,255,254,256,-1,255,256,257,-1,257,256,258,-1,257,258,259,-1,258,260,259,-1,259,260,261,-1,261,260,262,-1,261,262,263,-1,263,262,264,-1,263,264,265,-1,265,264,266,-1,265,266,267,-1,267,266,268,-1,267,268,269,-1,269,268,270,-1,269,270,271,-1,271,270,272,-1,271,272,273,-1,273,272,274,-1,273,274,275,-1,275,274,276,-1,276,274,277,-1,276,277,240,-1,240,277,241,-1,242,243,278,-1,278,243,279,-1,278,279,244,-1,244,279,245,-1,279,243,277,-1,277,243,241,-1,279,277,245,-1,245,277,274,-1,270,268,266,-1,264,274,266,-1,266,274,272,-1,266,272,270,-1,264,262,274,-1,274,262,260,-1,274,260,245,-1,245,260,258,-1,245,258,256,-1,252,250,248,-1,256,254,245,-1,245,254,252,-1,245,252,246,-1,246,252,248,-1,280,281,282,-1,282,281,283,-1,284,285,286,-1,284,286,287,-1,287,286,288,-1,287,288,289,-1,289,288,290,-1,289,290,291,-1,291,290,292,-1,291,292,293,-1,293,292,294,-1,293,294,295,-1,295,294,296,-1,295,296,297,-1,297,296,298,-1,297,298,299,-1,299,298,300,-1,300,298,301,-1,300,301,282,-1,282,301,280,-1,283,281,302,-1,302,281,303,-1,302,303,304,-1,304,303,305,-1,304,305,306,-1,304,306,307,-1,307,306,308,-1,307,308,309,-1,309,308,310,-1,309,310,311,-1,311,310,312,-1,311,312,313,-1,313,312,314,-1,313,314,315,-1,315,314,316,-1,315,316,317,-1,317,316,318,-1,317,318,319,-1,318,285,319,-1,319,285,284,-1,303,281,301,-1,301,281,280,-1,286,285,298,-1,298,285,301,-1,314,312,305,-1,294,292,296,-1,296,292,290,-1,296,290,298,-1,298,290,288,-1,298,288,286,-1,301,285,303,-1,303,285,318,-1,303,318,305,-1,305,318,316,-1,305,316,314,-1,312,310,305,-1,305,310,308,-1,305,308,306,-1,320,321,322,-1,322,321,323,-1,322,323,324,-1,324,323,325,-1,324,325,326,-1,326,325,327,-1,326,327,328,-1,328,327,329,-1,328,329,330,-1,330,329,331,-1,330,331,332,-1,332,331,333,-1,332,333,334,-1,334,333,335,-1,334,335,336,-1,336,335,337,-1,336,337,338,-1,338,337,339,-1,338,339,340,-1,340,339,341,-1,340,341,342,-1,341,343,342,-1,342,343,344,-1,344,343,345,-1,344,345,346,-1,346,345,347,-1,346,347,348,-1,348,347,349,-1,348,349,350,-1,350,349,351,-1,350,351,352,-1,352,351,353,-1,352,353,354,-1,354,353,355,-1,354,355,356,-1,356,355,357,-1,356,357,358,-1,359,321,320,-1,320,360,359,-1,359,360,361,-1,359,361,357,-1,357,361,358,-1,325,323,359,-1,359,323,321,-1,329,327,339,-1,325,359,327,-1,327,359,357,-1,357,349,347,-1,357,355,349,-1,349,355,353,-1,349,353,351,-1,347,345,357,-1,357,345,343,-1,357,343,327,-1,327,343,341,-1,327,341,339,-1,339,337,335,-1,335,333,339,-1,339,333,331,-1,339,331,329,-1,362,363,364,-1,364,363,365,-1,366,367,368,-1,366,368,369,-1,369,368,370,-1,369,370,371,-1,371,370,372,-1,371,372,373,-1,373,372,374,-1,373,374,375,-1,375,374,376,-1,375,376,377,-1,377,376,378,-1,377,378,379,-1,379,378,380,-1,379,380,381,-1,382,362,364,-1,364,383,382,-1,382,383,384,-1,382,384,380,-1,380,384,381,-1,365,363,385,-1,385,363,386,-1,385,386,387,-1,387,386,388,-1,387,388,389,-1,389,388,390,-1,389,390,391,-1,391,390,392,-1,391,392,393,-1,393,392,394,-1,393,394,395,-1,395,394,396,-1,395,396,397,-1,397,396,398,-1,397,398,399,-1,399,398,400,-1,399,400,401,-1,401,400,402,-1,401,402,403,-1,402,367,403,-1,403,367,366,-1,386,363,382,-1,382,363,362,-1,386,382,388,-1,388,382,380,-1,402,394,392,-1,380,378,370,-1,370,378,376,-1,370,376,372,-1,372,376,374,-1,402,400,394,-1,394,400,398,-1,394,398,396,-1,370,368,380,-1,380,368,367,-1,380,367,388,-1,388,367,402,-1,388,402,390,-1,390,402,392,-1,404,405,406,-1,406,405,407,-1,407,405,408,-1,408,405,409,-1,408,409,410,-1,410,409,411,-1,410,411,412,-1,412,411,413,-1,412,413,414,-1,414,413,415,-1,414,415,416,-1,416,415,417,-1,416,417,418,-1,418,417,419,-1,418,419,420,-1,420,419,421,-1,420,421,422,-1,422,421,423,-1,422,423,424,-1,424,423,425,-1,424,425,426,-1,425,427,426,-1,426,427,428,-1,428,427,429,-1,428,429,430,-1,430,429,431,-1,430,431,432,-1,432,431,433,-1,432,433,434,-1,434,433,435,-1,434,435,436,-1,436,435,437,-1,436,437,438,-1,438,437,439,-1,438,439,440,-1,440,439,441,-1,440,441,442,-1,404,406,443,-1,443,406,444,-1,443,444,441,-1,441,444,445,-1,441,445,442,-1,409,405,443,-1,443,405,404,-1,413,411,423,-1,409,443,411,-1,411,443,441,-1,427,441,439,-1,441,427,411,-1,411,427,425,-1,411,425,423,-1,421,419,417,-1,439,437,427,-1,427,437,435,-1,427,435,429,-1,429,435,433,-1,429,433,431,-1,421,417,423,-1,423,417,415,-1,423,415,413,-1,446,447,448,-1,448,447,449,-1,448,449,450,-1,450,449,451,-1,450,451,452,-1,452,451,453,-1,452,453,454,-1,452,454,455,-1,455,454,456,-1,455,456,457,-1,457,456,458,-1,457,458,459,-1,459,458,460,-1,459,460,461,-1,461,460,462,-1,461,462,463,-1,463,462,464,-1,463,464,465,-1,465,464,466,-1,465,466,467,-1,466,468,467,-1,467,468,469,-1,469,468,470,-1,469,470,471,-1,471,470,472,-1,471,472,473,-1,473,472,474,-1,473,474,475,-1,475,474,476,-1,475,476,477,-1,477,476,478,-1,477,478,479,-1,479,478,480,-1,479,480,481,-1,481,480,482,-1,481,482,483,-1,483,482,484,-1,484,482,485,-1,484,485,446,-1,446,485,447,-1,451,449,485,-1,485,449,447,-1,453,468,466,-1,478,476,474,-1,472,470,482,-1,482,470,468,-1,482,468,485,-1,485,468,453,-1,485,453,451,-1,472,482,474,-1,474,482,480,-1,474,480,478,-1,466,464,453,-1,453,464,462,-1,453,462,460,-1,460,458,453,-1,453,458,456,-1,453,456,454,-1,
        ]
    }
}
Shape{
    appearance Appearance {
        material  Material {
            diffuseColor 1.0 1.0 1.0
            specularColor 0.5019607843137255 0.5019607843137255 0.5019607843137255
            ambientIntensity 1.0
            transparency 0.0
            shininess 0.5
        }
    }
    geometry IndexedFaceSet {
        ccw TRUE
        solid FALSE
        coord DEF co Coordinate {
            point [
                -0.2004 0.3648 0.0083, -0.2311 0.2861 0.0083, -0.2004 0.3648 0.0079, -0.2311 0.2861 0.0079, -0.2196 0.2861 0.0083, -0.2196 0.2861 0.0079, -0.2116 0.3082 0.0083, -0.2116 0.3082 0.0079, -0.1791 0.3082 0.0083, -0.1791 0.3082 0.0079, -0.1716 0.2861 0.0083, -0.1716 0.2861 0.0079, -0.16 0.2861 0.0083, -0.16 0.2861 0.0079, -0.1898 0.3648 0.0083, -0.1898 0.3648 0.0079, -0.1817 0.3168 0.0083, -0.2081 0.3168 0.0083, -0.1935 0.3497 0.0083, -0.1943 0.3524 0.0083, -0.1948 0.3552 0.0083, -0.195 0.3552 0.0083, -0.1955 0.3524 0.0083, -0.1962 0.3497 0.0083, -0.1817 0.3168 0.0079, -0.2081 0.3168 0.0079, -0.1935 0.3497 0.0079, -0.1943 0.3524 0.0079, -0.1948 0.3552 0.0079, -0.195 0.3552 0.0079, -0.1955 0.3524 0.0079, -0.1962 0.3497 0.0079, -0.1123 0.2861 0.0083, -0.0909 0.2861 0.0083, -0.1123 0.2861 0.0079, -0.0909 0.2861 0.0079, -0.0909 0.3648 0.0083, -0.0909 0.3648 0.0079, -0.1131 0.3648 0.0083, -0.1131 0.3648 0.0079, -0.1543 0.3264 0.0083, -0.1543 0.3264 0.0079, -0.1537 0.3338 0.0079, -0.1537 0.3338 0.0083, -0.1516 0.3416 0.0079, -0.1516 0.3416 0.0083, -0.1479 0.3484 0.0079, -0.1479 0.3484 0.0083, -0.1424 0.3545 0.0079, -0.1424 0.3545 0.0083, -0.1423 0.3546 0.0079, -0.1423 0.3546 0.0083, -0.1337 0.3604 0.0079, -0.1337 0.3604 0.0083, -0.1245 0.3636 0.0079, -0.1245 0.3636 0.0083, -0.1221 0.2869 0.0079, -0.1221 0.2869 0.0083, -0.1311 0.2896 0.0079, -0.1311 0.2896 0.0083, -0.1394 0.2944 0.0079, -0.1394 0.2944 0.0083, -0.1458 0.3006 0.0079, -0.1458 0.3006 0.0083, -0.1504 0.3077 0.0079, -0.1504 0.3077 0.0083, -0.1532 0.3159 0.0079, -0.1532 0.3159 0.0083, -0.1385 0.3451 0.0083, -0.1347 0.3492 0.0083, -0.1289 0.3529 0.0083, -0.1224 0.3552 0.0083, -0.1131 0.3562 0.0083, -0.1015 0.3562 0.0083, -0.1015 0.2947 0.0083, -0.1127 0.2947 0.0083, -0.121 0.2955 0.0083, -0.1276 0.2976 0.0083, -0.133 0.3007 0.0083, -0.1374 0.3051 0.0083, -0.1407 0.3105 0.0083, -0.143 0.3179 0.0083, -0.1437 0.3262 0.0083, -0.1431 0.334 0.0083, -0.1412 0.3403 0.0083, -0.1131 0.3562 0.0079, -0.1015 0.3562 0.0079, -0.1224 0.3552 0.0079, -0.1289 0.3529 0.0079, -0.1347 0.3492 0.0079, -0.1385 0.3451 0.0079, -0.1412 0.3403 0.0079, -0.1431 0.334 0.0079, -0.1437 0.3262 0.0079, -0.143 0.3179 0.0079, -0.1407 0.3105 0.0079, -0.1374 0.3051 0.0079, -0.133 0.3007 0.0079, -0.1276 0.2976 0.0079, -0.121 0.2955 0.0079, -0.1127 0.2947 0.0079, -0.1015 0.2947 0.0079, -0.0755 0.2947 0.0083, -0.0755 0.2861 0.0083, -0.0755 0.2947 0.0079, -0.0755 0.2861 0.0079, -0.0333 0.2861 0.0083, -0.0333 0.2861 0.0079, -0.0333 0.3648 0.0083, -0.0333 0.3648 0.0079, -0.0736 0.3648 0.0083, -0.0736 0.3648 0.0079, -0.0736 0.3562 0.0083, -0.0736 0.3562 0.0079, -0.0439 0.3562 0.0083, -0.0439 0.3562 0.0079, -0.0439 0.3302 0.0083, -0.0439 0.3302 0.0079, -0.0717 0.3302 0.0083, -0.0717 0.3302 0.0079, -0.0717 0.3216 0.0083, -0.0717 0.3216 0.0079, -0.0439 0.3216 0.0083, -0.0439 0.3216 0.0079, -0.0439 0.2947 0.0083, -0.0439 0.2947 0.0079, -0.0179 0.2988 0.0083, -0.0179 0.2902 0.0083, -0.0179 0.2988 0.0079, -0.0179 0.2902 0.0079, -0.0095 0.2867 0.0083, 0.0037 0.2851 0.0083, 0.0037 0.2851 0.0079, 0.0016 0.2851 0.0079, 0.0016 0.2851 0.0083, -0.0016 0.2856 0.0079, -0.0095 0.2867 0.0079, 0.0084 0.2856 0.0079, 0.0134 0.2861 0.0083, 0.0134 0.2861 0.0079, 0.0211 0.2887 0.0083, 0.0211 0.2887 0.0079, 0.0274 0.2928 0.0083, 0.0274 0.2928 0.0079, 0.0333 0.299 0.0083, 0.0333 0.299 0.0079, 0.0375 0.3065 0.0083, 0.0375 0.3065 0.0079, 0.0399 0.3148 0.0083, 0.0399 0.3148 0.0079, 0.0406 0.324 0.0083, 0.0406 0.324 0.0079, 0.0006 0.3658 0.0083, 0.0006 0.3658 0.0079, 0.0085 0.3651 0.0079, 0.0085 0.3651 0.0083, 0.0173 0.3626 0.0079, 0.0173 0.3626 0.0083, 0.0248 0.3583 0.0079, 0.0248 0.3583 0.0083, 0.0319 0.3514 0.0079, 0.0319 0.3514 0.0083, 0.0365 0.3441 0.0079, 0.0365 0.3441 0.0083, 0.0395 0.3352 0.0079, 0.0395 0.3352 0.0083, -0.0179 0.3627 0.0083, -0.0179 0.3627 0.0079, -0.0088 0.3651 0.0079, -0.0088 0.3651 0.0083, -0.0179 0.3521 0.0083, -0.0179 0.3521 0.0079, 0.0005 0.3571 0.0083, 0.0005 0.3571 0.0079, -0.0091 0.3559 0.0079, -0.0091 0.3559 0.0083, 0.0301 0.3246 0.0083, 0.0301 0.3246 0.0079, 0.0297 0.3307 0.0079, 0.0297 0.3307 0.0083, 0.0276 0.3392 0.0079, 0.0276 0.3392 0.0083, 0.0244 0.3452 0.0079, 0.0244 0.3452 0.0083, 0.0196 0.3505 0.0079, 0.0196 0.3505 0.0083, 0.0142 0.3541 0.0079, 0.0142 0.3541 0.0083, 0.0083 0.3563 0.0079, 0.0083 0.3563 0.0083, 0.0023 0.2938 0.0083, 0.0023 0.2938 0.0079, 0.0096 0.2946 0.0079, 0.0096 0.2946 0.0083, 0.0154 0.2967 0.0079, 0.0154 0.2967 0.0083, 0.0202 0.2999 0.0079, 0.0202 0.2999 0.0083, 0.0239 0.3038 0.0079, 0.0239 0.3038 0.0083, 0.0271 0.3093 0.0079, 0.0271 0.3093 0.0083, 0.0293 0.3161 0.0079, 0.0293 0.3161 0.0083, -0.0165 0.298 0.0079, -0.0165 0.298 0.0083, -0.0082 0.2949 0.0079, -0.0082 0.2949 0.0083, 0.0474 0.2947 0.0083, 0.0474 0.2861 0.0083, 0.0474 0.2947 0.0079, 0.0474 0.2861 0.0079, 0.0877 0.2861 0.0083, 0.0877 0.2861 0.0079, 0.0877 0.3648 0.0083, 0.0877 0.3648 0.0079, 0.0771 0.3648 0.0083, 0.0771 0.3648 0.0079, 0.0771 0.2947 0.0083, 0.0771 0.2947 0.0079
            ]
        }
        coordIndex [
            0,1,2,-1,2,1,3,-1,1,4,3,-1,3,4,5,-1,4,6,5,-1,5,6,7,-1,6,8,7,-1,7,8,9,-1,8,10,9,-1,9,10,11,-1,10,12,11,-1,11,12,13,-1,12,14,13,-1,13,14,15,-1,14,0,15,-1,15,0,2,-1,16,8,17,-1,17,8,6,-1,18,14,16,-1,16,14,12,-1,16,12,8,-1,8,12,10,-1,18,19,14,-1,14,19,20,-1,14,20,0,-1,0,20,21,-1,0,21,22,-1,22,23,0,-1,0,23,17,-1,0,17,1,-1,1,17,6,-1,1,6,4,-1,16,17,24,-1,24,17,25,-1,18,16,26,-1,26,16,24,-1,18,26,27,-1,18,27,19,-1,19,27,28,-1,19,28,20,-1,21,20,29,-1,29,20,28,-1,21,29,30,-1,21,30,22,-1,22,30,31,-1,22,31,23,-1,17,23,25,-1,25,23,31,-1,32,33,34,-1,34,33,35,-1,33,36,35,-1,35,36,37,-1,36,38,37,-1,37,38,39,-1,40,41,42,-1,40,42,43,-1,43,42,44,-1,43,44,45,-1,45,44,46,-1,45,46,47,-1,47,46,48,-1,47,48,49,-1,49,48,50,-1,49,50,51,-1,51,50,52,-1,51,52,53,-1,53,52,54,-1,53,54,55,-1,55,54,39,-1,55,39,38,-1,32,34,56,-1,32,56,57,-1,57,56,58,-1,57,58,59,-1,59,58,60,-1,59,60,61,-1,61,60,62,-1,61,62,63,-1,63,62,64,-1,63,64,65,-1,65,64,66,-1,65,66,67,-1,67,66,41,-1,67,41,40,-1,45,47,68,-1,68,47,49,-1,68,49,69,-1,69,49,51,-1,69,51,70,-1,70,51,53,-1,70,53,71,-1,71,53,55,-1,71,55,72,-1,72,55,38,-1,72,38,73,-1,73,38,36,-1,73,36,74,-1,74,36,33,-1,74,33,75,-1,75,33,32,-1,75,32,76,-1,76,32,57,-1,76,57,77,-1,77,57,59,-1,77,59,78,-1,78,59,61,-1,78,61,79,-1,79,61,63,-1,79,63,80,-1,80,63,65,-1,80,65,81,-1,81,65,67,-1,81,67,82,-1,82,67,40,-1,82,40,83,-1,83,40,43,-1,83,43,84,-1,84,43,45,-1,84,45,68,-1,72,73,85,-1,85,73,86,-1,72,85,87,-1,72,87,71,-1,71,87,88,-1,71,88,70,-1,70,88,89,-1,70,89,69,-1,69,89,90,-1,69,90,68,-1,68,90,91,-1,68,91,84,-1,84,91,92,-1,84,92,83,-1,83,92,93,-1,83,93,82,-1,82,93,94,-1,82,94,81,-1,81,94,95,-1,81,95,80,-1,80,95,96,-1,80,96,79,-1,79,96,97,-1,79,97,78,-1,78,97,98,-1,78,98,77,-1,77,98,99,-1,77,99,76,-1,76,99,100,-1,76,100,75,-1,74,75,101,-1,101,75,100,-1,73,74,86,-1,86,74,101,-1,102,103,104,-1,104,103,105,-1,103,106,105,-1,105,106,107,-1,106,108,107,-1,107,108,109,-1,108,110,109,-1,109,110,111,-1,110,112,111,-1,111,112,113,-1,112,114,113,-1,113,114,115,-1,114,116,115,-1,115,116,117,-1,116,118,117,-1,117,118,119,-1,118,120,119,-1,119,120,121,-1,120,122,121,-1,121,122,123,-1,122,124,123,-1,123,124,125,-1,124,102,125,-1,125,102,104,-1,106,103,102,-1,102,124,106,-1,106,124,122,-1,106,122,108,-1,112,110,114,-1,114,110,108,-1,114,108,116,-1,116,108,122,-1,116,122,118,-1,118,122,120,-1,126,127,128,-1,128,127,129,-1,129,127,130,-1,131,132,133,-1,131,133,134,-1,134,133,135,-1,134,135,130,-1,130,135,136,-1,130,136,129,-1,132,131,137,-1,137,131,138,-1,137,138,139,-1,139,138,140,-1,139,140,141,-1,141,140,142,-1,141,142,143,-1,143,142,144,-1,143,144,145,-1,145,144,146,-1,145,146,147,-1,147,146,148,-1,147,148,149,-1,149,148,150,-1,149,150,151,-1,152,153,154,-1,152,154,155,-1,155,154,156,-1,155,156,157,-1,157,156,158,-1,157,158,159,-1,159,158,160,-1,159,160,161,-1,161,160,162,-1,161,162,163,-1,163,162,164,-1,163,164,165,-1,165,164,151,-1,165,151,150,-1,166,167,168,-1,166,168,169,-1,169,168,153,-1,169,153,152,-1,166,170,167,-1,167,170,171,-1,172,173,174,-1,172,174,175,-1,175,174,171,-1,175,171,170,-1,176,177,178,-1,176,178,179,-1,179,178,180,-1,179,180,181,-1,181,180,182,-1,181,182,183,-1,183,182,184,-1,183,184,185,-1,185,184,186,-1,185,186,187,-1,187,186,188,-1,187,188,189,-1,189,188,173,-1,189,173,172,-1,190,191,192,-1,190,192,193,-1,193,192,194,-1,193,194,195,-1,195,194,196,-1,195,196,197,-1,197,196,198,-1,197,198,199,-1,199,198,200,-1,199,200,201,-1,201,200,202,-1,201,202,203,-1,203,202,177,-1,203,177,176,-1,126,128,204,-1,126,204,205,-1,205,204,206,-1,205,206,207,-1,207,206,191,-1,207,191,190,-1,193,131,190,-1,190,131,134,-1,190,134,207,-1,207,134,130,-1,207,130,205,-1,205,130,127,-1,205,127,126,-1,170,166,175,-1,175,166,169,-1,175,169,172,-1,172,169,152,-1,172,152,189,-1,189,152,155,-1,189,155,187,-1,187,155,157,-1,187,157,185,-1,185,157,159,-1,185,159,183,-1,183,159,161,-1,183,161,181,-1,181,161,163,-1,181,163,179,-1,179,163,165,-1,179,165,176,-1,176,165,150,-1,176,150,203,-1,203,150,148,-1,203,148,201,-1,201,148,146,-1,201,146,199,-1,199,146,144,-1,199,144,197,-1,197,144,142,-1,197,142,195,-1,195,142,140,-1,195,140,193,-1,193,140,138,-1,193,138,131,-1,208,209,210,-1,210,209,211,-1,209,212,211,-1,211,212,213,-1,212,214,213,-1,213,214,215,-1,214,216,215,-1,215,216,217,-1,216,218,217,-1,217,218,219,-1,218,208,219,-1,219,208,210,-1,216,214,218,-1,218,214,212,-1,218,212,208,-1,208,212,209,-1,
        ]
    }
}
Shape{
    appearance Appearance {
        material  Material {
            diffuseColor 0.25098039215686274 0.25098039215686274 0.25098039215686274
            specularColor 0.12549019607843137 0.12549019607843137 0.12549019607843137
            ambientIntensity 0.251
            transparency 0.0
            shininess 0.5
        }
    }
    geometry IndexedFaceSet {
        ccw TRUE
        solid FALSE
        coord DEF co Coordinate {
            point [
                -0.1817 0.3168 0.0079, -0.2081 0.3168 0.0079, -0.1935 0.3497 0.0079, -0.1962 0.3497 0.0079, -0.1943 0.3524 0.0079, -0.1955 0.3524 0.0079, -0.1948 0.3552 0.0079, -0.195 0.3552 0.0079, -0.1015 0.3562 0.0079, -0.1015 0.2947 0.0079, -0.1131 0.3562 0.0079, -0.1127 0.2947 0.0079, -0.121 0.2955 0.0079, -0.1437 0.3262 0.0079, -0.1431 0.334 0.0079, -0.1412 0.3403 0.0079, -0.1224 0.3552 0.0079, -0.1276 0.2976 0.0079, -0.133 0.3007 0.0079, -0.1374 0.3051 0.0079, -0.1407 0.3105 0.0079, -0.143 0.3179 0.0079, -0.1385 0.3451 0.0079, -0.1347 0.3492 0.0079, -0.1289 0.3529 0.0079
            ]
        }
        coordIndex [
            0,1,2,-1,2,1,3,-1,2,3,4,-1,4,3,5,-1,4,5,6,-1,6,5,7,-1,8,9,10,-1,10,9,11,-1,10,11,12,-1,13,14,10,-1,10,14,15,-1,10,15,16,-1,12,17,10,-1,10,17,18,-1,10,18,19,-1,19,20,10,-1,10,20,21,-1,10,21,13,-1,22,23,15,-1,15,23,24,-1,15,24,16,-1,
        ]
    }
}