#VRML V2.0 utf8
# 3D model generated by kicad-lcsc-manager
# Based on easyeda2kicad.py v1.0.1

Shape{
    appearance Appearance {
        material  Material {
            diffuseColor 0.9882352941176471 0.7372549019607844 0.5176470588235295
            specularColor 0.49411764705882355 0.3686274509803922 0.25882352941176473
            ambientIntensity 0.7873
            transparency 0.0
            shininess 0.5
        }
    }
    geometry IndexedFaceSet {
        ccw TRUE
        solid FALSE
        coord DEF co Coordinate {
            point [
                0.8217 -0.3119 0.0197, 0.8217 -0.315 0.0197, 0.6052 -0.315 0.0197, -0.0486 0.626 0.0197, 0.8217 0.626 0.0197, 0.6052 0.5315 0.0197, 0.8217 0.5315 0.0197, 0.0909 -0.1305 0.0197, 0.0846 -0.1339 0.0197, 0.0708 -0.1314 0.0197, 0.6052 0.315 0.0197, 0.2254 -0.1232 0.0197, 0.2234 -0.121 0.0197, 0.2226 -0.1535 0.0197, 0.2228 -0.1397 0.0197, 0.2249 -0.1261 0.0197, 0.0785 -0.1394 0.0197, 0.0754 -0.1436 0.0197, 0.0728 -0.1481 0.0197, -0.0376 -0.3 0.0197, -0.0374 -0.3001 0.0197, -0.0486 -0.3119 0.0197, 0.0881 -0.3102 0.0197, 0.0952 -0.3115 0.0197, 0.211 -0.1365 0.0197, 0.1731 -0.2903 0.0197, 0.111 -0.3085 0.0197, 0.1614 -0.303 0.0197, 0.1033 -0.3111 0.0197, 0.1618 -0.3036 0.0197, 0.162 -0.3039 0.0197, 0.121 -0.1389 0.0197, 0.113 -0.1323 0.0197, 0.2241 -0.3078 0.0197, 0.224 -0.3061 0.0197, 0.2226 -0.2809 0.0197, 0.2232 -0.2981 0.0197, 0.2231 -0.2976 0.0197, -0.0383 -0.2982 0.0197, -0.0382 -0.2987 0.0197, 0.0319 -0.3105 0.0197, 0.0327 -0.3102 0.0197, 0.0334 -0.3097 0.0197, 0.0338 -0.3092 0.0197, 0.0816 -0.3072 0.0197, 0.0763 -0.3028 0.0197, 0.2152 -0.2988 0.0197, 0.1934 -0.297 0.0197, 0.2152 -0.1544 0.0197, 0.183 -0.2953 0.0197, 0.1083 -0.1297 0.0197, 0.1041 -0.1285 0.0197, 0.0991 -0.1283 0.0197, 0.0387 -0.1374 0.0197, 0.0666 -0.1314 0.0197, 0.0387 -0.1379 0.0197, 0.0387 -0.1387 0.0197, 0.0387 -0.1368 0.0197, 0.0387 -0.1366 0.0197, 0.0386 -0.1364 0.0197, 0.115 -0.2943 0.0197, 0.1109 -0.2982 0.0197, 0.0701 -0.2685 0.0197, 0.0624 -0.2418 0.0197, 0.0342 -0.3084 0.0197, 0.0344 -0.3073 0.0197, 0.2226 -0.3101 0.0197, 0.2229 -0.3099 0.0197, 0.2232 -0.3097 0.0197, 0.8217 0.315 0.0197, 0.2236 -0.3092 0.0197, 0.224 -0.3085 0.0197, 0.1743 -0.2908 0.0197, 0.2151 -0.1509 0.0197, 0.214 -0.1429 0.0197, 0.0666 -0.207 0.0197, 0.0317 -0.1484 0.0197, 0.0347 -0.1449 0.0197, 0.0204 -0.1374 0.0197, 0.0372 -0.1358 0.0197, 0.0212 -0.1374 0.0197, 0.0362 -0.136 0.0197, 0.026 -0.1374 0.0197, 0.0309 -0.1368 0.0197, -0.0311 -0.212 0.0197, -0.0308 -0.2124 0.0197, -0.0292 -0.2871 0.0197, -0.0303 -0.2128 0.0197, -0.03 -0.213 0.0197, 0.0235 -0.2107 0.0197, -0.0003 -0.2076 0.0197, 0.0235 -0.1484 0.0197, -0.0101 -0.2056 0.0197, -0.0218 -0.2002 0.0197, -0.03 -0.1402 0.0197, -0.0255 -0.1408 0.0197, -0.0233 -0.1272 0.0197, -0.0314 -0.1357 0.0197, -0.0325 -0.1386 0.0197, -0.0324 -0.139 0.0197, 0.1208 -0.2859 0.0197, 0.0991 -0.3022 0.0197, 0.074 -0.2848 0.0197, 0.0777 -0.2915 0.0197, 0.0343 -0.305 0.0197, 0.0324 -0.2979 0.0197, 0.0317 -0.2905 0.0197, 0.0317 -0.2852 0.0197, 0.0735 -0.1726 0.0197, 0.077 -0.1566 0.0197, 0.1288 -0.1741 0.0197, 0.0808 -0.1483 0.0197, 0.2129 -0.3092 0.0197, 0.2195 -0.3098 0.0197, 0.2215 -0.3102 0.0197, 0.1793 -0.2944 0.0197, 0.1772 -0.2933 0.0197, 0.1167 -0.3049 0.0197, 0.1216 -0.2999 0.0197, 0.1616 -0.302 0.0197, 0.1276 -0.2898 0.0197, 0.1619 -0.3007 0.0197, 0.0366 -0.1426 0.0197, 0.0377 -0.1411 0.0197, 0.0383 -0.1398 0.0197, 0.0384 -0.1362 0.0197, 0.0148 -0.1373 0.0197, 0.0093 -0.1365 0.0197, -0.0017 -0.1345 0.0197, 0.0235 -0.2206 0.0197, 0.0235 -0.2973 0.0197, -0.0187 -0.2914 0.0197, -0.0164 -0.2034 0.0197, -0.0193 -0.2017 0.0197, -0.0122 -0.1425 0.0197, -0.0189 -0.1417 0.0197, -0.0381 -0.2976 0.0197, -0.0314 -0.14 0.0197, -0.0379 -0.297 0.0197, 0.1312 -0.188 0.0197, 0.0669 -0.2416 0.0197, 0.1324 -0.2311 0.0197, 0.0683 -0.2566 0.0197, 0.1323 -0.2337 0.0197, 0.1253 -0.2741 0.0197, 0.1072 -0.3005 0.0197, 0.1036 -0.3017 0.0197, 0.0927 -0.3017 0.0197, 0.0866 -0.2994 0.0197, 0.0817 -0.296 0.0197, 0.0343 -0.305 0.0197, 0.072 -0.207 0.0197, 0.1624 -0.3042 0.0197, 0.1632 -0.3045 0.0197, 0.1638 -0.3046 0.0197, 0.1846 -0.3067 0.0197, 0.1797 -0.3062 0.0197, 0.1679 -0.3046 0.0197, -0.0381 -0.2992 0.0197, -0.0378 -0.2998 0.0197, 0.139 -0.2441 0.0197, 0.1403 -0.2051 0.0197, -0.0295 -0.2132 0.0197, -0.0286 -0.2133 0.0197, -0.0267 -0.2886 0.0197, -0.0228 -0.2904 0.0197, -0.0326 -0.1382 0.0197, -0.0325 -0.1378 0.0197, -0.0322 -0.1393 0.0197, -0.0319 -0.1397 0.0197, -0.0371 -0.296 0.0197, -0.0313 -0.211 0.0197, -0.0312 -0.2115 0.0197, 0.0315 -0.2816 0.0197, 0.0314 -0.2781 0.0197, 0.0309 -0.3107 0.0197, 0.0296 -0.3106 0.0197, 0.0639 -0.2703 0.0197, 0.0676 -0.2881 0.0197, 0.0719 -0.297 0.0197, 0.8217 -0.5315 0.0197, 0.8217 -0.626 0.0197, 0.6052 -0.5315 0.0197, -0.0486 -0.626 0.0197, 0.1624 -0.3 0.0197, 0.1354 -0.2669 0.0197, 0.1633 -0.299 0.0197, -0.032 -0.1366 0.0197, -0.0323 -0.1373 0.0197, 0.0842 -0.1439 0.0197, 0.0882 -0.1407 0.0197, 0.1222 -0.1552 0.0197, 0.1173 -0.1474 0.0197, 0.1388 -0.1897 0.0197, 0.1328 -0.1615 0.0197, 0.1266 -0.1468 0.0197, 0.0381 -0.136 0.0197, 0.0377 -0.1359 0.0197, -0.0307 -0.2093 0.0197, -0.031 -0.2099 0.0197, -0.0308 -0.1401 0.0197, -0.0312 -0.2105 0.0197, 0.2011 -0.3081 0.0197, 0.2222 -0.3102 0.0197, -0.03 -0.2085 0.0197, 0.0969 -0.1376 0.0197, 0.1028 -0.138 0.0197, 0.0921 -0.1387 0.0197, 0.1078 -0.1397 0.0197, 0.1126 -0.1427 0.0197, -0.0371 -0.3003 0.0197, -0.0361 -0.3004 0.0197, -0.0354 -0.3005 0.0197, 0.1664 -0.2961 0.0197, -0.0115 -0.1326 0.0197, -0.0193 -0.1297 0.0197, -0.0207 -0.1289 0.0197, 0.0116 -0.3067 0.0197, 0.0246 -0.309 0.0197, 0.0277 -0.3101 0.0197, -0.0312 -0.3007 0.0197, -0.0097 -0.3034 0.0197, -0.1342 -0.1457 0.0197, -0.1383 -0.1557 0.0197, -0.6075 0.315 0.0197, -0.2463 -0.2873 0.0197, -0.2466 -0.2878 0.0197, -0.824 0.315 0.0197, -0.0595 -0.2977 0.0197, -0.0597 -0.2975 0.0197, -0.1257 -0.2974 0.0197, -0.1209 -0.3012 0.0197, -0.1654 -0.3119 0.0197, -0.117 -0.3031 0.0197, -0.1076 -0.3052 0.0197, -0.2021 -0.1249 0.0197, -0.1429 -0.1844 0.0197, -0.1305 -0.2915 0.0197, -0.1636 -0.2901 0.0197, -0.1377 -0.2776 0.0197, -0.1642 -0.2884 0.0197, -0.824 -0.3119 0.0197, -0.2467 -0.2882 0.0197, -0.2467 -0.2888 0.0197, -0.2465 -0.2917 0.0197, -0.2464 -0.2929 0.0197, -0.2462 -0.296 0.0197, -0.2451 -0.3087 0.0197, -0.0989 -0.1317 0.0197, -0.1051 -0.1311 0.0197, -0.1139 -0.1317 0.0197, -0.6075 0.5315 0.0197, -0.824 0.626 0.0197, -0.824 0.5315 0.0197, -0.1652 -0.3101 0.0197, -0.1639 -0.2982 0.0197, -0.1635 -0.2927 0.0197, -0.1729 -0.26 0.0197, -0.1445 -0.2291 0.0197, -0.1425 -0.2571 0.0197, -0.1647 -0.2874 0.0197, -0.1661 -0.2849 0.0197, -0.1698 -0.2725 0.0197, -0.0596 -0.141 0.0197, -0.0592 -0.1402 0.0197, -0.0703 -0.2973 0.0197, -0.0703 -0.149 0.0197, -0.0618 -0.2973 0.0197, -0.0607 -0.2972 0.0197, -0.1205 -0.1334 0.0197, -0.1254 -0.1359 0.0197, -0.1297 -0.1396 0.0197, -0.0941 -0.307 0.0197, -0.0816 -0.3084 0.0197, -0.077 -0.3096 0.0197, -0.206 -0.1249 0.0197, -0.2335 -0.2464 0.0197, -0.2369 -0.2605 0.0197, -0.0591 -0.2991 0.0197, -0.0591 -0.2988 0.0197, -0.0592 -0.2985 0.0197, -0.0594 -0.2979 0.0197, -0.0589 -0.1394 0.0197, -0.0589 -0.1386 0.0197, -0.0591 -0.1378 0.0197, -0.0593 -0.1373 0.0197, -0.0598 -0.2974 0.0197, -0.0601 -0.2973 0.0197, -0.0601 -0.2973 0.0197, -0.2384 -0.2672 0.0197, -0.2403 -0.2738 0.0197, -0.2423 -0.2792 0.0197, -0.2441 -0.2843 0.0197, -0.2453 -0.2861 0.0197, -0.0598 -0.3002 0.0197, -0.0594 -0.2997 0.0197, -0.0592 -0.2994 0.0197, -0.076 -0.1365 0.0197, -0.0819 -0.136 0.0197, -0.0927 -0.1329 0.0197, -0.0666 -0.147 0.0197, -0.0616 -0.1428 0.0197, -0.0603 -0.1418 0.0197, -0.0597 -0.1369 0.0197, -0.0601 -0.1365 0.0197, -0.0652 -0.1374 0.0197, -0.0684 -0.1481 0.0197, -0.0712 -0.1374 0.0197, -0.0736 -0.137 0.0197, -0.0718 -0.3119 0.0197, -0.0709 -0.3113 0.0197, -0.067 -0.308 0.0197, -0.0644 -0.3053 0.0197, -0.061 -0.3016 0.0197, -0.0603 -0.3008 0.0197, -0.824 -0.626 0.0197, -0.6075 -0.5315 0.0197, -0.824 -0.5315 0.0197, -0.2447 -0.3119 0.0197, -0.6075 -0.315 0.0197, -0.824 -0.315 0.0197, -0.0729 -0.3121 0.0197, -0.0722 -0.312 0.0197, -0.0719 -0.3119 0.0197, -0.1671 -0.3185 0.0197, -0.167 -0.3185 0.0197, -0.1668 -0.3184 0.0197, -0.1665 -0.3181 0.0197, -0.1662 -0.3176 0.0197, -0.0733 -0.3119 0.0197, -0.166 -0.3169 0.0197, -0.0731 -0.312 0.0197, -0.1667 -0.3183 0.0197, -0.074 -0.3114 0.0197, -0.1656 -0.3139 0.0197, -0.2424 -0.3179 0.0197, -0.2422 -0.3177 0.0197, -0.1702 -0.3119 0.0197, -0.2419 -0.3173 0.0197, -0.2416 -0.3166 0.0197, -0.2414 -0.316 0.0197, -0.2407 -0.3119 0.0197, -0.1679 -0.3182 0.0197, -0.1676 -0.3184 0.0197, -0.1674 -0.3185 0.0197, -0.2441 -0.3168 0.0197, -0.244 -0.3172 0.0197, -0.2438 -0.3175 0.0197, -0.2437 -0.3177 0.0197, -0.2445 -0.3135 0.0197, -0.2444 -0.315 0.0197, -0.2442 -0.316 0.0197, -0.1692 -0.3157 0.0197, -0.2429 -0.3181 0.0197, -0.2427 -0.318 0.0197, -0.1688 -0.3167 0.0197, -0.1685 -0.3174 0.0197, -0.1682 -0.3179 0.0197, -0.2435 -0.3179 0.0197, -0.2433 -0.318 0.0197, -0.2431 -0.3181 0.0197, -0.2227 -0.2359 0.0197, -0.1842 -0.2452 0.0197, -0.2394 -0.3047 0.0197, -0.1752 -0.2874 0.0197, -0.1709 -0.309 0.0197, -0.824 0.5315 0.0961, -0.824 0.315 0.0961, -0.824 -0.626 0.6496, -0.824 0.626 0.6496, -0.824 -0.315 0.0961, -0.824 -0.5315 0.0961, 0.8217 -0.5315 0.0961, 0.8217 -0.315 0.0961, 0.823 0.6274 0.6496, 0.8236 -0.628 0.6496, 0.8217 0.315 0.0961, 0.8217 0.5315 0.0961
            ]
        }
        coordIndex [
            0,1,2,-1,3,4,5,-1,5,4,6,-1,7,8,9,-1,10,11,12,-1,13,14,15,-1,10,12,5,-1,8,16,9,-1,9,16,17,-1,9,17,18,-1,19,20,21,-1,21,22,23,-1,5,12,3,-1,3,12,24,-1,3,24,25,-1,26,27,28,-1,28,27,29,-1,28,29,30,-1,3,31,32,-1,11,10,15,-1,15,10,33,-1,15,33,13,-1,13,33,34,-1,13,34,35,-1,35,34,36,-1,35,36,37,-1,21,38,39,-1,40,41,22,-1,41,42,22,-1,22,42,43,-1,22,43,44,-1,44,43,45,-1,46,47,48,-1,48,47,49,-1,32,50,3,-1,3,50,51,-1,3,51,52,-1,53,54,55,-1,55,54,56,-1,53,57,54,-1,54,57,58,-1,54,58,59,-1,60,61,62,-1,63,64,65,-1,66,67,0,-1,0,67,68,-1,0,68,69,-1,69,68,70,-1,69,70,10,-1,10,70,71,-1,10,71,33,-1,48,72,73,-1,73,72,25,-1,73,25,74,-1,74,25,24,-1,75,76,77,-1,78,79,80,-1,80,79,81,-1,80,81,82,-1,82,81,83,-1,84,85,86,-1,86,85,87,-1,86,87,88,-1,89,90,91,-1,91,90,92,-1,93,94,95,-1,3,96,97,-1,98,99,21,-1,60,62,100,-1,62,101,102,-1,102,101,103,-1,104,105,76,-1,105,106,107,-1,108,109,110,-1,110,109,111,-1,112,113,114,-1,49,115,48,-1,48,115,116,-1,48,116,72,-1,26,117,27,-1,27,117,118,-1,27,118,119,-1,119,118,120,-1,119,120,121,-1,77,122,75,-1,75,122,123,-1,75,123,54,-1,54,123,124,-1,54,124,56,-1,59,125,54,-1,54,125,3,-1,54,3,9,-1,9,3,52,-1,9,52,7,-1,78,126,79,-1,79,126,127,-1,79,127,128,-1,129,130,131,-1,92,132,91,-1,91,132,133,-1,91,133,134,-1,134,133,93,-1,134,93,135,-1,135,93,95,-1,38,21,136,-1,136,21,137,-1,136,137,138,-1,110,139,140,-1,140,139,141,-1,140,141,142,-1,142,141,143,-1,142,143,62,-1,62,143,144,-1,62,144,100,-1,61,145,62,-1,62,145,146,-1,62,146,101,-1,147,148,101,-1,101,148,149,-1,101,149,103,-1,104,76,150,-1,108,110,151,-1,151,110,140,-1,151,140,75,-1,75,140,63,-1,75,63,76,-1,76,63,65,-1,76,65,150,-1,30,152,28,-1,28,152,153,-1,28,153,154,-1,155,28,156,-1,156,28,154,-1,156,154,157,-1,39,158,21,-1,21,158,159,-1,21,159,19,-1,160,161,25,-1,88,162,86,-1,86,162,163,-1,86,163,164,-1,164,163,129,-1,164,129,165,-1,165,129,131,-1,98,21,166,-1,166,21,3,-1,166,3,167,-1,99,168,21,-1,21,168,169,-1,21,169,137,-1,170,171,86,-1,86,171,172,-1,86,172,84,-1,105,107,76,-1,76,107,173,-1,76,173,174,-1,40,22,175,-1,175,22,21,-1,175,21,176,-1,63,177,64,-1,64,177,178,-1,64,178,43,-1,43,178,179,-1,43,179,45,-1,180,181,182,-1,182,181,183,-1,182,183,2,-1,2,183,21,-1,2,21,0,-1,0,21,23,-1,121,120,184,-1,184,120,185,-1,184,185,186,-1,97,187,3,-1,3,187,188,-1,3,188,167,-1,111,189,110,-1,110,189,190,-1,110,190,191,-1,191,190,192,-1,161,193,25,-1,25,193,194,-1,25,194,3,-1,3,194,195,-1,3,195,31,-1,125,196,3,-1,3,196,197,-1,3,197,79,-1,198,199,200,-1,200,199,201,-1,200,201,137,-1,137,201,171,-1,137,171,138,-1,138,171,170,-1,155,202,28,-1,28,202,112,-1,28,112,23,-1,23,112,114,-1,23,114,0,-1,0,114,203,-1,0,203,66,-1,94,93,200,-1,200,93,204,-1,200,204,198,-1,205,206,207,-1,207,206,208,-1,207,208,190,-1,190,208,209,-1,190,209,192,-1,20,210,21,-1,21,210,211,-1,21,211,212,-1,160,25,185,-1,185,25,213,-1,185,213,186,-1,128,214,79,-1,79,214,215,-1,79,215,3,-1,3,215,216,-1,3,216,96,-1,217,218,21,-1,21,218,219,-1,21,219,176,-1,212,220,21,-1,21,220,221,-1,21,221,217,-1,222,223,224,-1,225,226,227,-1,228,229,3,-1,230,231,232,-1,232,231,233,-1,232,233,234,-1,235,223,236,-1,237,238,239,-1,239,238,240,-1,227,226,241,-1,241,226,242,-1,241,242,243,-1,244,245,243,-1,243,245,246,-1,243,246,241,-1,241,246,247,-1,248,249,3,-1,249,250,3,-1,3,250,251,-1,3,251,252,-1,252,251,253,-1,232,254,230,-1,230,254,255,-1,230,255,237,-1,237,255,256,-1,237,256,238,-1,235,236,257,-1,257,236,258,-1,257,258,259,-1,240,260,239,-1,239,260,261,-1,239,261,259,-1,259,261,262,-1,259,262,257,-1,263,264,229,-1,265,266,267,-1,267,266,268,-1,250,269,251,-1,251,269,270,-1,251,270,224,-1,224,270,271,-1,224,271,222,-1,234,272,232,-1,232,272,273,-1,232,273,274,-1,223,235,224,-1,224,235,275,-1,224,275,227,-1,227,275,276,-1,227,276,277,-1,278,279,21,-1,21,279,280,-1,21,280,3,-1,3,280,281,-1,3,281,228,-1,264,282,229,-1,229,282,283,-1,229,283,3,-1,3,283,284,-1,3,284,285,-1,286,287,266,-1,266,287,288,-1,266,288,268,-1,277,289,227,-1,227,289,290,-1,227,290,291,-1,291,292,227,-1,227,292,293,-1,227,293,225,-1,294,295,21,-1,21,295,296,-1,21,296,278,-1,297,298,3,-1,3,298,299,-1,3,299,248,-1,300,301,229,-1,229,301,302,-1,229,302,263,-1,285,303,3,-1,3,303,304,-1,3,304,305,-1,286,266,229,-1,229,266,306,-1,229,306,300,-1,305,307,3,-1,3,307,308,-1,3,308,297,-1,309,310,21,-1,21,310,311,-1,21,311,312,-1,312,313,21,-1,21,313,314,-1,21,314,294,-1,183,315,316,-1,316,315,317,-1,247,318,241,-1,241,318,319,-1,241,319,320,-1,183,321,322,-1,183,322,21,-1,21,322,323,-1,21,323,309,-1,324,325,183,-1,183,325,326,-1,327,328,329,-1,329,328,330,-1,321,183,331,-1,331,183,326,-1,331,326,329,-1,329,326,332,-1,329,332,327,-1,274,333,232,-1,232,333,329,-1,232,329,334,-1,334,329,330,-1,335,336,337,-1,337,336,338,-1,338,339,337,-1,337,339,340,-1,337,340,341,-1,342,343,183,-1,183,343,344,-1,183,344,324,-1,345,346,316,-1,316,346,347,-1,316,347,348,-1,318,349,319,-1,319,349,350,-1,319,350,316,-1,316,350,351,-1,316,351,345,-1,352,353,337,-1,337,353,354,-1,337,354,335,-1,352,355,353,-1,353,355,356,-1,353,356,183,-1,183,356,357,-1,183,357,342,-1,348,358,316,-1,316,358,359,-1,316,359,183,-1,183,359,360,-1,183,360,353,-1,361,362,363,-1,363,362,364,-1,363,364,341,-1,341,364,365,-1,341,365,337,-1,252,253,366,-1,367,368,366,-1,366,368,369,-1,366,369,252,-1,241,320,370,-1,317,315,371,-1,371,315,368,-1,371,368,370,-1,370,368,367,-1,370,367,241,-1,241,367,227,-1,181,180,372,-1,373,374,372,-1,372,374,375,-1,372,375,181,-1,0,69,376,-1,6,4,377,-1,377,4,374,-1,377,374,376,-1,376,374,373,-1,376,373,0,-1,0,373,1,-1,
        ]
    }
}
Shape{
    appearance Appearance {
        material  Material {
            diffuseColor 1.0 1.0 1.0
            specularColor 0.8784313725490196 0.8784313725490196 0.8784313725490196
            ambientIntensity 1.0
            transparency 0.0
            shininess 0.5
        }
    }
    geometry IndexedFaceSet {
        ccw TRUE
        solid FALSE
        coord DEF co Coordinate {
            point [
                0.8256 0.388 0.689, 0.8256 0.6299 0.689, 0.8112 0.6238 0.689, 0.5751 0.6299 0.689, 0.5751 -0.6299 0.689, 0.8256 -0.6299 0.689, 0.8112 -0.6238 0.689, 0.8256 -0.388 0.689, -0.2299 -0.4272 0.689, -0.2993 -0.4096 0.689, -0.5775 -0.6299 0.689, 0.3624 -0.3809 0.689, 0.2969 -0.4096 0.689, 0.5761 -0.1063 0.689, 0.5529 -0.174 0.689, -0.3648 -0.3809 0.689, -0.4247 -0.3418 0.689, -0.828 -0.388 0.689, -0.5775 0.6299 0.689, -0.3648 0.3809 0.689, -0.2993 0.4096 0.689, 0.5879 0.0358 0.689, 0.5879 -0.0358 0.689, -0.4773 -0.2933 0.689, -0.5212 -0.2369 0.689, -0.5553 -0.174 0.689, -0.828 0.388 0.689, -0.5785 0.1063 0.689, -0.5553 0.174 0.689, 0.2276 0.4272 0.689, 0.2969 0.4096 0.689, 0.5189 0.2369 0.689, 0.5529 0.174 0.689, 0.5761 0.1063 0.689, 0.5189 -0.2369 0.689, 0.4749 -0.2933 0.689, 0.4223 -0.3418 0.689, 0.2276 -0.4272 0.689, 0.1563 -0.4331 0.689, -0.1587 -0.4331 0.689, -0.5785 -0.1063 0.689, -0.5903 -0.0358 0.689, -0.5903 0.0358 0.689, -0.5212 0.2369 0.689, -0.4773 0.2933 0.689, -0.4247 0.3418 0.689, 0.3624 0.3809 0.689, 0.4223 0.3418 0.689, 0.4749 0.2933 0.689, -0.2299 0.4272 0.689, -0.1587 0.4331 0.689, 0.1563 0.4331 0.689, -0.828 -0.6299 0.689, -0.8136 -0.6238 0.689, -0.828 0.6299 0.689, -0.8136 0.6238 0.689, 0.823 0.6274 0.6496, 0.8236 -0.628 0.6496, -0.828 -0.6299 0.6496, -0.828 0.6299 0.6496, -0.824 0.626 0.6496, -0.824 -0.626 0.6496
            ]
        }
        coordIndex [
            0,1,2,-1,2,1,3,-1,4,5,6,-1,6,5,7,-1,8,9,10,-1,11,12,4,-1,7,13,14,-1,9,15,10,-1,10,15,16,-1,10,16,17,-1,18,19,20,-1,0,21,7,-1,7,21,22,-1,7,22,13,-1,16,23,17,-1,17,23,24,-1,17,24,25,-1,26,27,28,-1,29,30,3,-1,31,32,0,-1,0,32,33,-1,0,33,21,-1,14,34,7,-1,7,34,35,-1,7,35,4,-1,4,35,36,-1,4,36,11,-1,12,37,4,-1,4,37,38,-1,4,38,10,-1,10,38,39,-1,10,39,8,-1,25,40,17,-1,17,40,41,-1,17,41,26,-1,26,41,42,-1,26,42,27,-1,28,43,26,-1,26,43,44,-1,26,44,18,-1,18,44,45,-1,18,45,19,-1,30,46,3,-1,3,46,47,-1,3,47,0,-1,0,47,48,-1,0,48,31,-1,20,49,18,-1,18,49,50,-1,18,50,3,-1,3,50,51,-1,3,51,29,-1,17,52,53,-1,53,52,10,-1,18,54,55,-1,55,54,26,-1,1,0,56,-1,56,0,7,-1,56,7,57,-1,57,7,5,-1,5,4,57,-1,57,4,10,-1,57,10,58,-1,58,10,52,-1,26,54,59,-1,26,59,17,-1,17,59,58,-1,17,58,52,-1,3,1,56,-1,3,56,18,-1,18,56,59,-1,18,59,54,-1,59,56,60,-1,59,60,58,-1,58,60,61,-1,58,61,57,-1,
        ]
    }
}
Shape{
    appearance Appearance {
        material  Material {
            diffuseColor 0.9882352941176471 0.7372549019607844 0.5176470588235295
            specularColor 0.49411764705882355 0.3686274509803922 0.25882352941176473
            ambientIntensity 0.7873
            transparency 0.0
            shininess 0.5
        }
    }
    geometry IndexedFaceSet {
        ccw TRUE
        solid FALSE
        coord DEF co Coordinate {
            point [
                0.823 0.6274 0.6496, 0.8217 0.626 0.0197, -0.824 0.626 0.6496, -0.0486 0.626 0.0197, -0.824 0.626 0.0197, 0.8217 -0.626 0.0197, 0.8236 -0.628 0.6496, -0.0486 -0.626 0.0197, -0.824 -0.626 0.6496, -0.824 -0.626 0.0197
            ]
        }
        coordIndex [
            0,1,2,-1,2,1,3,-1,2,3,4,-1,5,6,7,-1,7,6,8,-1,7,8,9,-1,
        ]
    }
}
Shape{
    appearance Appearance {
        material  Material {
            diffuseColor 1.0 1.0 0.7529411764705882
            specularColor 0.5019607843137255 0.5019607843137255 0.3764705882352941
            ambientIntensity 0.9718
            transparency 0.0
            shininess 0.5
        }
    }
    geometry IndexedFaceSet {
        ccw TRUE
        solid FALSE
        coord DEF co Coordinate {
            point [
                -0.1587 0.4331 0.9567, -0.1587 0.4331 0.689, -0.2071 0.4303 0.9567, -0.2264 0.4277 0.689, -0.2263 0.4271 0.9567, -0.255 0.4222 0.9567, -0.2925 0.4119 0.689, -0.2924 0.4115 0.9567, -0.3017 0.4088 0.9567, -0.3553 0.3859 0.689, -0.3466 0.3902 0.9567, -0.4132 0.3504 0.689, -0.3891 0.3667 0.9567, -0.3551 0.3855 0.9567, -0.4649 0.3062 0.689, -0.4287 0.3386 0.9567, -0.4128 0.3498 0.9567, -0.509 0.2546 0.689, -0.4972 0.27 0.9567, -0.4649 0.3062 0.9567, -0.5445 0.1966 0.689, -0.5254 0.2304 0.9567, -0.5085 0.2542 0.9567, -0.5701 0.1337 0.9567, -0.5674 0.143 0.9567, -0.5705 0.1338 0.689, -0.5488 0.1879 0.9567, -0.5441 0.1964 0.9567, -0.5809 0.0964 0.9567, -0.5864 0.0677 0.689, -0.5858 0.0676 0.9567, -0.589 0.0485 0.9567, -0.5917 -0.0 0.689, -0.5917 -0.0 0.9567, -0.589 -0.0485 0.9567, -0.5864 -0.0677 0.689, -0.5858 -0.0676 0.9567, -0.5809 -0.0964 0.9567, -0.5705 -0.1338 0.689, -0.5701 -0.1337 0.9567, -0.5674 -0.143 0.9567, -0.5445 -0.1966 0.689, -0.5488 -0.1879 0.9567, -0.509 -0.2546 0.689, -0.5254 -0.2304 0.9567, -0.5441 -0.1964 0.9567, -0.4649 -0.3062 0.689, -0.4972 -0.27 0.9567, -0.5085 -0.2542 0.9567, -0.4132 -0.3504 0.689, -0.4287 -0.3386 0.9567, -0.4649 -0.3062 0.9567, -0.3553 -0.3859 0.689, -0.3891 -0.3667 0.9567, -0.4128 -0.3498 0.9567, -0.2924 -0.4115 0.9567, -0.3017 -0.4088 0.9567, -0.2925 -0.4119 0.689, -0.3466 -0.3902 0.9567, -0.3551 -0.3855 0.9567, -0.255 -0.4222 0.9567, -0.2264 -0.4277 0.689, -0.2263 -0.4271 0.9567, -0.2071 -0.4303 0.9567, -0.1587 -0.4331 0.689, -0.1587 -0.4331 0.9567, 0.1563 -0.4331 0.9567, 0.1563 -0.4331 0.689, 0.2048 -0.4303 0.9567, 0.224 -0.4277 0.689, 0.2239 -0.4271 0.9567, 0.2527 -0.4222 0.9567, 0.2901 -0.4119 0.689, 0.29 -0.4115 0.9567, 0.2993 -0.4088 0.9567, 0.3529 -0.3859 0.689, 0.3442 -0.3902 0.9567, 0.4109 -0.3504 0.689, 0.3867 -0.3667 0.9567, 0.3527 -0.3855 0.9567, 0.4625 -0.3062 0.689, 0.4263 -0.3386 0.9567, 0.4105 -0.3498 0.9567, 0.5067 -0.2546 0.689, 0.4949 -0.27 0.9567, 0.4625 -0.3062 0.9567, 0.5422 -0.1966 0.689, 0.523 -0.2304 0.9567, 0.5061 -0.2542 0.9567, 0.5678 -0.1337 0.9567, 0.5651 -0.143 0.9567, 0.5682 -0.1338 0.689, 0.5465 -0.1879 0.9567, 0.5418 -0.1964 0.9567, 0.5785 -0.0964 0.9567, 0.584 -0.0677 0.689, 0.5834 -0.0676 0.9567, 0.5866 -0.0485 0.9567, 0.5894 0.0 0.689, 0.5894 0.0 0.9567, 0.5866 0.0485 0.9567, 0.584 0.0677 0.689, 0.5834 0.0676 0.9567, 0.5785 0.0964 0.9567, 0.5682 0.1338 0.689, 0.5678 0.1337 0.9567, 0.5651 0.143 0.9567, 0.5422 0.1966 0.689, 0.5465 0.1879 0.9567, 0.5067 0.2546 0.689, 0.523 0.2304 0.9567, 0.5418 0.1964 0.9567, 0.4625 0.3062 0.689, 0.4949 0.27 0.9567, 0.5061 0.2542 0.9567, 0.4109 0.3504 0.689, 0.4263 0.3386 0.9567, 0.4625 0.3062 0.9567, 0.3529 0.3859 0.689, 0.3867 0.3667 0.9567, 0.4105 0.3498 0.9567, 0.29 0.4115 0.9567, 0.2993 0.4088 0.9567, 0.2901 0.4119 0.689, 0.3442 0.3902 0.9567, 0.3527 0.3855 0.9567, 0.2527 0.4222 0.9567, 0.224 0.4277 0.689, 0.2239 0.4271 0.9567, 0.2048 0.4303 0.9567, 0.1563 0.4331 0.689, 0.1563 0.4331 0.9567, 0.1995 0.3834 1.0039, 0.1563 0.3858 1.0039, 0.5325 0.0859 1.0039, 0.3969 -0.3017 1.0039, 0.4291 -0.2728 1.0039, -0.2019 0.3834 1.0039, -0.2445 0.3762 1.0039, -0.1587 -0.3858 1.0039, 0.1563 -0.3858 1.0039, 0.1995 -0.3834 1.0039, 0.2422 -0.3762 1.0039, 0.2837 -0.3642 1.0039, -0.1587 0.3858 1.0039, -0.4853 0.2053 1.0039, -0.5063 0.1674 1.0039, 0.3237 -0.3476 1.0039, 0.3616 -0.3267 1.0039, 0.458 -0.2406 1.0039, 0.483 -0.2053 1.0039, 0.5039 -0.1674 1.0039, -0.3639 0.3267 1.0039, -0.3992 0.3017 1.0039, -0.4853 -0.2053 1.0039, -0.4603 -0.2406 1.0039, 0.5205 -0.1274 1.0039, 0.5325 -0.0859 1.0039, 0.5397 -0.0432 1.0039, -0.2861 0.3642 1.0039, -0.3261 0.3476 1.0039, -0.4315 0.2728 1.0039, -0.4603 0.2406 1.0039, -0.5228 0.1274 1.0039, -0.5348 0.0859 1.0039, -0.5421 0.0432 1.0039, 0.5421 -0.0 1.0039, 0.5397 0.0432 1.0039, 0.5039 0.1674 1.0039, 0.483 0.2053 1.0039, 0.2422 0.3762 1.0039, 0.458 0.2406 1.0039, 0.4291 0.2728 1.0039, -0.5445 0.0 1.0039, -0.5421 -0.0432 1.0039, -0.5348 -0.0859 1.0039, 0.5205 0.1274 1.0039, 0.3969 0.3017 1.0039, 0.3616 0.3267 1.0039, 0.2837 0.3642 1.0039, 0.3237 0.3476 1.0039, -0.5228 -0.1274 1.0039, -0.5063 -0.1674 1.0039, -0.4315 -0.2728 1.0039, -0.3992 -0.3017 1.0039, -0.2019 -0.3834 1.0039, -0.3639 -0.3267 1.0039, -0.3261 -0.3476 1.0039, -0.2861 -0.3642 1.0039, -0.2445 -0.3762 1.0039, -0.1587 -0.3981 1.0023, 0.1563 -0.3981 1.0023, -0.1587 -0.4094 0.9976, 0.1563 -0.4094 0.9976, -0.1587 -0.4192 0.9901, 0.1563 -0.4192 0.9901, -0.1587 -0.4267 0.9803, 0.1563 -0.4267 0.9803, -0.1587 -0.4315 0.9689, 0.1563 -0.4315 0.9689, 0.2523 -0.4206 0.9689, 0.3859 -0.3653 0.9689, 0.5216 -0.2296 0.9689, 0.5769 -0.096 0.9689, 0.5769 0.096 0.9689, 0.5216 0.2296 0.9689, 0.3859 0.3653 0.9689, 0.2523 0.4206 0.9689, 0.2009 0.3956 1.0023, 0.2449 0.3881 1.0023, 0.2021 0.4069 0.9976, 0.2474 0.3992 0.9976, 0.2032 0.4166 0.9901, 0.2496 0.4087 0.9901, 0.2041 0.4241 0.9803, 0.2513 0.416 0.9803, 0.2046 0.4287 0.9689, 0.329 0.3586 1.0023, 0.3681 0.337 1.0023, 0.334 0.3689 0.9976, 0.3741 0.3467 0.9976, 0.3382 0.3777 0.9901, 0.3793 0.355 0.9901, 0.3415 0.3845 0.9803, 0.3833 0.3613 0.9803, 0.3435 0.3887 0.9689, 0.4675 0.2482 1.0023, 0.4933 0.2118 1.0023, 0.4764 0.2553 0.9976, 0.503 0.2178 0.9976, 0.4841 0.2614 0.9901, 0.5113 0.223 0.9901, 0.4899 0.2661 0.9803, 0.5176 0.227 0.9803, 0.4936 0.269 0.9689, 0.532 0.1315 1.0023, 0.5444 0.0886 1.0023, 0.5428 0.1352 0.9976, 0.5555 0.0911 0.9976, 0.552 0.1385 0.9901, 0.565 0.0933 0.9901, 0.5591 0.1409 0.9803, 0.5723 0.095 0.9803, 0.5635 0.1425 0.9689, 0.5519 -0.0446 1.0023, 0.5444 -0.0886 1.0023, 0.5632 -0.0458 0.9976, 0.5555 -0.0911 0.9976, 0.5729 -0.0469 0.9901, 0.565 -0.0933 0.9901, 0.5804 -0.0478 0.9803, 0.5723 -0.095 0.9803, 0.585 -0.0483 0.9689, 0.5149 -0.1727 1.0023, 0.4933 -0.2118 1.0023, 0.5252 -0.1777 0.9976, 0.503 -0.2178 0.9976, 0.534 -0.1819 0.9901, 0.5113 -0.223 0.9901, 0.5408 -0.1852 0.9803, 0.5176 -0.227 0.9803, 0.545 -0.1872 0.9689, 0.4045 -0.3112 1.0023, 0.3681 -0.337 1.0023, 0.4116 -0.3201 0.9976, 0.3741 -0.3467 0.9976, 0.4177 -0.3278 0.9901, 0.3793 -0.355 0.9901, 0.4224 -0.3336 0.9803, 0.3833 -0.3613 0.9803, 0.4253 -0.3373 0.9689, 0.2878 -0.3757 1.0023, 0.2449 -0.3881 1.0023, 0.2915 -0.3865 0.9976, 0.2474 -0.3992 0.9976, 0.2948 -0.3957 0.9901, 0.2496 -0.4087 0.9901, 0.2972 -0.4028 0.9803, 0.2513 -0.416 0.9803, 0.2988 -0.4072 0.9689, 0.1563 0.3981 1.0023, 0.1563 0.4094 0.9976, 0.1563 0.4192 0.9901, 0.1563 0.4267 0.9803, 0.1563 0.4315 0.9689, 0.2988 0.4072 0.9689, 0.2972 0.4028 0.9803, 0.2948 0.3957 0.9901, 0.2915 0.3865 0.9976, 0.2878 0.3757 1.0023, 0.4253 0.3373 0.9689, 0.4224 0.3336 0.9803, 0.4177 0.3278 0.9901, 0.4116 0.3201 0.9976, 0.4045 0.3112 1.0023, 0.4378 0.2815 1.0023, 0.4458 0.2895 0.9976, 0.4527 0.2964 0.9901, 0.4581 0.3018 0.9803, 0.4614 0.3051 0.9689, 0.545 0.1872 0.9689, 0.5408 0.1852 0.9803, 0.534 0.1819 0.9901, 0.5252 0.1777 0.9976, 0.5149 0.1727 1.0023, 0.585 0.0483 0.9689, 0.5804 0.0478 0.9803, 0.5729 0.0469 0.9901, 0.5632 0.0458 0.9976, 0.5519 0.0446 1.0023, 0.5544 -0.0 1.0023, 0.5657 -0.0 0.9976, 0.5755 -0.0 0.9901, 0.583 -0.0 0.9803, 0.5878 -0.0 0.9689, 0.5635 -0.1425 0.9689, 0.5591 -0.1409 0.9803, 0.552 -0.1385 0.9901, 0.5428 -0.1352 0.9976, 0.532 -0.1315 1.0023, 0.4936 -0.269 0.9689, 0.4899 -0.2661 0.9803, 0.4841 -0.2614 0.9901, 0.4764 -0.2553 0.9976, 0.4675 -0.2482 1.0023, 0.4378 -0.2815 1.0023, 0.4458 -0.2895 0.9976, 0.4527 -0.2964 0.9901, 0.4581 -0.3018 0.9803, 0.4614 -0.3051 0.9689, 0.3435 -0.3887 0.9689, 0.3415 -0.3845 0.9803, 0.3382 -0.3777 0.9901, 0.334 -0.3689 0.9976, 0.329 -0.3586 1.0023, 0.2046 -0.4287 0.9689, 0.2041 -0.4241 0.9803, 0.2032 -0.4166 0.9901, 0.2021 -0.4069 0.9976, 0.2009 -0.3956 1.0023, -0.2547 0.4206 0.9689, -0.3882 0.3653 0.9689, -0.524 0.2296 0.9689, -0.5793 0.096 0.9689, -0.5793 -0.096 0.9689, -0.524 -0.2296 0.9689, -0.3882 -0.3653 0.9689, -0.2547 -0.4206 0.9689, -0.2032 -0.3956 1.0023, -0.2472 -0.3881 1.0023, -0.2045 -0.4069 0.9976, -0.2498 -0.3992 0.9976, -0.2056 -0.4166 0.9901, -0.2519 -0.4087 0.9901, -0.2064 -0.4241 0.9803, -0.2536 -0.416 0.9803, -0.207 -0.4287 0.9689, -0.3314 -0.3586 1.0023, -0.3704 -0.337 1.0023, -0.3363 -0.3689 0.9976, -0.3765 -0.3467 0.9976, -0.3406 -0.3777 0.9901, -0.3817 -0.355 0.9901, -0.3438 -0.3845 0.9803, -0.3857 -0.3613 0.9803, -0.3459 -0.3887 0.9689, -0.4699 -0.2482 1.0023, -0.4957 -0.2118 1.0023, -0.4788 -0.2553 0.9976, -0.5054 -0.2178 0.9976, -0.4864 -0.2614 0.9901, -0.5136 -0.223 0.9901, -0.4923 -0.2661 0.9803, -0.52 -0.227 0.9803, -0.496 -0.269 0.9689, -0.5344 -0.1315 1.0023, -0.5467 -0.0886 1.0023, -0.5451 -0.1352 0.9976, -0.5578 -0.0911 0.9976, -0.5544 -0.1385 0.9901, -0.5674 -0.0933 0.9901, -0.5615 -0.1409 0.9803, -0.5747 -0.095 0.9803, -0.5659 -0.1425 0.9689, -0.5542 0.0446 1.0023, -0.5467 0.0886 1.0023, -0.5655 0.0458 0.9976, -0.5578 0.0911 0.9976, -0.5753 0.0469 0.9901, -0.5674 0.0933 0.9901, -0.5827 0.0478 0.9803, -0.5747 0.095 0.9803, -0.5874 0.0483 0.9689, -0.5173 0.1727 1.0023, -0.4957 0.2118 1.0023, -0.5276 0.1777 0.9976, -0.5054 0.2178 0.9976, -0.5364 0.1819 0.9901, -0.5136 0.223 0.9901, -0.5431 0.1852 0.9803, -0.52 0.227 0.9803, -0.5474 0.1872 0.9689, -0.4068 0.3112 1.0023, -0.3704 0.337 1.0023, -0.4139 0.3201 0.9976, -0.3765 0.3467 0.9976, -0.42 0.3278 0.9901, -0.3817 0.355 0.9901, -0.4247 0.3336 0.9803, -0.3857 0.3613 0.9803, -0.4277 0.3373 0.9689, -0.2901 0.3757 1.0023, -0.2472 0.3881 1.0023, -0.2939 0.3865 0.9976, -0.2498 0.3992 0.9976, -0.2971 0.3957 0.9901, -0.2519 0.4087 0.9901, -0.2996 0.4028 0.9803, -0.2536 0.416 0.9803, -0.3012 0.4072 0.9689, -0.3012 -0.4072 0.9689, -0.2996 -0.4028 0.9803, -0.2971 -0.3957 0.9901, -0.2939 -0.3865 0.9976, -0.2901 -0.3757 1.0023, -0.4277 -0.3373 0.9689, -0.4247 -0.3336 0.9803, -0.42 -0.3278 0.9901, -0.4139 -0.3201 0.9976, -0.4068 -0.3112 1.0023, -0.4401 -0.2815 1.0023, -0.4482 -0.2895 0.9976, -0.4551 -0.2964 0.9901, -0.4604 -0.3018 0.9803, -0.4637 -0.3051 0.9689, -0.5474 -0.1872 0.9689, -0.5431 -0.1852 0.9803, -0.5364 -0.1819 0.9901, -0.5276 -0.1777 0.9976, -0.5173 -0.1727 1.0023, -0.5874 -0.0483 0.9689, -0.5827 -0.0478 0.9803, -0.5753 -0.0469 0.9901, -0.5655 -0.0458 0.9976, -0.5542 -0.0446 1.0023, -0.5567 0.0 1.0023, -0.5681 0.0 0.9976, -0.5779 0.0 0.9901, -0.5854 0.0 0.9803, -0.5901 0.0 0.9689, -0.5659 0.1425 0.9689, -0.5615 0.1409 0.9803, -0.5544 0.1385 0.9901, -0.5451 0.1352 0.9976, -0.5344 0.1315 1.0023, -0.496 0.269 0.9689, -0.4923 0.2661 0.9803, -0.4864 0.2614 0.9901, -0.4788 0.2553 0.9976, -0.4699 0.2482 1.0023, -0.4401 0.2815 1.0023, -0.4482 0.2895 0.9976, -0.4551 0.2964 0.9901, -0.4604 0.3018 0.9803, -0.4637 0.3051 0.9689, -0.3459 0.3887 0.9689, -0.3438 0.3845 0.9803, -0.3406 0.3777 0.9901, -0.3363 0.3689 0.9976, -0.3314 0.3586 1.0023, -0.207 0.4287 0.9689, -0.2064 0.4241 0.9803, -0.2056 0.4166 0.9901, -0.2045 0.4069 0.9976, -0.2032 0.3956 1.0023, -0.1587 0.3981 1.0023, -0.1587 0.4094 0.9976, -0.1587 0.4192 0.9901, -0.1587 0.4267 0.9803, -0.1587 0.4315 0.9689
            ]
        }
        coordIndex [
            0,1,2,-1,2,1,3,-1,2,3,4,-1,4,3,5,-1,5,3,6,-1,5,6,7,-1,7,6,8,-1,8,6,9,-1,8,9,10,-1,11,12,9,-1,9,12,13,-1,9,13,10,-1,14,15,11,-1,11,15,16,-1,11,16,12,-1,17,18,14,-1,14,18,19,-1,14,19,15,-1,20,21,17,-1,17,21,22,-1,17,22,18,-1,23,24,25,-1,25,24,26,-1,25,26,20,-1,20,26,27,-1,20,27,21,-1,23,25,28,-1,28,25,29,-1,28,29,30,-1,30,29,31,-1,31,29,32,-1,31,32,33,-1,33,32,34,-1,34,32,35,-1,34,35,36,-1,36,35,37,-1,37,35,38,-1,37,38,39,-1,39,38,40,-1,40,38,41,-1,40,41,42,-1,43,44,41,-1,41,44,45,-1,41,45,42,-1,46,47,43,-1,43,47,48,-1,43,48,44,-1,49,50,46,-1,46,50,51,-1,46,51,47,-1,52,53,49,-1,49,53,54,-1,49,54,50,-1,55,56,57,-1,57,56,58,-1,57,58,52,-1,52,58,59,-1,52,59,53,-1,55,57,60,-1,60,57,61,-1,60,61,62,-1,62,61,63,-1,63,61,64,-1,63,64,65,-1,65,64,66,-1,66,64,67,-1,66,67,68,-1,68,67,69,-1,68,69,70,-1,70,69,71,-1,71,69,72,-1,71,72,73,-1,73,72,74,-1,74,72,75,-1,74,75,76,-1,77,78,75,-1,75,78,79,-1,75,79,76,-1,80,81,77,-1,77,81,82,-1,77,82,78,-1,83,84,80,-1,80,84,85,-1,80,85,81,-1,86,87,83,-1,83,87,88,-1,83,88,84,-1,89,90,91,-1,91,90,92,-1,91,92,86,-1,86,92,93,-1,86,93,87,-1,89,91,94,-1,94,91,95,-1,94,95,96,-1,96,95,97,-1,97,95,98,-1,97,98,99,-1,99,98,100,-1,100,98,101,-1,100,101,102,-1,102,101,103,-1,103,101,104,-1,103,104,105,-1,105,104,106,-1,106,104,107,-1,106,107,108,-1,109,110,107,-1,107,110,111,-1,107,111,108,-1,112,113,109,-1,109,113,114,-1,109,114,110,-1,115,116,112,-1,112,116,117,-1,112,117,113,-1,118,119,115,-1,115,119,120,-1,115,120,116,-1,121,122,123,-1,123,122,124,-1,123,124,118,-1,118,124,125,-1,118,125,119,-1,121,123,126,-1,126,123,127,-1,126,127,128,-1,128,127,129,-1,129,127,130,-1,129,130,131,-1,131,130,0,-1,0,130,1,-1,132,133,134,-1,135,136,133,-1,137,138,139,-1,140,141,133,-1,133,141,142,-1,133,142,143,-1,140,133,139,-1,139,133,144,-1,139,144,137,-1,145,146,139,-1,143,147,133,-1,133,147,148,-1,133,148,135,-1,136,149,133,-1,133,149,150,-1,133,150,151,-1,139,152,153,-1,154,155,139,-1,151,156,133,-1,133,156,157,-1,133,157,158,-1,138,159,139,-1,139,159,160,-1,139,160,152,-1,153,161,139,-1,139,161,162,-1,139,162,145,-1,146,163,139,-1,139,163,164,-1,139,164,165,-1,158,166,133,-1,133,166,167,-1,133,167,134,-1,168,169,170,-1,170,169,171,-1,170,171,172,-1,165,173,139,-1,139,173,174,-1,139,174,175,-1,132,134,170,-1,170,134,176,-1,170,176,168,-1,172,177,170,-1,170,177,178,-1,170,178,179,-1,179,178,180,-1,175,181,139,-1,139,181,182,-1,139,182,154,-1,155,183,139,-1,139,183,184,-1,139,184,185,-1,185,184,186,-1,186,187,185,-1,185,187,188,-1,185,188,189,-1,140,139,190,-1,140,190,191,-1,191,190,192,-1,191,192,193,-1,193,192,194,-1,193,194,195,-1,195,194,196,-1,195,196,197,-1,197,196,198,-1,197,198,199,-1,199,198,65,-1,199,65,66,-1,70,71,200,-1,79,78,201,-1,88,87,202,-1,89,94,203,-1,102,103,204,-1,111,110,205,-1,120,119,206,-1,121,126,207,-1,132,170,208,-1,208,170,209,-1,208,209,210,-1,210,209,211,-1,210,211,212,-1,212,211,213,-1,212,213,214,-1,214,213,215,-1,214,215,216,-1,216,215,207,-1,180,178,217,-1,217,178,218,-1,217,218,219,-1,219,218,220,-1,219,220,221,-1,221,220,222,-1,221,222,223,-1,223,222,224,-1,223,224,225,-1,225,224,206,-1,171,169,226,-1,226,169,227,-1,226,227,228,-1,228,227,229,-1,228,229,230,-1,230,229,231,-1,230,231,232,-1,232,231,233,-1,232,233,234,-1,234,233,205,-1,176,134,235,-1,235,134,236,-1,235,236,237,-1,237,236,238,-1,237,238,239,-1,239,238,240,-1,239,240,241,-1,241,240,242,-1,241,242,243,-1,243,242,204,-1,158,157,244,-1,244,157,245,-1,244,245,246,-1,246,245,247,-1,246,247,248,-1,248,247,249,-1,248,249,250,-1,250,249,251,-1,250,251,252,-1,252,251,203,-1,151,150,253,-1,253,150,254,-1,253,254,255,-1,255,254,256,-1,255,256,257,-1,257,256,258,-1,257,258,259,-1,259,258,260,-1,259,260,261,-1,261,260,202,-1,135,148,262,-1,262,148,263,-1,262,263,264,-1,264,263,265,-1,264,265,266,-1,266,265,267,-1,266,267,268,-1,268,267,269,-1,268,269,270,-1,270,269,201,-1,143,142,271,-1,271,142,272,-1,271,272,273,-1,273,272,274,-1,273,274,275,-1,275,274,276,-1,275,276,277,-1,277,276,278,-1,277,278,279,-1,279,278,200,-1,133,132,280,-1,280,132,208,-1,280,208,281,-1,281,208,210,-1,281,210,282,-1,282,210,212,-1,282,212,283,-1,283,212,214,-1,283,214,284,-1,284,214,216,-1,284,216,131,-1,131,216,129,-1,207,126,216,-1,216,126,128,-1,216,128,129,-1,122,121,285,-1,285,121,207,-1,285,207,286,-1,286,207,215,-1,286,215,287,-1,287,215,213,-1,287,213,288,-1,288,213,211,-1,288,211,289,-1,289,211,209,-1,289,209,179,-1,179,209,170,-1,179,180,289,-1,289,180,217,-1,289,217,288,-1,288,217,219,-1,288,219,287,-1,287,219,221,-1,287,221,286,-1,286,221,223,-1,286,223,285,-1,285,223,225,-1,285,225,122,-1,122,225,124,-1,206,119,225,-1,225,119,125,-1,225,125,124,-1,116,120,290,-1,290,120,206,-1,290,206,291,-1,291,206,224,-1,291,224,292,-1,292,224,222,-1,292,222,293,-1,293,222,220,-1,293,220,294,-1,294,220,218,-1,294,218,177,-1,177,218,178,-1,177,172,294,-1,294,172,295,-1,294,295,293,-1,293,295,296,-1,293,296,292,-1,292,296,297,-1,292,297,291,-1,291,297,298,-1,291,298,290,-1,290,298,299,-1,290,299,116,-1,116,299,117,-1,172,171,295,-1,295,171,226,-1,295,226,296,-1,296,226,228,-1,296,228,297,-1,297,228,230,-1,297,230,298,-1,298,230,232,-1,298,232,299,-1,299,232,234,-1,299,234,117,-1,117,234,113,-1,205,110,234,-1,234,110,114,-1,234,114,113,-1,108,111,300,-1,300,111,205,-1,300,205,301,-1,301,205,233,-1,301,233,302,-1,302,233,231,-1,302,231,303,-1,303,231,229,-1,303,229,304,-1,304,229,227,-1,304,227,168,-1,168,227,169,-1,168,176,304,-1,304,176,235,-1,304,235,303,-1,303,235,237,-1,303,237,302,-1,302,237,239,-1,302,239,301,-1,301,239,241,-1,301,241,300,-1,300,241,243,-1,300,243,108,-1,108,243,106,-1,204,103,243,-1,243,103,105,-1,243,105,106,-1,100,102,305,-1,305,102,204,-1,305,204,306,-1,306,204,242,-1,306,242,307,-1,307,242,240,-1,307,240,308,-1,308,240,238,-1,308,238,309,-1,309,238,236,-1,309,236,167,-1,167,236,134,-1,167,166,309,-1,309,166,310,-1,309,310,308,-1,308,310,311,-1,308,311,307,-1,307,311,312,-1,307,312,306,-1,306,312,313,-1,306,313,305,-1,305,313,314,-1,305,314,100,-1,100,314,99,-1,166,158,310,-1,310,158,244,-1,310,244,311,-1,311,244,246,-1,311,246,312,-1,312,246,248,-1,312,248,313,-1,313,248,250,-1,313,250,314,-1,314,250,252,-1,314,252,99,-1,99,252,97,-1,203,94,252,-1,252,94,96,-1,252,96,97,-1,90,89,315,-1,315,89,203,-1,315,203,316,-1,316,203,251,-1,316,251,317,-1,317,251,249,-1,317,249,318,-1,318,249,247,-1,318,247,319,-1,319,247,245,-1,319,245,156,-1,156,245,157,-1,156,151,319,-1,319,151,253,-1,319,253,318,-1,318,253,255,-1,318,255,317,-1,317,255,257,-1,317,257,316,-1,316,257,259,-1,316,259,315,-1,315,259,261,-1,315,261,90,-1,90,261,92,-1,202,87,261,-1,261,87,93,-1,261,93,92,-1,84,88,320,-1,320,88,202,-1,320,202,321,-1,321,202,260,-1,321,260,322,-1,322,260,258,-1,322,258,323,-1,323,258,256,-1,323,256,324,-1,324,256,254,-1,324,254,149,-1,149,254,150,-1,149,136,324,-1,324,136,325,-1,324,325,323,-1,323,325,326,-1,323,326,322,-1,322,326,327,-1,322,327,321,-1,321,327,328,-1,321,328,320,-1,320,328,329,-1,320,329,84,-1,84,329,85,-1,136,135,325,-1,325,135,262,-1,325,262,326,-1,326,262,264,-1,326,264,327,-1,327,264,266,-1,327,266,328,-1,328,266,268,-1,328,268,329,-1,329,268,270,-1,329,270,85,-1,85,270,81,-1,201,78,270,-1,270,78,82,-1,270,82,81,-1,76,79,330,-1,330,79,201,-1,330,201,331,-1,331,201,269,-1,331,269,332,-1,332,269,267,-1,332,267,333,-1,333,267,265,-1,333,265,334,-1,334,265,263,-1,334,263,147,-1,147,263,148,-1,147,143,334,-1,334,143,271,-1,334,271,333,-1,333,271,273,-1,333,273,332,-1,332,273,275,-1,332,275,331,-1,331,275,277,-1,331,277,330,-1,330,277,279,-1,330,279,76,-1,76,279,74,-1,200,71,279,-1,279,71,73,-1,279,73,74,-1,68,70,335,-1,335,70,200,-1,335,200,336,-1,336,200,278,-1,336,278,337,-1,337,278,276,-1,337,276,338,-1,338,276,274,-1,338,274,339,-1,339,274,272,-1,339,272,141,-1,141,272,142,-1,141,140,339,-1,339,140,191,-1,339,191,338,-1,338,191,193,-1,338,193,337,-1,337,193,195,-1,337,195,336,-1,336,195,197,-1,336,197,335,-1,335,197,199,-1,335,199,68,-1,68,199,66,-1,4,5,340,-1,13,12,341,-1,22,21,342,-1,23,28,343,-1,36,37,344,-1,45,44,345,-1,54,53,346,-1,55,60,347,-1,185,189,348,-1,348,189,349,-1,348,349,350,-1,350,349,351,-1,350,351,352,-1,352,351,353,-1,352,353,354,-1,354,353,355,-1,354,355,356,-1,356,355,347,-1,187,186,357,-1,357,186,358,-1,357,358,359,-1,359,358,360,-1,359,360,361,-1,361,360,362,-1,361,362,363,-1,363,362,364,-1,363,364,365,-1,365,364,346,-1,155,154,366,-1,366,154,367,-1,366,367,368,-1,368,367,369,-1,368,369,370,-1,370,369,371,-1,370,371,372,-1,372,371,373,-1,372,373,374,-1,374,373,345,-1,181,175,375,-1,375,175,376,-1,375,376,377,-1,377,376,378,-1,377,378,379,-1,379,378,380,-1,379,380,381,-1,381,380,382,-1,381,382,383,-1,383,382,344,-1,165,164,384,-1,384,164,385,-1,384,385,386,-1,386,385,387,-1,386,387,388,-1,388,387,389,-1,388,389,390,-1,390,389,391,-1,390,391,392,-1,392,391,343,-1,146,145,393,-1,393,145,394,-1,393,394,395,-1,395,394,396,-1,395,396,397,-1,397,396,398,-1,397,398,399,-1,399,398,400,-1,399,400,401,-1,401,400,342,-1,153,152,402,-1,402,152,403,-1,402,403,404,-1,404,403,405,-1,404,405,406,-1,406,405,407,-1,406,407,408,-1,408,407,409,-1,408,409,410,-1,410,409,341,-1,159,138,411,-1,411,138,412,-1,411,412,413,-1,413,412,414,-1,413,414,415,-1,415,414,416,-1,415,416,417,-1,417,416,418,-1,417,418,419,-1,419,418,340,-1,139,185,190,-1,190,185,348,-1,190,348,192,-1,192,348,350,-1,192,350,194,-1,194,350,352,-1,194,352,196,-1,196,352,354,-1,196,354,198,-1,198,354,356,-1,198,356,65,-1,65,356,63,-1,347,60,356,-1,356,60,62,-1,356,62,63,-1,56,55,420,-1,420,55,347,-1,420,347,421,-1,421,347,355,-1,421,355,422,-1,422,355,353,-1,422,353,423,-1,423,353,351,-1,423,351,424,-1,424,351,349,-1,424,349,188,-1,188,349,189,-1,188,187,424,-1,424,187,357,-1,424,357,423,-1,423,357,359,-1,423,359,422,-1,422,359,361,-1,422,361,421,-1,421,361,363,-1,421,363,420,-1,420,363,365,-1,420,365,56,-1,56,365,58,-1,346,53,365,-1,365,53,59,-1,365,59,58,-1,50,54,425,-1,425,54,346,-1,425,346,426,-1,426,346,364,-1,426,364,427,-1,427,364,362,-1,427,362,428,-1,428,362,360,-1,428,360,429,-1,429,360,358,-1,429,358,184,-1,184,358,186,-1,184,183,429,-1,429,183,430,-1,429,430,428,-1,428,430,431,-1,428,431,427,-1,427,431,432,-1,427,432,426,-1,426,432,433,-1,426,433,425,-1,425,433,434,-1,425,434,50,-1,50,434,51,-1,183,155,430,-1,430,155,366,-1,430,366,431,-1,431,366,368,-1,431,368,432,-1,432,368,370,-1,432,370,433,-1,433,370,372,-1,433,372,434,-1,434,372,374,-1,434,374,51,-1,51,374,47,-1,345,44,374,-1,374,44,48,-1,374,48,47,-1,42,45,435,-1,435,45,345,-1,435,345,436,-1,436,345,373,-1,436,373,437,-1,437,373,371,-1,437,371,438,-1,438,371,369,-1,438,369,439,-1,439,369,367,-1,439,367,182,-1,182,367,154,-1,182,181,439,-1,439,181,375,-1,439,375,438,-1,438,375,377,-1,438,377,437,-1,437,377,379,-1,437,379,436,-1,436,379,381,-1,436,381,435,-1,435,381,383,-1,435,383,42,-1,42,383,40,-1,344,37,383,-1,383,37,39,-1,383,39,40,-1,34,36,440,-1,440,36,344,-1,440,344,441,-1,441,344,382,-1,441,382,442,-1,442,382,380,-1,442,380,443,-1,443,380,378,-1,443,378,444,-1,444,378,376,-1,444,376,174,-1,174,376,175,-1,174,173,444,-1,444,173,445,-1,444,445,443,-1,443,445,446,-1,443,446,442,-1,442,446,447,-1,442,447,441,-1,441,447,448,-1,441,448,440,-1,440,448,449,-1,440,449,34,-1,34,449,33,-1,173,165,445,-1,445,165,384,-1,445,384,446,-1,446,384,386,-1,446,386,447,-1,447,386,388,-1,447,388,448,-1,448,388,390,-1,448,390,449,-1,449,390,392,-1,449,392,33,-1,33,392,31,-1,343,28,392,-1,392,28,30,-1,392,30,31,-1,24,23,450,-1,450,23,343,-1,450,343,451,-1,451,343,391,-1,451,391,452,-1,452,391,389,-1,452,389,453,-1,453,389,387,-1,453,387,454,-1,454,387,385,-1,454,385,163,-1,163,385,164,-1,163,146,454,-1,454,146,393,-1,454,393,453,-1,453,393,395,-1,453,395,452,-1,452,395,397,-1,452,397,451,-1,451,397,399,-1,451,399,450,-1,450,399,401,-1,450,401,24,-1,24,401,26,-1,342,21,401,-1,401,21,27,-1,401,27,26,-1,18,22,455,-1,455,22,342,-1,455,342,456,-1,456,342,400,-1,456,400,457,-1,457,400,398,-1,457,398,458,-1,458,398,396,-1,458,396,459,-1,459,396,394,-1,459,394,162,-1,162,394,145,-1,162,161,459,-1,459,161,460,-1,459,460,458,-1,458,460,461,-1,458,461,457,-1,457,461,462,-1,457,462,456,-1,456,462,463,-1,456,463,455,-1,455,463,464,-1,455,464,18,-1,18,464,19,-1,161,153,460,-1,460,153,402,-1,460,402,461,-1,461,402,404,-1,461,404,462,-1,462,404,406,-1,462,406,463,-1,463,406,408,-1,463,408,464,-1,464,408,410,-1,464,410,19,-1,19,410,15,-1,341,12,410,-1,410,12,16,-1,410,16,15,-1,10,13,465,-1,465,13,341,-1,465,341,466,-1,466,341,409,-1,466,409,467,-1,467,409,407,-1,467,407,468,-1,468,407,405,-1,468,405,469,-1,469,405,403,-1,469,403,160,-1,160,403,152,-1,160,159,469,-1,469,159,411,-1,469,411,468,-1,468,411,413,-1,468,413,467,-1,467,413,415,-1,467,415,466,-1,466,415,417,-1,466,417,465,-1,465,417,419,-1,465,419,10,-1,10,419,8,-1,340,5,419,-1,419,5,7,-1,419,7,8,-1,2,4,470,-1,470,4,340,-1,470,340,471,-1,471,340,418,-1,471,418,472,-1,472,418,416,-1,472,416,473,-1,473,416,414,-1,473,414,474,-1,474,414,412,-1,474,412,137,-1,137,412,138,-1,137,144,474,-1,474,144,475,-1,474,475,473,-1,473,475,476,-1,473,476,472,-1,472,476,477,-1,472,477,471,-1,471,477,478,-1,471,478,470,-1,470,478,479,-1,470,479,2,-1,2,479,0,-1,144,133,280,-1,144,280,475,-1,475,280,281,-1,475,281,476,-1,476,281,282,-1,476,282,477,-1,477,282,283,-1,477,283,478,-1,478,283,284,-1,478,284,479,-1,479,284,131,-1,479,131,0,-1,
        ]
    }
}
Shape{
    appearance Appearance {
        material  Material {
            diffuseColor 0.9882352941176471 0.7372549019607844 0.5176470588235295
            specularColor 0.49411764705882355 0.3686274509803922 0.25882352941176473
            ambientIntensity 0.7873
            transparency 0.0
            shininess 0.5
        }
    }
    geometry IndexedFaceSet {
        ccw TRUE
        solid FALSE
        coord DEF co Coordinate {
            point [
                -0.8136 0.6238 0.7598, -0.8136 0.6238 0.689, -0.828 0.388 0.7598, -0.828 0.388 0.689, -0.5775 0.6299 0.7598, -0.5775 0.6299 0.689, -0.6976 0.5795 0.8071, -0.7691 0.5777 0.8071, -0.7734 0.5063 0.8071, -0.8269 0.3903 0.7691, -0.5777 0.6298 0.7629, -0.8275 0.389 0.766, -0.8278 0.3882 0.7629, -0.5785 0.6295 0.766, -0.5798 0.629 0.7691, -0.8261 0.392 0.7721, -0.5815 0.6282 0.7721, -0.8238 0.397 0.7779, -0.5866 0.6261 0.7779, -0.8206 0.4038 0.7835, -0.5936 0.6232 0.7835, -0.6127 0.6152 0.7932, -0.812 0.4227 0.7932, -0.6375 0.6047 0.8008, -0.8007 0.4472 0.8008, -0.6665 0.5926 0.8055, -0.7875 0.4757 0.8055, -0.8132 0.6234 0.766, -0.8121 0.6222 0.7721, -0.8102 0.6203 0.7779, -0.8076 0.6176 0.7835, -0.8044 0.6142 0.7886, -0.8006 0.6103 0.7932, -0.7913 0.6007 0.8008, -0.7806 0.5896 0.8055, -0.828 -0.388 0.7598, -0.828 -0.388 0.689, -0.8136 -0.6238 0.7598, -0.8136 -0.6238 0.689, -0.5775 -0.6299 0.7598, -0.5775 -0.6299 0.689, -0.6976 -0.5795 0.8071, -0.7734 -0.5063 0.8071, -0.7691 -0.5777 0.8071, -0.7875 -0.4757 0.8055, -0.7806 -0.5896 0.8055, -0.8007 -0.4472 0.8008, -0.7913 -0.6007 0.8008, -0.812 -0.4227 0.7932, -0.8006 -0.6103 0.7932, -0.8044 -0.6142 0.7886, -0.8206 -0.4038 0.7835, -0.8076 -0.6176 0.7835, -0.8261 -0.392 0.7721, -0.8121 -0.6222 0.7721, -0.8102 -0.6203 0.7779, -0.8238 -0.397 0.7779, -0.8132 -0.6234 0.766, -0.8269 -0.3903 0.7691, -0.8275 -0.389 0.766, -0.8278 -0.3882 0.7629, -0.5936 -0.6232 0.7835, -0.6127 -0.6152 0.7932, -0.6375 -0.6047 0.8008, -0.6665 -0.5926 0.8055, -0.5777 -0.6298 0.7629, -0.5866 -0.6261 0.7779, -0.5815 -0.6282 0.7721, -0.5798 -0.629 0.7691, -0.5785 -0.6295 0.766, 0.8112 -0.6238 0.7598, 0.8112 -0.6238 0.689, 0.8256 -0.388 0.7598, 0.8256 -0.388 0.689, 0.5751 -0.6299 0.7598, 0.5751 -0.6299 0.689, 0.6953 -0.5795 0.8071, 0.7667 -0.5777 0.8071, 0.7711 -0.5063 0.8071, 0.8245 -0.3903 0.7691, 0.5753 -0.6298 0.7629, 0.8251 -0.389 0.766, 0.8255 -0.3882 0.7629, 0.5761 -0.6295 0.766, 0.5774 -0.629 0.7691, 0.8237 -0.392 0.7721, 0.5792 -0.6282 0.7721, 0.8214 -0.397 0.7779, 0.5842 -0.6261 0.7779, 0.8183 -0.4038 0.7835, 0.5912 -0.6232 0.7835, 0.6103 -0.6152 0.7932, 0.8096 -0.4227 0.7932, 0.6352 -0.6047 0.8008, 0.7983 -0.4472 0.8008, 0.6642 -0.5926 0.8055, 0.7852 -0.4757 0.8055, 0.8109 -0.6234 0.766, 0.8097 -0.6222 0.7721, 0.8078 -0.6203 0.7779, 0.8053 -0.6176 0.7835, 0.802 -0.6142 0.7886, 0.7982 -0.6103 0.7932, 0.789 -0.6007 0.8008, 0.7782 -0.5896 0.8055, 0.8256 0.388 0.7598, 0.8256 0.388 0.689, 0.8112 0.6238 0.7598, 0.8112 0.6238 0.689, 0.5751 0.6299 0.7598, 0.5751 0.6299 0.689, 0.6953 0.5795 0.8071, 0.7711 0.5063 0.8071, 0.7667 0.5777 0.8071, 0.7852 0.4757 0.8055, 0.7782 0.5896 0.8055, 0.7983 0.4472 0.8008, 0.789 0.6007 0.8008, 0.8096 0.4227 0.7932, 0.7982 0.6103 0.7932, 0.802 0.6142 0.7886, 0.8183 0.4038 0.7835, 0.8053 0.6176 0.7835, 0.8237 0.392 0.7721, 0.8097 0.6222 0.7721, 0.8078 0.6203 0.7779, 0.8214 0.397 0.7779, 0.8109 0.6234 0.766, 0.8245 0.3903 0.7691, 0.8251 0.389 0.766, 0.8255 0.3882 0.7629, 0.5912 0.6232 0.7835, 0.6103 0.6152 0.7932, 0.6352 0.6047 0.8008, 0.6642 0.5926 0.8055, 0.5753 0.6298 0.7629, 0.5842 0.6261 0.7779, 0.5792 0.6282 0.7721, 0.5774 0.629 0.7691, 0.5761 0.6295 0.766
            ]
        }
        coordIndex [
            0,1,2,-1,2,1,3,-1,2,3,4,-1,4,3,5,-1,4,5,0,-1,0,5,1,-1,6,7,8,-1,9,4,10,-1,9,11,4,-1,4,11,12,-1,4,12,2,-1,10,13,9,-1,9,13,14,-1,9,14,15,-1,15,14,16,-1,15,16,17,-1,17,16,18,-1,17,18,19,-1,18,20,19,-1,19,20,21,-1,19,21,22,-1,22,21,23,-1,22,23,24,-1,24,23,25,-1,24,25,26,-1,26,25,6,-1,26,6,8,-1,0,2,27,-1,27,2,12,-1,12,11,27,-1,27,11,9,-1,27,9,28,-1,28,9,15,-1,28,15,29,-1,29,15,17,-1,29,17,30,-1,30,17,19,-1,30,19,31,-1,31,19,32,-1,19,22,32,-1,32,22,24,-1,32,24,33,-1,33,24,26,-1,33,26,34,-1,34,26,8,-1,34,8,7,-1,7,6,25,-1,7,25,34,-1,34,25,23,-1,34,23,33,-1,33,23,21,-1,33,21,32,-1,32,21,31,-1,31,21,20,-1,31,20,30,-1,16,28,29,-1,30,20,29,-1,29,20,18,-1,29,18,16,-1,28,16,27,-1,27,16,14,-1,27,14,13,-1,13,10,27,-1,27,10,4,-1,27,4,0,-1,35,36,37,-1,37,36,38,-1,37,38,39,-1,39,38,40,-1,39,40,35,-1,35,40,36,-1,41,42,43,-1,43,42,44,-1,43,44,45,-1,45,44,46,-1,45,46,47,-1,47,46,48,-1,47,48,49,-1,49,48,50,-1,50,48,51,-1,50,51,52,-1,53,54,55,-1,52,51,55,-1,55,51,56,-1,55,56,53,-1,54,53,57,-1,57,53,58,-1,57,58,59,-1,59,60,57,-1,57,60,35,-1,57,35,37,-1,61,62,49,-1,49,62,63,-1,49,63,47,-1,47,63,64,-1,47,64,45,-1,45,64,41,-1,45,41,43,-1,37,39,57,-1,57,39,65,-1,49,50,61,-1,61,50,52,-1,61,52,66,-1,66,52,55,-1,66,55,67,-1,67,55,54,-1,67,54,68,-1,68,54,57,-1,68,57,69,-1,69,57,65,-1,39,35,60,-1,67,68,58,-1,58,68,69,-1,60,59,39,-1,39,59,58,-1,39,58,65,-1,65,58,69,-1,58,53,67,-1,67,53,56,-1,67,56,66,-1,66,56,61,-1,56,51,61,-1,61,51,48,-1,61,48,62,-1,62,48,46,-1,62,46,63,-1,63,46,44,-1,63,44,64,-1,64,44,42,-1,64,42,41,-1,70,71,72,-1,72,71,73,-1,72,73,74,-1,74,73,75,-1,74,75,70,-1,70,75,71,-1,76,77,78,-1,79,74,80,-1,79,81,74,-1,74,81,82,-1,74,82,72,-1,80,83,79,-1,79,83,84,-1,79,84,85,-1,85,84,86,-1,85,86,87,-1,87,86,88,-1,87,88,89,-1,88,90,89,-1,89,90,91,-1,89,91,92,-1,92,91,93,-1,92,93,94,-1,94,93,95,-1,94,95,96,-1,96,95,76,-1,96,76,78,-1,70,72,97,-1,97,72,82,-1,82,81,97,-1,97,81,79,-1,97,79,98,-1,98,79,85,-1,98,85,99,-1,99,85,87,-1,99,87,100,-1,100,87,89,-1,100,89,101,-1,101,89,102,-1,89,92,102,-1,102,92,94,-1,102,94,103,-1,103,94,96,-1,103,96,104,-1,104,96,78,-1,104,78,77,-1,77,76,95,-1,77,95,104,-1,104,95,93,-1,104,93,103,-1,103,93,91,-1,103,91,102,-1,102,91,101,-1,101,91,90,-1,101,90,100,-1,86,98,99,-1,100,90,99,-1,99,90,88,-1,99,88,86,-1,98,86,97,-1,97,86,84,-1,97,84,83,-1,83,80,97,-1,97,80,74,-1,97,74,70,-1,105,106,107,-1,107,106,108,-1,107,108,109,-1,109,108,110,-1,109,110,105,-1,105,110,106,-1,111,112,113,-1,113,112,114,-1,113,114,115,-1,115,114,116,-1,115,116,117,-1,117,116,118,-1,117,118,119,-1,119,118,120,-1,120,118,121,-1,120,121,122,-1,123,124,125,-1,122,121,125,-1,125,121,126,-1,125,126,123,-1,124,123,127,-1,127,123,128,-1,127,128,129,-1,129,130,127,-1,127,130,105,-1,127,105,107,-1,131,132,119,-1,119,132,133,-1,119,133,117,-1,117,133,134,-1,117,134,115,-1,115,134,111,-1,115,111,113,-1,107,109,127,-1,127,109,135,-1,119,120,131,-1,131,120,122,-1,131,122,136,-1,136,122,125,-1,136,125,137,-1,137,125,124,-1,137,124,138,-1,138,124,127,-1,138,127,139,-1,139,127,135,-1,109,105,130,-1,137,138,128,-1,128,138,139,-1,130,129,109,-1,109,129,128,-1,109,128,135,-1,135,128,139,-1,128,123,137,-1,137,123,126,-1,137,126,136,-1,136,126,131,-1,126,121,131,-1,131,121,118,-1,131,118,132,-1,132,118,116,-1,132,116,133,-1,133,116,114,-1,133,114,134,-1,134,114,112,-1,134,112,111,-1,
        ]
    }
}
Shape{
    appearance Appearance {
        material  Material {
            diffuseColor 1.0 1.0 1.0
            specularColor 0.8784313725490196 0.8784313725490196 0.8784313725490196
            ambientIntensity 1.0
            transparency 0.0
            shininess 0.5
        }
    }
    geometry IndexedFaceSet {
        ccw TRUE
        solid FALSE
        coord DEF co Coordinate {
            point [
                -0.2394 -0.3047 0.0669, -0.2227 -0.2359 0.0669, -0.2394 -0.3047 0.0197, -0.2227 -0.2359 0.0197, -0.1842 -0.2452 0.0669, -0.1842 -0.2452 0.0197, -0.1752 -0.2874 0.0669, -0.1752 -0.2874 0.0197, -0.1709 -0.309 0.0669, -0.1709 -0.309 0.0197, -0.1702 -0.3119 0.0197, -0.1692 -0.3157 0.0669, -0.1692 -0.3157 0.0197, -0.1652 -0.3101 0.0669, -0.1652 -0.3101 0.0197, -0.1654 -0.3119 0.0197, -0.1656 -0.3139 0.0669, -0.1656 -0.3139 0.0197, -0.166 -0.3169 0.0197, -0.166 -0.3169 0.0669, -0.1662 -0.3176 0.0197, -0.1662 -0.3176 0.0669, -0.1665 -0.3181 0.0197, -0.1665 -0.3181 0.0669, -0.1667 -0.3183 0.0197, -0.1667 -0.3183 0.0669, -0.1668 -0.3184 0.0197, -0.1668 -0.3184 0.0669, -0.167 -0.3185 0.0197, -0.167 -0.3185 0.0669, -0.1671 -0.3185 0.0197, -0.1671 -0.3185 0.0669, -0.1674 -0.3185 0.0197, -0.1674 -0.3185 0.0669, -0.1676 -0.3184 0.0197, -0.1676 -0.3184 0.0669, -0.1679 -0.3182 0.0197, -0.1679 -0.3182 0.0669, -0.1682 -0.3179 0.0197, -0.1682 -0.3179 0.0669, -0.1685 -0.3174 0.0197, -0.1685 -0.3174 0.0669, -0.1688 -0.3167 0.0197, -0.1688 -0.3167 0.0669, -0.1639 -0.2982 0.0669, -0.1639 -0.2982 0.0197, -0.1647 -0.2874 0.0669, -0.1647 -0.2874 0.0197, -0.1642 -0.2884 0.0197, -0.1642 -0.2884 0.0669, -0.1636 -0.2901 0.0197, -0.1636 -0.2901 0.0669, -0.1635 -0.2927 0.0197, -0.1635 -0.2927 0.0669, -0.1661 -0.2849 0.0669, -0.1661 -0.2849 0.0197, -0.1729 -0.26 0.0669, -0.1729 -0.26 0.0197, -0.1698 -0.2725 0.0197, -0.1698 -0.2725 0.0669, -0.2021 -0.1249 0.0669, -0.2021 -0.1249 0.0197, -0.206 -0.1249 0.0669, -0.206 -0.1249 0.0197, -0.2335 -0.2464 0.0669, -0.2335 -0.2464 0.0197, -0.2369 -0.2605 0.0669, -0.2369 -0.2605 0.0197, -0.2403 -0.2738 0.0669, -0.2403 -0.2738 0.0197, -0.2384 -0.2672 0.0197, -0.2384 -0.2672 0.0669, -0.2423 -0.2792 0.0669, -0.2423 -0.2792 0.0197, -0.2462 -0.296 0.0669, -0.2462 -0.296 0.0197, -0.2464 -0.2929 0.0197, -0.2464 -0.2929 0.0669, -0.2465 -0.2917 0.0197, -0.2465 -0.2917 0.0669, -0.2467 -0.2888 0.0197, -0.2467 -0.2888 0.0669, -0.2467 -0.2882 0.0197, -0.2467 -0.2882 0.0669, -0.2466 -0.2878 0.0197, -0.2466 -0.2878 0.0669, -0.2463 -0.2873 0.0197, -0.2463 -0.2873 0.0669, -0.2453 -0.2861 0.0197, -0.2453 -0.2861 0.0669, -0.2441 -0.2843 0.0197, -0.2441 -0.2843 0.0669, -0.2451 -0.3087 0.0669, -0.2451 -0.3087 0.0197, -0.2447 -0.3119 0.0197, -0.2445 -0.3135 0.0669, -0.2445 -0.3135 0.0197, -0.2414 -0.316 0.0669, -0.2414 -0.316 0.0197, -0.2416 -0.3166 0.0197, -0.2416 -0.3166 0.0669, -0.2419 -0.3173 0.0197, -0.2419 -0.3173 0.0669, -0.2422 -0.3177 0.0197, -0.2422 -0.3177 0.0669, -0.2424 -0.3179 0.0197, -0.2424 -0.3179 0.0669, -0.2427 -0.318 0.0197, -0.2427 -0.318 0.0669, -0.2429 -0.3181 0.0197, -0.2429 -0.3181 0.0669, -0.2431 -0.3181 0.0197, -0.2431 -0.3181 0.0669, -0.2433 -0.318 0.0197, -0.2433 -0.318 0.0669, -0.2435 -0.3179 0.0197, -0.2435 -0.3179 0.0669, -0.2437 -0.3177 0.0197, -0.2437 -0.3177 0.0669, -0.2438 -0.3175 0.0197, -0.2438 -0.3175 0.0669, -0.244 -0.3172 0.0197, -0.244 -0.3172 0.0669, -0.2441 -0.3168 0.0197, -0.2441 -0.3168 0.0669, -0.2442 -0.316 0.0197, -0.2442 -0.316 0.0669, -0.2444 -0.315 0.0197, -0.2444 -0.315 0.0669, -0.2407 -0.3119 0.0197, -0.204 -0.1521 0.0669, -0.1856 -0.2353 0.0669, -0.2222 -0.2316 0.0669, -0.2145 -0.2243 0.0669, -0.2074 -0.2291 0.0669, -0.2048 -0.2305 0.0669, -0.1968 -0.233 0.0669, -0.2145 -0.2243 0.0197, -0.2222 -0.2316 0.0197, -0.2074 -0.2291 0.0197, -0.2048 -0.2305 0.0197, -0.1968 -0.233 0.0197, -0.1856 -0.2353 0.0197, -0.204 -0.1521 0.0197, -0.0703 -0.2973 0.0669, -0.0703 -0.149 0.0669, -0.0703 -0.2973 0.0197, -0.0703 -0.149 0.0197, -0.0666 -0.147 0.0669, -0.0666 -0.147 0.0197, -0.0684 -0.1481 0.0197, -0.0684 -0.1481 0.0669, -0.0616 -0.1428 0.0669, -0.0616 -0.1428 0.0197, -0.0601 -0.1365 0.0669, -0.0601 -0.1365 0.0197, -0.0597 -0.1369 0.0197, -0.0597 -0.1369 0.0669, -0.0593 -0.1373 0.0197, -0.0593 -0.1373 0.0669, -0.0591 -0.1378 0.0197, -0.0591 -0.1378 0.0669, -0.0589 -0.1386 0.0197, -0.0589 -0.1386 0.0669, -0.0589 -0.1394 0.0197, -0.0589 -0.1394 0.0669, -0.0592 -0.1402 0.0197, -0.0592 -0.1402 0.0669, -0.0596 -0.141 0.0197, -0.0596 -0.141 0.0669, -0.0603 -0.1418 0.0197, -0.0603 -0.1418 0.0669, -0.0652 -0.1374 0.0669, -0.0652 -0.1374 0.0197, -0.0712 -0.1374 0.0669, -0.0712 -0.1374 0.0197, -0.076 -0.1365 0.0669, -0.076 -0.1365 0.0197, -0.0736 -0.137 0.0197, -0.0736 -0.137 0.0669, -0.0819 -0.136 0.0669, -0.0819 -0.136 0.0197, -0.0927 -0.1329 0.0669, -0.0927 -0.1329 0.0197, -0.1051 -0.1311 0.0669, -0.1051 -0.1311 0.0197, -0.0989 -0.1317 0.0197, -0.0989 -0.1317 0.0669, -0.1445 -0.2291 0.0669, -0.1445 -0.2291 0.0197, -0.1429 -0.1844 0.0197, -0.1429 -0.1844 0.0669, -0.1383 -0.1557 0.0197, -0.1383 -0.1557 0.0669, -0.1342 -0.1457 0.0197, -0.1342 -0.1457 0.0669, -0.1297 -0.1396 0.0197, -0.1297 -0.1396 0.0669, -0.1254 -0.1359 0.0197, -0.1254 -0.1359 0.0669, -0.1205 -0.1334 0.0197, -0.1205 -0.1334 0.0669, -0.1139 -0.1317 0.0197, -0.1139 -0.1317 0.0669, -0.0941 -0.307 0.0669, -0.0941 -0.307 0.0197, -0.1076 -0.3052 0.0197, -0.1076 -0.3052 0.0669, -0.117 -0.3031 0.0197, -0.117 -0.3031 0.0669, -0.1209 -0.3012 0.0197, -0.1209 -0.3012 0.0669, -0.1257 -0.2974 0.0197, -0.1257 -0.2974 0.0669, -0.1305 -0.2915 0.0197, -0.1305 -0.2915 0.0669, -0.1377 -0.2776 0.0197, -0.1377 -0.2776 0.0669, -0.1425 -0.2571 0.0197, -0.1425 -0.2571 0.0669, -0.0816 -0.3084 0.0669, -0.0816 -0.3084 0.0197, -0.0729 -0.3121 0.0669, -0.0729 -0.3121 0.0197, -0.0731 -0.312 0.0197, -0.0733 -0.3119 0.0197, -0.074 -0.3114 0.0669, -0.0731 -0.312 0.0669, -0.074 -0.3114 0.0197, -0.077 -0.3096 0.0197, -0.077 -0.3096 0.0669, -0.0644 -0.3053 0.0669, -0.0644 -0.3053 0.0197, -0.067 -0.308 0.0197, -0.067 -0.308 0.0669, -0.0709 -0.3113 0.0197, -0.0709 -0.3113 0.0669, -0.0718 -0.3119 0.0197, -0.0719 -0.3119 0.0669, -0.0719 -0.3119 0.0197, -0.0722 -0.312 0.0197, -0.0722 -0.312 0.0669, -0.061 -0.3016 0.0669, -0.061 -0.3016 0.0197, -0.0618 -0.2973 0.0669, -0.0618 -0.2973 0.0197, -0.0607 -0.2972 0.0197, -0.0607 -0.2972 0.0669, -0.0601 -0.2973 0.0197, -0.0601 -0.2973 0.0669, -0.0601 -0.2973 0.0197, -0.0601 -0.2973 0.0669, -0.0598 -0.2974 0.0197, -0.0598 -0.2974 0.0669, -0.0597 -0.2975 0.0197, -0.0597 -0.2975 0.0669, -0.0595 -0.2977 0.0197, -0.0595 -0.2977 0.0669, -0.0594 -0.2979 0.0197, -0.0594 -0.2979 0.0669, -0.0592 -0.2985 0.0197, -0.0592 -0.2985 0.0669, -0.0591 -0.2988 0.0197, -0.0591 -0.2988 0.0669, -0.0591 -0.2991 0.0197, -0.0591 -0.2991 0.0669, -0.0592 -0.2994 0.0197, -0.0592 -0.2994 0.0669, -0.0594 -0.2997 0.0197, -0.0594 -0.2997 0.0669, -0.0598 -0.3002 0.0197, -0.0598 -0.3002 0.0669, -0.0603 -0.3008 0.0197, -0.0603 -0.3008 0.0669, -0.0782 -0.147 0.0669, -0.116 -0.1427 0.0669, -0.108 -0.141 0.0669, -0.0957 -0.142 0.0669, -0.0836 -0.1447 0.0669, -0.0782 -0.2968 0.0669, -0.1211 -0.1447 0.0669, -0.1243 -0.1472 0.0669, -0.128 -0.1518 0.0669, -0.1145 -0.2926 0.0669, -0.1191 -0.2906 0.0669, -0.1225 -0.2879 0.0669, -0.1257 -0.2838 0.0669, -0.087 -0.2968 0.0669, -0.0826 -0.2969 0.0669, -0.0995 -0.2954 0.0669, -0.1082 -0.2942 0.0669, -0.1316 -0.2703 0.0669, -0.1363 -0.2417 0.0669, -0.1311 -0.1581 0.0669, -0.134 -0.1696 0.0669, -0.1366 -0.2042 0.0669, -0.0782 -0.147 0.0197, -0.0782 -0.2968 0.0197, -0.0836 -0.1447 0.0197, -0.0957 -0.142 0.0197, -0.108 -0.141 0.0197, -0.116 -0.1427 0.0197, -0.1211 -0.1447 0.0197, -0.1243 -0.1472 0.0197, -0.128 -0.1518 0.0197, -0.1311 -0.1581 0.0197, -0.134 -0.1696 0.0197, -0.1366 -0.2042 0.0197, -0.1363 -0.2417 0.0197, -0.1316 -0.2703 0.0197, -0.1257 -0.2838 0.0197, -0.1225 -0.2879 0.0197, -0.1191 -0.2906 0.0197, -0.1145 -0.2926 0.0197, -0.1082 -0.2942 0.0197, -0.0995 -0.2954 0.0197, -0.087 -0.2968 0.0197, -0.0826 -0.2969 0.0197, -0.0122 -0.1425 0.0669, 0.0235 -0.1484 0.0669, -0.0122 -0.1425 0.0197, 0.0235 -0.1484 0.0197, 0.0235 -0.2107 0.0669, 0.0235 -0.2107 0.0197, -0.0003 -0.2076 0.0669, -0.0003 -0.2076 0.0197, -0.0193 -0.2017 0.0669, -0.0193 -0.2017 0.0197, -0.0164 -0.2034 0.0197, -0.0164 -0.2034 0.0669, -0.0101 -0.2056 0.0197, -0.0101 -0.2056 0.0669, -0.0218 -0.2002 0.0669, -0.0218 -0.2002 0.0197, -0.03 -0.2085 0.0669, -0.03 -0.2085 0.0197, -0.0286 -0.2133 0.0669, -0.0286 -0.2133 0.0197, -0.0295 -0.2132 0.0197, -0.0295 -0.2132 0.0669, -0.03 -0.213 0.0197, -0.03 -0.213 0.0669, -0.0303 -0.2128 0.0197, -0.0303 -0.2128 0.0669, -0.0308 -0.2124 0.0197, -0.0308 -0.2124 0.0669, -0.0311 -0.212 0.0197, -0.0311 -0.212 0.0669, -0.0312 -0.2115 0.0197, -0.0312 -0.2115 0.0669, -0.0313 -0.211 0.0197, -0.0313 -0.211 0.0669, -0.0312 -0.2105 0.0197, -0.0312 -0.2105 0.0669, -0.031 -0.2099 0.0197, -0.031 -0.2099 0.0669, -0.0307 -0.2093 0.0197, -0.0307 -0.2093 0.0669, 0.0235 -0.2206 0.0669, 0.0235 -0.2206 0.0197, 0.0235 -0.2973 0.0669, 0.0235 -0.2973 0.0197, -0.0187 -0.2914 0.0669, -0.0187 -0.2914 0.0197, -0.0267 -0.2886 0.0669, -0.0267 -0.2886 0.0197, -0.0228 -0.2904 0.0197, -0.0228 -0.2904 0.0669, -0.0292 -0.2871 0.0669, -0.0292 -0.2871 0.0197, -0.0371 -0.296 0.0669, -0.0371 -0.296 0.0197, -0.0354 -0.3005 0.0669, -0.0354 -0.3005 0.0197, -0.0361 -0.3004 0.0197, -0.0361 -0.3004 0.0669, -0.0371 -0.3003 0.0197, -0.0371 -0.3003 0.0669, -0.0374 -0.3001 0.0197, -0.0374 -0.3001 0.0669, -0.0376 -0.3 0.0197, -0.0376 -0.3 0.0669, -0.0378 -0.2998 0.0197, -0.0378 -0.2998 0.0669, -0.0381 -0.2992 0.0197, -0.0381 -0.2992 0.0669, -0.0382 -0.2987 0.0197, -0.0382 -0.2987 0.0669, -0.0383 -0.2982 0.0197, -0.0383 -0.2982 0.0669, -0.0381 -0.2976 0.0197, -0.0381 -0.2976 0.0669, -0.0379 -0.297 0.0197, -0.0379 -0.297 0.0669, -0.0312 -0.3007 0.0669, -0.0312 -0.3007 0.0197, 0.0116 -0.3067 0.0669, 0.0116 -0.3067 0.0197, -0.0097 -0.3034 0.0197, -0.0097 -0.3034 0.0669, 0.0246 -0.309 0.0669, 0.0246 -0.309 0.0197, 0.0343 -0.305 0.0669, 0.0343 -0.305 0.0197, 0.0343 -0.305 0.0197, 0.0343 -0.305 0.0669, 0.0344 -0.3073 0.0197, 0.0344 -0.3073 0.0669, 0.0342 -0.3084 0.0197, 0.0342 -0.3084 0.0669, 0.0338 -0.3092 0.0197, 0.0338 -0.3092 0.0669, 0.0334 -0.3097 0.0197, 0.0334 -0.3097 0.0669, 0.0327 -0.3102 0.0197, 0.0327 -0.3102 0.0669, 0.0319 -0.3105 0.0197, 0.0319 -0.3105 0.0669, 0.0309 -0.3107 0.0197, 0.0309 -0.3107 0.0669, 0.0296 -0.3106 0.0197, 0.0296 -0.3106 0.0669, 0.0277 -0.3101 0.0197, 0.0277 -0.3101 0.0669, 0.0317 -0.2905 0.0669, 0.0317 -0.2905 0.0197, 0.0324 -0.2979 0.0197, 0.0324 -0.2979 0.0669, 0.0317 -0.2852 0.0669, 0.0317 -0.2852 0.0197, 0.0314 -0.2781 0.0669, 0.0314 -0.2781 0.0197, 0.0315 -0.2816 0.0197, 0.0315 -0.2816 0.0669, 0.0317 -0.1484 0.0669, 0.0317 -0.1484 0.0197, 0.0362 -0.136 0.0669, 0.0362 -0.136 0.0197, 0.0372 -0.1358 0.0197, 0.0372 -0.1358 0.0669, 0.0377 -0.1359 0.0197, 0.0377 -0.1359 0.0669, 0.0381 -0.136 0.0197, 0.0381 -0.136 0.0669, 0.0384 -0.1362 0.0197, 0.0384 -0.1362 0.0669, 0.0386 -0.1364 0.0197, 0.0386 -0.1364 0.0669, 0.0387 -0.1366 0.0197, 0.0387 -0.1366 0.0669, 0.0387 -0.1368 0.0197, 0.0387 -0.1368 0.0669, 0.0387 -0.1374 0.0197, 0.0387 -0.1374 0.0669, 0.0387 -0.1379 0.0197, 0.0387 -0.1379 0.0669, 0.0387 -0.1387 0.0197, 0.0387 -0.1387 0.0669, 0.0383 -0.1398 0.0197, 0.0383 -0.1398 0.0669, 0.0377 -0.1411 0.0197, 0.0377 -0.1411 0.0669, 0.0366 -0.1426 0.0197, 0.0366 -0.1426 0.0669, 0.0347 -0.1449 0.0197, 0.0347 -0.1449 0.0669, 0.0309 -0.1368 0.0669, 0.0309 -0.1368 0.0197, 0.0212 -0.1374 0.0669, 0.0212 -0.1374 0.0197, 0.026 -0.1374 0.0197, 0.026 -0.1374 0.0669, 0.0204 -0.1374 0.0669, 0.0204 -0.1374 0.0197, 0.0093 -0.1365 0.0669, 0.0093 -0.1365 0.0197, 0.0148 -0.1373 0.0197, 0.0148 -0.1373 0.0669, -0.0017 -0.1345 0.0669, -0.0017 -0.1345 0.0197, -0.0207 -0.1289 0.0669, -0.0207 -0.1289 0.0197, -0.0193 -0.1297 0.0197, -0.0193 -0.1297 0.0669, -0.0115 -0.1326 0.0197, -0.0115 -0.1326 0.0669, -0.0233 -0.1272 0.0669, -0.0233 -0.1272 0.0197, -0.0314 -0.1357 0.0669, -0.0314 -0.1357 0.0197, -0.03 -0.1402 0.0669, -0.03 -0.1402 0.0197, -0.0308 -0.1401 0.0197, -0.0308 -0.1401 0.0669, -0.0314 -0.14 0.0197, -0.0314 -0.14 0.0669, -0.0319 -0.1397 0.0197, -0.0319 -0.1397 0.0669, -0.0322 -0.1393 0.0197, -0.0322 -0.1393 0.0669, -0.0324 -0.139 0.0197, -0.0324 -0.139 0.0669, -0.0325 -0.1386 0.0197, -0.0325 -0.1386 0.0669, -0.0326 -0.1382 0.0197, -0.0326 -0.1382 0.0669, -0.0325 -0.1378 0.0197, -0.0325 -0.1378 0.0669, -0.0323 -0.1373 0.0197, -0.0323 -0.1373 0.0669, -0.032 -0.1366 0.0197, -0.032 -0.1366 0.0669, -0.0255 -0.1408 0.0669, -0.0255 -0.1408 0.0197, -0.0189 -0.1417 0.0197, -0.0189 -0.1417 0.0669, 0.0754 -0.1436 0.0669, 0.0728 -0.1481 0.0669, 0.0754 -0.1436 0.0197, 0.0728 -0.1481 0.0197, 0.0708 -0.1314 0.0669, 0.0708 -0.1314 0.0197, 0.0666 -0.1314 0.0669, 0.0666 -0.1314 0.0197, 0.0666 -0.207 0.0669, 0.0666 -0.207 0.0197, 0.072 -0.207 0.0669, 0.072 -0.207 0.0197, 0.0969 -0.1376 0.0669, 0.0969 -0.1376 0.0197, 0.0921 -0.1387 0.0197, 0.0921 -0.1387 0.0669, 0.0882 -0.1407 0.0197, 0.0882 -0.1407 0.0669, 0.0842 -0.1439 0.0197, 0.0842 -0.1439 0.0669, 0.0808 -0.1483 0.0197, 0.0808 -0.1483 0.0669, 0.077 -0.1566 0.0197, 0.077 -0.1566 0.0669, 0.0735 -0.1726 0.0197, 0.0735 -0.1726 0.0669, 0.1323 -0.2337 0.0669, 0.1323 -0.2337 0.0197, 0.1324 -0.2311 0.0197, 0.1324 -0.2311 0.0669, 0.1312 -0.188 0.0197, 0.1312 -0.188 0.0669, 0.1288 -0.1741 0.0197, 0.1288 -0.1741 0.0669, 0.1222 -0.1552 0.0197, 0.1222 -0.1552 0.0669, 0.1173 -0.1474 0.0197, 0.1173 -0.1474 0.0669, 0.1126 -0.1427 0.0197, 0.1126 -0.1427 0.0669, 0.1078 -0.1397 0.0197, 0.1078 -0.1397 0.0669, 0.1028 -0.138 0.0197, 0.1028 -0.138 0.0669, 0.0991 -0.3022 0.0669, 0.0991 -0.3022 0.0197, 0.1036 -0.3017 0.0197, 0.1036 -0.3017 0.0669, 0.1072 -0.3005 0.0197, 0.1072 -0.3005 0.0669, 0.1109 -0.2982 0.0197, 0.1109 -0.2982 0.0669, 0.115 -0.2943 0.0197, 0.115 -0.2943 0.0669, 0.1208 -0.2859 0.0197, 0.1208 -0.2859 0.0669, 0.1253 -0.2741 0.0197, 0.1253 -0.2741 0.0669, 0.0683 -0.2566 0.0669, 0.0683 -0.2566 0.0197, 0.0701 -0.2685 0.0197, 0.0701 -0.2685 0.0669, 0.074 -0.2848 0.0197, 0.074 -0.2848 0.0669, 0.0777 -0.2915 0.0197, 0.0777 -0.2915 0.0669, 0.0817 -0.296 0.0197, 0.0817 -0.296 0.0669, 0.0866 -0.2994 0.0197, 0.0866 -0.2994 0.0669, 0.0927 -0.3017 0.0197, 0.0927 -0.3017 0.0669, 0.0669 -0.2416 0.0669, 0.0669 -0.2416 0.0197, 0.0624 -0.2418 0.0669, 0.0624 -0.2418 0.0197, 0.0952 -0.3115 0.0669, 0.0952 -0.3115 0.0197, 0.0881 -0.3102 0.0197, 0.0881 -0.3102 0.0669, 0.0816 -0.3072 0.0197, 0.0816 -0.3072 0.0669, 0.0763 -0.3028 0.0197, 0.0763 -0.3028 0.0669, 0.0719 -0.297 0.0197, 0.0719 -0.297 0.0669, 0.0676 -0.2881 0.0197, 0.0676 -0.2881 0.0669, 0.0639 -0.2703 0.0197, 0.0639 -0.2703 0.0669, 0.1388 -0.1897 0.0669, 0.1388 -0.1897 0.0197, 0.1403 -0.2051 0.0197, 0.1403 -0.2051 0.0669, 0.139 -0.2441 0.0197, 0.139 -0.2441 0.0669, 0.1354 -0.2669 0.0197, 0.1354 -0.2669 0.0669, 0.1276 -0.2898 0.0197, 0.1276 -0.2898 0.0669, 0.1216 -0.2999 0.0197, 0.1216 -0.2999 0.0669, 0.1167 -0.3049 0.0197, 0.1167 -0.3049 0.0669, 0.111 -0.3085 0.0197, 0.111 -0.3085 0.0669, 0.1033 -0.3111 0.0197, 0.1033 -0.3111 0.0669, 0.0991 -0.1283 0.0669, 0.0991 -0.1283 0.0197, 0.1041 -0.1285 0.0197, 0.1041 -0.1285 0.0669, 0.1083 -0.1297 0.0197, 0.1083 -0.1297 0.0669, 0.113 -0.1323 0.0197, 0.113 -0.1323 0.0669, 0.121 -0.1389 0.0197, 0.121 -0.1389 0.0669, 0.1266 -0.1468 0.0197, 0.1266 -0.1468 0.0669, 0.1328 -0.1615 0.0197, 0.1328 -0.1615 0.0669, 0.0785 -0.1394 0.0197, 0.0785 -0.1394 0.0669, 0.0846 -0.1339 0.0197, 0.0846 -0.1339 0.0669, 0.0909 -0.1305 0.0197, 0.0909 -0.1305 0.0669, 0.2249 -0.1261 0.0669, 0.2254 -0.1232 0.0669, 0.2249 -0.1261 0.0197, 0.2254 -0.1232 0.0197, 0.2234 -0.121 0.0669, 0.2234 -0.121 0.0197, 0.211 -0.1365 0.0669, 0.211 -0.1365 0.0197, 0.2152 -0.1544 0.0669, 0.2152 -0.1544 0.0197, 0.2151 -0.1509 0.0197, 0.2151 -0.1509 0.0669, 0.214 -0.1429 0.0197, 0.214 -0.1429 0.0669, 0.2152 -0.2988 0.0669, 0.2152 -0.2988 0.0197, 0.1731 -0.2903 0.0669, 0.1731 -0.2903 0.0197, 0.1743 -0.2908 0.0197, 0.1743 -0.2908 0.0669, 0.1772 -0.2933 0.0197, 0.1772 -0.2933 0.0669, 0.1793 -0.2944 0.0197, 0.1793 -0.2944 0.0669, 0.183 -0.2953 0.0197, 0.183 -0.2953 0.0669, 0.1934 -0.297 0.0197, 0.1934 -0.297 0.0669, 0.1614 -0.303 0.0669, 0.1614 -0.303 0.0197, 0.1616 -0.302 0.0197, 0.1616 -0.302 0.0669, 0.1619 -0.3007 0.0197, 0.1619 -0.3007 0.0669, 0.1624 -0.3 0.0197, 0.1624 -0.3 0.0669, 0.1633 -0.299 0.0197, 0.1633 -0.299 0.0669, 0.1664 -0.2961 0.0197, 0.1664 -0.2961 0.0669, 0.2011 -0.3081 0.0669, 0.2011 -0.3081 0.0197, 0.1846 -0.3067 0.0197, 0.1846 -0.3067 0.0669, 0.1797 -0.3062 0.0197, 0.1797 -0.3062 0.0669, 0.1679 -0.3046 0.0197, 0.1679 -0.3046 0.0669, 0.1638 -0.3046 0.0197, 0.1638 -0.3046 0.0669, 0.1632 -0.3045 0.0197, 0.1632 -0.3045 0.0669, 0.1624 -0.3042 0.0197, 0.1624 -0.3042 0.0669, 0.162 -0.3039 0.0197, 0.162 -0.3039 0.0669, 0.1618 -0.3036 0.0197, 0.1618 -0.3036 0.0669, 0.2129 -0.3092 0.0669, 0.2129 -0.3092 0.0197, 0.2195 -0.3098 0.0669, 0.2195 -0.3098 0.0197, 0.2231 -0.2976 0.0669, 0.2231 -0.2976 0.0197, 0.2232 -0.2981 0.0197, 0.2232 -0.2981 0.0669, 0.224 -0.3061 0.0197, 0.224 -0.3061 0.0669, 0.2241 -0.3078 0.0197, 0.2241 -0.3078 0.0669, 0.224 -0.3085 0.0197, 0.224 -0.3085 0.0669, 0.2236 -0.3092 0.0197, 0.2236 -0.3092 0.0669, 0.2232 -0.3097 0.0197, 0.2232 -0.3097 0.0669, 0.2229 -0.3099 0.0197, 0.2229 -0.3099 0.0669, 0.2226 -0.3101 0.0197, 0.2226 -0.3101 0.0669, 0.2222 -0.3102 0.0197, 0.2222 -0.3102 0.0669, 0.2215 -0.3102 0.0197, 0.2215 -0.3102 0.0669, 0.2226 -0.2809 0.0669, 0.2226 -0.2809 0.0197, 0.2226 -0.1535 0.0669, 0.2226 -0.1535 0.0197, 0.2228 -0.1397 0.0197, 0.2228 -0.1397 0.0669
            ]
        }
        coordIndex [
            0,1,2,-1,2,1,3,-1,1,4,3,-1,3,4,5,-1,4,6,5,-1,5,6,7,-1,6,8,7,-1,7,8,9,-1,9,8,10,-1,10,8,11,-1,10,11,12,-1,13,14,15,-1,13,15,16,-1,15,17,16,-1,16,17,18,-1,16,18,19,-1,19,18,20,-1,19,20,21,-1,21,20,22,-1,21,22,23,-1,23,22,24,-1,23,24,25,-1,25,24,26,-1,25,26,27,-1,27,26,28,-1,27,28,29,-1,29,28,30,-1,29,30,31,-1,31,30,32,-1,31,32,33,-1,33,32,34,-1,33,34,35,-1,35,34,36,-1,35,36,37,-1,37,36,38,-1,37,38,39,-1,39,38,40,-1,39,40,41,-1,41,40,42,-1,41,42,43,-1,43,42,12,-1,43,12,11,-1,13,44,14,-1,14,44,45,-1,46,47,48,-1,46,48,49,-1,49,48,50,-1,49,50,51,-1,51,50,52,-1,51,52,53,-1,53,52,45,-1,53,45,44,-1,46,54,47,-1,47,54,55,-1,56,57,58,-1,56,58,59,-1,59,58,55,-1,59,55,54,-1,56,60,57,-1,57,60,61,-1,60,62,61,-1,61,62,63,-1,62,64,63,-1,63,64,65,-1,64,66,65,-1,65,66,67,-1,68,69,70,-1,68,70,71,-1,71,70,67,-1,71,67,66,-1,68,72,69,-1,69,72,73,-1,74,75,76,-1,74,76,77,-1,77,76,78,-1,77,78,79,-1,79,78,80,-1,79,80,81,-1,81,80,82,-1,81,82,83,-1,83,82,84,-1,83,84,85,-1,85,84,86,-1,85,86,87,-1,87,86,88,-1,87,88,89,-1,89,88,90,-1,89,90,91,-1,91,90,73,-1,91,73,72,-1,74,92,75,-1,75,92,93,-1,93,92,94,-1,94,92,95,-1,94,95,96,-1,97,98,99,-1,97,99,100,-1,100,99,101,-1,100,101,102,-1,102,101,103,-1,102,103,104,-1,104,103,105,-1,104,105,106,-1,106,105,107,-1,106,107,108,-1,108,107,109,-1,108,109,110,-1,110,109,111,-1,110,111,112,-1,112,111,113,-1,112,113,114,-1,114,113,115,-1,114,115,116,-1,116,115,117,-1,116,117,118,-1,118,117,119,-1,118,119,120,-1,120,119,121,-1,120,121,122,-1,122,121,123,-1,122,123,124,-1,124,123,125,-1,124,125,126,-1,126,125,127,-1,126,127,128,-1,128,127,96,-1,128,96,95,-1,98,97,129,-1,129,97,0,-1,129,0,2,-1,130,60,131,-1,131,60,56,-1,1,132,133,-1,89,91,0,-1,0,91,72,-1,133,134,1,-1,1,134,135,-1,1,135,4,-1,4,135,136,-1,59,6,56,-1,56,6,4,-1,56,4,131,-1,131,4,136,-1,72,68,0,-1,0,68,71,-1,0,71,1,-1,1,71,66,-1,1,66,132,-1,132,66,64,-1,132,64,130,-1,130,64,62,-1,130,62,60,-1,6,44,8,-1,8,44,13,-1,8,13,11,-1,11,13,16,-1,11,16,43,-1,126,97,124,-1,124,97,100,-1,124,100,122,-1,74,77,0,-1,0,77,79,-1,0,79,89,-1,89,79,81,-1,59,54,6,-1,6,54,46,-1,6,46,49,-1,43,16,41,-1,41,16,19,-1,41,19,39,-1,83,85,81,-1,81,85,87,-1,81,87,89,-1,49,51,6,-1,6,51,53,-1,6,53,44,-1,35,37,23,-1,126,128,97,-1,97,128,95,-1,97,95,0,-1,0,95,92,-1,0,92,74,-1,39,19,37,-1,37,19,21,-1,37,21,23,-1,104,106,120,-1,122,100,120,-1,120,100,102,-1,120,102,104,-1,116,110,114,-1,114,110,112,-1,106,108,120,-1,120,108,110,-1,120,110,118,-1,118,110,116,-1,35,23,33,-1,33,23,25,-1,33,25,31,-1,31,25,27,-1,31,27,29,-1,133,132,137,-1,137,132,138,-1,134,133,139,-1,139,133,137,-1,134,139,140,-1,134,140,135,-1,135,140,141,-1,135,141,136,-1,136,141,142,-1,136,142,131,-1,130,131,143,-1,143,131,142,-1,132,130,138,-1,138,130,143,-1,144,145,146,-1,146,145,147,-1,148,149,150,-1,148,150,151,-1,151,150,147,-1,151,147,145,-1,148,152,149,-1,149,152,153,-1,154,155,156,-1,154,156,157,-1,157,156,158,-1,157,158,159,-1,159,158,160,-1,159,160,161,-1,161,160,162,-1,161,162,163,-1,163,162,164,-1,163,164,165,-1,165,164,166,-1,165,166,167,-1,167,166,168,-1,167,168,169,-1,169,168,170,-1,169,170,171,-1,171,170,153,-1,171,153,152,-1,154,172,155,-1,155,172,173,-1,172,174,173,-1,173,174,175,-1,176,177,178,-1,176,178,179,-1,179,178,175,-1,179,175,174,-1,176,180,177,-1,177,180,181,-1,180,182,181,-1,181,182,183,-1,184,185,186,-1,184,186,187,-1,187,186,183,-1,187,183,182,-1,188,189,190,-1,188,190,191,-1,191,190,192,-1,191,192,193,-1,193,192,194,-1,193,194,195,-1,195,194,196,-1,195,196,197,-1,197,196,198,-1,197,198,199,-1,199,198,200,-1,199,200,201,-1,201,200,202,-1,201,202,203,-1,203,202,185,-1,203,185,184,-1,204,205,206,-1,204,206,207,-1,207,206,208,-1,207,208,209,-1,209,208,210,-1,209,210,211,-1,211,210,212,-1,211,212,213,-1,213,212,214,-1,213,214,215,-1,215,214,216,-1,215,216,217,-1,217,216,218,-1,217,218,219,-1,219,218,189,-1,219,189,188,-1,204,220,205,-1,205,220,221,-1,222,223,224,-1,225,226,224,-1,224,226,227,-1,224,227,222,-1,225,228,226,-1,226,228,229,-1,226,229,230,-1,230,229,221,-1,230,221,220,-1,231,232,233,-1,231,233,234,-1,234,233,235,-1,234,235,236,-1,236,235,237,-1,236,237,238,-1,237,239,238,-1,238,239,240,-1,238,240,241,-1,241,240,223,-1,241,223,222,-1,231,242,232,-1,232,242,243,-1,244,245,246,-1,244,246,247,-1,247,246,248,-1,247,248,249,-1,249,248,250,-1,249,250,251,-1,251,250,252,-1,251,252,253,-1,253,252,254,-1,253,254,255,-1,255,254,256,-1,255,256,257,-1,257,256,258,-1,257,258,259,-1,259,258,260,-1,259,260,261,-1,261,260,262,-1,261,262,263,-1,263,262,264,-1,263,264,265,-1,265,264,266,-1,265,266,267,-1,267,266,268,-1,267,268,269,-1,269,268,270,-1,269,270,271,-1,271,270,272,-1,271,272,273,-1,273,272,243,-1,273,243,242,-1,244,144,245,-1,245,144,146,-1,174,172,274,-1,275,201,203,-1,171,152,172,-1,144,244,226,-1,269,271,244,-1,244,271,273,-1,244,273,242,-1,275,203,276,-1,203,184,276,-1,276,184,187,-1,276,187,277,-1,277,187,182,-1,277,182,278,-1,144,279,145,-1,145,279,274,-1,145,274,151,-1,151,274,172,-1,151,172,148,-1,148,172,152,-1,182,180,278,-1,278,180,176,-1,278,176,274,-1,274,176,179,-1,274,179,174,-1,201,275,199,-1,199,275,280,-1,199,280,197,-1,197,280,281,-1,197,281,195,-1,195,281,282,-1,195,282,193,-1,283,211,284,-1,284,211,213,-1,284,213,285,-1,285,213,215,-1,285,215,286,-1,220,287,288,-1,241,222,227,-1,287,220,289,-1,289,220,204,-1,289,204,290,-1,290,204,207,-1,290,207,283,-1,283,207,209,-1,283,209,211,-1,226,230,144,-1,144,230,220,-1,144,220,279,-1,279,220,288,-1,263,265,244,-1,244,265,267,-1,244,267,269,-1,172,154,171,-1,171,154,157,-1,171,157,169,-1,169,157,159,-1,242,231,244,-1,244,231,234,-1,244,234,226,-1,226,234,236,-1,226,236,227,-1,227,236,238,-1,227,238,241,-1,247,249,259,-1,259,249,251,-1,259,251,257,-1,257,251,253,-1,257,253,255,-1,286,215,291,-1,291,215,217,-1,291,217,292,-1,159,161,169,-1,169,161,163,-1,169,163,167,-1,167,163,165,-1,247,259,244,-1,244,259,261,-1,244,261,263,-1,282,293,193,-1,193,293,294,-1,193,294,191,-1,191,294,295,-1,191,295,188,-1,188,295,292,-1,188,292,219,-1,219,292,217,-1,274,279,296,-1,296,279,297,-1,278,274,298,-1,298,274,296,-1,278,298,299,-1,278,299,277,-1,277,299,300,-1,277,300,276,-1,276,300,301,-1,276,301,275,-1,275,301,302,-1,275,302,280,-1,280,302,303,-1,280,303,281,-1,281,303,304,-1,281,304,282,-1,282,304,305,-1,282,305,293,-1,293,305,306,-1,293,306,294,-1,294,306,307,-1,294,307,295,-1,295,307,308,-1,295,308,292,-1,292,308,309,-1,292,309,291,-1,291,309,310,-1,291,310,286,-1,286,310,311,-1,286,311,285,-1,285,311,312,-1,285,312,284,-1,284,312,313,-1,284,313,283,-1,283,313,314,-1,283,314,290,-1,290,314,315,-1,290,315,289,-1,287,289,316,-1,316,289,315,-1,287,316,317,-1,287,317,288,-1,288,317,297,-1,288,297,279,-1,318,319,320,-1,320,319,321,-1,319,322,321,-1,321,322,323,-1,322,324,323,-1,323,324,325,-1,326,327,328,-1,326,328,329,-1,329,328,330,-1,329,330,331,-1,331,330,325,-1,331,325,324,-1,326,332,327,-1,327,332,333,-1,332,334,333,-1,333,334,335,-1,336,337,338,-1,336,338,339,-1,339,338,340,-1,339,340,341,-1,341,340,342,-1,341,342,343,-1,343,342,344,-1,343,344,345,-1,345,344,346,-1,345,346,347,-1,347,346,348,-1,347,348,349,-1,349,348,350,-1,349,350,351,-1,351,350,352,-1,351,352,353,-1,353,352,354,-1,353,354,355,-1,355,354,356,-1,355,356,357,-1,357,356,335,-1,357,335,334,-1,336,358,337,-1,337,358,359,-1,358,360,359,-1,359,360,361,-1,360,362,361,-1,361,362,363,-1,364,365,366,-1,364,366,367,-1,367,366,363,-1,367,363,362,-1,364,368,365,-1,365,368,369,-1,368,370,369,-1,369,370,371,-1,372,373,374,-1,372,374,375,-1,375,374,376,-1,375,376,377,-1,377,376,378,-1,377,378,379,-1,379,378,380,-1,379,380,381,-1,381,380,382,-1,381,382,383,-1,383,382,384,-1,383,384,385,-1,385,384,386,-1,385,386,387,-1,387,386,388,-1,387,388,389,-1,389,388,390,-1,389,390,391,-1,391,390,392,-1,391,392,393,-1,393,392,371,-1,393,371,370,-1,372,394,373,-1,373,394,395,-1,396,397,398,-1,396,398,399,-1,399,398,395,-1,399,395,394,-1,396,400,397,-1,397,400,401,-1,402,403,404,-1,402,404,405,-1,405,404,406,-1,405,406,407,-1,407,406,408,-1,407,408,409,-1,409,408,410,-1,409,410,411,-1,411,410,412,-1,411,412,413,-1,413,412,414,-1,413,414,415,-1,415,414,416,-1,415,416,417,-1,417,416,418,-1,417,418,419,-1,419,418,420,-1,419,420,421,-1,421,420,422,-1,421,422,423,-1,423,422,401,-1,423,401,400,-1,424,425,426,-1,424,426,427,-1,427,426,403,-1,427,403,402,-1,424,428,425,-1,425,428,429,-1,430,431,432,-1,430,432,433,-1,433,432,429,-1,433,429,428,-1,430,434,431,-1,431,434,435,-1,436,437,438,-1,436,438,439,-1,439,438,440,-1,439,440,441,-1,441,440,442,-1,441,442,443,-1,443,442,444,-1,443,444,445,-1,445,444,446,-1,445,446,447,-1,447,446,448,-1,447,448,449,-1,449,448,450,-1,449,450,451,-1,451,450,452,-1,451,452,453,-1,453,452,454,-1,453,454,455,-1,455,454,456,-1,455,456,457,-1,457,456,458,-1,457,458,459,-1,459,458,460,-1,459,460,461,-1,461,460,462,-1,461,462,463,-1,463,462,464,-1,463,464,465,-1,465,464,435,-1,465,435,434,-1,436,466,437,-1,437,466,467,-1,468,469,470,-1,468,470,471,-1,471,470,467,-1,471,467,466,-1,468,472,469,-1,469,472,473,-1,474,475,476,-1,474,476,477,-1,477,476,473,-1,477,473,472,-1,474,478,475,-1,475,478,479,-1,480,481,482,-1,480,482,483,-1,483,482,484,-1,483,484,485,-1,485,484,479,-1,485,479,478,-1,480,486,481,-1,481,486,487,-1,486,488,487,-1,487,488,489,-1,490,491,492,-1,490,492,493,-1,493,492,494,-1,493,494,495,-1,495,494,496,-1,495,496,497,-1,497,496,498,-1,497,498,499,-1,499,498,500,-1,499,500,501,-1,501,500,502,-1,501,502,503,-1,503,502,504,-1,503,504,505,-1,505,504,506,-1,505,506,507,-1,507,506,508,-1,507,508,509,-1,509,508,510,-1,509,510,511,-1,511,510,489,-1,511,489,488,-1,490,512,491,-1,491,512,513,-1,318,320,514,-1,318,514,515,-1,515,514,513,-1,515,513,512,-1,364,367,394,-1,394,367,362,-1,417,419,360,-1,360,419,421,-1,360,421,423,-1,405,360,402,-1,402,360,427,-1,461,463,319,-1,383,385,370,-1,423,400,360,-1,360,400,396,-1,360,396,362,-1,362,396,399,-1,362,399,394,-1,430,433,360,-1,433,428,360,-1,360,428,424,-1,360,424,427,-1,405,407,360,-1,360,407,409,-1,360,409,411,-1,322,358,324,-1,324,358,336,-1,324,336,331,-1,331,336,329,-1,509,511,490,-1,490,511,488,-1,463,465,319,-1,319,465,434,-1,319,434,322,-1,322,434,430,-1,322,430,358,-1,358,430,360,-1,329,336,326,-1,326,336,334,-1,326,334,332,-1,364,394,368,-1,368,394,372,-1,368,372,370,-1,370,372,375,-1,370,375,377,-1,385,387,389,-1,411,413,360,-1,360,413,415,-1,360,415,417,-1,445,447,319,-1,319,447,449,-1,455,457,319,-1,319,457,459,-1,319,459,461,-1,488,486,490,-1,490,486,480,-1,490,480,512,-1,512,480,483,-1,512,483,515,-1,515,483,485,-1,515,485,318,-1,318,485,478,-1,318,478,319,-1,319,478,474,-1,319,474,477,-1,477,472,319,-1,319,472,468,-1,319,468,471,-1,389,391,385,-1,385,391,393,-1,385,393,370,-1,339,355,336,-1,336,355,357,-1,336,357,334,-1,449,451,319,-1,319,451,453,-1,319,453,455,-1,497,499,507,-1,471,466,319,-1,319,466,436,-1,319,436,439,-1,377,379,370,-1,370,379,381,-1,370,381,383,-1,339,341,355,-1,355,341,343,-1,355,343,353,-1,353,343,345,-1,345,347,353,-1,353,347,349,-1,353,349,351,-1,497,507,495,-1,439,441,319,-1,319,441,443,-1,319,443,445,-1,509,490,507,-1,507,490,493,-1,507,493,495,-1,499,501,507,-1,507,501,503,-1,507,503,505,-1,516,517,518,-1,518,517,519,-1,517,520,519,-1,519,520,521,-1,520,522,521,-1,521,522,523,-1,522,524,523,-1,523,524,525,-1,524,526,525,-1,525,526,527,-1,528,529,530,-1,528,530,531,-1,531,530,532,-1,531,532,533,-1,533,532,534,-1,533,534,535,-1,535,534,536,-1,535,536,537,-1,537,536,538,-1,537,538,539,-1,539,538,540,-1,539,540,541,-1,541,540,527,-1,541,527,526,-1,542,543,544,-1,542,544,545,-1,545,544,546,-1,545,546,547,-1,547,546,548,-1,547,548,549,-1,549,548,550,-1,549,550,551,-1,551,550,552,-1,551,552,553,-1,553,552,554,-1,553,554,555,-1,555,554,556,-1,555,556,557,-1,557,556,558,-1,557,558,559,-1,559,558,529,-1,559,529,528,-1,560,561,562,-1,560,562,563,-1,563,562,564,-1,563,564,565,-1,565,564,566,-1,565,566,567,-1,567,566,568,-1,567,568,569,-1,569,568,570,-1,569,570,571,-1,571,570,572,-1,571,572,573,-1,573,572,543,-1,573,543,542,-1,574,575,576,-1,574,576,577,-1,577,576,578,-1,577,578,579,-1,579,578,580,-1,579,580,581,-1,581,580,582,-1,581,582,583,-1,583,582,584,-1,583,584,585,-1,585,584,586,-1,585,586,587,-1,587,586,561,-1,587,561,560,-1,574,588,575,-1,575,588,589,-1,588,590,589,-1,589,590,591,-1,592,593,594,-1,592,594,595,-1,595,594,596,-1,595,596,597,-1,597,596,598,-1,597,598,599,-1,599,598,600,-1,599,600,601,-1,601,600,602,-1,601,602,603,-1,603,602,604,-1,603,604,605,-1,605,604,591,-1,605,591,590,-1,606,607,608,-1,606,608,609,-1,609,608,610,-1,609,610,611,-1,611,610,612,-1,611,612,613,-1,613,612,614,-1,613,614,615,-1,615,614,616,-1,615,616,617,-1,617,616,618,-1,617,618,619,-1,619,618,620,-1,619,620,621,-1,621,620,622,-1,621,622,623,-1,623,622,593,-1,623,593,592,-1,624,625,626,-1,624,626,627,-1,627,626,628,-1,627,628,629,-1,629,628,630,-1,629,630,631,-1,631,630,632,-1,631,632,633,-1,633,632,634,-1,633,634,635,-1,635,634,636,-1,635,636,637,-1,637,636,607,-1,637,607,606,-1,516,518,638,-1,516,638,639,-1,639,638,640,-1,639,640,641,-1,641,640,642,-1,641,642,643,-1,643,642,625,-1,643,625,624,-1,524,522,517,-1,517,522,520,-1,516,533,517,-1,517,533,535,-1,517,535,537,-1,605,590,588,-1,516,639,533,-1,533,639,641,-1,533,641,531,-1,531,641,643,-1,531,643,528,-1,528,643,624,-1,528,624,559,-1,526,524,541,-1,541,524,517,-1,541,517,539,-1,539,517,537,-1,633,635,551,-1,551,635,549,-1,549,635,637,-1,549,637,547,-1,588,574,605,-1,605,574,577,-1,605,577,603,-1,603,577,579,-1,603,579,601,-1,601,579,581,-1,601,581,599,-1,599,581,583,-1,599,583,597,-1,597,583,585,-1,597,585,595,-1,595,585,587,-1,595,587,592,-1,592,587,560,-1,592,560,623,-1,623,560,563,-1,623,563,621,-1,621,563,565,-1,621,565,619,-1,619,565,567,-1,619,567,617,-1,617,567,569,-1,617,569,615,-1,615,569,571,-1,615,571,613,-1,613,571,573,-1,613,573,611,-1,551,553,633,-1,633,553,555,-1,633,555,631,-1,631,555,557,-1,631,557,629,-1,629,557,559,-1,629,559,627,-1,627,559,624,-1,573,542,611,-1,611,542,545,-1,611,545,609,-1,609,545,547,-1,609,547,606,-1,606,547,637,-1,644,645,646,-1,646,645,647,-1,645,648,647,-1,647,648,649,-1,648,650,649,-1,649,650,651,-1,652,653,654,-1,652,654,655,-1,655,654,656,-1,655,656,657,-1,657,656,651,-1,657,651,650,-1,652,658,653,-1,653,658,659,-1,660,661,662,-1,660,662,663,-1,663,662,664,-1,663,664,665,-1,665,664,666,-1,665,666,667,-1,667,666,668,-1,667,668,669,-1,669,668,670,-1,669,670,671,-1,671,670,659,-1,671,659,658,-1,672,673,674,-1,672,674,675,-1,675,674,676,-1,675,676,677,-1,677,676,678,-1,677,678,679,-1,679,678,680,-1,679,680,681,-1,681,680,682,-1,681,682,683,-1,683,682,661,-1,683,661,660,-1,684,685,686,-1,684,686,687,-1,687,686,688,-1,687,688,689,-1,689,688,690,-1,689,690,691,-1,691,690,692,-1,691,692,693,-1,693,692,694,-1,693,694,695,-1,695,694,696,-1,695,696,697,-1,697,696,698,-1,697,698,699,-1,699,698,700,-1,699,700,701,-1,701,700,673,-1,701,673,672,-1,684,702,685,-1,685,702,703,-1,702,704,703,-1,703,704,705,-1,706,707,708,-1,706,708,709,-1,709,708,710,-1,709,710,711,-1,711,710,712,-1,711,712,713,-1,713,712,714,-1,713,714,715,-1,715,714,716,-1,715,716,717,-1,717,716,718,-1,717,718,719,-1,719,718,720,-1,719,720,721,-1,721,720,722,-1,721,722,723,-1,723,722,724,-1,723,724,725,-1,725,724,726,-1,725,726,727,-1,727,726,705,-1,727,705,704,-1,706,728,707,-1,707,728,729,-1,728,730,729,-1,729,730,731,-1,644,646,732,-1,644,732,733,-1,733,732,731,-1,733,731,730,-1,681,683,691,-1,689,691,665,-1,658,717,719,-1,683,660,691,-1,691,660,663,-1,691,663,665,-1,665,667,689,-1,689,667,669,-1,689,669,687,-1,687,669,671,-1,730,728,658,-1,728,706,658,-1,658,706,709,-1,658,709,711,-1,658,725,727,-1,648,645,650,-1,650,645,644,-1,650,644,657,-1,657,644,733,-1,657,733,655,-1,655,733,730,-1,655,730,652,-1,652,730,658,-1,711,713,658,-1,658,713,715,-1,658,715,717,-1,675,677,691,-1,691,677,679,-1,691,679,681,-1,719,721,658,-1,658,721,723,-1,658,723,725,-1,727,704,658,-1,658,704,702,-1,658,702,671,-1,671,702,684,-1,671,684,687,-1,691,693,675,-1,675,693,695,-1,675,695,697,-1,697,699,675,-1,675,699,701,-1,675,701,672,-1,
        ]
    }
}
Shape{
    appearance Appearance {
        material  Material {
            diffuseColor 0.9882352941176471 0.7372549019607844 0.5176470588235295
            specularColor 0.49411764705882355 0.3686274509803922 0.25882352941176473
            ambientIntensity 0.7873
            transparency 0.0
            shininess 0.5
        }
    }
    geometry IndexedFaceSet {
        ccw TRUE
        solid FALSE
        coord DEF co Coordinate {
            point [
                -0.2145 -0.2243 0.0197, -0.2222 -0.2316 0.0197, -0.204 -0.1521 0.0197, -0.1856 -0.2353 0.0197, -0.1968 -0.233 0.0197, -0.2048 -0.2305 0.0197, -0.2074 -0.2291 0.0197, -0.0782 -0.147 0.0197, -0.0782 -0.2968 0.0197, -0.0836 -0.1447 0.0197, -0.0826 -0.2969 0.0197, -0.087 -0.2968 0.0197, -0.0995 -0.2954 0.0197, -0.1082 -0.2942 0.0197, -0.1145 -0.2926 0.0197, -0.116 -0.1427 0.0197, -0.134 -0.1696 0.0197, -0.1311 -0.1581 0.0197, -0.1366 -0.2042 0.0197, -0.0957 -0.142 0.0197, -0.108 -0.141 0.0197, -0.1191 -0.2906 0.0197, -0.1225 -0.2879 0.0197, -0.1257 -0.2838 0.0197, -0.1316 -0.2703 0.0197, -0.1363 -0.2417 0.0197, -0.128 -0.1518 0.0197, -0.1243 -0.1472 0.0197, -0.1211 -0.1447 0.0197
            ]
        }
        coordIndex [
            0,1,2,-1,2,3,4,-1,4,5,2,-1,2,5,6,-1,2,6,0,-1,7,8,9,-1,9,8,10,-1,9,10,11,-1,11,12,9,-1,9,12,13,-1,9,13,14,-1,15,16,17,-1,9,18,19,-1,19,18,16,-1,19,16,20,-1,20,16,15,-1,14,21,9,-1,9,21,22,-1,9,22,23,-1,23,24,9,-1,9,24,25,-1,9,25,18,-1,17,26,15,-1,15,26,27,-1,15,27,28,-1,
        ]
    }
}
Shape{
    appearance Appearance {
        material  Material {
            diffuseColor 1.0 1.0 1.0
            specularColor 0.8784313725490196 0.8784313725490196 0.8784313725490196
            ambientIntensity 1.0
            transparency 0.0
            shininess 0.5
        }
    }
    geometry IndexedFaceSet {
        ccw TRUE
        solid FALSE
        coord DEF co Coordinate {
            point [
                0.6052 0.5315 0.0, 0.6052 0.315 0.0, 0.6052 0.5315 0.0197, 0.6052 0.315 0.0197, 0.8217 0.315 0.0961, 0.8678 0.315 0.2115, 0.8217 0.5315 0.0961, 0.8678 0.5315 0.2115, 0.868 0.5315 0.0, 0.8217 0.5315 0.0197, 0.9409 0.5315 0.1822, 0.8217 0.315 0.0197, 0.868 0.315 0.0, 0.9409 0.315 0.1822, -0.6075 0.315 0.0, -0.6075 0.5315 0.0, -0.6075 0.315 0.0197, -0.6075 0.5315 0.0197, -0.8701 0.5315 0.2115, -0.8701 0.315 0.2115, -0.824 0.5315 0.0961, -0.824 0.315 0.0961, -0.824 0.5315 0.0197, -0.8704 0.5315 0.0, -0.9432 0.5315 0.1822, -0.8704 0.315 0.0, -0.824 0.315 0.0197, -0.9432 0.315 0.1822, 0.6052 -0.315 0.0197, 0.6052 -0.315 0.0, 0.6052 -0.5315 0.0197, 0.6052 -0.5315 0.0, 0.8678 -0.5315 0.2115, 0.8678 -0.315 0.2115, 0.8217 -0.5315 0.0961, 0.8217 -0.315 0.0961, 0.8217 -0.5315 0.0197, 0.868 -0.5315 0.0, 0.9409 -0.5315 0.1822, 0.868 -0.315 0.0, 0.8217 -0.315 0.0197, 0.9409 -0.315 0.1822, -0.6075 -0.5315 0.0197, -0.6075 -0.5315 0.0, -0.6075 -0.315 0.0197, -0.6075 -0.315 0.0, -0.824 -0.315 0.0961, -0.8701 -0.315 0.2115, -0.824 -0.5315 0.0961, -0.8701 -0.5315 0.2115, -0.8704 -0.5315 0.0, -0.824 -0.5315 0.0197, -0.9432 -0.5315 0.1822, -0.824 -0.315 0.0197, -0.8704 -0.315 0.0, -0.9432 -0.315 0.1822
            ]
        }
        coordIndex [
            0,1,2,-1,2,1,3,-1,4,5,6,-1,6,5,7,-1,0,2,8,-1,8,2,9,-1,8,9,10,-1,10,9,6,-1,10,6,7,-1,3,1,11,-1,11,1,12,-1,11,12,4,-1,4,12,13,-1,4,13,5,-1,10,7,13,-1,13,7,5,-1,8,10,12,-1,12,10,13,-1,0,8,1,-1,1,8,12,-1,14,15,16,-1,16,15,17,-1,18,19,20,-1,20,19,21,-1,17,15,22,-1,22,15,23,-1,22,23,20,-1,20,23,24,-1,20,24,18,-1,14,16,25,-1,25,16,26,-1,25,26,27,-1,27,26,21,-1,27,21,19,-1,24,23,27,-1,27,23,25,-1,18,24,19,-1,19,24,27,-1,23,15,25,-1,25,15,14,-1,28,29,30,-1,30,29,31,-1,32,33,34,-1,34,33,35,-1,30,31,36,-1,36,31,37,-1,36,37,34,-1,34,37,38,-1,34,38,32,-1,29,28,39,-1,39,28,40,-1,39,40,41,-1,41,40,35,-1,41,35,33,-1,37,31,39,-1,39,31,29,-1,38,37,41,-1,41,37,39,-1,32,38,33,-1,33,38,41,-1,42,43,44,-1,44,43,45,-1,46,47,48,-1,48,47,49,-1,43,42,50,-1,50,42,51,-1,50,51,52,-1,52,51,48,-1,52,48,49,-1,44,45,53,-1,53,45,54,-1,53,54,46,-1,46,54,55,-1,46,55,47,-1,50,52,54,-1,54,52,55,-1,43,50,45,-1,45,50,54,-1,52,49,55,-1,55,49,47,-1,
        ]
    }
}