#VRML V2.0 utf8
# 3D model generated by kicad-lcsc-manager
# Based on easyeda2kicad.py v1.0.1

Shape{
    appearance Appearance {
        material  Material {
            diffuseColor 0.25098039215686274 0.25098039215686274 0.25098039215686274
            specularColor 0.12549019607843137 0.12549019607843137 0.12549019607843137
            ambientIntensity 0.251
            transparency 0.0
            shininess 0.5
        }
    }
    geometry IndexedFaceSet {
        ccw TRUE
        solid FALSE
        coord DEF co Coordinate {
            point [
                -0.315 -0.3937 0.0079, -0.3543 -0.3937 0.0079, -0.3543 -0.2795 0.0079, -0.0559 -0.2756 0.0079, -0.1055 -0.2756 0.0079, -0.1055 -0.0201 0.0079, -0.1181 -0.3937 0.0079, -0.1969 -0.3937 0.0079, -0.1969 -0.2795 0.0079, 0.0394 -0.2756 0.0079, 0.0394 -0.2795 0.0079, 0.0099 -0.2795 0.0079, -0.1181 0.2756 0.0079, -0.1181 0.3937 0.0079, -0.1055 0.3937 0.0079, -0.315 0.0198 0.0079, -0.315 0.3937 0.0079, -0.2756 0.1654 0.0079, -0.1055 0.0198 0.0079, -0.1181 0.0198 0.0079, -0.1181 0.1654 0.0079, -0.1181 -0.0201 0.0079, -0.1181 -0.1654 0.0079, -0.2236 -0.1654 0.0079, -0.2388 -0.1286 0.0079, -0.2305 -0.1393 0.0079, -0.2253 -0.1519 0.0079, -0.2496 -0.1203 0.0079, -0.1181 -0.2756 0.0079, -0.2756 -0.1133 0.0079, -0.2621 -0.1151 0.0079, -0.2756 0.0198 0.0079, -0.2756 -0.0201 0.0079, -0.315 -0.0201 0.0079, 0.0923 0.3937 0.0079, 0.1181 0.3937 0.0079, 0.1181 0.2756 0.0079, 0.1969 0.3937 0.0079, 0.3543 0.3937 0.0079, 0.2756 0.1654 0.0079, 0.2756 0.0198 0.0079, 0.3543 0.0198 0.0079, 0.3543 -0.0201 0.0079, 0.1181 -0.1654 0.0079, 0.2756 -0.1654 0.0079, 0.1181 -0.2756 0.0079, 0.3543 -0.2795 0.0079, 0.2756 -0.0201 0.0079, 0.1181 0.1654 0.0079, 0.1181 0.0198 0.0079, 0.0923 0.0198 0.0079, 0.1181 -0.0201 0.0079, 0.0923 -0.0201 0.0079, 0.0923 -0.2756 0.0079, -0.0559 -0.0201 0.0079, -0.0189 -0.0201 0.0079, -0.0394 -0.2756 0.0079, 0.1969 -0.2756 0.0079, 0.1969 -0.2795 0.0079, 0.1181 -0.2795 0.0079, 0.1969 -0.3937 0.0079, 0.1181 -0.3937 0.0079, 0.2756 -0.2756 0.0079, 0.2756 -0.2795 0.0079, 0.3543 -0.3937 0.0079, 0.2756 -0.3937 0.0079, -0.2756 -0.2756 0.0079, -0.2756 -0.2795 0.0079, -0.315 -0.2795 0.0079, -0.2756 -0.3937 0.0079, -0.1969 -0.2756 0.0079, -0.1181 -0.2795 0.0079, 0.0099 -0.0201 0.0079, 0.0099 0.0198 0.0079, 0.0138 -0.0135 0.0079, 0.0138 -0.0178 0.0079, 0.018 -0.0195 0.0079, 0.0219 -0.0201 0.0079, 0.0195 0.0198 0.0079, 0.0183 0.0197 0.0079, 0.0138 0.0184 0.0079, 0.0138 0.0132 0.0079, 0.0182 0.0151 0.0079, 0.0145 -0.0139 0.0079, 0.023 0.0157 0.0079, 0.0269 0.0152 0.0079, 0.0298 0.0142 0.0079, 0.0325 0.0124 0.0079, 0.0349 0.0097 0.0079, 0.0378 -0.0006 0.0079, 0.0374 -0.0049 0.0079, 0.0363 -0.0082 0.0079, 0.0275 -0.0156 0.0079, 0.0239 -0.016 0.0079, 0.0304 -0.0145 0.0079, 0.0328 -0.0129 0.0079, 0.0347 -0.011 0.0079, 0.0186 -0.0154 0.0079, 0.0365 0.0067 0.0079, 0.0376 0.0025 0.0079, 0.023 0.02 0.0079, 0.0099 0.3937 0.0079, 0.026 0.0198 0.0079, 0.0447 0.3937 0.0079, 0.041 0.0091 0.0079, 0.0387 0.0128 0.0079, 0.0447 0.0198 0.0079, 0.0294 -0.0198 0.0079, 0.0333 -0.0185 0.0079, 0.0447 -0.0201 0.0079, 0.0364 -0.0165 0.0079, 0.0394 -0.0134 0.0079, 0.0415 -0.0096 0.0079, 0.0235 -0.0203 0.0079, 0.0447 -0.2756 0.0079, 0.0246 -0.0203 0.0079, 0.0269 -0.0201 0.0079, 0.0351 0.0162 0.0079, 0.0314 0.0184 0.0079, 0.027 0.0197 0.0079, 0.0427 -0.0055 0.0079, 0.043 -0.0009 0.0079, 0.0425 0.0047 0.0079, -0.0394 -0.3937 0.0079, -0.0394 -0.2795 0.0079, -0.0189 -0.3937 0.0079, -0.0189 -0.2795 0.0079, 0.0099 -0.3937 0.0079, 0.0394 -0.3937 0.0079, 0.0464 -0.0155 0.0079, 0.0464 -0.0199 0.0079, 0.0666 -0.0199 0.0079, 0.0613 -0.0155 0.0079, 0.0613 0.0195 0.0079, 0.0666 0.0195 0.0079, -0.0141 0.0195 0.0079, -0.0189 0.0198 0.0079, -0.0141 0.0152 0.0079, -0.015 -0.0155 0.0079, -0.015 -0.0199 0.0079, 0.0061 -0.0199 0.0079, 0.0061 0.0195 0.0079, 0.0008 -0.0021 0.0079, 0.0008 -0.0155 0.0079, -0.0131 -0.0021 0.0079, -0.0131 0.0022 0.0079, 0.0008 0.0022 0.0079, 0.0008 0.0152 0.0079, -0.0525 -0.0091 0.0079, -0.0539 -0.0049 0.0079, -0.0544 0.0003 0.0079, -0.0502 -0.0126 0.0079, -0.047 -0.0157 0.0079, -0.0428 -0.0181 0.0079, -0.0395 0.0189 0.0079, -0.0559 0.0198 0.0079, -0.0338 0.0195 0.0079, -0.0441 0.0173 0.0079, -0.0484 0.0144 0.0079, -0.0485 0.0144 0.0079, -0.0512 0.0113 0.0079, -0.0531 0.0079 0.0079, -0.0541 0.004 0.0079, -0.0383 -0.0194 0.0079, -0.0334 -0.0199 0.0079, -0.0227 -0.0199 0.0079, -0.0227 0.0195 0.0079, -0.0631 -0.0199 0.0079, -0.0573 -0.0199 0.0079, -0.0775 0.0195 0.0079, -0.0928 -0.0199 0.0079, -0.0871 -0.0199 0.0079, -0.0831 -0.0088 0.0079, -0.0668 -0.0088 0.0079, -0.0722 0.0195 0.0079, 0.1969 0.2756 0.0079, -0.1969 0.3937 0.0079, -0.1969 0.2756 0.0079, -0.0559 0.3937 0.0079, -0.0189 0.3937 0.0079, -0.3543 -0.0201 0.0079, -0.3543 0.0198 0.0079, -0.3543 0.3937 0.0079, 0.3543 -0.3937 0.2165, 0.3543 0.3937 0.2165, -0.1969 0.3937 0.0677, -0.3543 0.3937 0.2165, 0.1181 0.3937 0.0677, 0.1969 0.3937 0.0677, -0.1181 0.3937 0.0677, -0.3543 -0.3937 0.2165, -0.2756 -0.3937 0.0677, -0.1969 -0.3937 0.0677, -0.1181 -0.3937 0.0677, 0.0394 -0.3937 0.0677, 0.1181 -0.3937 0.0677, -0.0394 -0.3937 0.0677, 0.2756 -0.3937 0.0677, 0.1969 -0.3937 0.0677, -0.2597 -0.315 0.2165, -0.2607 -0.3222 0.2165, -0.2635 -0.329 0.2165, -0.2679 -0.3348 0.2165, -0.295 -0.3421 0.2165, -0.3018 -0.3393 0.2165, -0.3076 -0.2952 0.2165, -0.3018 -0.2907 0.2165, -0.295 -0.2879 0.2165, -0.2738 -0.2907 0.2165, -0.2805 -0.2879 0.2165, -0.2878 -0.2869 0.2165, -0.2679 -0.2952 0.2165, -0.2635 -0.301 0.2165, -0.2607 -0.3077 0.2165, -0.2738 -0.3393 0.2165, -0.2805 -0.3421 0.2165, -0.2878 -0.343 0.2165, -0.3076 -0.3348 0.2165, -0.3121 -0.329 0.2165, -0.3149 -0.3222 0.2165, -0.3158 -0.315 0.2165, -0.3149 -0.3077 0.2165, -0.3121 -0.301 0.2165
            ]
        }
        coordIndex [
            0,1,2,-1,3,4,5,-1,6,7,8,-1,9,10,11,-1,12,13,14,-1,15,16,17,-1,18,19,20,-1,21,5,22,-1,22,5,4,-1,22,4,23,-1,24,25,26,-1,24,26,27,-1,4,28,23,-1,23,28,29,-1,23,29,26,-1,26,29,30,-1,26,30,27,-1,17,31,15,-1,15,31,32,-1,15,32,33,-1,33,32,29,-1,34,35,36,-1,37,38,39,-1,39,38,40,-1,40,38,41,-1,40,41,42,-1,43,44,45,-1,46,44,42,-1,42,44,47,-1,42,47,40,-1,48,49,50,-1,50,49,51,-1,50,51,52,-1,52,51,43,-1,52,43,53,-1,53,43,45,-1,54,55,56,-1,57,58,59,-1,59,58,60,-1,59,60,61,-1,59,45,57,-1,57,45,44,-1,57,44,62,-1,62,44,46,-1,62,46,63,-1,63,46,64,-1,63,64,65,-1,66,67,68,-1,68,67,69,-1,68,69,0,-1,68,33,66,-1,66,33,29,-1,66,29,70,-1,70,29,28,-1,70,28,8,-1,8,28,71,-1,8,71,6,-1,72,73,74,-1,74,75,72,-1,72,75,76,-1,72,76,77,-1,73,78,79,-1,79,80,73,-1,73,80,81,-1,73,81,74,-1,74,81,82,-1,74,82,83,-1,83,82,84,-1,83,84,85,-1,85,86,83,-1,83,86,87,-1,83,87,88,-1,89,90,83,-1,83,90,91,-1,92,93,94,-1,94,93,95,-1,91,96,83,-1,83,96,95,-1,83,95,97,-1,97,95,93,-1,88,98,83,-1,83,98,99,-1,83,99,89,-1,100,101,102,-1,102,101,103,-1,104,105,106,-1,107,108,109,-1,108,110,109,-1,109,110,111,-1,109,111,112,-1,9,113,114,-1,114,113,115,-1,114,115,109,-1,109,115,116,-1,109,116,107,-1,105,117,106,-1,106,117,118,-1,106,118,119,-1,112,120,109,-1,109,120,121,-1,109,121,106,-1,106,121,122,-1,106,122,104,-1,123,124,125,-1,125,124,126,-1,125,126,127,-1,127,126,11,-1,127,11,128,-1,128,11,10,-1,124,56,126,-1,126,56,55,-1,126,55,11,-1,11,55,72,-1,11,72,9,-1,9,72,77,-1,9,77,113,-1,106,129,109,-1,109,129,130,-1,109,130,131,-1,132,129,133,-1,133,129,106,-1,133,106,134,-1,134,106,50,-1,134,50,131,-1,131,50,52,-1,131,52,109,-1,109,52,53,-1,109,53,114,-1,135,136,73,-1,135,137,136,-1,136,137,138,-1,136,138,55,-1,55,138,139,-1,55,139,72,-1,72,139,140,-1,72,140,73,-1,73,140,141,-1,73,141,135,-1,142,143,144,-1,144,143,138,-1,144,138,145,-1,145,138,137,-1,145,137,146,-1,146,137,147,-1,148,54,149,-1,149,54,150,-1,148,151,54,-1,54,151,152,-1,54,152,153,-1,154,155,156,-1,156,155,136,-1,154,157,155,-1,155,157,158,-1,155,158,159,-1,159,160,155,-1,155,160,161,-1,155,161,162,-1,153,163,54,-1,54,163,164,-1,54,164,55,-1,55,164,165,-1,55,165,136,-1,136,165,166,-1,136,166,156,-1,167,168,54,-1,54,168,155,-1,54,155,150,-1,150,155,162,-1,169,170,5,-1,5,170,171,-1,172,173,171,-1,171,173,167,-1,171,167,5,-1,5,167,54,-1,5,54,3,-1,3,54,56,-1,168,174,155,-1,155,174,169,-1,155,169,18,-1,18,169,5,-1,18,5,19,-1,19,5,21,-1,119,102,106,-1,106,102,103,-1,106,103,50,-1,50,103,34,-1,50,34,48,-1,48,34,36,-1,48,36,39,-1,39,36,175,-1,39,175,37,-1,16,176,17,-1,17,176,177,-1,17,177,20,-1,20,177,12,-1,20,12,18,-1,18,12,14,-1,18,14,155,-1,155,14,178,-1,155,178,136,-1,136,178,179,-1,136,179,73,-1,73,179,101,-1,73,101,78,-1,78,101,100,-1,0,2,68,-1,68,2,180,-1,68,180,33,-1,33,180,181,-1,33,181,15,-1,15,181,182,-1,15,182,16,-1,64,46,183,-1,183,46,42,-1,183,42,184,-1,184,42,41,-1,184,41,38,-1,184,38,37,-1,185,176,186,-1,186,176,16,-1,186,16,182,-1,187,35,34,-1,37,188,184,-1,184,188,187,-1,184,187,186,-1,186,187,189,-1,186,189,185,-1,34,103,187,-1,187,103,101,-1,187,101,189,-1,189,101,179,-1,179,178,189,-1,189,178,14,-1,189,14,13,-1,2,1,190,-1,186,182,181,-1,186,181,190,-1,190,181,180,-1,190,180,2,-1,69,191,0,-1,0,191,190,-1,0,190,1,-1,7,6,192,-1,192,6,193,-1,194,195,183,-1,123,125,196,-1,196,125,127,-1,191,192,190,-1,190,192,193,-1,190,193,183,-1,183,193,196,-1,183,196,194,-1,194,196,127,-1,194,127,128,-1,65,64,197,-1,197,64,183,-1,197,183,198,-1,198,183,195,-1,198,195,60,-1,60,195,61,-1,199,200,183,-1,183,200,201,-1,183,201,202,-1,203,204,190,-1,205,206,186,-1,186,206,207,-1,208,184,209,-1,209,184,186,-1,209,186,210,-1,210,186,207,-1,208,211,184,-1,184,211,212,-1,184,212,183,-1,183,212,213,-1,183,213,199,-1,202,214,183,-1,183,214,215,-1,183,215,190,-1,190,215,216,-1,190,216,203,-1,204,217,190,-1,190,217,218,-1,190,218,219,-1,219,220,190,-1,190,220,221,-1,190,221,186,-1,186,221,222,-1,186,222,205,-1,
        ]
    }
}
Shape{
    appearance Appearance {
        material  Material {
            diffuseColor 0.5019607843137255 0.5019607843137255 0.5019607843137255
            specularColor 0.25098039215686274 0.25098039215686274 0.25098039215686274
            ambientIntensity 0.502
            transparency 0.0
            shininess 0.5
        }
    }
    geometry IndexedFaceSet {
        ccw TRUE
        solid FALSE
        coord DEF co Coordinate {
            point [
                -0.2597 -0.315 0.2161, -0.2597 -0.315 0.2165, -0.2607 -0.3077 0.2161, -0.2607 -0.3077 0.2165, -0.2635 -0.301 0.2161, -0.2635 -0.301 0.2165, -0.2679 -0.2952 0.2161, -0.2679 -0.2952 0.2165, -0.2738 -0.2907 0.2161, -0.2738 -0.2907 0.2165, -0.2805 -0.2879 0.2161, -0.2805 -0.2879 0.2165, -0.2878 -0.2869 0.2161, -0.2878 -0.2869 0.2165, -0.295 -0.2879 0.2161, -0.295 -0.2879 0.2165, -0.3018 -0.2907 0.2161, -0.3018 -0.2907 0.2165, -0.3076 -0.2952 0.2161, -0.3076 -0.2952 0.2165, -0.3121 -0.301 0.2161, -0.3121 -0.301 0.2165, -0.3149 -0.3077 0.2161, -0.3149 -0.3077 0.2165, -0.3158 -0.315 0.2161, -0.3158 -0.315 0.2165, -0.3149 -0.3222 0.2161, -0.3149 -0.3222 0.2165, -0.3121 -0.329 0.2161, -0.3121 -0.329 0.2165, -0.3076 -0.3348 0.2161, -0.3076 -0.3348 0.2165, -0.3018 -0.3393 0.2161, -0.3018 -0.3393 0.2165, -0.295 -0.3421 0.2161, -0.295 -0.3421 0.2165, -0.2878 -0.343 0.2161, -0.2878 -0.343 0.2165, -0.2805 -0.3421 0.2161, -0.2805 -0.3421 0.2165, -0.2738 -0.3393 0.2161, -0.2738 -0.3393 0.2165, -0.2679 -0.3348 0.2161, -0.2679 -0.3348 0.2165, -0.2635 -0.329 0.2161, -0.2635 -0.329 0.2165, -0.2607 -0.3222 0.2161, -0.2607 -0.3222 0.2165, -0.2878 -0.315 0.2161
            ]
        }
        coordIndex [
            0,1,2,-1,2,1,3,-1,2,3,4,-1,4,3,5,-1,4,5,6,-1,6,5,7,-1,6,7,8,-1,8,7,9,-1,8,9,10,-1,10,9,11,-1,10,11,12,-1,12,11,13,-1,12,13,14,-1,14,13,15,-1,14,15,16,-1,16,15,17,-1,16,17,18,-1,18,17,19,-1,18,19,20,-1,20,19,21,-1,20,21,22,-1,22,21,23,-1,22,23,24,-1,24,23,25,-1,24,25,26,-1,26,25,27,-1,26,27,28,-1,28,27,29,-1,28,29,30,-1,30,29,31,-1,30,31,32,-1,32,31,33,-1,32,33,34,-1,34,33,35,-1,34,35,36,-1,36,35,37,-1,36,37,38,-1,38,37,39,-1,38,39,40,-1,40,39,41,-1,40,41,42,-1,42,41,43,-1,42,43,44,-1,44,43,45,-1,44,45,46,-1,46,45,47,-1,46,47,0,-1,0,47,1,-1,44,46,48,-1,48,46,0,-1,48,0,2,-1,38,40,48,-1,48,40,42,-1,48,42,44,-1,32,34,48,-1,48,34,36,-1,48,36,38,-1,26,28,48,-1,48,28,30,-1,48,30,32,-1,20,22,48,-1,48,22,24,-1,48,24,26,-1,14,16,48,-1,48,16,18,-1,48,18,20,-1,8,10,48,-1,48,10,12,-1,48,12,14,-1,2,4,48,-1,48,4,6,-1,48,6,8,-1,
        ]
    }
}
Shape{
    appearance Appearance {
        material  Material {
            diffuseColor 1.0 1.0 0.5019607843137255
            specularColor 0.5019607843137255 0.5019607843137255 0.25098039215686274
            ambientIntensity 0.9432
            transparency 0.0
            shininess 0.5
        }
    }
    geometry IndexedFaceSet {
        ccw TRUE
        solid FALSE
        coord DEF co Coordinate {
            point [
                0.1969 0.3976 0.0677, 0.1181 0.3976 0.0677, 0.1969 0.3937 0.0677, 0.1181 0.3937 0.0677, 0.1181 0.3937 0.0079, 0.1181 0.3976 0.0, 0.1181 0.2756 0.0079, 0.1181 0.2756 0.0, 0.1969 0.2756 0.0, 0.1969 0.2756 0.0079, 0.1969 0.3937 0.0079, 0.1969 0.3976 0.0, -0.1181 0.3937 0.0677, -0.1181 0.3976 0.0677, -0.1969 0.3937 0.0677, -0.1969 0.3976 0.0677, -0.1969 0.3937 0.0079, -0.1969 0.3976 0.0, -0.1969 0.2756 0.0079, -0.1969 0.2756 0.0, -0.1181 0.2756 0.0, -0.1181 0.2756 0.0079, -0.1181 0.3937 0.0079, -0.1181 0.3976 0.0, 0.0394 -0.3937 0.0677, 0.0394 -0.3976 0.0677, 0.1181 -0.3937 0.0677, 0.1181 -0.3976 0.0677, 0.0394 -0.3976 0.0, 0.0394 -0.2756 0.0079, 0.0394 -0.2756 0.0, 0.0394 -0.2795 0.0079, 0.0394 -0.3937 0.0079, 0.1181 -0.3937 0.0079, 0.1181 -0.3976 0.0, 0.1181 -0.2795 0.0079, 0.1181 -0.2756 0.0, 0.1181 -0.2756 0.0079, 0.0447 -0.2756 0.0079, 0.0923 -0.2756 0.0079, -0.2756 -0.3976 0.0677, -0.1969 -0.3976 0.0677, -0.2756 -0.3937 0.0677, -0.1969 -0.3937 0.0677, -0.2756 -0.3976 0.0, -0.2756 -0.2756 0.0079, -0.2756 -0.2756 0.0, -0.2756 -0.2795 0.0079, -0.2756 -0.3937 0.0079, -0.1969 -0.3937 0.0079, -0.1969 -0.3976 0.0, -0.1969 -0.2795 0.0079, -0.1969 -0.2756 0.0, -0.1969 -0.2756 0.0079, 0.1969 -0.3976 0.0677, 0.2756 -0.3976 0.0677, 0.1969 -0.3937 0.0677, 0.2756 -0.3937 0.0677, 0.2756 -0.3937 0.0079, 0.2756 -0.3976 0.0, 0.2756 -0.2795 0.0079, 0.2756 -0.2756 0.0, 0.2756 -0.2756 0.0079, 0.1969 -0.2756 0.0, 0.1969 -0.2756 0.0079, 0.1969 -0.3976 0.0, 0.1969 -0.2795 0.0079, 0.1969 -0.3937 0.0079, -0.1181 -0.3976 0.0677, -0.0394 -0.3976 0.0677, -0.1181 -0.3937 0.0677, -0.0394 -0.3937 0.0677, -0.1181 -0.3976 0.0, -0.1181 -0.2756 0.0079, -0.1181 -0.2756 0.0, -0.1181 -0.2795 0.0079, -0.1181 -0.3937 0.0079, -0.0394 -0.3937 0.0079, -0.0394 -0.3976 0.0, -0.0394 -0.2795 0.0079, -0.0394 -0.2756 0.0, -0.0394 -0.2756 0.0079, -0.1055 -0.2756 0.0079, -0.0559 -0.2756 0.0079, 0.1181 -0.1654 0.0079, 0.1181 -0.0201 0.0079, 0.1181 -0.1654 0.0, 0.1181 0.0198 0.0079, 0.1181 0.1654 0.0, 0.1181 0.1654 0.0079, 0.2756 -0.1654 0.0, 0.2756 -0.1654 0.0079, 0.2756 -0.0201 0.0079, 0.2756 0.0198 0.0079, 0.2756 0.1654 0.0, 0.2756 0.1654 0.0079, -0.2756 0.1654 0.0079, -0.2756 0.1654 0.0, -0.2756 0.0198 0.0079, -0.2756 -0.1133 0.0, -0.2756 -0.0201 0.0079, -0.2756 -0.1133 0.0079, -0.1181 -0.1654 0.0, -0.1181 -0.1654 0.0079, -0.2236 -0.1654 0.0, -0.2236 -0.1654 0.0079, -0.1181 -0.0201 0.0079, -0.1181 0.0198 0.0079, -0.1181 0.1654 0.0, -0.1181 0.1654 0.0079, -0.2253 -0.1519 0.0, -0.2305 -0.1393 0.0, -0.2388 -0.1286 0.0, -0.2621 -0.1151 0.0, -0.2496 -0.1203 0.0, -0.2621 -0.1151 0.0079, -0.2496 -0.1203 0.0079, -0.2388 -0.1286 0.0079, -0.2305 -0.1393 0.0079, -0.2253 -0.1519 0.0079
            ]
        }
        coordIndex [
            0,1,2,-1,2,1,3,-1,3,1,4,-1,4,1,5,-1,4,5,6,-1,6,5,7,-1,7,8,6,-1,6,8,9,-1,9,8,10,-1,10,8,11,-1,10,11,2,-1,2,11,0,-1,5,1,11,-1,11,1,0,-1,11,8,5,-1,5,8,7,-1,12,13,14,-1,14,13,15,-1,14,15,16,-1,16,15,17,-1,16,17,18,-1,18,17,19,-1,19,20,18,-1,18,20,21,-1,21,20,22,-1,22,20,23,-1,22,23,12,-1,12,23,13,-1,17,15,23,-1,23,15,13,-1,23,20,17,-1,17,20,19,-1,24,25,26,-1,26,25,27,-1,28,25,24,-1,29,30,31,-1,31,30,28,-1,31,28,32,-1,32,28,24,-1,26,27,33,-1,33,27,34,-1,33,34,35,-1,35,34,36,-1,35,36,37,-1,29,38,30,-1,30,38,39,-1,30,39,36,-1,36,39,37,-1,34,27,28,-1,28,27,25,-1,36,34,30,-1,30,34,28,-1,40,41,42,-1,42,41,43,-1,44,40,42,-1,45,46,47,-1,47,46,44,-1,47,44,48,-1,48,44,42,-1,43,41,49,-1,49,41,50,-1,49,50,51,-1,51,50,52,-1,51,52,53,-1,52,46,53,-1,53,46,45,-1,50,41,44,-1,44,41,40,-1,52,50,46,-1,46,50,44,-1,54,55,56,-1,56,55,57,-1,57,55,58,-1,58,55,59,-1,58,59,60,-1,60,59,61,-1,60,61,62,-1,61,63,62,-1,62,63,64,-1,65,54,56,-1,64,63,66,-1,66,63,65,-1,66,65,67,-1,67,65,56,-1,59,55,65,-1,65,55,54,-1,63,61,65,-1,65,61,59,-1,68,69,70,-1,70,69,71,-1,72,68,70,-1,73,74,75,-1,75,74,72,-1,75,72,76,-1,76,72,70,-1,71,69,77,-1,77,69,78,-1,77,78,79,-1,79,78,80,-1,79,80,81,-1,74,73,82,-1,74,82,80,-1,80,82,83,-1,80,83,81,-1,78,69,72,-1,72,69,68,-1,80,78,74,-1,74,78,72,-1,84,85,86,-1,86,85,87,-1,86,87,88,-1,88,87,89,-1,86,90,84,-1,84,90,91,-1,92,91,90,-1,92,90,93,-1,93,90,94,-1,93,94,95,-1,94,88,95,-1,95,88,89,-1,94,90,88,-1,88,90,86,-1,96,97,98,-1,98,97,99,-1,98,99,100,-1,100,99,101,-1,102,103,104,-1,104,103,105,-1,106,103,102,-1,106,102,107,-1,107,102,108,-1,107,108,109,-1,108,97,109,-1,109,97,96,-1,102,104,110,-1,102,110,108,-1,108,110,111,-1,108,111,112,-1,99,97,113,-1,113,97,108,-1,113,108,114,-1,114,108,112,-1,101,99,115,-1,115,99,113,-1,115,113,116,-1,116,113,114,-1,116,114,117,-1,117,114,112,-1,117,112,118,-1,118,112,111,-1,118,111,119,-1,119,111,110,-1,119,110,105,-1,105,110,104,-1,
        ]
    }
}
Shape{
    appearance Appearance {
        material  Material {
            diffuseColor 0.0 0.0 0.0
            specularColor 0.0 0.0 0.0
            ambientIntensity 0.0
            transparency 0.0
            shininess 0.5
        }
    }
    geometry IndexedFaceSet {
        ccw TRUE
        solid FALSE
        coord DEF co Coordinate {
            point [
                -0.0775 0.0195 0.0083, -0.0928 -0.0199 0.0083, -0.0775 0.0195 0.0079, -0.0928 -0.0199 0.0079, -0.0871 -0.0199 0.0083, -0.0871 -0.0199 0.0079, -0.0831 -0.0088 0.0083, -0.0831 -0.0088 0.0079, -0.0668 -0.0088 0.0083, -0.0668 -0.0088 0.0079, -0.0631 -0.0199 0.0083, -0.0631 -0.0199 0.0079, -0.0573 -0.0199 0.0083, -0.0573 -0.0199 0.0079, -0.0722 0.0195 0.0083, -0.0722 0.0195 0.0079, -0.0681 -0.0045 0.0083, -0.0813 -0.0045 0.0083, -0.074 0.012 0.0083, -0.0744 0.0133 0.0083, -0.0746 0.0147 0.0083, -0.0748 0.0147 0.0083, -0.075 0.0133 0.0083, -0.0754 0.012 0.0083, -0.0681 -0.0045 0.0079, -0.0813 -0.0045 0.0079, -0.074 0.012 0.0079, -0.0744 0.0133 0.0079, -0.0746 0.0147 0.0079, -0.0748 0.0147 0.0079, -0.075 0.0133 0.0079, -0.0754 0.012 0.0079, -0.0334 -0.0199 0.0083, -0.0227 -0.0199 0.0083, -0.0334 -0.0199 0.0079, -0.0227 -0.0199 0.0079, -0.0227 0.0195 0.0083, -0.0227 0.0195 0.0079, -0.0338 0.0195 0.0083, -0.0338 0.0195 0.0079, -0.0544 0.0003 0.0083, -0.0544 0.0003 0.0079, -0.0541 0.004 0.0079, -0.0541 0.004 0.0083, -0.0531 0.0079 0.0079, -0.0531 0.0079 0.0083, -0.0512 0.0113 0.0079, -0.0512 0.0113 0.0083, -0.0485 0.0144 0.0079, -0.0485 0.0144 0.0083, -0.0484 0.0144 0.0079, -0.0484 0.0144 0.0083, -0.0441 0.0173 0.0079, -0.0441 0.0173 0.0083, -0.0395 0.0189 0.0079, -0.0395 0.0189 0.0083, -0.0383 -0.0194 0.0079, -0.0383 -0.0194 0.0083, -0.0428 -0.0181 0.0079, -0.0428 -0.0181 0.0083, -0.047 -0.0157 0.0079, -0.047 -0.0157 0.0083, -0.0502 -0.0126 0.0079, -0.0502 -0.0126 0.0083, -0.0525 -0.0091 0.0079, -0.0525 -0.0091 0.0083, -0.0539 -0.0049 0.0079, -0.0539 -0.0049 0.0083, -0.0465 0.0097 0.0083, -0.0446 0.0117 0.0083, -0.0417 0.0136 0.0083, -0.0385 0.0147 0.0083, -0.0338 0.0152 0.0083, -0.028 0.0152 0.0083, -0.028 -0.0155 0.0083, -0.0336 -0.0155 0.0083, -0.0378 -0.0151 0.0083, -0.0411 -0.0141 0.0083, -0.0438 -0.0125 0.0083, -0.046 -0.0103 0.0083, -0.0476 -0.0076 0.0083, -0.0488 -0.0039 0.0083, -0.0491 0.0002 0.0083, -0.0488 0.0041 0.0083, -0.0479 0.0072 0.0083, -0.0338 0.0152 0.0079, -0.028 0.0152 0.0079, -0.0385 0.0147 0.0079, -0.0417 0.0136 0.0079, -0.0446 0.0117 0.0079, -0.0465 0.0097 0.0079, -0.0479 0.0072 0.0079, -0.0488 0.0041 0.0079, -0.0491 0.0002 0.0079, -0.0488 -0.0039 0.0079, -0.0476 -0.0076 0.0079, -0.046 -0.0103 0.0079, -0.0438 -0.0125 0.0079, -0.0411 -0.0141 0.0079, -0.0378 -0.0151 0.0079, -0.0336 -0.0155 0.0079, -0.028 -0.0155 0.0079, -0.015 -0.0155 0.0083, -0.015 -0.0199 0.0083, -0.015 -0.0155 0.0079, -0.015 -0.0199 0.0079, 0.0061 -0.0199 0.0083, 0.0061 -0.0199 0.0079, 0.0061 0.0195 0.0083, 0.0061 0.0195 0.0079, -0.0141 0.0195 0.0083, -0.0141 0.0195 0.0079, -0.0141 0.0152 0.0083, -0.0141 0.0152 0.0079, 0.0008 0.0152 0.0083, 0.0008 0.0152 0.0079, 0.0008 0.0022 0.0083, 0.0008 0.0022 0.0079, -0.0131 0.0022 0.0083, -0.0131 0.0022 0.0079, -0.0131 -0.0021 0.0083, -0.0131 -0.0021 0.0079, 0.0008 -0.0021 0.0083, 0.0008 -0.0021 0.0079, 0.0008 -0.0155 0.0083, 0.0008 -0.0155 0.0079, 0.0138 -0.0135 0.0083, 0.0138 -0.0178 0.0083, 0.0138 -0.0135 0.0079, 0.0138 -0.0178 0.0079, 0.018 -0.0195 0.0083, 0.0246 -0.0203 0.0083, 0.0246 -0.0203 0.0079, 0.0235 -0.0203 0.0079, 0.0235 -0.0203 0.0083, 0.0219 -0.0201 0.0079, 0.018 -0.0195 0.0079, 0.0269 -0.0201 0.0079, 0.0294 -0.0198 0.0083, 0.0294 -0.0198 0.0079, 0.0333 -0.0185 0.0083, 0.0333 -0.0185 0.0079, 0.0364 -0.0165 0.0083, 0.0364 -0.0165 0.0079, 0.0394 -0.0134 0.0083, 0.0394 -0.0134 0.0079, 0.0415 -0.0096 0.0083, 0.0415 -0.0096 0.0079, 0.0427 -0.0055 0.0083, 0.0427 -0.0055 0.0079, 0.043 -0.0009 0.0083, 0.043 -0.0009 0.0079, 0.023 0.02 0.0083, 0.023 0.02 0.0079, 0.027 0.0197 0.0083, 0.026 0.0198 0.0079, 0.027 0.0197 0.0079, 0.0314 0.0184 0.0079, 0.0314 0.0184 0.0083, 0.0351 0.0162 0.0079, 0.0351 0.0162 0.0083, 0.0387 0.0128 0.0079, 0.0387 0.0128 0.0083, 0.041 0.0091 0.0079, 0.041 0.0091 0.0083, 0.0425 0.0047 0.0079, 0.0425 0.0047 0.0083, 0.0195 0.0198 0.0079, 0.0183 0.0197 0.0083, 0.0183 0.0197 0.0079, 0.0138 0.0184 0.0083, 0.0138 0.0184 0.0079, 0.0138 0.0132 0.0083, 0.0138 0.0132 0.0079, 0.023 0.0157 0.0083, 0.023 0.0157 0.0079, 0.0182 0.0151 0.0079, 0.0182 0.0151 0.0083, 0.0378 -0.0006 0.0083, 0.0378 -0.0006 0.0079, 0.0376 0.0025 0.0079, 0.0376 0.0025 0.0083, 0.0365 0.0067 0.0079, 0.0365 0.0067 0.0083, 0.0349 0.0097 0.0079, 0.0349 0.0097 0.0083, 0.0325 0.0124 0.0079, 0.0325 0.0124 0.0083, 0.0298 0.0142 0.0079, 0.0298 0.0142 0.0083, 0.0269 0.0152 0.0079, 0.0269 0.0152 0.0083, 0.0239 -0.016 0.0083, 0.0239 -0.016 0.0079, 0.0275 -0.0156 0.0079, 0.0275 -0.0156 0.0083, 0.0304 -0.0145 0.0079, 0.0304 -0.0145 0.0083, 0.0328 -0.0129 0.0079, 0.0328 -0.0129 0.0083, 0.0347 -0.011 0.0079, 0.0347 -0.011 0.0083, 0.0363 -0.0082 0.0079, 0.0363 -0.0082 0.0083, 0.0374 -0.0049 0.0079, 0.0374 -0.0049 0.0083, 0.0145 -0.0139 0.0079, 0.0145 -0.0139 0.0083, 0.0186 -0.0154 0.0079, 0.0186 -0.0154 0.0083, 0.0464 -0.0155 0.0083, 0.0464 -0.0199 0.0083, 0.0464 -0.0155 0.0079, 0.0464 -0.0199 0.0079, 0.0666 -0.0199 0.0083, 0.0666 -0.0199 0.0079, 0.0666 0.0195 0.0083, 0.0666 0.0195 0.0079, 0.0613 0.0195 0.0083, 0.0613 0.0195 0.0079, 0.0613 -0.0155 0.0083, 0.0613 -0.0155 0.0079
            ]
        }
        coordIndex [
            0,1,2,-1,2,1,3,-1,1,4,3,-1,3,4,5,-1,4,6,5,-1,5,6,7,-1,6,8,7,-1,7,8,9,-1,8,10,9,-1,9,10,11,-1,10,12,11,-1,11,12,13,-1,12,14,13,-1,13,14,15,-1,14,0,15,-1,15,0,2,-1,16,8,17,-1,17,8,6,-1,18,14,16,-1,16,14,12,-1,16,12,8,-1,8,12,10,-1,18,19,14,-1,14,19,20,-1,14,20,0,-1,0,20,21,-1,0,21,22,-1,22,23,0,-1,0,23,17,-1,0,17,1,-1,1,17,6,-1,1,6,4,-1,16,17,24,-1,24,17,25,-1,18,16,26,-1,26,16,24,-1,18,26,27,-1,18,27,19,-1,19,27,28,-1,19,28,20,-1,21,20,29,-1,29,20,28,-1,21,29,30,-1,21,30,22,-1,22,30,31,-1,22,31,23,-1,17,23,25,-1,25,23,31,-1,32,33,34,-1,34,33,35,-1,33,36,35,-1,35,36,37,-1,36,38,37,-1,37,38,39,-1,40,41,42,-1,40,42,43,-1,43,42,44,-1,43,44,45,-1,45,44,46,-1,45,46,47,-1,47,46,48,-1,47,48,49,-1,49,48,50,-1,49,50,51,-1,51,50,52,-1,51,52,53,-1,53,52,54,-1,53,54,55,-1,55,54,39,-1,55,39,38,-1,32,34,56,-1,32,56,57,-1,57,56,58,-1,57,58,59,-1,59,58,60,-1,59,60,61,-1,61,60,62,-1,61,62,63,-1,63,62,64,-1,63,64,65,-1,65,64,66,-1,65,66,67,-1,67,66,41,-1,67,41,40,-1,45,47,68,-1,68,47,49,-1,68,49,69,-1,69,49,51,-1,69,51,70,-1,70,51,53,-1,70,53,71,-1,71,53,55,-1,71,55,72,-1,72,55,38,-1,72,38,73,-1,73,38,36,-1,73,36,74,-1,74,36,33,-1,74,33,75,-1,75,33,32,-1,75,32,76,-1,76,32,57,-1,76,57,77,-1,77,57,59,-1,77,59,78,-1,78,59,61,-1,78,61,79,-1,79,61,63,-1,79,63,80,-1,80,63,65,-1,80,65,81,-1,81,65,67,-1,81,67,82,-1,82,67,40,-1,82,40,83,-1,83,40,43,-1,83,43,84,-1,84,43,45,-1,84,45,68,-1,72,73,85,-1,85,73,86,-1,72,85,87,-1,72,87,71,-1,71,87,88,-1,71,88,70,-1,70,88,89,-1,70,89,69,-1,69,89,90,-1,69,90,68,-1,68,90,91,-1,68,91,84,-1,84,91,92,-1,84,92,83,-1,83,92,93,-1,83,93,82,-1,82,93,94,-1,82,94,81,-1,81,94,95,-1,81,95,80,-1,80,95,96,-1,80,96,79,-1,79,96,97,-1,79,97,78,-1,78,97,98,-1,78,98,77,-1,77,98,99,-1,77,99,76,-1,76,99,100,-1,76,100,75,-1,74,75,101,-1,101,75,100,-1,73,74,86,-1,86,74,101,-1,102,103,104,-1,104,103,105,-1,103,106,105,-1,105,106,107,-1,106,108,107,-1,107,108,109,-1,108,110,109,-1,109,110,111,-1,110,112,111,-1,111,112,113,-1,112,114,113,-1,113,114,115,-1,114,116,115,-1,115,116,117,-1,116,118,117,-1,117,118,119,-1,118,120,119,-1,119,120,121,-1,120,122,121,-1,121,122,123,-1,122,124,123,-1,123,124,125,-1,124,102,125,-1,125,102,104,-1,106,103,102,-1,102,124,106,-1,106,124,122,-1,106,122,108,-1,112,110,114,-1,114,110,108,-1,114,108,116,-1,116,108,122,-1,116,122,118,-1,118,122,120,-1,126,127,128,-1,128,127,129,-1,129,127,130,-1,131,132,133,-1,131,133,134,-1,134,133,135,-1,134,135,130,-1,130,135,136,-1,130,136,129,-1,132,131,137,-1,137,131,138,-1,137,138,139,-1,139,138,140,-1,139,140,141,-1,141,140,142,-1,141,142,143,-1,143,142,144,-1,143,144,145,-1,145,144,146,-1,145,146,147,-1,147,146,148,-1,147,148,149,-1,149,148,150,-1,149,150,151,-1,152,153,154,-1,154,153,155,-1,155,156,154,-1,154,156,157,-1,154,157,158,-1,158,157,159,-1,158,159,160,-1,160,159,161,-1,160,161,162,-1,162,161,163,-1,162,163,164,-1,164,163,165,-1,164,165,166,-1,166,165,151,-1,166,151,150,-1,153,152,167,-1,167,152,168,-1,167,168,169,-1,169,168,170,-1,169,170,171,-1,170,172,171,-1,171,172,173,-1,174,175,176,-1,174,176,177,-1,177,176,173,-1,177,173,172,-1,178,179,180,-1,178,180,181,-1,181,180,182,-1,181,182,183,-1,183,182,184,-1,183,184,185,-1,185,184,186,-1,185,186,187,-1,187,186,188,-1,187,188,189,-1,189,188,190,-1,189,190,191,-1,191,190,175,-1,191,175,174,-1,192,193,194,-1,192,194,195,-1,195,194,196,-1,195,196,197,-1,197,196,198,-1,197,198,199,-1,199,198,200,-1,199,200,201,-1,201,200,202,-1,201,202,203,-1,203,202,204,-1,203,204,205,-1,205,204,179,-1,205,179,178,-1,126,128,206,-1,126,206,207,-1,207,206,208,-1,207,208,209,-1,209,208,193,-1,209,193,192,-1,195,131,192,-1,192,131,134,-1,192,134,209,-1,209,134,130,-1,209,130,207,-1,207,130,127,-1,207,127,126,-1,172,170,177,-1,177,170,168,-1,177,168,174,-1,174,168,152,-1,174,152,191,-1,191,152,154,-1,191,154,189,-1,189,154,158,-1,189,158,187,-1,187,158,160,-1,187,160,185,-1,185,160,162,-1,185,162,183,-1,183,162,164,-1,183,164,181,-1,181,164,166,-1,181,166,178,-1,178,166,150,-1,178,150,205,-1,205,150,148,-1,205,148,203,-1,203,148,146,-1,203,146,201,-1,201,146,144,-1,201,144,199,-1,199,144,142,-1,199,142,197,-1,197,142,140,-1,197,140,195,-1,195,140,138,-1,195,138,131,-1,210,211,212,-1,212,211,213,-1,211,214,213,-1,213,214,215,-1,214,216,215,-1,215,216,217,-1,216,218,217,-1,217,218,219,-1,218,220,219,-1,219,220,221,-1,220,210,221,-1,221,210,212,-1,218,216,220,-1,220,216,214,-1,220,214,210,-1,210,214,211,-1,
        ]
    }
}
Shape{
    appearance Appearance {
        material  Material {
            diffuseColor 0.25098039215686274 0.25098039215686274 0.25098039215686274
            specularColor 0.12549019607843137 0.12549019607843137 0.12549019607843137
            ambientIntensity 0.251
            transparency 0.0
            shininess 0.5
        }
    }
    geometry IndexedFaceSet {
        ccw TRUE
        solid FALSE
        coord DEF co Coordinate {
            point [
                -0.0681 -0.0045 0.0079, -0.0813 -0.0045 0.0079, -0.074 0.012 0.0079, -0.0754 0.012 0.0079, -0.0744 0.0133 0.0079, -0.075 0.0133 0.0079, -0.0746 0.0147 0.0079, -0.0748 0.0147 0.0079, -0.028 0.0152 0.0079, -0.028 -0.0155 0.0079, -0.0338 0.0152 0.0079, -0.0336 -0.0155 0.0079, -0.0378 -0.0151 0.0079, -0.0491 0.0002 0.0079, -0.0488 0.0041 0.0079, -0.0479 0.0072 0.0079, -0.0385 0.0147 0.0079, -0.0411 -0.0141 0.0079, -0.0438 -0.0125 0.0079, -0.046 -0.0103 0.0079, -0.0476 -0.0076 0.0079, -0.0488 -0.0039 0.0079, -0.0465 0.0097 0.0079, -0.0446 0.0117 0.0079, -0.0417 0.0136 0.0079
            ]
        }
        coordIndex [
            0,1,2,-1,2,1,3,-1,2,3,4,-1,4,3,5,-1,4,5,6,-1,6,5,7,-1,8,9,10,-1,10,9,11,-1,10,11,12,-1,13,14,10,-1,10,14,15,-1,10,15,16,-1,12,17,10,-1,10,17,18,-1,10,18,19,-1,19,20,10,-1,10,20,21,-1,10,21,13,-1,22,23,15,-1,15,23,24,-1,15,24,16,-1,
        ]
    }
}