#VRML V2.0 utf8
# 3D model generated by kicad-lcsc-manager
# Based on easyeda2kicad.py v1.0.1

Shape{
    appearance Appearance {
        material  Material {
            diffuseColor 0.6470588235294118 0.6470588235294118 0.6470588235294118
            specularColor 0.3215686274509804 0.3215686274509804 0.3215686274509804
            ambientIntensity 0.6471
            transparency 0.0
            shininess 0.5
        }
    }
    geometry IndexedFaceSet {
        ccw TRUE
        solid FALSE
        coord DEF co Coordinate {
            point [
                1.811 2.0079 1.624, -1.811 2.0079 1.624, -0.2332 0.165 1.624, 0.1702 -0.2287 1.624, 0.1221 -0.2287 1.624, -1.811 -2.0079 1.624, 0.3869 0.165 1.624, 0.4438 0.1589 1.624, 1.9502 1.9502 1.624, 0.5331 0.1137 1.624, 0.5609 0.0828 1.624, 2.0079 1.811 1.624, -0.5084 -0.015 1.624, -0.53 0.005 1.624, -0.55 -0.1555 1.624, -0.3575 -0.043 1.624, -0.3315 -0.0673 1.624, -0.3244 0.1014 1.624, -0.3189 -0.0872 1.624, -0.312 -0.1073 1.624, 1.9502 -1.9502 1.624, 1.9815 -1.9094 1.624, 0.5504 -0.156 1.624, 0.2758 0.165 1.624, 0.1702 0.165 1.624, 0.2758 -0.2287 1.624, 0.4898 0.1427 1.624, 0.5327 0.114 1.624, 1.9815 1.9095 1.624, -0.4136 -0.0105 1.624, -0.3541 0.1168 1.624, -0.4502 0.0088 1.624, -0.3878 0.1249 1.624, -0.415 0.1266 1.624, 0.4769 -0.2109 1.624, 1.811 -2.0079 1.624, 0.518 -0.187 1.624, 1.862 -2.0012 1.624, 1.9094 -1.9815 1.624, 0.5871 -0.0796 1.624, 0.573 -0.1208 1.624, 2.0079 -1.811 1.624, 2.0011 -1.862 1.624, 0.3828 -0.2287 1.624, 0.4315 -0.2244 1.624, 0.5792 0.0489 1.624, 0.5898 0.0101 1.624, 0.5927 -0.0269 1.624, 0.1077 0.165 1.624, -0.1659 0.165 1.624, -0.0114 -0.1027 1.624, -0.0494 -0.1038 1.624, -0.0209 -0.1272 1.624, -0.0398 -0.1275 1.624, -0.0301 -0.1519 1.624, -0.0319 -0.1519 1.624, -0.1851 0.1122 1.624, -0.1866 0.1122 1.624, -0.1802 0.0908 1.624, -0.1854 0.072 1.624, -0.1736 0.0699 1.624, -0.0459 -0.2287 1.624, 0.1233 0.0732 1.624, 0.126 0.1122 1.624, 0.1247 0.1122 1.624, -2.0012 1.862 1.624, -2.0079 1.811 1.624, 1.862 2.0012 1.624, 1.9094 1.9815 1.624, 0.1196 0.092 1.624, 0.113 0.0722 1.624, 0.1221 0.0341 1.624, -0.0171 -0.2287 1.624, -1.862 2.0012 1.624, -1.9095 1.9815 1.624, -1.9502 1.9502 1.624, 2.0011 1.862 1.624, -0.5412 0.0231 1.624, -0.548 0.0438 1.624, -0.55 0.0642 1.624, -0.5465 0.0914 1.624, -0.31 -0.1272 1.624, -0.3131 -0.1549 1.624, -0.2332 -0.2287 1.624, -0.3204 -0.1748 1.624, -0.3331 -0.1933 1.624, -2.0079 -1.811 1.624, -0.55 -0.2131 1.624, -0.4538 -0.0475 1.624, -0.5213 -0.1732 1.624, -0.4003 -0.0759 1.624, -0.4746 -0.1875 1.624, -0.3948 -0.0794 1.624, -0.4451 -0.1903 1.624, -0.4165 -0.1881 1.624, -0.5388 0.1102 1.624, -0.5264 0.1273 1.624, -0.5095 0.142 1.624, -0.4874 0.1547 1.624, -0.4543 0.1656 1.624, -0.4108 0.1698 1.624, -0.3671 0.1679 1.624, -0.3244 0.159 1.624, -0.4913 0.0435 1.624, -0.4955 0.0543 1.624, -0.4972 0.0693 1.624, -0.4847 0.0337 1.624, -0.4726 0.0231 1.624, -1.9815 1.9095 1.624, -0.4868 0.1003 1.624, -0.4925 0.0914 1.624, -0.496 0.0813 1.624, -0.3496 -0.2076 1.624, -0.1851 -0.2287 1.624, -0.1851 0.0318 1.624, -0.3965 -0.1827 1.624, -0.3824 -0.1749 1.624, -0.3742 -0.1672 1.624, -0.4426 0.1241 1.624, -0.4635 0.1174 1.624, -0.4778 0.109 1.624, -0.3718 -0.2198 1.624, -0.4102 -0.2305 1.624, -0.4509 -0.2335 1.624, -0.369 -0.1594 1.624, -0.3644 -0.1471 1.624, -0.3628 -0.1316 1.624, -0.3645 -0.1176 1.624, -0.369 -0.1064 1.624, -0.3786 -0.0932 1.624, -2.0012 -1.862 1.624, -1.9815 -1.9094 1.624, -1.9502 -1.9502 1.624, -0.5016 -0.2283 1.624, -0.5374 -0.2191 1.624, -1.862 -2.0012 1.624, -1.9095 -1.9815 1.624
            ]
        }
        coordIndex [
            0,1,2,-1,3,4,5,-1,6,7,8,-1,9,10,11,-1,12,13,14,-1,15,16,17,-1,17,16,18,-1,17,18,19,-1,20,21,22,-1,6,8,23,-1,23,8,24,-1,23,24,25,-1,7,26,8,-1,8,26,27,-1,8,27,28,-1,15,17,29,-1,29,17,30,-1,29,30,31,-1,31,30,32,-1,31,32,33,-1,34,35,36,-1,36,35,37,-1,36,37,22,-1,22,37,38,-1,22,38,20,-1,39,40,41,-1,41,40,22,-1,41,22,42,-1,42,22,21,-1,24,3,25,-1,25,3,5,-1,25,5,43,-1,43,5,35,-1,43,35,44,-1,44,35,34,-1,10,45,11,-1,11,45,46,-1,11,46,41,-1,41,46,47,-1,41,47,39,-1,48,49,50,-1,50,49,51,-1,50,51,52,-1,52,51,53,-1,52,53,54,-1,54,53,55,-1,56,57,58,-1,58,57,59,-1,58,59,60,-1,60,59,61,-1,62,63,64,-1,65,66,1,-1,2,49,0,-1,0,49,48,-1,0,48,67,-1,67,48,24,-1,67,24,68,-1,68,24,8,-1,64,69,62,-1,62,69,70,-1,62,70,71,-1,71,70,72,-1,73,74,75,-1,9,11,27,-1,27,11,76,-1,27,76,28,-1,13,77,14,-1,14,77,78,-1,14,78,1,-1,1,78,79,-1,1,79,80,-1,61,5,72,-1,72,5,4,-1,72,4,71,-1,81,82,83,-1,83,82,84,-1,83,84,85,-1,1,66,14,-1,14,66,86,-1,14,86,87,-1,12,14,88,-1,88,14,89,-1,88,89,90,-1,90,89,91,-1,90,91,92,-1,92,91,93,-1,92,93,94,-1,80,95,1,-1,1,95,96,-1,1,96,97,-1,97,98,1,-1,1,98,99,-1,1,99,100,-1,100,101,1,-1,1,101,102,-1,1,102,2,-1,2,102,17,-1,2,17,83,-1,83,17,19,-1,83,19,81,-1,103,33,104,-1,104,33,105,-1,103,106,33,-1,33,106,107,-1,33,107,31,-1,73,75,1,-1,1,75,108,-1,1,108,65,-1,109,110,111,-1,85,112,83,-1,83,112,5,-1,83,5,113,-1,113,5,61,-1,113,61,114,-1,114,61,59,-1,94,115,92,-1,92,115,116,-1,92,116,117,-1,33,118,105,-1,105,118,119,-1,105,119,111,-1,111,119,120,-1,111,120,109,-1,112,121,5,-1,5,121,122,-1,5,122,123,-1,117,124,92,-1,92,124,125,-1,92,125,126,-1,127,128,126,-1,126,128,129,-1,126,129,92,-1,86,130,87,-1,87,130,131,-1,87,131,132,-1,123,133,5,-1,5,133,134,-1,5,134,135,-1,135,134,87,-1,135,87,136,-1,136,87,132,-1,
        ]
    }
}
Shape{
    appearance Appearance {
        material  Material {
            diffuseColor 0.8549019607843137 0.8549019607843137 0.8549019607843137
            specularColor 0.42745098039215684 0.42745098039215684 0.42745098039215684
            ambientIntensity 0.8549
            transparency 0.0
            shininess 0.5
        }
    }
    geometry IndexedFaceSet {
        ccw TRUE
        solid FALSE
        coord DEF co Coordinate {
            point [
                -2.103 -0.5905 0.8129, -2.103 -0.0929 0.8129, -2.1063 -0.5905 0.7874, -2.103 -0.0928 0.8128, -2.1053 -0.0827 0.8015, -2.106 -0.0708 0.7918, -2.1063 -0.0653 0.7874, -2.0852 -0.112 0.8483, -2.0916 -0.1083 0.8389, -2.0931 -0.5905 0.8366, -2.0931 -0.1074 0.8366, -2.099 -0.101 0.8246, -2.0775 -0.1145 0.857, -2.0775 -0.5905 0.857, -2.0669 -0.1164 0.8661, -2.0571 -0.5905 0.8726, -2.0669 0.1165 0.8661, -2.0571 0.5906 0.8726, -2.0775 0.1145 0.857, -2.0775 0.5906 0.857, -2.0853 0.112 0.8482, -2.0931 0.5906 0.8366, -2.0918 0.1084 0.8389, -2.103 0.5906 0.8129, -2.099 0.101 0.8246, -2.093 0.1072 0.8365, -2.1063 0.5906 0.7874, -2.1063 0.0653 0.7874, -2.1062 0.0711 0.7915, -2.1053 0.0826 0.8014, -2.103 0.0928 0.8128, -2.103 0.0929 0.8129, -2.0334 -0.5905 0.8825, -2.0334 0.5906 0.8825, -2.0079 -0.5905 0.8858, -2.0079 0.5906 0.8858
            ]
        }
        coordIndex [
            0,1,2,-1,2,1,3,-1,3,4,2,-1,2,4,5,-1,2,5,6,-1,7,8,9,-1,9,8,10,-1,9,10,0,-1,0,10,11,-1,0,11,1,-1,7,9,12,-1,12,9,13,-1,12,13,14,-1,14,13,15,-1,14,15,16,-1,16,17,18,-1,18,17,19,-1,18,19,20,-1,20,19,21,-1,20,21,22,-1,23,24,21,-1,21,24,25,-1,21,25,22,-1,26,27,28,-1,28,29,26,-1,26,29,30,-1,26,30,23,-1,23,30,31,-1,23,31,24,-1,16,15,17,-1,17,15,32,-1,17,32,33,-1,33,32,34,-1,33,34,35,-1,
        ]
    }
}
Shape{
    appearance Appearance {
        material  Material {
            diffuseColor 0.6470588235294118 0.6470588235294118 0.6470588235294118
            specularColor 0.3215686274509804 0.3215686274509804 0.3215686274509804
            ambientIntensity 0.6471
            transparency 0.0
            shininess 0.5
        }
    }
    geometry IndexedFaceSet {
        ccw TRUE
        solid FALSE
        coord DEF co Coordinate {
            point [
                0.2696 0.2372 0.0492, 0.3006 0.2337 0.0492, 0.2015 0.0007 0.0492, 0.1959 0.0039 0.0492, 0.1959 -0.0307 0.0492, 0.1651 -0.0489 0.0492, 2.0079 0.6496 0.0492, 1.0039 0.6496 0.0492, 2.0079 1.811 0.0492, 0.1651 2.0079 0.0492, 1.9502 1.9502 0.0492, 1.9815 1.9095 0.0492, 1.9094 1.9815 0.0492, 1.862 2.0012 0.0492, 1.811 2.0079 0.0492, 2.0011 1.862 0.0492, 0.3519 -0.0363 0.0492, 0.4571 -0.047 0.0492, 0.3213 -0.0468 0.0492, 0.3011 -0.0489 0.0492, 0.3242 0.2252 0.0492, 0.346 0.2106 0.0492, 0.365 0.1896 0.0492, 0.3879 0.1071 0.0492, 0.3847 0.073 0.0492, 0.3762 0.0459 0.0492, 0.3061 -0.013 0.0492, 0.2767 -0.0163 0.0492, 0.329 -0.0046 0.0492, 0.3484 0.0085 0.0492, 0.3631 0.0241 0.0492, 0.2349 -0.0117 0.0492, 0.2313 0.2322 0.0492, 0.1959 0.217 0.0492, 0.1959 0.2593 0.0492, 0.378 0.1653 0.0492, 0.3864 0.1316 0.0492, 0.4135 0.185 0.0492, 0.3951 0.2144 0.0492, 0.5761 0.2679 0.0492, 0.6184 0.2679 0.0492, 0.6184 -0.047 0.0492, 1.0039 -0.0489 0.0492, 0.3772 -0.0202 0.0492, 0.4009 0.0047 0.0492, 0.4571 -0.0125 0.0492, 0.4176 0.0347 0.0492, 0.5761 -0.0125 0.0492, 0.3667 0.2418 0.0492, 0.3367 0.259 0.0492, 0.3016 0.2692 0.0492, 0.4271 0.068 0.0492, 0.4302 0.1045 0.0492, 0.4256 0.1493 0.0492, 0.27 0.2718 0.0492, 0.2323 0.2692 0.0492, 0.1651 -2.0079 0.0492, 1.0039 -0.6496 0.0492, 1.811 -2.0079 0.0492, 2.0079 -0.6496 0.0492, 0.2294 -0.0445 0.0492, 0.2613 -0.0489 0.0492, 0.2739 -0.0507 0.0492, 0.2825 -0.0509 0.0492, 1.9502 -1.9502 0.0492, 1.9094 -1.9815 0.0492, 1.9815 -1.9094 0.0492, 2.0011 -1.862 0.0492, 2.0079 -1.811 0.0492, 1.862 -2.0012 0.0492, -0.0346 -0.047 0.0492, 0.1344 -0.047 0.0492, 0.1344 0.2679 0.0492, -0.3338 0.0393 0.0492, -0.3158 0.0111 0.0492, -0.3726 -0.047 0.0492, -0.2898 -0.0137 0.0492, -0.0269 0.2334 0.0492, 0.0922 0.2334 0.0492, 0.0922 0.1297 0.0492, -0.2569 -0.0328 0.0492, -0.2207 -0.0436 0.0492, -0.1817 -0.047 0.0492, -1.004 0.6496 0.0492, -2.0079 0.6496 0.0492, -2.0079 1.811 0.0492, -0.096 0.2679 0.0492, -0.0192 0.1297 0.0492, -0.0192 0.0951 0.0492, 0.0922 0.0951 0.0492, 0.0922 -0.0125 0.0492, -0.0346 -0.0125 0.0492, -0.096 -0.047 0.0492, -0.0269 0.2679 0.0492, -1.004 -0.0489 0.0492, -0.6568 -0.047 0.0492, -0.6107 -0.047 0.0492, -0.2304 0.2631 0.0492, -0.2673 0.2501 0.0492, -0.4917 0.2679 0.0492, -0.3016 0.2272 0.0492, -1.811 2.0079 0.0492, -0.1849 0.2679 0.0492, -2.0012 1.862 0.0492, -1.9815 1.9095 0.0492, -1.9502 1.9502 0.0492, -0.4187 -0.047 0.0492, -0.3019 0.2269 0.0492, -0.3242 0.2022 0.0492, -0.3388 0.1751 0.0492, -0.3473 0.1441 0.0492, -0.3495 0.1144 0.0492, -0.3451 0.0723 0.0492, -0.5339 0.2679 0.0492, -1.9095 1.9815 0.0492, -1.862 2.0012 0.0492, -2.0079 -1.811 0.0492, -2.0079 -0.6496 0.0492, -1.004 -0.6496 0.0492, -0.5789 0.0413 0.0492, -0.4488 0.0413 0.0492, -1.9815 -1.9094 0.0492, -1.862 -2.0012 0.0492, -1.9502 -1.9502 0.0492, -1.9095 -1.9815 0.0492, -1.811 -2.0079 0.0492, -2.0012 -1.862 0.0492, 2.0079 1.811 1.624, 2.0079 -1.811 1.624, 2.0079 -0.5905 0.8858, 2.0079 -0.6102 0.0886, 2.0079 -0.5905 0.0886, 2.0079 -0.5905 0.0984, 2.0079 0.6102 0.0886, 2.0079 -0.5905 0.7874, 2.0079 0.5906 0.8858, 2.0079 0.5906 0.7874, 2.0079 0.5906 0.0984, 2.0079 0.5906 0.0886, -1.811 2.0079 1.624, 1.811 2.0079 1.624, -2.0079 -1.811 1.624, -2.0079 1.811 1.624, -2.0079 0.5906 0.8858, -2.0079 0.6102 0.0886, -2.0079 0.5906 0.0886, -2.0079 0.5906 0.0984, -2.0079 -0.6102 0.0886, -2.0079 0.5906 0.7874, -2.0079 -0.5905 0.8858, -2.0079 -0.5905 0.7874, -2.0079 -0.5905 0.0984, -2.0079 -0.5905 0.0886, -1.811 -2.0079 1.624, 1.811 -2.0079 1.624, 1.862 -2.0012 1.624, 1.9094 -1.9815 1.624, 1.9502 -1.9502 1.624, 1.9815 -1.9094 1.624, 2.0011 -1.862 1.624, -2.0012 -1.862 1.624, -1.9815 -1.9094 1.624, -1.9502 -1.9502 1.624, -1.9095 -1.9815 1.624, -1.862 -2.0012 1.624, 2.0011 1.862 1.624, 1.9815 1.9095 1.624, 1.9502 1.9502 1.624, 1.9094 1.9815 1.624, 1.862 2.0012 1.624, -1.862 2.0012 1.624, -1.9095 1.9815 1.624, -1.9502 1.9502 1.624, -1.9815 1.9095 1.624, -2.0012 1.862 1.624, -1.1221 -0.5905 0.0886, -1.1221 0.5906 0.0886, -1.0433 0.6102 0.0886, -1.0433 -0.6102 0.0886, 1.122 0.5906 0.0886, 1.122 -0.5905 0.0886, 1.0433 -0.6102 0.0886, 1.0433 0.6102 0.0886
            ]
        }
        coordIndex [
            0,1,2,-1,3,4,5,-1,6,7,8,-1,8,7,9,-1,10,11,12,-1,12,11,13,-1,9,14,8,-1,8,14,13,-1,8,13,15,-1,15,13,11,-1,16,17,18,-1,18,17,19,-1,1,20,2,-1,2,20,21,-1,2,21,22,-1,23,24,2,-1,2,24,25,-1,26,27,28,-1,28,27,29,-1,25,30,2,-1,2,30,29,-1,2,29,31,-1,31,29,27,-1,0,2,32,-1,32,2,3,-1,32,3,33,-1,33,3,9,-1,33,9,34,-1,22,35,2,-1,2,35,36,-1,2,36,23,-1,37,38,39,-1,39,38,9,-1,39,9,40,-1,40,9,7,-1,40,7,41,-1,41,7,42,-1,16,43,17,-1,17,43,44,-1,17,44,45,-1,45,44,46,-1,45,46,47,-1,38,48,9,-1,9,48,49,-1,9,49,50,-1,46,51,47,-1,47,51,52,-1,47,52,39,-1,39,52,53,-1,39,53,37,-1,50,54,9,-1,9,54,55,-1,9,55,34,-1,56,57,58,-1,58,57,59,-1,4,60,5,-1,5,60,61,-1,5,61,56,-1,56,61,62,-1,56,62,57,-1,57,62,63,-1,57,63,42,-1,42,63,19,-1,42,19,41,-1,41,19,17,-1,64,65,66,-1,66,65,67,-1,59,68,58,-1,58,68,67,-1,58,67,69,-1,69,67,65,-1,70,71,5,-1,5,71,72,-1,73,74,75,-1,75,74,76,-1,77,78,79,-1,76,80,75,-1,75,80,81,-1,75,81,82,-1,83,84,85,-1,86,87,88,-1,89,90,88,-1,88,90,91,-1,88,91,86,-1,86,91,70,-1,86,70,92,-1,92,70,5,-1,79,87,77,-1,77,87,86,-1,77,86,93,-1,94,95,96,-1,97,98,99,-1,99,98,100,-1,3,5,9,-1,9,5,72,-1,9,72,101,-1,101,72,93,-1,101,93,83,-1,83,93,86,-1,83,86,102,-1,85,103,83,-1,83,103,104,-1,83,104,105,-1,106,75,5,-1,5,75,82,-1,5,82,92,-1,100,107,99,-1,99,107,108,-1,99,108,109,-1,109,110,99,-1,99,110,111,-1,99,111,75,-1,75,111,112,-1,75,112,73,-1,95,94,113,-1,113,94,83,-1,113,83,99,-1,99,83,102,-1,99,102,97,-1,105,114,83,-1,83,114,115,-1,83,115,101,-1,116,117,118,-1,119,120,96,-1,96,120,106,-1,96,106,94,-1,94,106,5,-1,94,5,118,-1,118,5,56,-1,118,56,116,-1,121,122,123,-1,123,122,124,-1,56,125,116,-1,116,125,122,-1,116,122,126,-1,126,122,121,-1,127,128,129,-1,68,59,128,-1,128,59,130,-1,130,131,132,-1,6,8,133,-1,133,8,127,-1,130,132,128,-1,128,132,134,-1,128,134,129,-1,129,135,127,-1,127,135,136,-1,127,136,133,-1,133,136,137,-1,133,137,138,-1,101,139,9,-1,9,139,140,-1,9,140,14,-1,141,142,143,-1,85,84,142,-1,142,84,144,-1,144,145,146,-1,117,116,147,-1,147,116,141,-1,144,146,142,-1,142,146,148,-1,142,148,143,-1,143,149,141,-1,141,149,150,-1,141,150,147,-1,147,150,151,-1,147,151,152,-1,153,125,154,-1,154,125,56,-1,154,56,58,-1,154,58,69,-1,154,69,155,-1,155,69,65,-1,155,65,156,-1,156,65,64,-1,156,64,157,-1,157,64,66,-1,157,66,158,-1,158,66,67,-1,158,67,159,-1,159,67,68,-1,159,68,128,-1,141,116,126,-1,141,126,160,-1,160,126,121,-1,160,121,161,-1,161,121,123,-1,161,123,162,-1,162,123,124,-1,162,124,163,-1,163,124,122,-1,163,122,164,-1,164,122,125,-1,164,125,153,-1,127,8,15,-1,127,15,165,-1,165,15,11,-1,165,11,166,-1,166,11,10,-1,166,10,167,-1,167,10,12,-1,167,12,168,-1,168,12,13,-1,168,13,169,-1,169,13,14,-1,169,14,140,-1,139,101,115,-1,139,115,170,-1,170,115,114,-1,170,114,171,-1,171,114,105,-1,171,105,172,-1,172,105,104,-1,172,104,173,-1,173,104,103,-1,173,103,174,-1,174,103,85,-1,174,85,142,-1,147,152,175,-1,145,144,176,-1,176,144,177,-1,176,177,175,-1,175,177,178,-1,175,178,147,-1,133,138,179,-1,131,130,180,-1,180,130,181,-1,180,181,179,-1,179,181,182,-1,179,182,133,-1,178,118,147,-1,147,118,117,-1,118,178,94,-1,94,178,177,-1,94,177,83,-1,83,177,84,-1,84,177,144,-1,182,7,133,-1,133,7,6,-1,7,182,42,-1,42,182,181,-1,42,181,57,-1,57,181,59,-1,59,181,130,-1,
        ]
    }
}
Shape{
    appearance Appearance {
        material  Material {
            diffuseColor 0.25098039215686274 0.25098039215686274 0.25098039215686274
            specularColor 0.12549019607843137 0.12549019607843137 0.12549019607843137
            ambientIntensity 0.251
            transparency 0.0
            shininess 0.5
        }
    }
    geometry IndexedFaceSet {
        ccw TRUE
        solid FALSE
        coord DEF co Coordinate {
            point [
                -0.5339 0.2679 0.0531, -0.6568 -0.047 0.0531, -0.5339 0.2679 0.0492, -0.6568 -0.047 0.0492, -0.6107 -0.047 0.0531, -0.6107 -0.047 0.0492, -0.5789 0.0413 0.0531, -0.5789 0.0413 0.0492, -0.4488 0.0413 0.0531, -0.4488 0.0413 0.0492, -0.4187 -0.047 0.0531, -0.4187 -0.047 0.0492, -0.3726 -0.047 0.0531, -0.3726 -0.047 0.0492, -0.4917 0.2679 0.0531, -0.4917 0.2679 0.0492, -0.4594 0.0759 0.0531, -0.5647 0.0759 0.0531, -0.5064 0.2074 0.0531, -0.5094 0.2184 0.0531, -0.5114 0.2295 0.0531, -0.5124 0.2295 0.0531, -0.5145 0.2184 0.0531, -0.5173 0.2074 0.0531, -0.4594 0.0759 0.0492, -0.5647 0.0759 0.0492, -0.5064 0.2074 0.0492, -0.5094 0.2184 0.0492, -0.5114 0.2295 0.0492, -0.5124 0.2295 0.0492, -0.5145 0.2184 0.0492, -0.5173 0.2074 0.0492, -0.1817 -0.047 0.0531, -0.096 -0.047 0.0531, -0.1817 -0.047 0.0492, -0.096 -0.047 0.0492, -0.096 0.2679 0.0531, -0.096 0.2679 0.0492, -0.1849 0.2679 0.0531, -0.1849 0.2679 0.0492, -0.3495 0.1144 0.0531, -0.3495 0.1144 0.0492, -0.3473 0.1441 0.0492, -0.3473 0.1441 0.0531, -0.3388 0.1751 0.0492, -0.3388 0.1751 0.0531, -0.3242 0.2022 0.0492, -0.3242 0.2022 0.0531, -0.3019 0.2269 0.0492, -0.3019 0.2269 0.0531, -0.3016 0.2272 0.0492, -0.3016 0.2272 0.0531, -0.2673 0.2501 0.0492, -0.2673 0.2501 0.0531, -0.2304 0.2631 0.0492, -0.2304 0.2631 0.0531, -0.2207 -0.0436 0.0492, -0.2207 -0.0436 0.0531, -0.2569 -0.0328 0.0492, -0.2569 -0.0328 0.0531, -0.2898 -0.0137 0.0492, -0.2898 -0.0137 0.0531, -0.3158 0.0111 0.0492, -0.3158 0.0111 0.0531, -0.3338 0.0393 0.0492, -0.3338 0.0393 0.0531, -0.3451 0.0723 0.0492, -0.3451 0.0723 0.0531, -0.2863 0.1892 0.0531, -0.271 0.2054 0.0531, -0.248 0.2203 0.0531, -0.222 0.2294 0.0531, -0.1847 0.2334 0.0531, -0.1383 0.2334 0.0531, -0.1383 -0.0125 0.0531, -0.183 -0.0125 0.0531, -0.2162 -0.0094 0.0531, -0.2427 -0.0011 0.0531, -0.2642 0.0117 0.0531, -0.2819 0.0291 0.0531, -0.2952 0.0508 0.0531, -0.3044 0.0804 0.0531, -0.3073 0.1135 0.0531, -0.3046 0.1449 0.0531, -0.2973 0.1698 0.0531, -0.1847 0.2334 0.0492, -0.1383 0.2334 0.0492, -0.222 0.2294 0.0492, -0.248 0.2203 0.0492, -0.271 0.2054 0.0492, -0.2863 0.1892 0.0492, -0.2973 0.1698 0.0492, -0.3046 0.1449 0.0492, -0.3073 0.1135 0.0492, -0.3044 0.0804 0.0492, -0.2952 0.0508 0.0492, -0.2819 0.0291 0.0492, -0.2642 0.0117 0.0492, -0.2427 -0.0011 0.0492, -0.2162 -0.0094 0.0492, -0.183 -0.0125 0.0492, -0.1383 -0.0125 0.0492, -0.0346 -0.0125 0.0531, -0.0346 -0.047 0.0531, -0.0346 -0.0125 0.0492, -0.0346 -0.047 0.0492, 0.1344 -0.047 0.0531, 0.1344 -0.047 0.0492, 0.1344 0.2679 0.0531, 0.1344 0.2679 0.0492, -0.0269 0.2679 0.0531, -0.0269 0.2679 0.0492, -0.0269 0.2334 0.0531, -0.0269 0.2334 0.0492, 0.0922 0.2334 0.0531, 0.0922 0.2334 0.0492, 0.0922 0.1297 0.0531, 0.0922 0.1297 0.0492, -0.0192 0.1297 0.0531, -0.0192 0.1297 0.0492, -0.0192 0.0951 0.0531, -0.0192 0.0951 0.0492, 0.0922 0.0951 0.0531, 0.0922 0.0951 0.0492, 0.0922 -0.0125 0.0531, 0.0922 -0.0125 0.0492, 0.1959 0.0039 0.0531, 0.1959 -0.0307 0.0531, 0.1959 0.0039 0.0492, 0.1959 -0.0307 0.0492, 0.2294 -0.0445 0.0531, 0.2825 -0.0509 0.0531, 0.2825 -0.0509 0.0492, 0.2739 -0.0507 0.0492, 0.2739 -0.0507 0.0531, 0.2613 -0.0489 0.0492, 0.2294 -0.0445 0.0492, 0.3011 -0.0489 0.0492, 0.3213 -0.0468 0.0531, 0.3213 -0.0468 0.0492, 0.3519 -0.0363 0.0531, 0.3519 -0.0363 0.0492, 0.3772 -0.0202 0.0531, 0.3772 -0.0202 0.0492, 0.4009 0.0047 0.0531, 0.4009 0.0047 0.0492, 0.4176 0.0347 0.0531, 0.4176 0.0347 0.0492, 0.4271 0.068 0.0531, 0.4271 0.068 0.0492, 0.4302 0.1045 0.0531, 0.4302 0.1045 0.0492, 0.27 0.2718 0.0531, 0.27 0.2718 0.0492, 0.3016 0.2692 0.0492, 0.3016 0.2692 0.0531, 0.3367 0.259 0.0492, 0.3367 0.259 0.0531, 0.3667 0.2418 0.0492, 0.3667 0.2418 0.0531, 0.3951 0.2144 0.0492, 0.3951 0.2144 0.0531, 0.4135 0.185 0.0492, 0.4135 0.185 0.0531, 0.4256 0.1493 0.0492, 0.4256 0.1493 0.0531, 0.1959 0.2593 0.0531, 0.1959 0.2593 0.0492, 0.2323 0.2692 0.0492, 0.2323 0.2692 0.0531, 0.1959 0.217 0.0531, 0.1959 0.217 0.0492, 0.2696 0.2372 0.0531, 0.2696 0.2372 0.0492, 0.2313 0.2322 0.0492, 0.2313 0.2322 0.0531, 0.3879 0.1071 0.0531, 0.3879 0.1071 0.0492, 0.3864 0.1316 0.0492, 0.3864 0.1316 0.0531, 0.378 0.1653 0.0492, 0.378 0.1653 0.0531, 0.365 0.1896 0.0492, 0.365 0.1896 0.0531, 0.346 0.2106 0.0492, 0.346 0.2106 0.0531, 0.3242 0.2252 0.0492, 0.3242 0.2252 0.0531, 0.3006 0.2337 0.0492, 0.3006 0.2337 0.0531, 0.2767 -0.0163 0.0531, 0.2767 -0.0163 0.0492, 0.3061 -0.013 0.0492, 0.3061 -0.013 0.0531, 0.329 -0.0046 0.0492, 0.329 -0.0046 0.0531, 0.3484 0.0085 0.0492, 0.3484 0.0085 0.0531, 0.3631 0.0241 0.0492, 0.3631 0.0241 0.0531, 0.3762 0.0459 0.0492, 0.3762 0.0459 0.0531, 0.3847 0.073 0.0492, 0.3847 0.073 0.0531, 0.2015 0.0007 0.0492, 0.2015 0.0007 0.0531, 0.2349 -0.0117 0.0492, 0.2349 -0.0117 0.0531, 0.4571 -0.0125 0.0531, 0.4571 -0.047 0.0531, 0.4571 -0.0125 0.0492, 0.4571 -0.047 0.0492, 0.6184 -0.047 0.0531, 0.6184 -0.047 0.0492, 0.6184 0.2679 0.0531, 0.6184 0.2679 0.0492, 0.5761 0.2679 0.0531, 0.5761 0.2679 0.0492, 0.5761 -0.0125 0.0531, 0.5761 -0.0125 0.0492
            ]
        }
        coordIndex [
            0,1,2,-1,2,1,3,-1,1,4,3,-1,3,4,5,-1,4,6,5,-1,5,6,7,-1,6,8,7,-1,7,8,9,-1,8,10,9,-1,9,10,11,-1,10,12,11,-1,11,12,13,-1,12,14,13,-1,13,14,15,-1,14,0,15,-1,15,0,2,-1,16,8,17,-1,17,8,6,-1,18,14,16,-1,16,14,12,-1,16,12,8,-1,8,12,10,-1,18,19,14,-1,14,19,20,-1,14,20,0,-1,0,20,21,-1,0,21,22,-1,22,23,0,-1,0,23,17,-1,0,17,1,-1,1,17,6,-1,1,6,4,-1,16,17,24,-1,24,17,25,-1,18,16,26,-1,26,16,24,-1,18,26,27,-1,18,27,19,-1,19,27,28,-1,19,28,20,-1,21,20,29,-1,29,20,28,-1,21,29,30,-1,21,30,22,-1,22,30,31,-1,22,31,23,-1,17,23,25,-1,25,23,31,-1,32,33,34,-1,34,33,35,-1,33,36,35,-1,35,36,37,-1,36,38,37,-1,37,38,39,-1,40,41,42,-1,40,42,43,-1,43,42,44,-1,43,44,45,-1,45,44,46,-1,45,46,47,-1,47,46,48,-1,47,48,49,-1,49,48,50,-1,49,50,51,-1,51,50,52,-1,51,52,53,-1,53,52,54,-1,53,54,55,-1,55,54,39,-1,55,39,38,-1,32,34,56,-1,32,56,57,-1,57,56,58,-1,57,58,59,-1,59,58,60,-1,59,60,61,-1,61,60,62,-1,61,62,63,-1,63,62,64,-1,63,64,65,-1,65,64,66,-1,65,66,67,-1,67,66,41,-1,67,41,40,-1,45,47,68,-1,68,47,49,-1,68,49,69,-1,69,49,51,-1,69,51,70,-1,70,51,53,-1,70,53,71,-1,71,53,55,-1,71,55,72,-1,72,55,38,-1,72,38,73,-1,73,38,36,-1,73,36,74,-1,74,36,33,-1,74,33,75,-1,75,33,32,-1,75,32,76,-1,76,32,57,-1,76,57,77,-1,77,57,59,-1,77,59,78,-1,78,59,61,-1,78,61,79,-1,79,61,63,-1,79,63,80,-1,80,63,65,-1,80,65,81,-1,81,65,67,-1,81,67,82,-1,82,67,40,-1,82,40,83,-1,83,40,43,-1,83,43,84,-1,84,43,45,-1,84,45,68,-1,72,73,85,-1,85,73,86,-1,72,85,87,-1,72,87,71,-1,71,87,88,-1,71,88,70,-1,70,88,89,-1,70,89,69,-1,69,89,90,-1,69,90,68,-1,68,90,91,-1,68,91,84,-1,84,91,92,-1,84,92,83,-1,83,92,93,-1,83,93,82,-1,82,93,94,-1,82,94,81,-1,81,94,95,-1,81,95,80,-1,80,95,96,-1,80,96,79,-1,79,96,97,-1,79,97,78,-1,78,97,98,-1,78,98,77,-1,77,98,99,-1,77,99,76,-1,76,99,100,-1,76,100,75,-1,74,75,101,-1,101,75,100,-1,73,74,86,-1,86,74,101,-1,102,103,104,-1,104,103,105,-1,103,106,105,-1,105,106,107,-1,106,108,107,-1,107,108,109,-1,108,110,109,-1,109,110,111,-1,110,112,111,-1,111,112,113,-1,112,114,113,-1,113,114,115,-1,114,116,115,-1,115,116,117,-1,116,118,117,-1,117,118,119,-1,118,120,119,-1,119,120,121,-1,120,122,121,-1,121,122,123,-1,122,124,123,-1,123,124,125,-1,124,102,125,-1,125,102,104,-1,106,103,102,-1,102,124,106,-1,106,124,122,-1,106,122,108,-1,112,110,114,-1,114,110,108,-1,114,108,116,-1,116,108,122,-1,116,122,118,-1,118,122,120,-1,126,127,128,-1,128,127,129,-1,129,127,130,-1,131,132,133,-1,131,133,134,-1,134,133,135,-1,134,135,130,-1,130,135,136,-1,130,136,129,-1,132,131,137,-1,137,131,138,-1,137,138,139,-1,139,138,140,-1,139,140,141,-1,141,140,142,-1,141,142,143,-1,143,142,144,-1,143,144,145,-1,145,144,146,-1,145,146,147,-1,147,146,148,-1,147,148,149,-1,149,148,150,-1,149,150,151,-1,152,153,154,-1,152,154,155,-1,155,154,156,-1,155,156,157,-1,157,156,158,-1,157,158,159,-1,159,158,160,-1,159,160,161,-1,161,160,162,-1,161,162,163,-1,163,162,164,-1,163,164,165,-1,165,164,151,-1,165,151,150,-1,166,167,168,-1,166,168,169,-1,169,168,153,-1,169,153,152,-1,166,170,167,-1,167,170,171,-1,172,173,174,-1,172,174,175,-1,175,174,171,-1,175,171,170,-1,176,177,178,-1,176,178,179,-1,179,178,180,-1,179,180,181,-1,181,180,182,-1,181,182,183,-1,183,182,184,-1,183,184,185,-1,185,184,186,-1,185,186,187,-1,187,186,188,-1,187,188,189,-1,189,188,173,-1,189,173,172,-1,190,191,192,-1,190,192,193,-1,193,192,194,-1,193,194,195,-1,195,194,196,-1,195,196,197,-1,197,196,198,-1,197,198,199,-1,199,198,200,-1,199,200,201,-1,201,200,202,-1,201,202,203,-1,203,202,177,-1,203,177,176,-1,126,128,204,-1,126,204,205,-1,205,204,206,-1,205,206,207,-1,207,206,191,-1,207,191,190,-1,193,131,190,-1,190,131,134,-1,190,134,207,-1,207,134,130,-1,207,130,205,-1,205,130,127,-1,205,127,126,-1,170,166,175,-1,175,166,169,-1,175,169,172,-1,172,169,152,-1,172,152,189,-1,189,152,155,-1,189,155,187,-1,187,155,157,-1,187,157,185,-1,185,157,159,-1,185,159,183,-1,183,159,161,-1,183,161,181,-1,181,161,163,-1,181,163,179,-1,179,163,165,-1,179,165,176,-1,176,165,150,-1,176,150,203,-1,203,150,148,-1,203,148,201,-1,201,148,146,-1,201,146,199,-1,199,146,144,-1,199,144,197,-1,197,144,142,-1,197,142,195,-1,195,142,140,-1,195,140,193,-1,193,140,138,-1,193,138,131,-1,208,209,210,-1,210,209,211,-1,209,212,211,-1,211,212,213,-1,212,214,213,-1,213,214,215,-1,214,216,215,-1,215,216,217,-1,216,218,217,-1,217,218,219,-1,218,208,219,-1,219,208,210,-1,216,214,218,-1,218,214,212,-1,218,212,208,-1,208,212,209,-1,
        ]
    }
}
Shape{
    appearance Appearance {
        material  Material {
            diffuseColor 0.6470588235294118 0.6470588235294118 0.6470588235294118
            specularColor 0.3215686274509804 0.3215686274509804 0.3215686274509804
            ambientIntensity 0.6471
            transparency 0.0
            shininess 0.5
        }
    }
    geometry IndexedFaceSet {
        ccw TRUE
        solid FALSE
        coord DEF co Coordinate {
            point [
                -0.4594 0.0759 0.0492, -0.5647 0.0759 0.0492, -0.5064 0.2074 0.0492, -0.5173 0.2074 0.0492, -0.5094 0.2184 0.0492, -0.5145 0.2184 0.0492, -0.5114 0.2295 0.0492, -0.5124 0.2295 0.0492, -0.1383 0.2334 0.0492, -0.1383 -0.0125 0.0492, -0.1847 0.2334 0.0492, -0.183 -0.0125 0.0492, -0.2162 -0.0094 0.0492, -0.3073 0.1135 0.0492, -0.3046 0.1449 0.0492, -0.2973 0.1698 0.0492, -0.222 0.2294 0.0492, -0.2427 -0.0011 0.0492, -0.2642 0.0117 0.0492, -0.2819 0.0291 0.0492, -0.2952 0.0508 0.0492, -0.3044 0.0804 0.0492, -0.2863 0.1892 0.0492, -0.271 0.2054 0.0492, -0.248 0.2203 0.0492
            ]
        }
        coordIndex [
            0,1,2,-1,2,1,3,-1,2,3,4,-1,4,3,5,-1,4,5,6,-1,6,5,7,-1,8,9,10,-1,10,9,11,-1,10,11,12,-1,13,14,10,-1,10,14,15,-1,10,15,16,-1,12,17,10,-1,10,17,18,-1,10,18,19,-1,19,20,10,-1,10,20,21,-1,10,21,13,-1,22,23,15,-1,15,23,24,-1,15,24,16,-1,
        ]
    }
}
Shape{
    appearance Appearance {
        material  Material {
            diffuseColor 0.8549019607843137 0.8549019607843137 0.8549019607843137
            specularColor 0.42745098039215684 0.42745098039215684 0.42745098039215684
            ambientIntensity 0.8549
            transparency 0.0
            shininess 0.5
        }
    }
    geometry IndexedFaceSet {
        ccw TRUE
        solid FALSE
        coord DEF co Coordinate {
            point [
                1.122 0.5906 0.0886, 1.122 0.5906 0.0, 1.122 -0.5905 0.0886, 1.122 -0.5905 0.0, 2.0079 0.5906 0.0, 2.0079 0.5906 0.0886, 2.0079 -0.5905 0.0, 2.0079 -0.5905 0.0886, 2.0775 0.5906 0.857, 2.0931 0.5906 0.8366, 2.0079 0.5906 0.7874, 2.1029 0.5906 0.8129, 2.1063 0.5906 0.7874, 2.0079 0.5906 0.8858, 2.0333 0.5906 0.8825, 2.0571 0.5906 0.8726, 2.0917 0.1084 0.8389, 2.0929 0.1072 0.8365, 2.0669 -0.1164 0.8661, 2.0669 0.1165 0.8661, 2.0571 -0.5905 0.8726, 2.0775 -0.1145 0.857, 2.0775 -0.5905 0.857, 2.0852 -0.112 0.8483, 2.0931 -0.5905 0.8366, 2.0915 -0.1083 0.8389, 2.1029 -0.5905 0.8129, 2.099 -0.101 0.8246, 2.0931 -0.1074 0.8366, 2.1063 -0.5905 0.7874, 2.1063 -0.0653 0.7874, 2.106 -0.0708 0.7918, 2.1053 -0.0827 0.8015, 2.103 -0.0928 0.8128, 2.1029 -0.0929 0.8129, 2.1063 0.0653 0.7874, 2.1062 0.0711 0.7915, 2.1053 0.0826 0.8014, 2.099 0.101 0.8246, 2.1029 0.0929 0.8129, 2.1029 0.0928 0.8128, 2.0775 0.1145 0.857, 2.0852 0.112 0.8482, 2.0333 -0.5905 0.8825, 2.0079 -0.5905 0.8858, 2.0079 -0.5905 0.7874, 2.0079 0.5906 0.0984, 2.1063 0.5906 0.0984, 2.1063 -0.5905 0.0984, 2.1063 0.0152 0.7687, 2.1063 0.0446 0.7765, 2.1063 -0.0446 0.7765, 2.1063 -0.0152 0.7687, 2.0079 -0.5905 0.0984, 2.0333 0.5906 0.0034, 2.1029 0.5906 0.073, 2.0931 0.5906 0.0492, 2.0775 0.5906 0.0288, 2.0571 0.5906 0.0132, 2.0333 -0.5905 0.0034, 2.0571 -0.5905 0.0132, 2.0775 -0.5905 0.0288, 2.0931 -0.5905 0.0492, 2.1029 -0.5905 0.073, 2.0669 -0.071 0.7915, 2.0669 -0.0928 0.8128, 2.0669 -0.1084 0.8389, 2.0669 0.1084 0.8389, 2.0669 0.0928 0.8128, 2.0669 0.0711 0.7915, 2.0669 0.0446 0.7765, 2.0669 -0.0446 0.7765, 2.0669 -0.0152 0.7687, 2.0669 0.0152 0.7687, -1.1221 -0.5905 0.0, -1.1221 0.5906 0.0, -1.1221 -0.5905 0.0886, -1.1221 0.5906 0.0886, -2.1063 0.5906 0.7874, -2.103 0.5906 0.8129, -2.0079 0.5906 0.7874, -2.0931 0.5906 0.8366, -2.0775 0.5906 0.857, -2.0571 0.5906 0.8726, -2.0334 0.5906 0.8825, -2.0079 0.5906 0.8858, -2.0775 -0.5905 0.857, -2.0931 -0.5905 0.8366, -2.0079 -0.5905 0.7874, -2.103 -0.5905 0.8129, -2.1063 -0.5905 0.7874, -2.0079 -0.5905 0.8858, -2.0334 -0.5905 0.8825, -2.0571 -0.5905 0.8726, -2.1063 0.5906 0.0984, -2.1063 -0.5905 0.0984, -2.1063 -0.0152 0.7687, -2.1063 -0.0653 0.7874, -2.1063 -0.0446 0.7765, -2.1063 0.0653 0.7874, -2.1063 0.0446 0.7765, -2.1063 0.0152 0.7687, -2.0079 0.5906 0.0984, -2.0079 -0.5905 0.0984, -2.0079 0.5906 0.0, -2.0079 -0.5905 0.0, -2.0334 -0.5905 0.0034, -2.0334 0.5906 0.0034, -2.0571 -0.5905 0.0132, -2.0571 0.5906 0.0132, -2.0775 -0.5905 0.0288, -2.0775 0.5906 0.0288, -2.0931 -0.5905 0.0492, -2.0931 0.5906 0.0492, -2.103 -0.5905 0.073, -2.103 0.5906 0.073, -2.0079 0.5906 0.0886, -2.0079 -0.5905 0.0886, -2.0775 -0.1145 0.857, -2.0669 -0.1164 0.8661, -2.0669 -0.1084 0.8389, -2.103 0.0928 0.8128, -2.1053 0.0826 0.8014, -2.0669 0.0928 0.8128, -2.0669 0.0711 0.7915, -2.0669 0.1084 0.8389, -2.0918 0.1084 0.8389, -2.093 0.1072 0.8365, -2.099 0.101 0.8246, -2.103 0.0929 0.8129, -2.0669 0.1165 0.8661, -2.0775 0.1145 0.857, -2.0853 0.112 0.8482, -2.0852 -0.112 0.8483, -2.099 -0.101 0.8246, -2.0931 -0.1074 0.8366, -2.0916 -0.1083 0.8389, -2.0669 -0.071 0.7915, -2.1053 -0.0827 0.8015, -2.0669 -0.0928 0.8128, -2.103 -0.0928 0.8128, -2.103 -0.0929 0.8129, -2.0669 -0.0446 0.7765, -2.106 -0.0708 0.7918, -2.1062 0.0711 0.7915, -2.0669 0.0446 0.7765, -2.0669 0.0152 0.7687, -2.0669 -0.0152 0.7687
            ]
        }
        coordIndex [
            0,1,2,-1,2,1,3,-1,4,1,5,-1,5,1,0,-1,3,6,2,-1,2,6,7,-1,8,9,10,-1,10,9,11,-1,10,11,12,-1,13,14,10,-1,10,14,15,-1,10,15,8,-1,16,17,9,-1,18,19,15,-1,18,20,21,-1,21,20,22,-1,21,22,23,-1,23,22,24,-1,23,24,25,-1,26,27,24,-1,24,27,28,-1,24,28,25,-1,29,30,31,-1,31,32,29,-1,29,32,33,-1,29,33,26,-1,26,33,34,-1,26,34,27,-1,35,12,36,-1,36,12,37,-1,9,17,11,-1,17,38,11,-1,11,38,39,-1,11,39,12,-1,12,39,40,-1,12,40,37,-1,15,19,8,-1,8,19,41,-1,8,41,9,-1,9,41,42,-1,9,42,16,-1,18,15,20,-1,20,15,14,-1,20,14,43,-1,43,14,13,-1,43,13,44,-1,29,26,45,-1,45,26,24,-1,45,24,22,-1,22,20,45,-1,45,20,43,-1,45,43,44,-1,46,10,47,-1,47,10,12,-1,48,47,49,-1,12,35,47,-1,47,35,50,-1,47,50,49,-1,30,29,51,-1,51,29,48,-1,51,48,52,-1,52,48,49,-1,29,45,48,-1,48,45,53,-1,54,4,5,-1,46,47,5,-1,5,47,55,-1,5,55,56,-1,56,57,5,-1,5,57,58,-1,5,58,54,-1,6,4,54,-1,6,54,59,-1,59,54,58,-1,59,58,60,-1,60,58,57,-1,60,57,61,-1,61,57,56,-1,61,56,62,-1,62,56,55,-1,62,55,63,-1,63,55,47,-1,63,47,48,-1,63,48,7,-1,7,48,53,-1,60,7,59,-1,59,7,6,-1,60,61,7,-1,7,61,62,-1,7,62,63,-1,1,4,3,-1,3,4,6,-1,32,64,65,-1,27,34,65,-1,65,34,33,-1,65,33,32,-1,66,18,21,-1,21,23,66,-1,66,23,25,-1,66,25,65,-1,65,25,28,-1,65,28,27,-1,19,67,41,-1,41,67,42,-1,39,38,68,-1,68,38,17,-1,68,17,67,-1,67,17,16,-1,67,16,42,-1,69,37,68,-1,68,37,40,-1,68,40,39,-1,70,35,69,-1,69,35,36,-1,69,36,37,-1,32,31,64,-1,64,31,30,-1,64,30,71,-1,71,30,51,-1,71,51,72,-1,72,51,52,-1,72,52,73,-1,73,52,49,-1,73,49,70,-1,70,49,50,-1,70,50,35,-1,19,18,66,-1,19,66,67,-1,67,66,65,-1,67,65,64,-1,71,72,64,-1,64,72,73,-1,64,73,70,-1,70,69,64,-1,64,69,68,-1,64,68,67,-1,74,75,76,-1,76,75,77,-1,78,79,80,-1,80,79,81,-1,80,81,82,-1,82,83,80,-1,80,83,84,-1,80,84,85,-1,86,87,88,-1,88,87,89,-1,88,89,90,-1,91,92,88,-1,88,92,93,-1,88,93,86,-1,94,95,96,-1,90,97,95,-1,95,97,98,-1,95,98,96,-1,99,78,100,-1,100,78,94,-1,100,94,101,-1,101,94,96,-1,94,78,102,-1,102,78,80,-1,88,90,103,-1,103,90,95,-1,104,105,106,-1,104,106,107,-1,107,106,108,-1,107,108,109,-1,109,108,110,-1,109,110,111,-1,111,110,112,-1,111,112,113,-1,113,112,114,-1,113,114,115,-1,115,114,95,-1,115,95,94,-1,115,94,116,-1,116,94,102,-1,109,116,107,-1,107,116,104,-1,109,111,116,-1,116,111,113,-1,116,113,115,-1,106,105,117,-1,103,95,117,-1,117,95,114,-1,117,114,112,-1,112,110,117,-1,117,110,108,-1,117,108,106,-1,74,105,75,-1,75,105,104,-1,77,75,116,-1,116,75,104,-1,117,105,76,-1,76,105,74,-1,118,119,120,-1,121,122,123,-1,123,122,124,-1,125,126,123,-1,123,126,127,-1,127,128,123,-1,123,128,129,-1,123,129,121,-1,130,131,125,-1,125,131,132,-1,125,132,126,-1,118,120,133,-1,134,135,120,-1,120,135,136,-1,120,136,133,-1,137,138,139,-1,139,138,140,-1,139,140,120,-1,120,140,141,-1,120,141,134,-1,142,97,137,-1,137,97,143,-1,137,143,138,-1,122,144,124,-1,124,144,99,-1,124,99,145,-1,145,99,100,-1,145,100,146,-1,146,100,101,-1,146,101,147,-1,147,101,96,-1,147,96,142,-1,142,96,98,-1,142,98,97,-1,119,130,125,-1,123,124,145,-1,147,142,125,-1,125,142,137,-1,137,139,125,-1,125,139,120,-1,125,120,119,-1,123,145,125,-1,125,145,146,-1,125,146,147,-1,
        ]
    }
}
Shape{
    appearance Appearance {
        material  Material {
            diffuseColor 0.2235294117647059 0.2235294117647059 0.2235294117647059
            specularColor 0.11372549019607843 0.11372549019607843 0.11372549019607843
            ambientIntensity 0.2235
            transparency 0.0
            shininess 0.5
        }
    }
    geometry IndexedFaceSet {
        ccw TRUE
        solid FALSE
        coord DEF co Coordinate {
            point [
                0.3828 -0.2287 1.6201, 0.2758 -0.2287 1.6201, 0.3828 -0.2287 1.624, 0.2758 -0.2287 1.624, 0.2758 0.165 1.6201, 0.2758 0.165 1.624, 0.3869 0.165 1.6201, 0.3869 0.165 1.624, 0.5927 -0.0269 1.6201, 0.5927 -0.0269 1.624, 0.5898 0.0101 1.624, 0.5898 0.0101 1.6201, 0.5792 0.0489 1.624, 0.5792 0.0489 1.6201, 0.5609 0.0828 1.624, 0.5609 0.0828 1.6201, 0.5331 0.1137 1.624, 0.5331 0.1137 1.6201, 0.5327 0.114 1.624, 0.5327 0.114 1.6201, 0.4898 0.1427 1.624, 0.4898 0.1427 1.6201, 0.4438 0.1589 1.624, 0.4438 0.1589 1.6201, 0.4315 -0.2244 1.624, 0.4315 -0.2244 1.6201, 0.4769 -0.2109 1.624, 0.4769 -0.2109 1.6201, 0.518 -0.187 1.624, 0.518 -0.187 1.6201, 0.5504 -0.156 1.624, 0.5504 -0.156 1.6201, 0.573 -0.1208 1.624, 0.573 -0.1208 1.6201, 0.5871 -0.0796 1.624, 0.5871 -0.0796 1.6201, 0.5136 0.0666 1.6201, 0.4945 0.0869 1.6201, 0.4658 0.1055 1.6201, 0.4333 0.1168 1.6201, 0.3867 0.1218 1.6201, 0.3286 0.1218 1.6201, 0.3286 -0.1855 1.6201, 0.3845 -0.1855 1.6201, 0.426 -0.1816 1.6201, 0.4591 -0.1713 1.6201, 0.486 -0.1553 1.6201, 0.5081 -0.1335 1.6201, 0.5247 -0.1064 1.6201, 0.5362 -0.0694 1.6201, 0.5398 -0.028 1.6201, 0.5365 0.0112 1.6201, 0.5273 0.0423 1.6201, 0.3867 0.1218 1.624, 0.3286 0.1218 1.624, 0.4333 0.1168 1.624, 0.4658 0.1055 1.624, 0.4945 0.0869 1.624, 0.5136 0.0666 1.624, 0.5273 0.0423 1.624, 0.5365 0.0112 1.624, 0.5398 -0.028 1.624, 0.5362 -0.0694 1.624, 0.5247 -0.1064 1.624, 0.5081 -0.1335 1.624, 0.486 -0.1553 1.624, 0.4591 -0.1713 1.624, 0.426 -0.1816 1.624, 0.3845 -0.1855 1.624, 0.3286 -0.1855 1.624, 0.1702 -0.2287 1.6201, 0.1221 -0.2287 1.6201, 0.1702 -0.2287 1.624, 0.1221 -0.2287 1.624, 0.1221 0.0341 1.6201, 0.1221 0.0341 1.624, 0.126 0.1122 1.6201, 0.126 0.1122 1.624, 0.1233 0.0732 1.624, 0.1233 0.0732 1.6201, 0.1247 0.1122 1.6201, 0.1247 0.1122 1.624, 0.113 0.0722 1.6201, 0.113 0.0722 1.624, 0.1196 0.092 1.624, 0.1196 0.092 1.6201, -0.0171 -0.2287 1.6201, -0.0171 -0.2287 1.624, -0.0459 -0.2287 1.6201, -0.0459 -0.2287 1.624, -0.1736 0.0699 1.6201, -0.1736 0.0699 1.624, -0.1851 0.1122 1.6201, -0.1851 0.1122 1.624, -0.1802 0.0908 1.624, -0.1802 0.0908 1.6201, -0.1866 0.1122 1.6201, -0.1866 0.1122 1.624, -0.1851 0.0318 1.6201, -0.1851 0.0318 1.624, -0.1854 0.072 1.624, -0.1854 0.072 1.6201, -0.1851 -0.2287 1.6201, -0.1851 -0.2287 1.624, -0.2332 -0.2287 1.6201, -0.2332 -0.2287 1.624, -0.2332 0.165 1.6201, -0.2332 0.165 1.624, -0.1659 0.165 1.6201, -0.1659 0.165 1.624, -0.0494 -0.1038 1.6201, -0.0494 -0.1038 1.624, -0.0319 -0.1519 1.6201, -0.0319 -0.1519 1.624, -0.0398 -0.1275 1.624, -0.0398 -0.1275 1.6201, -0.0301 -0.1519 1.6201, -0.0301 -0.1519 1.624, -0.0114 -0.1027 1.6201, -0.0114 -0.1027 1.624, -0.0209 -0.1272 1.624, -0.0209 -0.1272 1.6201, 0.1077 0.165 1.6201, 0.1077 0.165 1.624, 0.1702 0.165 1.6201, 0.1702 0.165 1.624, -0.55 -0.2131 1.6201, -0.55 -0.1555 1.6201, -0.55 -0.2131 1.624, -0.55 -0.1555 1.624, -0.4451 -0.1903 1.6201, -0.4451 -0.1903 1.624, -0.4746 -0.1875 1.624, -0.4746 -0.1875 1.6201, -0.5213 -0.1732 1.624, -0.5213 -0.1732 1.6201, -0.3628 -0.1316 1.6201, -0.3628 -0.1316 1.624, -0.3644 -0.1471 1.624, -0.3644 -0.1471 1.6201, -0.369 -0.1594 1.624, -0.369 -0.1594 1.6201, -0.3742 -0.1672 1.624, -0.3742 -0.1672 1.6201, -0.3824 -0.1749 1.624, -0.3824 -0.1749 1.6201, -0.3965 -0.1827 1.624, -0.3965 -0.1827 1.6201, -0.4165 -0.1881 1.624, -0.4165 -0.1881 1.6201, -0.4538 -0.0475 1.6201, -0.4538 -0.0475 1.624, -0.4003 -0.0759 1.624, -0.4003 -0.0759 1.6201, -0.3948 -0.0794 1.624, -0.3948 -0.0794 1.6201, -0.3786 -0.0932 1.624, -0.3786 -0.0932 1.6201, -0.369 -0.1064 1.624, -0.369 -0.1064 1.6201, -0.3645 -0.1176 1.624, -0.3645 -0.1176 1.6201, -0.55 0.0642 1.6201, -0.55 0.0642 1.624, -0.548 0.0438 1.624, -0.548 0.0438 1.6201, -0.5412 0.0231 1.624, -0.5412 0.0231 1.6201, -0.53 0.005 1.624, -0.53 0.005 1.6201, -0.5084 -0.015 1.624, -0.5084 -0.015 1.6201, -0.4108 0.1698 1.6201, -0.4108 0.1698 1.624, -0.4543 0.1656 1.624, -0.4543 0.1656 1.6201, -0.4874 0.1547 1.624, -0.4874 0.1547 1.6201, -0.5095 0.142 1.624, -0.5095 0.142 1.6201, -0.5264 0.1273 1.624, -0.5264 0.1273 1.6201, -0.5388 0.1102 1.624, -0.5388 0.1102 1.6201, -0.5465 0.0914 1.624, -0.5465 0.0914 1.6201, -0.3244 0.159 1.6201, -0.3244 0.159 1.624, -0.3671 0.1679 1.624, -0.3671 0.1679 1.6201, -0.3244 0.1014 1.6201, -0.3244 0.1014 1.624, -0.415 0.1266 1.6201, -0.415 0.1266 1.624, -0.3878 0.1249 1.624, -0.3878 0.1249 1.6201, -0.3541 0.1168 1.624, -0.3541 0.1168 1.6201, -0.4972 0.0693 1.6201, -0.4972 0.0693 1.624, -0.496 0.0813 1.624, -0.496 0.0813 1.6201, -0.4925 0.0914 1.624, -0.4925 0.0914 1.6201, -0.4868 0.1003 1.624, -0.4868 0.1003 1.6201, -0.4778 0.109 1.624, -0.4778 0.109 1.6201, -0.4635 0.1174 1.624, -0.4635 0.1174 1.6201, -0.4426 0.1241 1.624, -0.4426 0.1241 1.6201, -0.4136 -0.0105 1.6201, -0.4136 -0.0105 1.624, -0.4502 0.0088 1.624, -0.4502 0.0088 1.6201, -0.4726 0.0231 1.624, -0.4726 0.0231 1.6201, -0.4847 0.0337 1.624, -0.4847 0.0337 1.6201, -0.4913 0.0435 1.624, -0.4913 0.0435 1.6201, -0.4955 0.0543 1.624, -0.4955 0.0543 1.6201, -0.31 -0.1272 1.6201, -0.31 -0.1272 1.624, -0.312 -0.1073 1.624, -0.312 -0.1073 1.6201, -0.3189 -0.0872 1.624, -0.3189 -0.0872 1.6201, -0.3315 -0.0673 1.624, -0.3315 -0.0673 1.6201, -0.3575 -0.043 1.624, -0.3575 -0.043 1.6201, -0.4509 -0.2335 1.6201, -0.4509 -0.2335 1.624, -0.4102 -0.2305 1.624, -0.4102 -0.2305 1.6201, -0.3718 -0.2198 1.624, -0.3718 -0.2198 1.6201, -0.3496 -0.2076 1.624, -0.3496 -0.2076 1.6201, -0.3331 -0.1933 1.624, -0.3331 -0.1933 1.6201, -0.3204 -0.1748 1.624, -0.3204 -0.1748 1.6201, -0.3131 -0.1549 1.624, -0.3131 -0.1549 1.6201, -0.5374 -0.2191 1.624, -0.5374 -0.2191 1.6201, -0.5016 -0.2283 1.624, -0.5016 -0.2283 1.6201
            ]
        }
        coordIndex [
            0,1,2,-1,2,1,3,-1,1,4,3,-1,3,4,5,-1,4,6,5,-1,5,6,7,-1,8,9,10,-1,8,10,11,-1,11,10,12,-1,11,12,13,-1,13,12,14,-1,13,14,15,-1,15,14,16,-1,15,16,17,-1,17,16,18,-1,17,18,19,-1,19,18,20,-1,19,20,21,-1,21,20,22,-1,21,22,23,-1,23,22,7,-1,23,7,6,-1,0,2,24,-1,0,24,25,-1,25,24,26,-1,25,26,27,-1,27,26,28,-1,27,28,29,-1,29,28,30,-1,29,30,31,-1,31,30,32,-1,31,32,33,-1,33,32,34,-1,33,34,35,-1,35,34,9,-1,35,9,8,-1,13,15,36,-1,36,15,17,-1,36,17,37,-1,37,17,19,-1,37,19,38,-1,38,19,21,-1,38,21,39,-1,39,21,23,-1,39,23,40,-1,40,23,6,-1,40,6,41,-1,41,6,4,-1,41,4,42,-1,42,4,1,-1,42,1,43,-1,43,1,0,-1,43,0,44,-1,44,0,25,-1,44,25,45,-1,45,25,27,-1,45,27,46,-1,46,27,29,-1,46,29,47,-1,47,29,31,-1,47,31,48,-1,48,31,33,-1,48,33,49,-1,49,33,35,-1,49,35,50,-1,50,35,8,-1,50,8,51,-1,51,8,11,-1,51,11,52,-1,52,11,13,-1,52,13,36,-1,40,41,53,-1,53,41,54,-1,40,53,55,-1,40,55,39,-1,39,55,56,-1,39,56,38,-1,38,56,57,-1,38,57,37,-1,37,57,58,-1,37,58,36,-1,36,58,59,-1,36,59,52,-1,52,59,60,-1,52,60,51,-1,51,60,61,-1,51,61,50,-1,50,61,62,-1,50,62,49,-1,49,62,63,-1,49,63,48,-1,48,63,64,-1,48,64,47,-1,47,64,65,-1,47,65,46,-1,46,65,66,-1,46,66,45,-1,45,66,67,-1,45,67,44,-1,44,67,68,-1,44,68,43,-1,42,43,69,-1,69,43,68,-1,41,42,54,-1,54,42,69,-1,70,71,72,-1,72,71,73,-1,71,74,73,-1,73,74,75,-1,76,77,78,-1,76,78,79,-1,79,78,75,-1,79,75,74,-1,76,80,77,-1,77,80,81,-1,82,83,84,-1,82,84,85,-1,85,84,81,-1,85,81,80,-1,82,86,83,-1,83,86,87,-1,86,88,87,-1,87,88,89,-1,88,90,89,-1,89,90,91,-1,92,93,94,-1,92,94,95,-1,95,94,91,-1,95,91,90,-1,92,96,93,-1,93,96,97,-1,98,99,100,-1,98,100,101,-1,101,100,97,-1,101,97,96,-1,98,102,99,-1,99,102,103,-1,102,104,103,-1,103,104,105,-1,104,106,105,-1,105,106,107,-1,106,108,107,-1,107,108,109,-1,108,110,109,-1,109,110,111,-1,112,113,114,-1,112,114,115,-1,115,114,111,-1,115,111,110,-1,112,116,113,-1,113,116,117,-1,118,119,120,-1,118,120,121,-1,121,120,117,-1,121,117,116,-1,118,122,119,-1,119,122,123,-1,122,124,123,-1,123,124,125,-1,124,70,125,-1,125,70,72,-1,71,70,74,-1,74,70,124,-1,74,124,79,-1,79,124,76,-1,104,102,106,-1,106,102,98,-1,98,101,106,-1,106,101,96,-1,106,96,108,-1,108,96,92,-1,112,88,116,-1,116,88,86,-1,116,86,121,-1,121,86,118,-1,76,124,80,-1,80,124,122,-1,80,122,85,-1,112,115,88,-1,88,115,110,-1,88,110,90,-1,90,110,108,-1,90,108,95,-1,95,108,92,-1,118,86,122,-1,122,86,82,-1,122,82,85,-1,126,127,128,-1,128,127,129,-1,130,131,132,-1,130,132,133,-1,133,132,134,-1,133,134,135,-1,135,134,129,-1,135,129,127,-1,136,137,138,-1,136,138,139,-1,139,138,140,-1,139,140,141,-1,141,140,142,-1,141,142,143,-1,143,142,144,-1,143,144,145,-1,145,144,146,-1,145,146,147,-1,147,146,148,-1,147,148,149,-1,149,148,131,-1,149,131,130,-1,150,151,152,-1,150,152,153,-1,153,152,154,-1,153,154,155,-1,155,154,156,-1,155,156,157,-1,157,156,158,-1,157,158,159,-1,159,158,160,-1,159,160,161,-1,161,160,137,-1,161,137,136,-1,162,163,164,-1,162,164,165,-1,165,164,166,-1,165,166,167,-1,167,166,168,-1,167,168,169,-1,169,168,170,-1,169,170,171,-1,171,170,151,-1,171,151,150,-1,172,173,174,-1,172,174,175,-1,175,174,176,-1,175,176,177,-1,177,176,178,-1,177,178,179,-1,179,178,180,-1,179,180,181,-1,181,180,182,-1,181,182,183,-1,183,182,184,-1,183,184,185,-1,185,184,163,-1,185,163,162,-1,186,187,188,-1,186,188,189,-1,189,188,173,-1,189,173,172,-1,186,190,187,-1,187,190,191,-1,192,193,194,-1,192,194,195,-1,195,194,196,-1,195,196,197,-1,197,196,191,-1,197,191,190,-1,198,199,200,-1,198,200,201,-1,201,200,202,-1,201,202,203,-1,203,202,204,-1,203,204,205,-1,205,204,206,-1,205,206,207,-1,207,206,208,-1,207,208,209,-1,209,208,210,-1,209,210,211,-1,211,210,193,-1,211,193,192,-1,212,213,214,-1,212,214,215,-1,215,214,216,-1,215,216,217,-1,217,216,218,-1,217,218,219,-1,219,218,220,-1,219,220,221,-1,221,220,222,-1,221,222,223,-1,223,222,199,-1,223,199,198,-1,224,225,226,-1,224,226,227,-1,227,226,228,-1,227,228,229,-1,229,228,230,-1,229,230,231,-1,231,230,232,-1,231,232,233,-1,233,232,213,-1,233,213,212,-1,234,235,236,-1,234,236,237,-1,237,236,238,-1,237,238,239,-1,239,238,240,-1,239,240,241,-1,241,240,242,-1,241,242,243,-1,243,242,244,-1,243,244,245,-1,245,244,246,-1,245,246,247,-1,247,246,225,-1,247,225,224,-1,126,128,248,-1,126,248,249,-1,249,248,250,-1,249,250,251,-1,251,250,235,-1,251,235,234,-1,127,126,135,-1,135,126,249,-1,135,249,133,-1,133,249,251,-1,133,251,130,-1,130,251,234,-1,130,234,149,-1,149,234,237,-1,149,237,147,-1,147,237,239,-1,147,239,145,-1,145,239,241,-1,145,241,143,-1,143,241,243,-1,143,243,141,-1,141,243,245,-1,141,245,139,-1,139,245,247,-1,139,247,136,-1,136,247,224,-1,136,224,161,-1,161,224,227,-1,161,227,159,-1,159,227,229,-1,159,229,157,-1,157,229,231,-1,157,231,155,-1,155,231,233,-1,155,233,153,-1,153,233,212,-1,153,212,150,-1,150,212,215,-1,150,215,171,-1,171,215,217,-1,171,217,169,-1,169,217,219,-1,169,219,167,-1,167,219,221,-1,167,221,165,-1,165,221,223,-1,165,223,162,-1,162,223,198,-1,162,198,185,-1,185,198,201,-1,185,201,183,-1,183,201,203,-1,183,203,181,-1,181,203,205,-1,181,205,179,-1,179,205,207,-1,179,207,177,-1,177,207,209,-1,177,209,175,-1,175,209,211,-1,175,211,172,-1,172,211,192,-1,172,192,189,-1,189,192,195,-1,189,195,186,-1,186,195,197,-1,186,197,190,-1,
        ]
    }
}
Shape{
    appearance Appearance {
        material  Material {
            diffuseColor 0.6470588235294118 0.6470588235294118 0.6470588235294118
            specularColor 0.3215686274509804 0.3215686274509804 0.3215686274509804
            ambientIntensity 0.6471
            transparency 0.0
            shininess 0.5
        }
    }
    geometry IndexedFaceSet {
        ccw TRUE
        solid FALSE
        coord DEF co Coordinate {
            point [
                0.3286 0.1218 1.624, 0.3286 -0.1855 1.624, 0.3867 0.1218 1.624, 0.3845 -0.1855 1.624, 0.426 -0.1816 1.624, 0.5398 -0.028 1.624, 0.5365 0.0112 1.624, 0.5273 0.0423 1.624, 0.4333 0.1168 1.624, 0.4591 -0.1713 1.624, 0.486 -0.1553 1.624, 0.5081 -0.1335 1.624, 0.5247 -0.1064 1.624, 0.5362 -0.0694 1.624, 0.5136 0.0666 1.624, 0.4945 0.0869 1.624, 0.4658 0.1055 1.624
            ]
        }
        coordIndex [
            0,1,2,-1,2,1,3,-1,2,3,4,-1,5,6,2,-1,2,6,7,-1,2,7,8,-1,4,9,2,-1,2,9,10,-1,2,10,11,-1,11,12,2,-1,2,12,13,-1,2,13,5,-1,14,15,7,-1,7,15,16,-1,7,16,8,-1,
        ]
    }
}